<?xml version="1.0" encoding="UTF-8"?>
<!DOCTYPE svg PUBLIC "-//W3C//DTD SVG 1.1//EN" "http://www.w3.org/Graphics/SVG/1.1/DTD/svg11.dtd">
<svg xmlns="http://www.w3.org/2000/svg" version="1.1" width="1440px" height="1440px" style="shape-rendering:geometricPrecision; text-rendering:geometricPrecision; image-rendering:optimizeQuality; fill-rule:evenodd; clip-rule:evenodd" xmlns:xlink="http://www.w3.org/1999/xlink">
<g><path style="opacity:1" fill="#821b14" d="M 1049.5,689.5 C 1049.5,679.5 1049.5,669.5 1049.5,659.5C 1039.5,659.5 1029.5,659.5 1019.5,659.5C 1019.5,649.5 1019.5,639.5 1019.5,629.5C 1039.5,629.5 1059.5,629.5 1079.5,629.5C 1079.5,649.5 1079.5,669.5 1079.5,689.5C 1069.5,689.5 1059.5,689.5 1049.5,689.5 Z"/></g>
<g><path style="opacity:1" fill="#821b14" d="M 1019.5,659.5 C 1019.5,669.5 1019.5,679.5 1019.5,689.5C 1009.5,689.5 999.5,689.5 989.5,689.5C 989.5,679.5 989.5,669.5 989.5,659.5C 999.5,659.5 1009.5,659.5 1019.5,659.5 Z"/></g>
<g><path style="opacity:1" fill="#a2342d" d="M 1019.5,659.5 C 1029.5,659.5 1039.5,659.5 1049.5,659.5C 1049.5,669.5 1049.5,679.5 1049.5,689.5C 1039.5,689.5 1029.5,689.5 1019.5,689.5C 1019.5,679.5 1019.5,669.5 1019.5,659.5 Z"/></g>
<g><path style="opacity:1" fill="#821b14" d="M 989.5,689.5 C 989.5,699.5 989.5,709.5 989.5,719.5C 979.5,719.5 969.5,719.5 959.5,719.5C 959.5,709.5 959.5,699.5 959.5,689.5C 969.5,689.5 979.5,689.5 989.5,689.5 Z"/></g>
<g><path style="opacity:1" fill="#d32c20" d="M 989.5,689.5 C 999.5,689.5 1009.5,689.5 1019.5,689.5C 1019.5,699.5 1019.5,709.5 1019.5,719.5C 1009.5,719.5 999.5,719.5 989.5,719.5C 989.5,709.5 989.5,699.5 989.5,689.5 Z"/></g>
<g><path style="opacity:1" fill="#821b14" d="M 1019.5,689.5 C 1029.5,689.5 1039.5,689.5 1049.5,689.5C 1049.5,699.5 1049.5,709.5 1049.5,719.5C 1039.5,719.5 1029.5,719.5 1019.5,719.5C 1019.5,709.5 1019.5,699.5 1019.5,689.5 Z"/></g>
<g><path style="opacity:1" fill="#a2342d" d="M 959.5,719.5 C 959.5,729.5 959.5,739.5 959.5,749.5C 949.5,749.5 939.5,749.5 929.5,749.5C 929.5,739.5 929.5,729.5 929.5,719.5C 939.5,719.5 949.5,719.5 959.5,719.5 Z"/></g>
<g><path style="opacity:1" fill="#d32c20" d="M 959.5,719.5 C 969.5,719.5 979.5,719.5 989.5,719.5C 989.5,729.5 989.5,739.5 989.5,749.5C 979.5,749.5 969.5,749.5 959.5,749.5C 959.5,739.5 959.5,729.5 959.5,719.5 Z"/></g>
<g><path style="opacity:1" fill="#821b14" d="M 989.5,719.5 C 999.5,719.5 1009.5,719.5 1019.5,719.5C 1019.5,729.5 1019.5,739.5 1019.5,749.5C 1009.5,749.5 999.5,749.5 989.5,749.5C 989.5,739.5 989.5,729.5 989.5,719.5 Z"/></g>
<g><path style="opacity:1" fill="#a2342d" d="M 929.5,749.5 C 929.5,759.5 929.5,769.5 929.5,779.5C 909.5,779.5 889.5,779.5 869.5,779.5C 869.5,769.5 869.5,759.5 869.5,749.5C 889.5,749.5 909.5,749.5 929.5,749.5 Z"/></g>
<g><path style="opacity:1" fill="#d32c20" d="M 929.5,749.5 C 939.5,749.5 949.5,749.5 959.5,749.5C 959.5,759.5 959.5,769.5 959.5,779.5C 949.5,779.5 939.5,779.5 929.5,779.5C 929.5,769.5 929.5,759.5 929.5,749.5 Z"/></g>
<g><path style="opacity:1" fill="#a2342d" d="M 959.5,749.5 C 969.5,749.5 979.5,749.5 989.5,749.5C 989.5,759.5 989.5,769.5 989.5,779.5C 979.5,779.5 969.5,779.5 959.5,779.5C 959.5,769.5 959.5,759.5 959.5,749.5 Z"/></g>
<g><path style="opacity:1" fill="#821b14" d="M 389.5,779.5 C 389.5,789.5 389.5,799.5 389.5,809.5C 409.5,809.5 429.5,809.5 449.5,809.5C 449.5,819.5 449.5,829.5 449.5,839.5C 439.5,839.5 429.5,839.5 419.5,839.5C 419.5,849.5 419.5,859.5 419.5,869.5C 419.5,879.5 419.5,889.5 419.5,899.5C 409.5,899.5 399.5,899.5 389.5,899.5C 389.5,879.5 389.5,859.5 389.5,839.5C 379.5,839.5 369.5,839.5 359.5,839.5C 359.5,819.5 359.5,799.5 359.5,779.5C 369.5,779.5 379.5,779.5 389.5,779.5 Z"/></g>
<g><path style="opacity:1" fill="#db7524" d="M 389.5,779.5 C 419.5,779.5 449.5,779.5 479.5,779.5C 479.5,799.5 479.5,819.5 479.5,839.5C 489.5,839.5 499.5,839.5 509.5,839.5C 509.5,849.5 509.5,859.5 509.5,869.5C 489.5,869.5 469.5,869.5 449.5,869.5C 449.5,859.5 449.5,849.5 449.5,839.5C 449.5,829.5 449.5,819.5 449.5,809.5C 429.5,809.5 409.5,809.5 389.5,809.5C 389.5,799.5 389.5,789.5 389.5,779.5 Z"/></g>
<g><path style="opacity:1" fill="#febb00" d="M 479.5,779.5 C 519.5,779.5 559.5,779.5 599.5,779.5C 599.5,789.5 599.5,799.5 599.5,809.5C 589.5,809.5 579.5,809.5 569.5,809.5C 569.5,829.5 569.5,849.5 569.5,869.5C 549.5,869.5 529.5,869.5 509.5,869.5C 509.5,859.5 509.5,849.5 509.5,839.5C 499.5,839.5 489.5,839.5 479.5,839.5C 479.5,819.5 479.5,799.5 479.5,779.5 Z"/></g>
<g><path style="opacity:1" fill="#db7524" d="M 599.5,779.5 C 609.5,779.5 619.5,779.5 629.5,779.5C 629.5,789.5 629.5,799.5 629.5,809.5C 629.5,819.5 629.5,829.5 629.5,839.5C 619.5,839.5 609.5,839.5 599.5,839.5C 599.5,859.5 599.5,879.5 599.5,899.5C 589.5,899.5 579.5,899.5 569.5,899.5C 549.5,899.5 529.5,899.5 509.5,899.5C 509.5,889.5 509.5,879.5 509.5,869.5C 529.5,869.5 549.5,869.5 569.5,869.5C 569.5,849.5 569.5,829.5 569.5,809.5C 579.5,809.5 589.5,809.5 599.5,809.5C 599.5,799.5 599.5,789.5 599.5,779.5 Z"/></g>
<g><path style="opacity:1" fill="#febb00" d="M 629.5,779.5 C 689.5,779.5 749.5,779.5 809.5,779.5C 809.5,789.5 809.5,799.5 809.5,809.5C 789.5,809.5 769.5,809.5 749.5,809.5C 749.5,819.5 749.5,829.5 749.5,839.5C 719.5,839.5 689.5,839.5 659.5,839.5C 659.5,829.5 659.5,819.5 659.5,809.5C 649.5,809.5 639.5,809.5 629.5,809.5C 629.5,799.5 629.5,789.5 629.5,779.5 Z"/></g>
<g><path style="opacity:1" fill="#a2342d" d="M 809.5,779.5 C 829.5,779.5 849.5,779.5 869.5,779.5C 869.5,789.5 869.5,799.5 869.5,809.5C 849.5,809.5 829.5,809.5 809.5,809.5C 809.5,799.5 809.5,789.5 809.5,779.5 Z"/></g>
<g><path style="opacity:1" fill="#d32c20" d="M 869.5,779.5 C 889.5,779.5 909.5,779.5 929.5,779.5C 929.5,789.5 929.5,799.5 929.5,809.5C 919.5,809.5 909.5,809.5 899.5,809.5C 899.5,819.5 899.5,829.5 899.5,839.5C 879.5,839.5 859.5,839.5 839.5,839.5C 839.5,849.5 839.5,859.5 839.5,869.5C 819.5,869.5 799.5,869.5 779.5,869.5C 779.5,879.5 779.5,889.5 779.5,899.5C 759.5,899.5 739.5,899.5 719.5,899.5C 719.5,909.5 719.5,919.5 719.5,929.5C 709.5,929.5 699.5,929.5 689.5,929.5C 689.5,919.5 689.5,909.5 689.5,899.5C 679.5,899.5 669.5,899.5 659.5,899.5C 659.5,919.5 659.5,939.5 659.5,959.5C 659.5,979.5 659.5,999.5 659.5,1019.5C 649.5,1019.5 639.5,1019.5 629.5,1019.5C 629.5,1029.5 629.5,1039.5 629.5,1049.5C 579.5,1049.5 529.5,1049.5 479.5,1049.5C 479.5,1039.5 479.5,1029.5 479.5,1019.5C 469.5,1019.5 459.5,1019.5 449.5,1019.5C 449.5,979.5 449.5,939.5 449.5,899.5C 459.5,899.5 469.5,899.5 479.5,899.5C 479.5,909.5 479.5,919.5 479.5,929.5C 479.5,939.5 479.5,949.5 479.5,959.5C 489.5,959.5 499.5,959.5 509.5,959.5C 509.5,969.5 509.5,979.5 509.5,989.5C 519.5,989.5 529.5,989.5 539.5,989.5C 539.5,979.5 539.5,969.5 539.5,959.5C 549.5,959.5 559.5,959.5 569.5,959.5C 569.5,949.5 569.5,939.5 569.5,929.5C 569.5,919.5 569.5,909.5 569.5,899.5C 579.5,899.5 589.5,899.5 599.5,899.5C 609.5,899.5 619.5,899.5 629.5,899.5C 629.5,889.5 629.5,879.5 629.5,869.5C 669.5,869.5 709.5,869.5 749.5,869.5C 749.5,859.5 749.5,849.5 749.5,839.5C 769.5,839.5 789.5,839.5 809.5,839.5C 809.5,829.5 809.5,819.5 809.5,809.5C 829.5,809.5 849.5,809.5 869.5,809.5C 869.5,799.5 869.5,789.5 869.5,779.5 Z"/></g>
<g><path style="opacity:1" fill="#a2342d" d="M 929.5,779.5 C 939.5,779.5 949.5,779.5 959.5,779.5C 959.5,789.5 959.5,799.5 959.5,809.5C 949.5,809.5 939.5,809.5 929.5,809.5C 929.5,799.5 929.5,789.5 929.5,779.5 Z"/></g>
<g><path style="opacity:1" fill="#f09c2f" d="M 629.5,809.5 C 639.5,809.5 649.5,809.5 659.5,809.5C 659.5,819.5 659.5,829.5 659.5,839.5C 649.5,839.5 639.5,839.5 629.5,839.5C 629.5,829.5 629.5,819.5 629.5,809.5 Z"/></g>
<g><path style="opacity:1" fill="#a2342d" d="M 809.5,809.5 C 809.5,819.5 809.5,829.5 809.5,839.5C 789.5,839.5 769.5,839.5 749.5,839.5C 749.5,829.5 749.5,819.5 749.5,809.5C 769.5,809.5 789.5,809.5 809.5,809.5 Z"/></g>
<g><path style="opacity:1" fill="#a2342d" d="M 929.5,809.5 C 929.5,819.5 929.5,829.5 929.5,839.5C 919.5,839.5 909.5,839.5 899.5,839.5C 899.5,829.5 899.5,819.5 899.5,809.5C 909.5,809.5 919.5,809.5 929.5,809.5 Z"/></g>
<g><path style="opacity:1" fill="#a2342d" d="M 449.5,839.5 C 449.5,849.5 449.5,859.5 449.5,869.5C 439.5,869.5 429.5,869.5 419.5,869.5C 419.5,859.5 419.5,849.5 419.5,839.5C 429.5,839.5 439.5,839.5 449.5,839.5 Z"/></g>
<g><path style="opacity:1" fill="#a2342d" d="M 629.5,839.5 C 639.5,839.5 649.5,839.5 659.5,839.5C 689.5,839.5 719.5,839.5 749.5,839.5C 749.5,849.5 749.5,859.5 749.5,869.5C 709.5,869.5 669.5,869.5 629.5,869.5C 629.5,879.5 629.5,889.5 629.5,899.5C 619.5,899.5 609.5,899.5 599.5,899.5C 599.5,879.5 599.5,859.5 599.5,839.5C 609.5,839.5 619.5,839.5 629.5,839.5 Z"/></g>
<g><path style="opacity:1" fill="#a2342d" d="M 899.5,839.5 C 899.5,849.5 899.5,859.5 899.5,869.5C 879.5,869.5 859.5,869.5 839.5,869.5C 839.5,859.5 839.5,849.5 839.5,839.5C 859.5,839.5 879.5,839.5 899.5,839.5 Z"/></g>
<g><path style="opacity:1" fill="#d32c20" d="M 419.5,869.5 C 429.5,869.5 439.5,869.5 449.5,869.5C 449.5,879.5 449.5,889.5 449.5,899.5C 439.5,899.5 429.5,899.5 419.5,899.5C 419.5,889.5 419.5,879.5 419.5,869.5 Z"/></g>
<g><path style="opacity:1" fill="#a2342d" d="M 449.5,869.5 C 469.5,869.5 489.5,869.5 509.5,869.5C 509.5,879.5 509.5,889.5 509.5,899.5C 529.5,899.5 549.5,899.5 569.5,899.5C 569.5,909.5 569.5,919.5 569.5,929.5C 539.5,929.5 509.5,929.5 479.5,929.5C 479.5,919.5 479.5,909.5 479.5,899.5C 469.5,899.5 459.5,899.5 449.5,899.5C 449.5,889.5 449.5,879.5 449.5,869.5 Z"/></g>
<g><path style="opacity:1" fill="#a2342d" d="M 839.5,869.5 C 839.5,879.5 839.5,889.5 839.5,899.5C 819.5,899.5 799.5,899.5 779.5,899.5C 779.5,889.5 779.5,879.5 779.5,869.5C 799.5,869.5 819.5,869.5 839.5,869.5 Z"/></g>
<g><path style="opacity:1" fill="#821b14" d="M 419.5,899.5 C 429.5,899.5 439.5,899.5 449.5,899.5C 449.5,939.5 449.5,979.5 449.5,1019.5C 439.5,1019.5 429.5,1019.5 419.5,1019.5C 419.5,979.5 419.5,939.5 419.5,899.5 Z"/></g>
<g><path style="opacity:1" fill="#951e16" d="M 719.5,929.5 C 729.5,929.5 739.5,929.5 749.5,929.5C 749.5,939.5 749.5,949.5 749.5,959.5C 739.5,959.5 729.5,959.5 719.5,959.5C 699.5,959.5 679.5,959.5 659.5,959.5C 659.5,939.5 659.5,919.5 659.5,899.5C 669.5,899.5 679.5,899.5 689.5,899.5C 689.5,909.5 689.5,919.5 689.5,929.5C 699.5,929.5 709.5,929.5 719.5,929.5 Z"/></g>
<g><path style="opacity:1" fill="#a2342d" d="M 779.5,899.5 C 779.5,909.5 779.5,919.5 779.5,929.5C 769.5,929.5 759.5,929.5 749.5,929.5C 739.5,929.5 729.5,929.5 719.5,929.5C 719.5,919.5 719.5,909.5 719.5,899.5C 739.5,899.5 759.5,899.5 779.5,899.5 Z"/></g>
<g><path style="opacity:1" fill="#951e16" d="M 479.5,929.5 C 509.5,929.5 539.5,929.5 569.5,929.5C 569.5,939.5 569.5,949.5 569.5,959.5C 559.5,959.5 549.5,959.5 539.5,959.5C 529.5,959.5 519.5,959.5 509.5,959.5C 499.5,959.5 489.5,959.5 479.5,959.5C 479.5,949.5 479.5,939.5 479.5,929.5 Z"/></g>
<g><path style="opacity:1" fill="#000000" d="M 509.5,959.5 C 519.5,959.5 529.5,959.5 539.5,959.5C 539.5,969.5 539.5,979.5 539.5,989.5C 529.5,989.5 519.5,989.5 509.5,989.5C 509.5,979.5 509.5,969.5 509.5,959.5 Z"/></g>
<g><path style="opacity:1" fill="#821b14" d="M 659.5,959.5 C 679.5,959.5 699.5,959.5 719.5,959.5C 719.5,969.5 719.5,979.5 719.5,989.5C 709.5,989.5 699.5,989.5 689.5,989.5C 689.5,999.5 689.5,1009.5 689.5,1019.5C 679.5,1019.5 669.5,1019.5 659.5,1019.5C 659.5,999.5 659.5,979.5 659.5,959.5 Z"/></g>
<g><path style="opacity:1" fill="#821b14" d="M 449.5,1019.5 C 459.5,1019.5 469.5,1019.5 479.5,1019.5C 479.5,1029.5 479.5,1039.5 479.5,1049.5C 469.5,1049.5 459.5,1049.5 449.5,1049.5C 449.5,1039.5 449.5,1029.5 449.5,1019.5 Z"/></g>
<g><path style="opacity:1" fill="#821b14" d="M 659.5,1019.5 C 659.5,1029.5 659.5,1039.5 659.5,1049.5C 649.5,1049.5 639.5,1049.5 629.5,1049.5C 629.5,1039.5 629.5,1029.5 629.5,1019.5C 639.5,1019.5 649.5,1019.5 659.5,1019.5 Z"/></g>
<g><path style="opacity:1" fill="#821b14" d="M 479.5,1049.5 C 529.5,1049.5 579.5,1049.5 629.5,1049.5C 629.5,1059.5 629.5,1069.5 629.5,1079.5C 579.5,1079.5 529.5,1079.5 479.5,1079.5C 479.5,1069.5 479.5,1059.5 479.5,1049.5 Z"/></g>
</svg>
