<?xml version="1.0" encoding="UTF-8"?>
<!DOCTYPE svg PUBLIC "-//W3C//DTD SVG 1.1//EN" "http://www.w3.org/Graphics/SVG/1.1/DTD/svg11.dtd">
<svg xmlns="http://www.w3.org/2000/svg" version="1.1" width="1440px" height="1440px" style="shape-rendering:geometricPrecision; text-rendering:geometricPrecision; image-rendering:optimizeQuality; fill-rule:evenodd; clip-rule:evenodd" xmlns:xlink="http://www.w3.org/1999/xlink">
<g><path style="opacity:1" fill="#000000" d="M 749.5,89.5 C 739.5,89.5 729.5,89.5 719.5,89.5C 719.5,79.5 719.5,69.5 719.5,59.5C 729.5,59.5 739.5,59.5 749.5,59.5C 749.5,69.5 749.5,79.5 749.5,89.5 Z"/></g>
<g><path style="opacity:1" fill="#000000" d="M 749.5,89.5 C 759.5,89.5 769.5,89.5 779.5,89.5C 779.5,99.5 779.5,109.5 779.5,119.5C 769.5,119.5 759.5,119.5 749.5,119.5C 749.5,109.5 749.5,99.5 749.5,89.5 Z"/></g>
<g><path style="opacity:1" fill="#000000" d="M 749.5,119.5 C 749.5,129.5 749.5,139.5 749.5,149.5C 759.5,149.5 769.5,149.5 779.5,149.5C 779.5,139.5 779.5,129.5 779.5,119.5C 799.5,119.5 819.5,119.5 839.5,119.5C 839.5,129.5 839.5,139.5 839.5,149.5C 849.5,149.5 859.5,149.5 869.5,149.5C 869.5,159.5 869.5,169.5 869.5,179.5C 849.5,179.5 829.5,179.5 809.5,179.5C 809.5,199.5 809.5,219.5 809.5,239.5C 829.5,239.5 849.5,239.5 869.5,239.5C 869.5,259.5 869.5,279.5 869.5,299.5C 859.5,299.5 849.5,299.5 839.5,299.5C 839.5,309.5 839.5,319.5 839.5,329.5C 819.5,329.5 799.5,329.5 779.5,329.5C 779.5,319.5 779.5,309.5 779.5,299.5C 769.5,299.5 759.5,299.5 749.5,299.5C 749.5,309.5 749.5,319.5 749.5,329.5C 729.5,329.5 709.5,329.5 689.5,329.5C 689.5,319.5 689.5,309.5 689.5,299.5C 679.5,299.5 669.5,299.5 659.5,299.5C 659.5,279.5 659.5,259.5 659.5,239.5C 649.5,239.5 639.5,239.5 629.5,239.5C 629.5,209.5 629.5,179.5 629.5,149.5C 639.5,149.5 649.5,149.5 659.5,149.5C 659.5,139.5 659.5,129.5 659.5,119.5C 689.5,119.5 719.5,119.5 749.5,119.5 Z M 749.5,119.5 C 759.5,119.5 769.5,119.5 779.5,119.5C 779.5,129.5 779.5,139.5 779.5,149.5C 769.5,149.5 759.5,149.5 749.5,149.5C 749.5,139.5 749.5,129.5 749.5,119.5 Z"/></g>
</svg>
