<?xml version="1.0" encoding="UTF-8"?>
<!DOCTYPE svg PUBLIC "-//W3C//DTD SVG 1.1//EN" "http://www.w3.org/Graphics/SVG/1.1/DTD/svg11.dtd">
<svg xmlns="http://www.w3.org/2000/svg" version="1.1" width="1440px" height="1440px" style="shape-rendering:geometricPrecision; text-rendering:geometricPrecision; image-rendering:optimizeQuality; fill-rule:evenodd; clip-rule:evenodd" xmlns:xlink="http://www.w3.org/1999/xlink">
<g><path style="opacity:1" fill="#821b14" d="M 1049.5,659.5 C 1049.5,649.5 1049.5,639.5 1049.5,629.5C 1039.5,629.5 1029.5,629.5 1019.5,629.5C 1019.5,619.5 1019.5,609.5 1019.5,599.5C 1039.5,599.5 1059.5,599.5 1079.5,599.5C 1079.5,619.5 1079.5,639.5 1079.5,659.5C 1069.5,659.5 1059.5,659.5 1049.5,659.5 Z"/></g>
<g><path style="opacity:1" fill="#821b14" d="M 1019.5,629.5 C 1019.5,639.5 1019.5,649.5 1019.5,659.5C 1009.5,659.5 999.5,659.5 989.5,659.5C 989.5,649.5 989.5,639.5 989.5,629.5C 999.5,629.5 1009.5,629.5 1019.5,629.5 Z"/></g>
<g><path style="opacity:1" fill="#a2342d" d="M 1019.5,629.5 C 1029.5,629.5 1039.5,629.5 1049.5,629.5C 1049.5,639.5 1049.5,649.5 1049.5,659.5C 1039.5,659.5 1029.5,659.5 1019.5,659.5C 1019.5,649.5 1019.5,639.5 1019.5,629.5 Z"/></g>
<g><path style="opacity:1" fill="#821b14" d="M 989.5,659.5 C 989.5,669.5 989.5,679.5 989.5,689.5C 979.5,689.5 969.5,689.5 959.5,689.5C 959.5,679.5 959.5,669.5 959.5,659.5C 969.5,659.5 979.5,659.5 989.5,659.5 Z"/></g>
<g><path style="opacity:1" fill="#d32c20" d="M 989.5,659.5 C 999.5,659.5 1009.5,659.5 1019.5,659.5C 1019.5,669.5 1019.5,679.5 1019.5,689.5C 1009.5,689.5 999.5,689.5 989.5,689.5C 989.5,679.5 989.5,669.5 989.5,659.5 Z"/></g>
<g><path style="opacity:1" fill="#821b14" d="M 1019.5,659.5 C 1029.5,659.5 1039.5,659.5 1049.5,659.5C 1049.5,669.5 1049.5,679.5 1049.5,689.5C 1039.5,689.5 1029.5,689.5 1019.5,689.5C 1019.5,679.5 1019.5,669.5 1019.5,659.5 Z"/></g>
<g><path style="opacity:1" fill="#a2342d" d="M 959.5,689.5 C 959.5,699.5 959.5,709.5 959.5,719.5C 949.5,719.5 939.5,719.5 929.5,719.5C 929.5,709.5 929.5,699.5 929.5,689.5C 939.5,689.5 949.5,689.5 959.5,689.5 Z"/></g>
<g><path style="opacity:1" fill="#d32c20" d="M 959.5,689.5 C 969.5,689.5 979.5,689.5 989.5,689.5C 989.5,699.5 989.5,709.5 989.5,719.5C 979.5,719.5 969.5,719.5 959.5,719.5C 959.5,709.5 959.5,699.5 959.5,689.5 Z"/></g>
<g><path style="opacity:1" fill="#821b14" d="M 989.5,689.5 C 999.5,689.5 1009.5,689.5 1019.5,689.5C 1019.5,699.5 1019.5,709.5 1019.5,719.5C 1009.5,719.5 999.5,719.5 989.5,719.5C 989.5,709.5 989.5,699.5 989.5,689.5 Z"/></g>
<g><path style="opacity:1" fill="#a2342d" d="M 929.5,719.5 C 929.5,729.5 929.5,739.5 929.5,749.5C 909.5,749.5 889.5,749.5 869.5,749.5C 869.5,739.5 869.5,729.5 869.5,719.5C 889.5,719.5 909.5,719.5 929.5,719.5 Z"/></g>
<g><path style="opacity:1" fill="#d32c20" d="M 929.5,719.5 C 939.5,719.5 949.5,719.5 959.5,719.5C 959.5,729.5 959.5,739.5 959.5,749.5C 949.5,749.5 939.5,749.5 929.5,749.5C 929.5,739.5 929.5,729.5 929.5,719.5 Z"/></g>
<g><path style="opacity:1" fill="#a2342d" d="M 959.5,719.5 C 969.5,719.5 979.5,719.5 989.5,719.5C 989.5,729.5 989.5,739.5 989.5,749.5C 979.5,749.5 969.5,749.5 959.5,749.5C 959.5,739.5 959.5,729.5 959.5,719.5 Z"/></g>
<g><path style="opacity:1" fill="#821b14" d="M 389.5,749.5 C 389.5,759.5 389.5,769.5 389.5,779.5C 409.5,779.5 429.5,779.5 449.5,779.5C 449.5,789.5 449.5,799.5 449.5,809.5C 439.5,809.5 429.5,809.5 419.5,809.5C 419.5,819.5 419.5,829.5 419.5,839.5C 419.5,849.5 419.5,859.5 419.5,869.5C 409.5,869.5 399.5,869.5 389.5,869.5C 389.5,849.5 389.5,829.5 389.5,809.5C 379.5,809.5 369.5,809.5 359.5,809.5C 359.5,789.5 359.5,769.5 359.5,749.5C 369.5,749.5 379.5,749.5 389.5,749.5 Z"/></g>
<g><path style="opacity:1" fill="#db7524" d="M 389.5,749.5 C 419.5,749.5 449.5,749.5 479.5,749.5C 479.5,769.5 479.5,789.5 479.5,809.5C 489.5,809.5 499.5,809.5 509.5,809.5C 509.5,819.5 509.5,829.5 509.5,839.5C 489.5,839.5 469.5,839.5 449.5,839.5C 449.5,829.5 449.5,819.5 449.5,809.5C 449.5,799.5 449.5,789.5 449.5,779.5C 429.5,779.5 409.5,779.5 389.5,779.5C 389.5,769.5 389.5,759.5 389.5,749.5 Z"/></g>
<g><path style="opacity:1" fill="#febb00" d="M 479.5,749.5 C 519.5,749.5 559.5,749.5 599.5,749.5C 599.5,759.5 599.5,769.5 599.5,779.5C 589.5,779.5 579.5,779.5 569.5,779.5C 569.5,799.5 569.5,819.5 569.5,839.5C 549.5,839.5 529.5,839.5 509.5,839.5C 509.5,829.5 509.5,819.5 509.5,809.5C 499.5,809.5 489.5,809.5 479.5,809.5C 479.5,789.5 479.5,769.5 479.5,749.5 Z"/></g>
<g><path style="opacity:1" fill="#db7524" d="M 599.5,749.5 C 609.5,749.5 619.5,749.5 629.5,749.5C 629.5,759.5 629.5,769.5 629.5,779.5C 629.5,789.5 629.5,799.5 629.5,809.5C 619.5,809.5 609.5,809.5 599.5,809.5C 599.5,829.5 599.5,849.5 599.5,869.5C 589.5,869.5 579.5,869.5 569.5,869.5C 549.5,869.5 529.5,869.5 509.5,869.5C 509.5,859.5 509.5,849.5 509.5,839.5C 529.5,839.5 549.5,839.5 569.5,839.5C 569.5,819.5 569.5,799.5 569.5,779.5C 579.5,779.5 589.5,779.5 599.5,779.5C 599.5,769.5 599.5,759.5 599.5,749.5 Z"/></g>
<g><path style="opacity:1" fill="#febb00" d="M 629.5,749.5 C 689.5,749.5 749.5,749.5 809.5,749.5C 809.5,759.5 809.5,769.5 809.5,779.5C 789.5,779.5 769.5,779.5 749.5,779.5C 749.5,789.5 749.5,799.5 749.5,809.5C 719.5,809.5 689.5,809.5 659.5,809.5C 659.5,799.5 659.5,789.5 659.5,779.5C 649.5,779.5 639.5,779.5 629.5,779.5C 629.5,769.5 629.5,759.5 629.5,749.5 Z"/></g>
<g><path style="opacity:1" fill="#a2342d" d="M 809.5,749.5 C 829.5,749.5 849.5,749.5 869.5,749.5C 869.5,759.5 869.5,769.5 869.5,779.5C 849.5,779.5 829.5,779.5 809.5,779.5C 809.5,769.5 809.5,759.5 809.5,749.5 Z"/></g>
<g><path style="opacity:1" fill="#d32c20" d="M 869.5,749.5 C 889.5,749.5 909.5,749.5 929.5,749.5C 929.5,759.5 929.5,769.5 929.5,779.5C 919.5,779.5 909.5,779.5 899.5,779.5C 899.5,789.5 899.5,799.5 899.5,809.5C 879.5,809.5 859.5,809.5 839.5,809.5C 839.5,819.5 839.5,829.5 839.5,839.5C 819.5,839.5 799.5,839.5 779.5,839.5C 779.5,849.5 779.5,859.5 779.5,869.5C 759.5,869.5 739.5,869.5 719.5,869.5C 719.5,879.5 719.5,889.5 719.5,899.5C 709.5,899.5 699.5,899.5 689.5,899.5C 689.5,889.5 689.5,879.5 689.5,869.5C 679.5,869.5 669.5,869.5 659.5,869.5C 659.5,889.5 659.5,909.5 659.5,929.5C 659.5,949.5 659.5,969.5 659.5,989.5C 649.5,989.5 639.5,989.5 629.5,989.5C 629.5,999.5 629.5,1009.5 629.5,1019.5C 579.5,1019.5 529.5,1019.5 479.5,1019.5C 479.5,1009.5 479.5,999.5 479.5,989.5C 469.5,989.5 459.5,989.5 449.5,989.5C 449.5,949.5 449.5,909.5 449.5,869.5C 459.5,869.5 469.5,869.5 479.5,869.5C 479.5,879.5 479.5,889.5 479.5,899.5C 479.5,909.5 479.5,919.5 479.5,929.5C 489.5,929.5 499.5,929.5 509.5,929.5C 509.5,939.5 509.5,949.5 509.5,959.5C 519.5,959.5 529.5,959.5 539.5,959.5C 539.5,949.5 539.5,939.5 539.5,929.5C 549.5,929.5 559.5,929.5 569.5,929.5C 569.5,919.5 569.5,909.5 569.5,899.5C 569.5,889.5 569.5,879.5 569.5,869.5C 579.5,869.5 589.5,869.5 599.5,869.5C 609.5,869.5 619.5,869.5 629.5,869.5C 629.5,859.5 629.5,849.5 629.5,839.5C 669.5,839.5 709.5,839.5 749.5,839.5C 749.5,829.5 749.5,819.5 749.5,809.5C 769.5,809.5 789.5,809.5 809.5,809.5C 809.5,799.5 809.5,789.5 809.5,779.5C 829.5,779.5 849.5,779.5 869.5,779.5C 869.5,769.5 869.5,759.5 869.5,749.5 Z"/></g>
<g><path style="opacity:1" fill="#a2342d" d="M 929.5,749.5 C 939.5,749.5 949.5,749.5 959.5,749.5C 959.5,759.5 959.5,769.5 959.5,779.5C 949.5,779.5 939.5,779.5 929.5,779.5C 929.5,769.5 929.5,759.5 929.5,749.5 Z"/></g>
<g><path style="opacity:1" fill="#f09c2f" d="M 629.5,779.5 C 639.5,779.5 649.5,779.5 659.5,779.5C 659.5,789.5 659.5,799.5 659.5,809.5C 649.5,809.5 639.5,809.5 629.5,809.5C 629.5,799.5 629.5,789.5 629.5,779.5 Z"/></g>
<g><path style="opacity:1" fill="#a2342d" d="M 809.5,779.5 C 809.5,789.5 809.5,799.5 809.5,809.5C 789.5,809.5 769.5,809.5 749.5,809.5C 749.5,799.5 749.5,789.5 749.5,779.5C 769.5,779.5 789.5,779.5 809.5,779.5 Z"/></g>
<g><path style="opacity:1" fill="#a2342d" d="M 929.5,779.5 C 929.5,789.5 929.5,799.5 929.5,809.5C 919.5,809.5 909.5,809.5 899.5,809.5C 899.5,799.5 899.5,789.5 899.5,779.5C 909.5,779.5 919.5,779.5 929.5,779.5 Z"/></g>
<g><path style="opacity:1" fill="#a2342d" d="M 449.5,809.5 C 449.5,819.5 449.5,829.5 449.5,839.5C 439.5,839.5 429.5,839.5 419.5,839.5C 419.5,829.5 419.5,819.5 419.5,809.5C 429.5,809.5 439.5,809.5 449.5,809.5 Z"/></g>
<g><path style="opacity:1" fill="#a2342d" d="M 629.5,809.5 C 639.5,809.5 649.5,809.5 659.5,809.5C 689.5,809.5 719.5,809.5 749.5,809.5C 749.5,819.5 749.5,829.5 749.5,839.5C 709.5,839.5 669.5,839.5 629.5,839.5C 629.5,849.5 629.5,859.5 629.5,869.5C 619.5,869.5 609.5,869.5 599.5,869.5C 599.5,849.5 599.5,829.5 599.5,809.5C 609.5,809.5 619.5,809.5 629.5,809.5 Z"/></g>
<g><path style="opacity:1" fill="#a2342d" d="M 899.5,809.5 C 899.5,819.5 899.5,829.5 899.5,839.5C 879.5,839.5 859.5,839.5 839.5,839.5C 839.5,829.5 839.5,819.5 839.5,809.5C 859.5,809.5 879.5,809.5 899.5,809.5 Z"/></g>
<g><path style="opacity:1" fill="#d32c20" d="M 419.5,839.5 C 429.5,839.5 439.5,839.5 449.5,839.5C 449.5,849.5 449.5,859.5 449.5,869.5C 439.5,869.5 429.5,869.5 419.5,869.5C 419.5,859.5 419.5,849.5 419.5,839.5 Z"/></g>
<g><path style="opacity:1" fill="#a2342d" d="M 449.5,839.5 C 469.5,839.5 489.5,839.5 509.5,839.5C 509.5,849.5 509.5,859.5 509.5,869.5C 529.5,869.5 549.5,869.5 569.5,869.5C 569.5,879.5 569.5,889.5 569.5,899.5C 539.5,899.5 509.5,899.5 479.5,899.5C 479.5,889.5 479.5,879.5 479.5,869.5C 469.5,869.5 459.5,869.5 449.5,869.5C 449.5,859.5 449.5,849.5 449.5,839.5 Z"/></g>
<g><path style="opacity:1" fill="#a2342d" d="M 839.5,839.5 C 839.5,849.5 839.5,859.5 839.5,869.5C 819.5,869.5 799.5,869.5 779.5,869.5C 779.5,859.5 779.5,849.5 779.5,839.5C 799.5,839.5 819.5,839.5 839.5,839.5 Z"/></g>
<g><path style="opacity:1" fill="#821b14" d="M 419.5,869.5 C 429.5,869.5 439.5,869.5 449.5,869.5C 449.5,909.5 449.5,949.5 449.5,989.5C 439.5,989.5 429.5,989.5 419.5,989.5C 419.5,949.5 419.5,909.5 419.5,869.5 Z"/></g>
<g><path style="opacity:1" fill="#951e16" d="M 719.5,899.5 C 729.5,899.5 739.5,899.5 749.5,899.5C 749.5,909.5 749.5,919.5 749.5,929.5C 739.5,929.5 729.5,929.5 719.5,929.5C 699.5,929.5 679.5,929.5 659.5,929.5C 659.5,909.5 659.5,889.5 659.5,869.5C 669.5,869.5 679.5,869.5 689.5,869.5C 689.5,879.5 689.5,889.5 689.5,899.5C 699.5,899.5 709.5,899.5 719.5,899.5 Z"/></g>
<g><path style="opacity:1" fill="#a2342d" d="M 779.5,869.5 C 779.5,879.5 779.5,889.5 779.5,899.5C 769.5,899.5 759.5,899.5 749.5,899.5C 739.5,899.5 729.5,899.5 719.5,899.5C 719.5,889.5 719.5,879.5 719.5,869.5C 739.5,869.5 759.5,869.5 779.5,869.5 Z"/></g>
<g><path style="opacity:1" fill="#951e16" d="M 479.5,899.5 C 509.5,899.5 539.5,899.5 569.5,899.5C 569.5,909.5 569.5,919.5 569.5,929.5C 559.5,929.5 549.5,929.5 539.5,929.5C 529.5,929.5 519.5,929.5 509.5,929.5C 499.5,929.5 489.5,929.5 479.5,929.5C 479.5,919.5 479.5,909.5 479.5,899.5 Z"/></g>
<g><path style="opacity:1" fill="#000000" d="M 509.5,929.5 C 519.5,929.5 529.5,929.5 539.5,929.5C 539.5,939.5 539.5,949.5 539.5,959.5C 529.5,959.5 519.5,959.5 509.5,959.5C 509.5,949.5 509.5,939.5 509.5,929.5 Z"/></g>
<g><path style="opacity:1" fill="#821b14" d="M 659.5,929.5 C 679.5,929.5 699.5,929.5 719.5,929.5C 719.5,939.5 719.5,949.5 719.5,959.5C 709.5,959.5 699.5,959.5 689.5,959.5C 689.5,969.5 689.5,979.5 689.5,989.5C 679.5,989.5 669.5,989.5 659.5,989.5C 659.5,969.5 659.5,949.5 659.5,929.5 Z"/></g>
<g><path style="opacity:1" fill="#821b14" d="M 449.5,989.5 C 459.5,989.5 469.5,989.5 479.5,989.5C 479.5,999.5 479.5,1009.5 479.5,1019.5C 469.5,1019.5 459.5,1019.5 449.5,1019.5C 449.5,1009.5 449.5,999.5 449.5,989.5 Z"/></g>
<g><path style="opacity:1" fill="#821b14" d="M 659.5,989.5 C 659.5,999.5 659.5,1009.5 659.5,1019.5C 649.5,1019.5 639.5,1019.5 629.5,1019.5C 629.5,1009.5 629.5,999.5 629.5,989.5C 639.5,989.5 649.5,989.5 659.5,989.5 Z"/></g>
<g><path style="opacity:1" fill="#821b14" d="M 479.5,1019.5 C 529.5,1019.5 579.5,1019.5 629.5,1019.5C 629.5,1029.5 629.5,1039.5 629.5,1049.5C 579.5,1049.5 529.5,1049.5 479.5,1049.5C 479.5,1039.5 479.5,1029.5 479.5,1019.5 Z"/></g>
</svg>
