<?xml version="1.0" encoding="UTF-8"?>
<!DOCTYPE svg PUBLIC "-//W3C//DTD SVG 1.1//EN" "http://www.w3.org/Graphics/SVG/1.1/DTD/svg11.dtd">
<svg xmlns="http://www.w3.org/2000/svg" version="1.1" width="2160px" height="2160px" style="shape-rendering:geometricPrecision; text-rendering:geometricPrecision; image-rendering:optimizeQuality; fill-rule:evenodd; clip-rule:evenodd" xmlns:xlink="http://www.w3.org/1999/xlink">
<g><path style="opacity:1" fill="#febb00" d="M 329.5,899.5 C 329.5,909.5 329.5,919.5 329.5,929.5C 339.5,929.5 349.5,929.5 359.5,929.5C 359.5,939.5 359.5,949.5 359.5,959.5C 349.5,959.5 339.5,959.5 329.5,959.5C 329.5,979.5 329.5,999.5 329.5,1019.5C 319.5,1019.5 309.5,1019.5 299.5,1019.5C 299.5,1009.5 299.5,999.5 299.5,989.5C 299.5,979.5 299.5,969.5 299.5,959.5C 289.5,959.5 279.5,959.5 269.5,959.5C 269.5,969.5 269.5,979.5 269.5,989.5C 269.5,1019.5 269.5,1049.5 269.5,1079.5C 309.5,1079.5 349.5,1079.5 389.5,1079.5C 389.5,1049.5 389.5,1019.5 389.5,989.5C 389.5,969.5 389.5,949.5 389.5,929.5C 389.5,899.5 389.5,869.5 389.5,839.5C 409.5,839.5 429.5,839.5 449.5,839.5C 449.5,849.5 449.5,859.5 449.5,869.5C 449.5,959.5 449.5,1049.5 449.5,1139.5C 379.5,1139.5 309.5,1139.5 239.5,1139.5C 229.5,1139.5 219.5,1139.5 209.5,1139.5C 209.5,1039.5 209.5,939.5 209.5,839.5C 229.5,839.5 249.5,839.5 269.5,839.5C 269.5,869.5 269.5,899.5 269.5,929.5C 279.5,929.5 289.5,929.5 299.5,929.5C 299.5,909.5 299.5,889.5 299.5,869.5C 309.5,869.5 319.5,869.5 329.5,869.5C 329.5,879.5 329.5,889.5 329.5,899.5 Z M 269.5,989.5 C 279.5,989.5 289.5,989.5 299.5,989.5C 299.5,999.5 299.5,1009.5 299.5,1019.5C 299.5,1029.5 299.5,1039.5 299.5,1049.5C 319.5,1049.5 339.5,1049.5 359.5,1049.5C 359.5,1029.5 359.5,1009.5 359.5,989.5C 369.5,989.5 379.5,989.5 389.5,989.5C 389.5,1019.5 389.5,1049.5 389.5,1079.5C 349.5,1079.5 309.5,1079.5 269.5,1079.5C 269.5,1049.5 269.5,1019.5 269.5,989.5 Z"/></g>
<g><path style="opacity:1" fill="#febb00" d="M 569.5,869.5 C 569.5,969.5 569.5,1069.5 569.5,1169.5C 559.5,1169.5 549.5,1169.5 539.5,1169.5C 529.5,1169.5 519.5,1169.5 509.5,1169.5C 509.5,1059.5 509.5,949.5 509.5,839.5C 529.5,839.5 549.5,839.5 569.5,839.5C 569.5,849.5 569.5,859.5 569.5,869.5 Z"/></g>
<g><path style="opacity:1" fill="#febb00" d="M 869.5,899.5 C 869.5,939.5 869.5,979.5 869.5,1019.5C 859.5,1019.5 849.5,1019.5 839.5,1019.5C 839.5,1029.5 839.5,1039.5 839.5,1049.5C 829.5,1049.5 819.5,1049.5 809.5,1049.5C 809.5,1059.5 809.5,1069.5 809.5,1079.5C 769.5,1079.5 729.5,1079.5 689.5,1079.5C 689.5,1069.5 689.5,1059.5 689.5,1049.5C 679.5,1049.5 669.5,1049.5 659.5,1049.5C 659.5,1039.5 659.5,1029.5 659.5,1019.5C 649.5,1019.5 639.5,1019.5 629.5,1019.5C 629.5,979.5 629.5,939.5 629.5,899.5C 639.5,899.5 649.5,899.5 659.5,899.5C 659.5,889.5 659.5,879.5 659.5,869.5C 669.5,869.5 679.5,869.5 689.5,869.5C 689.5,859.5 689.5,849.5 689.5,839.5C 739.5,839.5 789.5,839.5 839.5,839.5C 839.5,849.5 839.5,859.5 839.5,869.5C 849.5,869.5 859.5,869.5 869.5,869.5C 869.5,879.5 869.5,889.5 869.5,899.5 Z M 809.5,929.5 C 809.5,959.5 809.5,989.5 809.5,1019.5C 779.5,1019.5 749.5,1019.5 719.5,1019.5C 719.5,989.5 719.5,959.5 719.5,929.5C 749.5,929.5 779.5,929.5 809.5,929.5 Z"/></g>
<g><path style="opacity:1" fill="#febb00" d="M 959.5,869.5 C 959.5,879.5 959.5,889.5 959.5,899.5C 969.5,899.5 979.5,899.5 989.5,899.5C 999.5,899.5 1009.5,899.5 1019.5,899.5C 1019.5,909.5 1019.5,919.5 1019.5,929.5C 999.5,929.5 979.5,929.5 959.5,929.5C 959.5,949.5 959.5,969.5 959.5,989.5C 969.5,989.5 979.5,989.5 989.5,989.5C 999.5,989.5 1009.5,989.5 1019.5,989.5C 1019.5,999.5 1019.5,1009.5 1019.5,1019.5C 999.5,1019.5 979.5,1019.5 959.5,1019.5C 959.5,1029.5 959.5,1039.5 959.5,1049.5C 949.5,1049.5 939.5,1049.5 929.5,1049.5C 919.5,1049.5 909.5,1049.5 899.5,1049.5C 899.5,1039.5 899.5,1029.5 899.5,1019.5C 899.5,979.5 899.5,939.5 899.5,899.5C 899.5,879.5 899.5,859.5 899.5,839.5C 919.5,839.5 939.5,839.5 959.5,839.5C 959.5,849.5 959.5,859.5 959.5,869.5 Z"/></g>
<g><path style="opacity:1" fill="#febb00" d="M 1199.5,899.5 C 1199.5,909.5 1199.5,919.5 1199.5,929.5C 1209.5,929.5 1219.5,929.5 1229.5,929.5C 1229.5,939.5 1229.5,949.5 1229.5,959.5C 1219.5,959.5 1209.5,959.5 1199.5,959.5C 1199.5,979.5 1199.5,999.5 1199.5,1019.5C 1189.5,1019.5 1179.5,1019.5 1169.5,1019.5C 1169.5,1009.5 1169.5,999.5 1169.5,989.5C 1169.5,979.5 1169.5,969.5 1169.5,959.5C 1159.5,959.5 1149.5,959.5 1139.5,959.5C 1139.5,969.5 1139.5,979.5 1139.5,989.5C 1139.5,1019.5 1139.5,1049.5 1139.5,1079.5C 1179.5,1079.5 1219.5,1079.5 1259.5,1079.5C 1259.5,1049.5 1259.5,1019.5 1259.5,989.5C 1259.5,969.5 1259.5,949.5 1259.5,929.5C 1259.5,899.5 1259.5,869.5 1259.5,839.5C 1279.5,839.5 1299.5,839.5 1319.5,839.5C 1319.5,849.5 1319.5,859.5 1319.5,869.5C 1319.5,959.5 1319.5,1049.5 1319.5,1139.5C 1249.5,1139.5 1179.5,1139.5 1109.5,1139.5C 1099.5,1139.5 1089.5,1139.5 1079.5,1139.5C 1079.5,1039.5 1079.5,939.5 1079.5,839.5C 1099.5,839.5 1119.5,839.5 1139.5,839.5C 1139.5,869.5 1139.5,899.5 1139.5,929.5C 1149.5,929.5 1159.5,929.5 1169.5,929.5C 1169.5,909.5 1169.5,889.5 1169.5,869.5C 1179.5,869.5 1189.5,869.5 1199.5,869.5C 1199.5,879.5 1199.5,889.5 1199.5,899.5 Z M 1139.5,989.5 C 1149.5,989.5 1159.5,989.5 1169.5,989.5C 1169.5,999.5 1169.5,1009.5 1169.5,1019.5C 1169.5,1029.5 1169.5,1039.5 1169.5,1049.5C 1189.5,1049.5 1209.5,1049.5 1229.5,1049.5C 1229.5,1029.5 1229.5,1009.5 1229.5,989.5C 1239.5,989.5 1249.5,989.5 1259.5,989.5C 1259.5,1019.5 1259.5,1049.5 1259.5,1079.5C 1219.5,1079.5 1179.5,1079.5 1139.5,1079.5C 1139.5,1049.5 1139.5,1019.5 1139.5,989.5 Z"/></g>
<g><path style="opacity:1" fill="#febb00" d="M 1439.5,869.5 C 1439.5,969.5 1439.5,1069.5 1439.5,1169.5C 1429.5,1169.5 1419.5,1169.5 1409.5,1169.5C 1399.5,1169.5 1389.5,1169.5 1379.5,1169.5C 1379.5,1059.5 1379.5,949.5 1379.5,839.5C 1399.5,839.5 1419.5,839.5 1439.5,839.5C 1439.5,849.5 1439.5,859.5 1439.5,869.5 Z"/></g>
<g><path style="opacity:1" fill="#febb00" d="M 1739.5,899.5 C 1739.5,939.5 1739.5,979.5 1739.5,1019.5C 1729.5,1019.5 1719.5,1019.5 1709.5,1019.5C 1709.5,1029.5 1709.5,1039.5 1709.5,1049.5C 1699.5,1049.5 1689.5,1049.5 1679.5,1049.5C 1679.5,1059.5 1679.5,1069.5 1679.5,1079.5C 1639.5,1079.5 1599.5,1079.5 1559.5,1079.5C 1559.5,1069.5 1559.5,1059.5 1559.5,1049.5C 1549.5,1049.5 1539.5,1049.5 1529.5,1049.5C 1529.5,1039.5 1529.5,1029.5 1529.5,1019.5C 1519.5,1019.5 1509.5,1019.5 1499.5,1019.5C 1499.5,979.5 1499.5,939.5 1499.5,899.5C 1509.5,899.5 1519.5,899.5 1529.5,899.5C 1529.5,889.5 1529.5,879.5 1529.5,869.5C 1539.5,869.5 1549.5,869.5 1559.5,869.5C 1559.5,859.5 1559.5,849.5 1559.5,839.5C 1609.5,839.5 1659.5,839.5 1709.5,839.5C 1709.5,849.5 1709.5,859.5 1709.5,869.5C 1719.5,869.5 1729.5,869.5 1739.5,869.5C 1739.5,879.5 1739.5,889.5 1739.5,899.5 Z M 1679.5,929.5 C 1679.5,959.5 1679.5,989.5 1679.5,1019.5C 1649.5,1019.5 1619.5,1019.5 1589.5,1019.5C 1589.5,989.5 1589.5,959.5 1589.5,929.5C 1619.5,929.5 1649.5,929.5 1679.5,929.5 Z"/></g>
<g><path style="opacity:1" fill="#febb00" d="M 1829.5,869.5 C 1829.5,879.5 1829.5,889.5 1829.5,899.5C 1839.5,899.5 1849.5,899.5 1859.5,899.5C 1869.5,899.5 1879.5,899.5 1889.5,899.5C 1889.5,909.5 1889.5,919.5 1889.5,929.5C 1869.5,929.5 1849.5,929.5 1829.5,929.5C 1829.5,949.5 1829.5,969.5 1829.5,989.5C 1839.5,989.5 1849.5,989.5 1859.5,989.5C 1869.5,989.5 1879.5,989.5 1889.5,989.5C 1889.5,999.5 1889.5,1009.5 1889.5,1019.5C 1869.5,1019.5 1849.5,1019.5 1829.5,1019.5C 1829.5,1029.5 1829.5,1039.5 1829.5,1049.5C 1819.5,1049.5 1809.5,1049.5 1799.5,1049.5C 1789.5,1049.5 1779.5,1049.5 1769.5,1049.5C 1769.5,1039.5 1769.5,1029.5 1769.5,1019.5C 1769.5,979.5 1769.5,939.5 1769.5,899.5C 1769.5,879.5 1769.5,859.5 1769.5,839.5C 1789.5,839.5 1809.5,839.5 1829.5,839.5C 1829.5,849.5 1829.5,859.5 1829.5,869.5 Z"/></g>
<g><path style="opacity:1" fill="#c65f0d" d="M 449.5,869.5 C 459.5,869.5 469.5,869.5 479.5,869.5C 479.5,969.5 479.5,1069.5 479.5,1169.5C 399.5,1169.5 319.5,1169.5 239.5,1169.5C 239.5,1159.5 239.5,1149.5 239.5,1139.5C 309.5,1139.5 379.5,1139.5 449.5,1139.5C 449.5,1049.5 449.5,959.5 449.5,869.5 Z"/></g>
<g><path style="opacity:1" fill="#c65f0d" d="M 569.5,869.5 C 579.5,869.5 589.5,869.5 599.5,869.5C 599.5,979.5 599.5,1089.5 599.5,1199.5C 579.5,1199.5 559.5,1199.5 539.5,1199.5C 539.5,1189.5 539.5,1179.5 539.5,1169.5C 549.5,1169.5 559.5,1169.5 569.5,1169.5C 569.5,1069.5 569.5,969.5 569.5,869.5 Z"/></g>
<g><path style="opacity:1" fill="#c65f0d" d="M 959.5,869.5 C 969.5,869.5 979.5,869.5 989.5,869.5C 989.5,879.5 989.5,889.5 989.5,899.5C 989.5,889.5 989.5,879.5 989.5,869.5C 979.5,869.5 969.5,869.5 959.5,869.5 Z"/></g>
<g><path style="opacity:1" fill="#c65f0d" d="M 1319.5,869.5 C 1329.5,869.5 1339.5,869.5 1349.5,869.5C 1349.5,969.5 1349.5,1069.5 1349.5,1169.5C 1269.5,1169.5 1189.5,1169.5 1109.5,1169.5C 1109.5,1159.5 1109.5,1149.5 1109.5,1139.5C 1179.5,1139.5 1249.5,1139.5 1319.5,1139.5C 1319.5,1049.5 1319.5,959.5 1319.5,869.5 Z"/></g>
<g><path style="opacity:1" fill="#c65f0d" d="M 1439.5,869.5 C 1449.5,869.5 1459.5,869.5 1469.5,869.5C 1469.5,979.5 1469.5,1089.5 1469.5,1199.5C 1449.5,1199.5 1429.5,1199.5 1409.5,1199.5C 1409.5,1189.5 1409.5,1179.5 1409.5,1169.5C 1419.5,1169.5 1429.5,1169.5 1439.5,1169.5C 1439.5,1069.5 1439.5,969.5 1439.5,869.5 Z"/></g>
<g><path style="opacity:1" fill="#c65f0d" d="M 1829.5,869.5 C 1839.5,869.5 1849.5,869.5 1859.5,869.5C 1859.5,879.5 1859.5,889.5 1859.5,899.5C 1859.5,889.5 1859.5,879.5 1859.5,869.5C 1849.5,869.5 1839.5,869.5 1829.5,869.5 Z"/></g>
<g><path style="opacity:1" fill="#c65f0d" d="M 329.5,899.5 C 339.5,899.5 349.5,899.5 359.5,899.5C 359.5,909.5 359.5,919.5 359.5,929.5C 359.5,919.5 359.5,909.5 359.5,899.5C 349.5,899.5 339.5,899.5 329.5,899.5 Z"/></g>
<g><path style="opacity:1" fill="#c65f0d" d="M 809.5,929.5 C 779.5,929.5 749.5,929.5 719.5,929.5C 719.5,959.5 719.5,989.5 719.5,1019.5C 709.5,1019.5 699.5,1019.5 689.5,1019.5C 689.5,979.5 689.5,939.5 689.5,899.5C 729.5,899.5 769.5,899.5 809.5,899.5C 809.5,909.5 809.5,919.5 809.5,929.5 Z"/></g>
<g><path style="opacity:1" fill="#c65f0d" d="M 869.5,899.5 C 879.5,899.5 889.5,899.5 899.5,899.5C 899.5,939.5 899.5,979.5 899.5,1019.5C 889.5,1019.5 879.5,1019.5 869.5,1019.5C 869.5,979.5 869.5,939.5 869.5,899.5 Z"/></g>
<g><path style="opacity:1" fill="#c65f0d" d="M 1199.5,899.5 C 1209.5,899.5 1219.5,899.5 1229.5,899.5C 1229.5,909.5 1229.5,919.5 1229.5,929.5C 1229.5,919.5 1229.5,909.5 1229.5,899.5C 1219.5,899.5 1209.5,899.5 1199.5,899.5 Z"/></g>
<g><path style="opacity:1" fill="#c65f0d" d="M 1679.5,929.5 C 1649.5,929.5 1619.5,929.5 1589.5,929.5C 1589.5,959.5 1589.5,989.5 1589.5,1019.5C 1579.5,1019.5 1569.5,1019.5 1559.5,1019.5C 1559.5,979.5 1559.5,939.5 1559.5,899.5C 1599.5,899.5 1639.5,899.5 1679.5,899.5C 1679.5,909.5 1679.5,919.5 1679.5,929.5 Z"/></g>
<g><path style="opacity:1" fill="#c65f0d" d="M 1739.5,899.5 C 1749.5,899.5 1759.5,899.5 1769.5,899.5C 1769.5,939.5 1769.5,979.5 1769.5,1019.5C 1759.5,1019.5 1749.5,1019.5 1739.5,1019.5C 1739.5,979.5 1739.5,939.5 1739.5,899.5 Z"/></g>
<g><path style="opacity:1" fill="#c65f0d" d="M 359.5,929.5 C 369.5,929.5 379.5,929.5 389.5,929.5C 389.5,949.5 389.5,969.5 389.5,989.5C 379.5,989.5 369.5,989.5 359.5,989.5C 359.5,1009.5 359.5,1029.5 359.5,1049.5C 339.5,1049.5 319.5,1049.5 299.5,1049.5C 299.5,1039.5 299.5,1029.5 299.5,1019.5C 309.5,1019.5 319.5,1019.5 329.5,1019.5C 329.5,999.5 329.5,979.5 329.5,959.5C 339.5,959.5 349.5,959.5 359.5,959.5C 359.5,949.5 359.5,939.5 359.5,929.5 Z"/></g>
<g><path style="opacity:1" fill="#c65f0d" d="M 1019.5,929.5 C 1029.5,929.5 1039.5,929.5 1049.5,929.5C 1049.5,939.5 1049.5,949.5 1049.5,959.5C 1029.5,959.5 1009.5,959.5 989.5,959.5C 989.5,969.5 989.5,979.5 989.5,989.5C 979.5,989.5 969.5,989.5 959.5,989.5C 959.5,969.5 959.5,949.5 959.5,929.5C 979.5,929.5 999.5,929.5 1019.5,929.5 Z"/></g>
<g><path style="opacity:1" fill="#c65f0d" d="M 1229.5,929.5 C 1239.5,929.5 1249.5,929.5 1259.5,929.5C 1259.5,949.5 1259.5,969.5 1259.5,989.5C 1249.5,989.5 1239.5,989.5 1229.5,989.5C 1229.5,1009.5 1229.5,1029.5 1229.5,1049.5C 1209.5,1049.5 1189.5,1049.5 1169.5,1049.5C 1169.5,1039.5 1169.5,1029.5 1169.5,1019.5C 1179.5,1019.5 1189.5,1019.5 1199.5,1019.5C 1199.5,999.5 1199.5,979.5 1199.5,959.5C 1209.5,959.5 1219.5,959.5 1229.5,959.5C 1229.5,949.5 1229.5,939.5 1229.5,929.5 Z"/></g>
<g><path style="opacity:1" fill="#c65f0d" d="M 1889.5,929.5 C 1899.5,929.5 1909.5,929.5 1919.5,929.5C 1919.5,939.5 1919.5,949.5 1919.5,959.5C 1899.5,959.5 1879.5,959.5 1859.5,959.5C 1859.5,969.5 1859.5,979.5 1859.5,989.5C 1849.5,989.5 1839.5,989.5 1829.5,989.5C 1829.5,969.5 1829.5,949.5 1829.5,929.5C 1849.5,929.5 1869.5,929.5 1889.5,929.5 Z"/></g>
<g><path style="opacity:1" fill="#c65f0d" d="M 299.5,989.5 C 289.5,989.5 279.5,989.5 269.5,989.5C 269.5,979.5 269.5,969.5 269.5,959.5C 279.5,959.5 289.5,959.5 299.5,959.5C 299.5,969.5 299.5,979.5 299.5,989.5 Z"/></g>
<g><path style="opacity:1" fill="#c65f0d" d="M 1169.5,989.5 C 1159.5,989.5 1149.5,989.5 1139.5,989.5C 1139.5,979.5 1139.5,969.5 1139.5,959.5C 1149.5,959.5 1159.5,959.5 1169.5,959.5C 1169.5,969.5 1169.5,979.5 1169.5,989.5 Z"/></g>
<g><path style="opacity:1" fill="#c65f0d" d="M 869.5,1019.5 C 869.5,1029.5 869.5,1039.5 869.5,1049.5C 859.5,1049.5 849.5,1049.5 839.5,1049.5C 839.5,1039.5 839.5,1029.5 839.5,1019.5C 849.5,1019.5 859.5,1019.5 869.5,1019.5 Z"/></g>
<g><path style="opacity:1" fill="#c65f0d" d="M 1019.5,1019.5 C 1029.5,1019.5 1039.5,1019.5 1049.5,1019.5C 1049.5,1029.5 1049.5,1039.5 1049.5,1049.5C 1029.5,1049.5 1009.5,1049.5 989.5,1049.5C 989.5,1059.5 989.5,1069.5 989.5,1079.5C 969.5,1079.5 949.5,1079.5 929.5,1079.5C 929.5,1069.5 929.5,1059.5 929.5,1049.5C 939.5,1049.5 949.5,1049.5 959.5,1049.5C 959.5,1039.5 959.5,1029.5 959.5,1019.5C 979.5,1019.5 999.5,1019.5 1019.5,1019.5 Z"/></g>
<g><path style="opacity:1" fill="#c65f0d" d="M 1739.5,1019.5 C 1739.5,1029.5 1739.5,1039.5 1739.5,1049.5C 1729.5,1049.5 1719.5,1049.5 1709.5,1049.5C 1709.5,1039.5 1709.5,1029.5 1709.5,1019.5C 1719.5,1019.5 1729.5,1019.5 1739.5,1019.5 Z"/></g>
<g><path style="opacity:1" fill="#c65f0d" d="M 1889.5,1019.5 C 1899.5,1019.5 1909.5,1019.5 1919.5,1019.5C 1919.5,1029.5 1919.5,1039.5 1919.5,1049.5C 1899.5,1049.5 1879.5,1049.5 1859.5,1049.5C 1859.5,1059.5 1859.5,1069.5 1859.5,1079.5C 1839.5,1079.5 1819.5,1079.5 1799.5,1079.5C 1799.5,1069.5 1799.5,1059.5 1799.5,1049.5C 1809.5,1049.5 1819.5,1049.5 1829.5,1049.5C 1829.5,1039.5 1829.5,1029.5 1829.5,1019.5C 1849.5,1019.5 1869.5,1019.5 1889.5,1019.5 Z"/></g>
<g><path style="opacity:1" fill="#c65f0d" d="M 839.5,1049.5 C 839.5,1059.5 839.5,1069.5 839.5,1079.5C 829.5,1079.5 819.5,1079.5 809.5,1079.5C 809.5,1069.5 809.5,1059.5 809.5,1049.5C 819.5,1049.5 829.5,1049.5 839.5,1049.5 Z"/></g>
<g><path style="opacity:1" fill="#c65f0d" d="M 1709.5,1049.5 C 1709.5,1059.5 1709.5,1069.5 1709.5,1079.5C 1699.5,1079.5 1689.5,1079.5 1679.5,1079.5C 1679.5,1069.5 1679.5,1059.5 1679.5,1049.5C 1689.5,1049.5 1699.5,1049.5 1709.5,1049.5 Z"/></g>
<g><path style="opacity:1" fill="#febb00" d="M 959.5,1139.5 C 959.5,1189.5 959.5,1239.5 959.5,1289.5C 949.5,1289.5 939.5,1289.5 929.5,1289.5C 919.5,1289.5 909.5,1289.5 899.5,1289.5C 899.5,1259.5 899.5,1229.5 899.5,1199.5C 899.5,1189.5 899.5,1179.5 899.5,1169.5C 859.5,1169.5 819.5,1169.5 779.5,1169.5C 769.5,1169.5 759.5,1169.5 749.5,1169.5C 749.5,1149.5 749.5,1129.5 749.5,1109.5C 819.5,1109.5 889.5,1109.5 959.5,1109.5C 959.5,1119.5 959.5,1129.5 959.5,1139.5 Z"/></g>
<g><path style="opacity:1" fill="#febb00" d="M 1829.5,1139.5 C 1829.5,1189.5 1829.5,1239.5 1829.5,1289.5C 1819.5,1289.5 1809.5,1289.5 1799.5,1289.5C 1789.5,1289.5 1779.5,1289.5 1769.5,1289.5C 1769.5,1259.5 1769.5,1229.5 1769.5,1199.5C 1769.5,1189.5 1769.5,1179.5 1769.5,1169.5C 1729.5,1169.5 1689.5,1169.5 1649.5,1169.5C 1639.5,1169.5 1629.5,1169.5 1619.5,1169.5C 1619.5,1149.5 1619.5,1129.5 1619.5,1109.5C 1689.5,1109.5 1759.5,1109.5 1829.5,1109.5C 1829.5,1119.5 1829.5,1129.5 1829.5,1139.5 Z"/></g>
<g><path style="opacity:1" fill="#c65f0d" d="M 959.5,1139.5 C 969.5,1139.5 979.5,1139.5 989.5,1139.5C 989.5,1199.5 989.5,1259.5 989.5,1319.5C 969.5,1319.5 949.5,1319.5 929.5,1319.5C 929.5,1309.5 929.5,1299.5 929.5,1289.5C 939.5,1289.5 949.5,1289.5 959.5,1289.5C 959.5,1239.5 959.5,1189.5 959.5,1139.5 Z"/></g>
<g><path style="opacity:1" fill="#c65f0d" d="M 1829.5,1139.5 C 1839.5,1139.5 1849.5,1139.5 1859.5,1139.5C 1859.5,1199.5 1859.5,1259.5 1859.5,1319.5C 1839.5,1319.5 1819.5,1319.5 1799.5,1319.5C 1799.5,1309.5 1799.5,1299.5 1799.5,1289.5C 1809.5,1289.5 1819.5,1289.5 1829.5,1289.5C 1829.5,1239.5 1829.5,1189.5 1829.5,1139.5 Z"/></g>
<g><path style="opacity:1" fill="#c65f0d" d="M 779.5,1169.5 C 819.5,1169.5 859.5,1169.5 899.5,1169.5C 899.5,1179.5 899.5,1189.5 899.5,1199.5C 859.5,1199.5 819.5,1199.5 779.5,1199.5C 779.5,1189.5 779.5,1179.5 779.5,1169.5 Z"/></g>
<g><path style="opacity:1" fill="#c65f0d" d="M 1649.5,1169.5 C 1689.5,1169.5 1729.5,1169.5 1769.5,1169.5C 1769.5,1179.5 1769.5,1189.5 1769.5,1199.5C 1729.5,1199.5 1689.5,1199.5 1649.5,1199.5C 1649.5,1189.5 1649.5,1179.5 1649.5,1169.5 Z"/></g>
</svg>
