<?xml version="1.0" encoding="UTF-8"?>
<!DOCTYPE svg PUBLIC "-//W3C//DTD SVG 1.1//EN" "http://www.w3.org/Graphics/SVG/1.1/DTD/svg11.dtd">
<svg xmlns="http://www.w3.org/2000/svg" version="1.1" width="1440px" height="1440px" style="shape-rendering:geometricPrecision; text-rendering:geometricPrecision; image-rendering:optimizeQuality; fill-rule:evenodd; clip-rule:evenodd" xmlns:xlink="http://www.w3.org/1999/xlink">
<g><path style="opacity:1" fill="#f02221" d="M 1139.5,299.5 C 1129.5,299.5 1119.5,299.5 1109.5,299.5C 1109.5,289.5 1109.5,279.5 1109.5,269.5C 1119.5,269.5 1129.5,269.5 1139.5,269.5C 1139.5,279.5 1139.5,289.5 1139.5,299.5 Z"/></g>
<g><path style="opacity:1" fill="#f02221" d="M 1259.5,299.5 C 1249.5,299.5 1239.5,299.5 1229.5,299.5C 1229.5,289.5 1229.5,279.5 1229.5,269.5C 1239.5,269.5 1249.5,269.5 1259.5,269.5C 1259.5,279.5 1259.5,289.5 1259.5,299.5 Z"/></g>
<g><path style="opacity:1" fill="#fef200" d="M 1109.5,299.5 C 1119.5,299.5 1129.5,299.5 1139.5,299.5C 1139.5,309.5 1139.5,319.5 1139.5,329.5C 1129.5,329.5 1119.5,329.5 1109.5,329.5C 1109.5,319.5 1109.5,309.5 1109.5,299.5 Z"/></g>
<g><path style="opacity:1" fill="#fef200" d="M 1229.5,299.5 C 1239.5,299.5 1249.5,299.5 1259.5,299.5C 1259.5,309.5 1259.5,319.5 1259.5,329.5C 1249.5,329.5 1239.5,329.5 1229.5,329.5C 1229.5,319.5 1229.5,309.5 1229.5,299.5 Z"/></g>
<g><path style="opacity:1" fill="#dd13e6" d="M 1139.5,389.5 C 1129.5,389.5 1119.5,389.5 1109.5,389.5C 1109.5,379.5 1109.5,369.5 1109.5,359.5C 1119.5,359.5 1129.5,359.5 1139.5,359.5C 1139.5,369.5 1139.5,379.5 1139.5,389.5 Z"/></g>
<g><path style="opacity:1" fill="#dd13e6" d="M 1259.5,389.5 C 1249.5,389.5 1239.5,389.5 1229.5,389.5C 1229.5,379.5 1229.5,369.5 1229.5,359.5C 1239.5,359.5 1249.5,359.5 1259.5,359.5C 1259.5,369.5 1259.5,379.5 1259.5,389.5 Z"/></g>
<g><path style="opacity:1" fill="#e381c4" d="M 1109.5,389.5 C 1119.5,389.5 1129.5,389.5 1139.5,389.5C 1139.5,399.5 1139.5,409.5 1139.5,419.5C 1129.5,419.5 1119.5,419.5 1109.5,419.5C 1109.5,409.5 1109.5,399.5 1109.5,389.5 Z"/></g>
<g><path style="opacity:1" fill="#e381c4" d="M 1229.5,389.5 C 1239.5,389.5 1249.5,389.5 1259.5,389.5C 1259.5,399.5 1259.5,409.5 1259.5,419.5C 1249.5,419.5 1239.5,419.5 1229.5,419.5C 1229.5,409.5 1229.5,399.5 1229.5,389.5 Z"/></g>
<g><path style="opacity:1" fill="#fadedd" d="M 1109.5,419.5 C 1109.5,429.5 1109.5,439.5 1109.5,449.5C 1099.5,449.5 1089.5,449.5 1079.5,449.5C 1079.5,439.5 1079.5,429.5 1079.5,419.5C 1089.5,419.5 1099.5,419.5 1109.5,419.5 Z"/></g>
<g><path style="opacity:1" fill="#dd13e6" d="M 1109.5,419.5 C 1119.5,419.5 1129.5,419.5 1139.5,419.5C 1139.5,429.5 1139.5,439.5 1139.5,449.5C 1129.5,449.5 1119.5,449.5 1109.5,449.5C 1109.5,439.5 1109.5,429.5 1109.5,419.5 Z"/></g>
<g><path style="opacity:1" fill="#fadedd" d="M 1139.5,419.5 C 1169.5,419.5 1199.5,419.5 1229.5,419.5C 1229.5,429.5 1229.5,439.5 1229.5,449.5C 1219.5,449.5 1209.5,449.5 1199.5,449.5C 1189.5,449.5 1179.5,449.5 1169.5,449.5C 1159.5,449.5 1149.5,449.5 1139.5,449.5C 1139.5,439.5 1139.5,429.5 1139.5,419.5 Z"/></g>
<g><path style="opacity:1" fill="#dd13e6" d="M 1229.5,419.5 C 1239.5,419.5 1249.5,419.5 1259.5,419.5C 1259.5,429.5 1259.5,439.5 1259.5,449.5C 1249.5,449.5 1239.5,449.5 1229.5,449.5C 1229.5,439.5 1229.5,429.5 1229.5,419.5 Z"/></g>
<g><path style="opacity:1" fill="#fadedd" d="M 1259.5,419.5 C 1269.5,419.5 1279.5,419.5 1289.5,419.5C 1289.5,429.5 1289.5,439.5 1289.5,449.5C 1279.5,449.5 1269.5,449.5 1259.5,449.5C 1259.5,439.5 1259.5,429.5 1259.5,419.5 Z"/></g>
<g><path style="opacity:1" fill="#fadedd" d="M 1079.5,449.5 C 1079.5,459.5 1079.5,469.5 1079.5,479.5C 1069.5,479.5 1059.5,479.5 1049.5,479.5C 1049.5,489.5 1049.5,499.5 1049.5,509.5C 1039.5,509.5 1029.5,509.5 1019.5,509.5C 1009.5,509.5 999.5,509.5 989.5,509.5C 989.5,499.5 989.5,489.5 989.5,479.5C 999.5,479.5 1009.5,479.5 1019.5,479.5C 1019.5,469.5 1019.5,459.5 1019.5,449.5C 1039.5,449.5 1059.5,449.5 1079.5,449.5 Z"/></g>
<g><path style="opacity:1" fill="#e85d5c" d="M 1079.5,449.5 C 1089.5,449.5 1099.5,449.5 1109.5,449.5C 1109.5,479.5 1109.5,509.5 1109.5,539.5C 1099.5,539.5 1089.5,539.5 1079.5,539.5C 1079.5,519.5 1079.5,499.5 1079.5,479.5C 1079.5,469.5 1079.5,459.5 1079.5,449.5 Z"/></g>
<g><path style="opacity:1" fill="#fefffe" d="M 1109.5,449.5 C 1119.5,449.5 1129.5,449.5 1139.5,449.5C 1149.5,449.5 1159.5,449.5 1169.5,449.5C 1169.5,459.5 1169.5,469.5 1169.5,479.5C 1159.5,479.5 1149.5,479.5 1139.5,479.5C 1139.5,489.5 1139.5,499.5 1139.5,509.5C 1149.5,509.5 1159.5,509.5 1169.5,509.5C 1169.5,519.5 1169.5,529.5 1169.5,539.5C 1179.5,539.5 1189.5,539.5 1199.5,539.5C 1199.5,529.5 1199.5,519.5 1199.5,509.5C 1219.5,509.5 1239.5,509.5 1259.5,509.5C 1259.5,519.5 1259.5,529.5 1259.5,539.5C 1269.5,539.5 1279.5,539.5 1289.5,539.5C 1289.5,529.5 1289.5,519.5 1289.5,509.5C 1299.5,509.5 1309.5,509.5 1319.5,509.5C 1329.5,509.5 1339.5,509.5 1349.5,509.5C 1349.5,529.5 1349.5,549.5 1349.5,569.5C 1329.5,569.5 1309.5,569.5 1289.5,569.5C 1289.5,579.5 1289.5,589.5 1289.5,599.5C 1219.5,599.5 1149.5,599.5 1079.5,599.5C 1079.5,589.5 1079.5,579.5 1079.5,569.5C 1059.5,569.5 1039.5,569.5 1019.5,569.5C 1019.5,549.5 1019.5,529.5 1019.5,509.5C 1029.5,509.5 1039.5,509.5 1049.5,509.5C 1049.5,499.5 1049.5,489.5 1049.5,479.5C 1059.5,479.5 1069.5,479.5 1079.5,479.5C 1079.5,499.5 1079.5,519.5 1079.5,539.5C 1089.5,539.5 1099.5,539.5 1109.5,539.5C 1109.5,509.5 1109.5,479.5 1109.5,449.5 Z"/></g>
<g><path style="opacity:1" fill="#e85d5c" d="M 1169.5,449.5 C 1179.5,449.5 1189.5,449.5 1199.5,449.5C 1199.5,459.5 1199.5,469.5 1199.5,479.5C 1189.5,479.5 1179.5,479.5 1169.5,479.5C 1169.5,469.5 1169.5,459.5 1169.5,449.5 Z"/></g>
<g><path style="opacity:1" fill="#fefffe" d="M 1199.5,449.5 C 1209.5,449.5 1219.5,449.5 1229.5,449.5C 1239.5,449.5 1249.5,449.5 1259.5,449.5C 1259.5,459.5 1259.5,469.5 1259.5,479.5C 1239.5,479.5 1219.5,479.5 1199.5,479.5C 1199.5,469.5 1199.5,459.5 1199.5,449.5 Z"/></g>
<g><path style="opacity:1" fill="#e85d5c" d="M 1259.5,449.5 C 1269.5,449.5 1279.5,449.5 1289.5,449.5C 1289.5,459.5 1289.5,469.5 1289.5,479.5C 1279.5,479.5 1269.5,479.5 1259.5,479.5C 1259.5,469.5 1259.5,459.5 1259.5,449.5 Z"/></g>
<g><path style="opacity:1" fill="#fadedd" d="M 1289.5,449.5 C 1309.5,449.5 1329.5,449.5 1349.5,449.5C 1349.5,459.5 1349.5,469.5 1349.5,479.5C 1359.5,479.5 1369.5,479.5 1379.5,479.5C 1379.5,489.5 1379.5,499.5 1379.5,509.5C 1369.5,509.5 1359.5,509.5 1349.5,509.5C 1339.5,509.5 1329.5,509.5 1319.5,509.5C 1319.5,499.5 1319.5,489.5 1319.5,479.5C 1309.5,479.5 1299.5,479.5 1289.5,479.5C 1289.5,469.5 1289.5,459.5 1289.5,449.5 Z"/></g>
<g><path style="opacity:1" fill="#fe9e1f" d="M 989.5,479.5 C 989.5,489.5 989.5,499.5 989.5,509.5C 989.5,519.5 989.5,529.5 989.5,539.5C 979.5,539.5 969.5,539.5 959.5,539.5C 959.5,519.5 959.5,499.5 959.5,479.5C 969.5,479.5 979.5,479.5 989.5,479.5 Z"/></g>
<g><path style="opacity:1" fill="#e85d5c" d="M 1169.5,479.5 C 1169.5,489.5 1169.5,499.5 1169.5,509.5C 1159.5,509.5 1149.5,509.5 1139.5,509.5C 1139.5,499.5 1139.5,489.5 1139.5,479.5C 1149.5,479.5 1159.5,479.5 1169.5,479.5 Z"/></g>
<g><path style="opacity:1" fill="#fefffe" d="M 1169.5,479.5 C 1179.5,479.5 1189.5,479.5 1199.5,479.5C 1199.5,489.5 1199.5,499.5 1199.5,509.5C 1189.5,509.5 1179.5,509.5 1169.5,509.5C 1169.5,499.5 1169.5,489.5 1169.5,479.5 Z"/></g>
<g><path style="opacity:1" fill="#e85d5c" d="M 1199.5,479.5 C 1219.5,479.5 1239.5,479.5 1259.5,479.5C 1259.5,489.5 1259.5,499.5 1259.5,509.5C 1239.5,509.5 1219.5,509.5 1199.5,509.5C 1199.5,499.5 1199.5,489.5 1199.5,479.5 Z"/></g>
<g><path style="opacity:1" fill="#fefffe" d="M 1259.5,479.5 C 1269.5,479.5 1279.5,479.5 1289.5,479.5C 1289.5,489.5 1289.5,499.5 1289.5,509.5C 1279.5,509.5 1269.5,509.5 1259.5,509.5C 1259.5,499.5 1259.5,489.5 1259.5,479.5 Z"/></g>
<g><path style="opacity:1" fill="#e85d5c" d="M 1289.5,479.5 C 1299.5,479.5 1309.5,479.5 1319.5,479.5C 1319.5,489.5 1319.5,499.5 1319.5,509.5C 1309.5,509.5 1299.5,509.5 1289.5,509.5C 1289.5,499.5 1289.5,489.5 1289.5,479.5 Z"/></g>
<g><path style="opacity:1" fill="#e85d5c" d="M 989.5,509.5 C 999.5,509.5 1009.5,509.5 1019.5,509.5C 1019.5,529.5 1019.5,549.5 1019.5,569.5C 1009.5,569.5 999.5,569.5 989.5,569.5C 989.5,559.5 989.5,549.5 989.5,539.5C 989.5,529.5 989.5,519.5 989.5,509.5 Z"/></g>
<g><path style="opacity:1" fill="#e85d5c" d="M 1169.5,509.5 C 1179.5,509.5 1189.5,509.5 1199.5,509.5C 1199.5,519.5 1199.5,529.5 1199.5,539.5C 1189.5,539.5 1179.5,539.5 1169.5,539.5C 1169.5,529.5 1169.5,519.5 1169.5,509.5 Z"/></g>
<g><path style="opacity:1" fill="#e85d5c" d="M 1259.5,509.5 C 1269.5,509.5 1279.5,509.5 1289.5,509.5C 1289.5,519.5 1289.5,529.5 1289.5,539.5C 1279.5,539.5 1269.5,539.5 1259.5,539.5C 1259.5,529.5 1259.5,519.5 1259.5,509.5 Z"/></g>
<g><path style="opacity:1" fill="#e85d5c" d="M 1349.5,509.5 C 1359.5,509.5 1369.5,509.5 1379.5,509.5C 1379.5,529.5 1379.5,549.5 1379.5,569.5C 1369.5,569.5 1359.5,569.5 1349.5,569.5C 1349.5,549.5 1349.5,529.5 1349.5,509.5 Z"/></g>
<g><path style="opacity:1" fill="#febb00" d="M 959.5,539.5 C 969.5,539.5 979.5,539.5 989.5,539.5C 989.5,549.5 989.5,559.5 989.5,569.5C 989.5,619.5 989.5,669.5 989.5,719.5C 999.5,719.5 1009.5,719.5 1019.5,719.5C 1019.5,729.5 1019.5,739.5 1019.5,749.5C 1019.5,759.5 1019.5,769.5 1019.5,779.5C 1019.5,799.5 1019.5,819.5 1019.5,839.5C 1009.5,839.5 999.5,839.5 989.5,839.5C 989.5,849.5 989.5,859.5 989.5,869.5C 979.5,869.5 969.5,869.5 959.5,869.5C 959.5,759.5 959.5,649.5 959.5,539.5 Z"/></g>
<g><path style="opacity:1" fill="#fadedd" d="M 989.5,569.5 C 999.5,569.5 1009.5,569.5 1019.5,569.5C 1019.5,579.5 1019.5,589.5 1019.5,599.5C 1039.5,599.5 1059.5,599.5 1079.5,599.5C 1079.5,609.5 1079.5,619.5 1079.5,629.5C 1149.5,629.5 1219.5,629.5 1289.5,629.5C 1289.5,619.5 1289.5,609.5 1289.5,599.5C 1309.5,599.5 1329.5,599.5 1349.5,599.5C 1349.5,589.5 1349.5,579.5 1349.5,569.5C 1359.5,569.5 1369.5,569.5 1379.5,569.5C 1379.5,619.5 1379.5,669.5 1379.5,719.5C 1369.5,719.5 1359.5,719.5 1349.5,719.5C 1349.5,709.5 1349.5,699.5 1349.5,689.5C 1349.5,669.5 1349.5,649.5 1349.5,629.5C 1339.5,629.5 1329.5,629.5 1319.5,629.5C 1319.5,639.5 1319.5,649.5 1319.5,659.5C 1309.5,659.5 1299.5,659.5 1289.5,659.5C 1259.5,659.5 1229.5,659.5 1199.5,659.5C 1189.5,659.5 1179.5,659.5 1169.5,659.5C 1139.5,659.5 1109.5,659.5 1079.5,659.5C 1069.5,659.5 1059.5,659.5 1049.5,659.5C 1049.5,649.5 1049.5,639.5 1049.5,629.5C 1039.5,629.5 1029.5,629.5 1019.5,629.5C 1019.5,649.5 1019.5,669.5 1019.5,689.5C 1019.5,699.5 1019.5,709.5 1019.5,719.5C 1009.5,719.5 999.5,719.5 989.5,719.5C 989.5,669.5 989.5,619.5 989.5,569.5 Z"/></g>
<g><path style="opacity:1" fill="#e85d5c" d="M 1019.5,569.5 C 1039.5,569.5 1059.5,569.5 1079.5,569.5C 1079.5,579.5 1079.5,589.5 1079.5,599.5C 1059.5,599.5 1039.5,599.5 1019.5,599.5C 1019.5,589.5 1019.5,579.5 1019.5,569.5 Z"/></g>
<g><path style="opacity:1" fill="#e85d5c" d="M 1349.5,569.5 C 1349.5,579.5 1349.5,589.5 1349.5,599.5C 1329.5,599.5 1309.5,599.5 1289.5,599.5C 1289.5,589.5 1289.5,579.5 1289.5,569.5C 1309.5,569.5 1329.5,569.5 1349.5,569.5 Z"/></g>
<g><path style="opacity:1" fill="#e85d5c" d="M 1079.5,599.5 C 1149.5,599.5 1219.5,599.5 1289.5,599.5C 1289.5,609.5 1289.5,619.5 1289.5,629.5C 1219.5,629.5 1149.5,629.5 1079.5,629.5C 1079.5,619.5 1079.5,609.5 1079.5,599.5 Z"/></g>
<g><path style="opacity:1" fill="#fefffe" d="M 1049.5,659.5 C 1049.5,669.5 1049.5,679.5 1049.5,689.5C 1039.5,689.5 1029.5,689.5 1019.5,689.5C 1019.5,669.5 1019.5,649.5 1019.5,629.5C 1029.5,629.5 1039.5,629.5 1049.5,629.5C 1049.5,639.5 1049.5,649.5 1049.5,659.5 Z"/></g>
<g><path style="opacity:1" fill="#fefffe" d="M 1349.5,689.5 C 1339.5,689.5 1329.5,689.5 1319.5,689.5C 1319.5,679.5 1319.5,669.5 1319.5,659.5C 1319.5,649.5 1319.5,639.5 1319.5,629.5C 1329.5,629.5 1339.5,629.5 1349.5,629.5C 1349.5,649.5 1349.5,669.5 1349.5,689.5 Z"/></g>
<g><path style="opacity:1" fill="#e85d5c" d="M 1049.5,659.5 C 1059.5,659.5 1069.5,659.5 1079.5,659.5C 1079.5,669.5 1079.5,679.5 1079.5,689.5C 1089.5,689.5 1099.5,689.5 1109.5,689.5C 1109.5,699.5 1109.5,709.5 1109.5,719.5C 1119.5,719.5 1129.5,719.5 1139.5,719.5C 1139.5,709.5 1139.5,699.5 1139.5,689.5C 1149.5,689.5 1159.5,689.5 1169.5,689.5C 1169.5,679.5 1169.5,669.5 1169.5,659.5C 1179.5,659.5 1189.5,659.5 1199.5,659.5C 1199.5,669.5 1199.5,679.5 1199.5,689.5C 1209.5,689.5 1219.5,689.5 1229.5,689.5C 1229.5,699.5 1229.5,709.5 1229.5,719.5C 1239.5,719.5 1249.5,719.5 1259.5,719.5C 1259.5,709.5 1259.5,699.5 1259.5,689.5C 1269.5,689.5 1279.5,689.5 1289.5,689.5C 1289.5,679.5 1289.5,669.5 1289.5,659.5C 1299.5,659.5 1309.5,659.5 1319.5,659.5C 1319.5,669.5 1319.5,679.5 1319.5,689.5C 1329.5,689.5 1339.5,689.5 1349.5,689.5C 1349.5,699.5 1349.5,709.5 1349.5,719.5C 1329.5,719.5 1309.5,719.5 1289.5,719.5C 1289.5,729.5 1289.5,739.5 1289.5,749.5C 1219.5,749.5 1149.5,749.5 1079.5,749.5C 1079.5,739.5 1079.5,729.5 1079.5,719.5C 1059.5,719.5 1039.5,719.5 1019.5,719.5C 1019.5,709.5 1019.5,699.5 1019.5,689.5C 1029.5,689.5 1039.5,689.5 1049.5,689.5C 1049.5,679.5 1049.5,669.5 1049.5,659.5 Z"/></g>
<g><path style="opacity:1" fill="#fefffe" d="M 1079.5,659.5 C 1109.5,659.5 1139.5,659.5 1169.5,659.5C 1169.5,669.5 1169.5,679.5 1169.5,689.5C 1159.5,689.5 1149.5,689.5 1139.5,689.5C 1139.5,699.5 1139.5,709.5 1139.5,719.5C 1129.5,719.5 1119.5,719.5 1109.5,719.5C 1109.5,709.5 1109.5,699.5 1109.5,689.5C 1099.5,689.5 1089.5,689.5 1079.5,689.5C 1079.5,679.5 1079.5,669.5 1079.5,659.5 Z"/></g>
<g><path style="opacity:1" fill="#fefffe" d="M 1199.5,659.5 C 1229.5,659.5 1259.5,659.5 1289.5,659.5C 1289.5,669.5 1289.5,679.5 1289.5,689.5C 1279.5,689.5 1269.5,689.5 1259.5,689.5C 1259.5,699.5 1259.5,709.5 1259.5,719.5C 1249.5,719.5 1239.5,719.5 1229.5,719.5C 1229.5,709.5 1229.5,699.5 1229.5,689.5C 1219.5,689.5 1209.5,689.5 1199.5,689.5C 1199.5,679.5 1199.5,669.5 1199.5,659.5 Z"/></g>
<g><path style="opacity:1" fill="#fadedd" d="M 1019.5,719.5 C 1039.5,719.5 1059.5,719.5 1079.5,719.5C 1079.5,729.5 1079.5,739.5 1079.5,749.5C 1069.5,749.5 1059.5,749.5 1049.5,749.5C 1039.5,749.5 1029.5,749.5 1019.5,749.5C 1019.5,739.5 1019.5,729.5 1019.5,719.5 Z"/></g>
<g><path style="opacity:1" fill="#fadedd" d="M 1349.5,719.5 C 1349.5,729.5 1349.5,739.5 1349.5,749.5C 1329.5,749.5 1309.5,749.5 1289.5,749.5C 1289.5,739.5 1289.5,729.5 1289.5,719.5C 1309.5,719.5 1329.5,719.5 1349.5,719.5 Z"/></g>
<g><path style="opacity:1" fill="#f09c2f" d="M 1019.5,749.5 C 1029.5,749.5 1039.5,749.5 1049.5,749.5C 1049.5,759.5 1049.5,769.5 1049.5,779.5C 1039.5,779.5 1029.5,779.5 1019.5,779.5C 1019.5,769.5 1019.5,759.5 1019.5,749.5 Z"/></g>
<g><path style="opacity:1" fill="#febb00" d="M 1049.5,749.5 C 1059.5,749.5 1069.5,749.5 1079.5,749.5C 1079.5,759.5 1079.5,769.5 1079.5,779.5C 1069.5,779.5 1059.5,779.5 1049.5,779.5C 1049.5,769.5 1049.5,759.5 1049.5,749.5 Z"/></g>
<g><path style="opacity:1" fill="#fadedd" d="M 1079.5,749.5 C 1149.5,749.5 1219.5,749.5 1289.5,749.5C 1289.5,759.5 1289.5,769.5 1289.5,779.5C 1259.5,779.5 1229.5,779.5 1199.5,779.5C 1189.5,779.5 1179.5,779.5 1169.5,779.5C 1139.5,779.5 1109.5,779.5 1079.5,779.5C 1079.5,769.5 1079.5,759.5 1079.5,749.5 Z"/></g>
<g><path style="opacity:1" fill="#db7524" d="M 1019.5,779.5 C 1029.5,779.5 1039.5,779.5 1049.5,779.5C 1049.5,799.5 1049.5,819.5 1049.5,839.5C 1069.5,839.5 1089.5,839.5 1109.5,839.5C 1119.5,839.5 1129.5,839.5 1139.5,839.5C 1139.5,849.5 1139.5,859.5 1139.5,869.5C 1099.5,869.5 1059.5,869.5 1019.5,869.5C 1019.5,879.5 1019.5,889.5 1019.5,899.5C 1009.5,899.5 999.5,899.5 989.5,899.5C 989.5,909.5 989.5,919.5 989.5,929.5C 979.5,929.5 969.5,929.5 959.5,929.5C 959.5,909.5 959.5,889.5 959.5,869.5C 969.5,869.5 979.5,869.5 989.5,869.5C 989.5,859.5 989.5,849.5 989.5,839.5C 999.5,839.5 1009.5,839.5 1019.5,839.5C 1019.5,819.5 1019.5,799.5 1019.5,779.5 Z"/></g>
<g><path style="opacity:1" fill="#f09c2f" d="M 1049.5,779.5 C 1059.5,779.5 1069.5,779.5 1079.5,779.5C 1079.5,789.5 1079.5,799.5 1079.5,809.5C 1089.5,809.5 1099.5,809.5 1109.5,809.5C 1109.5,819.5 1109.5,829.5 1109.5,839.5C 1089.5,839.5 1069.5,839.5 1049.5,839.5C 1049.5,819.5 1049.5,799.5 1049.5,779.5 Z"/></g>
<g><path style="opacity:1" fill="#febb00" d="M 1079.5,779.5 C 1109.5,779.5 1139.5,779.5 1169.5,779.5C 1169.5,789.5 1169.5,799.5 1169.5,809.5C 1159.5,809.5 1149.5,809.5 1139.5,809.5C 1139.5,819.5 1139.5,829.5 1139.5,839.5C 1129.5,839.5 1119.5,839.5 1109.5,839.5C 1109.5,829.5 1109.5,819.5 1109.5,809.5C 1099.5,809.5 1089.5,809.5 1079.5,809.5C 1079.5,799.5 1079.5,789.5 1079.5,779.5 Z"/></g>
<g><path style="opacity:1" fill="#db7524" d="M 1169.5,779.5 C 1179.5,779.5 1189.5,779.5 1199.5,779.5C 1199.5,799.5 1199.5,819.5 1199.5,839.5C 1179.5,839.5 1159.5,839.5 1139.5,839.5C 1139.5,829.5 1139.5,819.5 1139.5,809.5C 1149.5,809.5 1159.5,809.5 1169.5,809.5C 1169.5,799.5 1169.5,789.5 1169.5,779.5 Z"/></g>
</svg>
