<?xml version="1.0" encoding="UTF-8"?>
<!DOCTYPE svg PUBLIC "-//W3C//DTD SVG 1.1//EN" "http://www.w3.org/Graphics/SVG/1.1/DTD/svg11.dtd">
<svg xmlns="http://www.w3.org/2000/svg" version="1.1" width="2160px" height="2160px" style="shape-rendering:geometricPrecision; text-rendering:geometricPrecision; image-rendering:optimizeQuality; fill-rule:evenodd; clip-rule:evenodd" xmlns:xlink="http://www.w3.org/1999/xlink">
<g><path style="opacity:1" fill="#fe9e1f" d="M 1379.5,869.5 C 1369.5,869.5 1359.5,869.5 1349.5,869.5C 1349.5,809.5 1349.5,749.5 1349.5,689.5C 1339.5,689.5 1329.5,689.5 1319.5,689.5C 1319.5,669.5 1319.5,649.5 1319.5,629.5C 1309.5,629.5 1299.5,629.5 1289.5,629.5C 1289.5,619.5 1289.5,609.5 1289.5,599.5C 1279.5,599.5 1269.5,599.5 1259.5,599.5C 1259.5,589.5 1259.5,579.5 1259.5,569.5C 1249.5,569.5 1239.5,569.5 1229.5,569.5C 1229.5,559.5 1229.5,549.5 1229.5,539.5C 1219.5,539.5 1209.5,539.5 1199.5,539.5C 1199.5,529.5 1199.5,519.5 1199.5,509.5C 1169.5,509.5 1139.5,509.5 1109.5,509.5C 1109.5,499.5 1109.5,489.5 1109.5,479.5C 1099.5,479.5 1089.5,479.5 1079.5,479.5C 1079.5,489.5 1079.5,499.5 1079.5,509.5C 1059.5,509.5 1039.5,509.5 1019.5,509.5C 989.5,509.5 959.5,509.5 929.5,509.5C 929.5,499.5 929.5,489.5 929.5,479.5C 969.5,479.5 1009.5,479.5 1049.5,479.5C 1049.5,469.5 1049.5,459.5 1049.5,449.5C 1079.5,449.5 1109.5,449.5 1139.5,449.5C 1139.5,459.5 1139.5,469.5 1139.5,479.5C 1169.5,479.5 1199.5,479.5 1229.5,479.5C 1229.5,489.5 1229.5,499.5 1229.5,509.5C 1239.5,509.5 1249.5,509.5 1259.5,509.5C 1259.5,519.5 1259.5,529.5 1259.5,539.5C 1269.5,539.5 1279.5,539.5 1289.5,539.5C 1289.5,549.5 1289.5,559.5 1289.5,569.5C 1299.5,569.5 1309.5,569.5 1319.5,569.5C 1319.5,579.5 1319.5,589.5 1319.5,599.5C 1329.5,599.5 1339.5,599.5 1349.5,599.5C 1349.5,619.5 1349.5,639.5 1349.5,659.5C 1359.5,659.5 1369.5,659.5 1379.5,659.5C 1379.5,729.5 1379.5,799.5 1379.5,869.5 Z"/></g>
<g><path style="opacity:1" fill="#febb00" d="M 1349.5,869.5 C 1349.5,889.5 1349.5,909.5 1349.5,929.5C 1339.5,929.5 1329.5,929.5 1319.5,929.5C 1319.5,939.5 1319.5,949.5 1319.5,959.5C 1309.5,959.5 1299.5,959.5 1289.5,959.5C 1289.5,969.5 1289.5,979.5 1289.5,989.5C 1279.5,989.5 1269.5,989.5 1259.5,989.5C 1249.5,989.5 1239.5,989.5 1229.5,989.5C 1229.5,999.5 1229.5,1009.5 1229.5,1019.5C 1209.5,1019.5 1189.5,1019.5 1169.5,1019.5C 1169.5,1029.5 1169.5,1039.5 1169.5,1049.5C 1099.5,1049.5 1029.5,1049.5 959.5,1049.5C 949.5,1049.5 939.5,1049.5 929.5,1049.5C 929.5,1039.5 929.5,1029.5 929.5,1019.5C 909.5,1019.5 889.5,1019.5 869.5,1019.5C 849.5,1019.5 829.5,1019.5 809.5,1019.5C 809.5,999.5 809.5,979.5 809.5,959.5C 799.5,959.5 789.5,959.5 779.5,959.5C 779.5,939.5 779.5,919.5 779.5,899.5C 769.5,899.5 759.5,899.5 749.5,899.5C 749.5,869.5 749.5,839.5 749.5,809.5C 749.5,799.5 749.5,789.5 749.5,779.5C 759.5,779.5 769.5,779.5 779.5,779.5C 779.5,749.5 779.5,719.5 779.5,689.5C 789.5,689.5 799.5,689.5 809.5,689.5C 809.5,669.5 809.5,649.5 809.5,629.5C 819.5,629.5 829.5,629.5 839.5,629.5C 849.5,629.5 859.5,629.5 869.5,629.5C 869.5,619.5 869.5,609.5 869.5,599.5C 879.5,599.5 889.5,599.5 899.5,599.5C 899.5,589.5 899.5,579.5 899.5,569.5C 919.5,569.5 939.5,569.5 959.5,569.5C 959.5,559.5 959.5,549.5 959.5,539.5C 979.5,539.5 999.5,539.5 1019.5,539.5C 1019.5,529.5 1019.5,519.5 1019.5,509.5C 1039.5,509.5 1059.5,509.5 1079.5,509.5C 1079.5,499.5 1079.5,489.5 1079.5,479.5C 1089.5,479.5 1099.5,479.5 1109.5,479.5C 1109.5,489.5 1109.5,499.5 1109.5,509.5C 1139.5,509.5 1169.5,509.5 1199.5,509.5C 1199.5,519.5 1199.5,529.5 1199.5,539.5C 1209.5,539.5 1219.5,539.5 1229.5,539.5C 1229.5,549.5 1229.5,559.5 1229.5,569.5C 1239.5,569.5 1249.5,569.5 1259.5,569.5C 1259.5,579.5 1259.5,589.5 1259.5,599.5C 1269.5,599.5 1279.5,599.5 1289.5,599.5C 1289.5,609.5 1289.5,619.5 1289.5,629.5C 1299.5,629.5 1309.5,629.5 1319.5,629.5C 1319.5,649.5 1319.5,669.5 1319.5,689.5C 1329.5,689.5 1339.5,689.5 1349.5,689.5C 1349.5,749.5 1349.5,809.5 1349.5,869.5 Z"/></g>
<g><path style="opacity:1" fill="#fe9e1f" d="M 929.5,509.5 C 929.5,519.5 929.5,529.5 929.5,539.5C 909.5,539.5 889.5,539.5 869.5,539.5C 869.5,529.5 869.5,519.5 869.5,509.5C 889.5,509.5 909.5,509.5 929.5,509.5 Z"/></g>
<g><path style="opacity:1" fill="#fbd152" d="M 929.5,509.5 C 959.5,509.5 989.5,509.5 1019.5,509.5C 1019.5,519.5 1019.5,529.5 1019.5,539.5C 999.5,539.5 979.5,539.5 959.5,539.5C 959.5,549.5 959.5,559.5 959.5,569.5C 939.5,569.5 919.5,569.5 899.5,569.5C 899.5,579.5 899.5,589.5 899.5,599.5C 889.5,599.5 879.5,599.5 869.5,599.5C 869.5,609.5 869.5,619.5 869.5,629.5C 859.5,629.5 849.5,629.5 839.5,629.5C 839.5,609.5 839.5,589.5 839.5,569.5C 849.5,569.5 859.5,569.5 869.5,569.5C 869.5,559.5 869.5,549.5 869.5,539.5C 889.5,539.5 909.5,539.5 929.5,539.5C 929.5,529.5 929.5,519.5 929.5,509.5 Z"/></g>
<g><path style="opacity:1" fill="#fe9e1f" d="M 869.5,539.5 C 869.5,549.5 869.5,559.5 869.5,569.5C 859.5,569.5 849.5,569.5 839.5,569.5C 839.5,589.5 839.5,609.5 839.5,629.5C 829.5,629.5 819.5,629.5 809.5,629.5C 809.5,649.5 809.5,669.5 809.5,689.5C 799.5,689.5 789.5,689.5 779.5,689.5C 779.5,719.5 779.5,749.5 779.5,779.5C 769.5,779.5 759.5,779.5 749.5,779.5C 749.5,789.5 749.5,799.5 749.5,809.5C 739.5,809.5 729.5,809.5 719.5,809.5C 719.5,789.5 719.5,769.5 719.5,749.5C 729.5,749.5 739.5,749.5 749.5,749.5C 749.5,719.5 749.5,689.5 749.5,659.5C 759.5,659.5 769.5,659.5 779.5,659.5C 779.5,639.5 779.5,619.5 779.5,599.5C 789.5,599.5 799.5,599.5 809.5,599.5C 809.5,579.5 809.5,559.5 809.5,539.5C 829.5,539.5 849.5,539.5 869.5,539.5 Z"/></g>
<g><path style="opacity:1" fill="#000000" d="M 929.5,719.5 C 939.5,719.5 949.5,719.5 959.5,719.5C 959.5,739.5 959.5,759.5 959.5,779.5C 949.5,779.5 939.5,779.5 929.5,779.5C 929.5,759.5 929.5,739.5 929.5,719.5 Z"/></g>
<g><path style="opacity:1" fill="#000000" d="M 1139.5,719.5 C 1149.5,719.5 1159.5,719.5 1169.5,719.5C 1169.5,739.5 1169.5,759.5 1169.5,779.5C 1159.5,779.5 1149.5,779.5 1139.5,779.5C 1139.5,759.5 1139.5,739.5 1139.5,719.5 Z"/></g>
<g><path style="opacity:1" fill="#db7524" d="M 719.5,809.5 C 729.5,809.5 739.5,809.5 749.5,809.5C 749.5,839.5 749.5,869.5 749.5,899.5C 739.5,899.5 729.5,899.5 719.5,899.5C 719.5,869.5 719.5,839.5 719.5,809.5 Z"/></g>
<g><path style="opacity:1" fill="#ee692e" d="M 1139.5,839.5 C 1079.5,839.5 1019.5,839.5 959.5,839.5C 959.5,829.5 959.5,819.5 959.5,809.5C 1019.5,809.5 1079.5,809.5 1139.5,809.5C 1139.5,819.5 1139.5,829.5 1139.5,839.5 Z"/></g>
<g><path style="opacity:1" fill="#c84015" d="M 959.5,839.5 C 959.5,849.5 959.5,859.5 959.5,869.5C 949.5,869.5 939.5,869.5 929.5,869.5C 929.5,859.5 929.5,849.5 929.5,839.5C 939.5,839.5 949.5,839.5 959.5,839.5 Z"/></g>
<g><path style="opacity:1" fill="#e58e21" d="M 959.5,839.5 C 1019.5,839.5 1079.5,839.5 1139.5,839.5C 1139.5,849.5 1139.5,859.5 1139.5,869.5C 1079.5,869.5 1019.5,869.5 959.5,869.5C 959.5,859.5 959.5,849.5 959.5,839.5 Z"/></g>
<g><path style="opacity:1" fill="#c84015" d="M 1139.5,839.5 C 1149.5,839.5 1159.5,839.5 1169.5,839.5C 1169.5,849.5 1169.5,859.5 1169.5,869.5C 1159.5,869.5 1149.5,869.5 1139.5,869.5C 1139.5,859.5 1139.5,849.5 1139.5,839.5 Z"/></g>
<g><path style="opacity:1" fill="#c84015" d="M 959.5,869.5 C 1019.5,869.5 1079.5,869.5 1139.5,869.5C 1139.5,879.5 1139.5,889.5 1139.5,899.5C 1079.5,899.5 1019.5,899.5 959.5,899.5C 959.5,889.5 959.5,879.5 959.5,869.5 Z"/></g>
<g><path style="opacity:1" fill="#c65f0d" d="M 1349.5,869.5 C 1359.5,869.5 1369.5,869.5 1379.5,869.5C 1379.5,889.5 1379.5,909.5 1379.5,929.5C 1369.5,929.5 1359.5,929.5 1349.5,929.5C 1349.5,909.5 1349.5,889.5 1349.5,869.5 Z"/></g>
<g><path style="opacity:1" fill="#db7524" d="M 749.5,899.5 C 759.5,899.5 769.5,899.5 779.5,899.5C 779.5,919.5 779.5,939.5 779.5,959.5C 789.5,959.5 799.5,959.5 809.5,959.5C 809.5,979.5 809.5,999.5 809.5,1019.5C 799.5,1019.5 789.5,1019.5 779.5,1019.5C 779.5,1009.5 779.5,999.5 779.5,989.5C 769.5,989.5 759.5,989.5 749.5,989.5C 749.5,959.5 749.5,929.5 749.5,899.5 Z"/></g>
<g><path style="opacity:1" fill="#db7524" d="M 1349.5,929.5 C 1349.5,949.5 1349.5,969.5 1349.5,989.5C 1339.5,989.5 1329.5,989.5 1319.5,989.5C 1319.5,999.5 1319.5,1009.5 1319.5,1019.5C 1309.5,1019.5 1299.5,1019.5 1289.5,1019.5C 1289.5,1029.5 1289.5,1039.5 1289.5,1049.5C 1279.5,1049.5 1269.5,1049.5 1259.5,1049.5C 1259.5,1059.5 1259.5,1069.5 1259.5,1079.5C 1239.5,1079.5 1219.5,1079.5 1199.5,1079.5C 1199.5,1089.5 1199.5,1099.5 1199.5,1109.5C 1109.5,1109.5 1019.5,1109.5 929.5,1109.5C 929.5,1099.5 929.5,1089.5 929.5,1079.5C 899.5,1079.5 869.5,1079.5 839.5,1079.5C 839.5,1069.5 839.5,1059.5 839.5,1049.5C 829.5,1049.5 819.5,1049.5 809.5,1049.5C 809.5,1039.5 809.5,1029.5 809.5,1019.5C 829.5,1019.5 849.5,1019.5 869.5,1019.5C 869.5,1029.5 869.5,1039.5 869.5,1049.5C 889.5,1049.5 909.5,1049.5 929.5,1049.5C 939.5,1049.5 949.5,1049.5 959.5,1049.5C 959.5,1059.5 959.5,1069.5 959.5,1079.5C 1029.5,1079.5 1099.5,1079.5 1169.5,1079.5C 1169.5,1069.5 1169.5,1059.5 1169.5,1049.5C 1189.5,1049.5 1209.5,1049.5 1229.5,1049.5C 1229.5,1039.5 1229.5,1029.5 1229.5,1019.5C 1239.5,1019.5 1249.5,1019.5 1259.5,1019.5C 1259.5,1009.5 1259.5,999.5 1259.5,989.5C 1269.5,989.5 1279.5,989.5 1289.5,989.5C 1289.5,979.5 1289.5,969.5 1289.5,959.5C 1299.5,959.5 1309.5,959.5 1319.5,959.5C 1319.5,949.5 1319.5,939.5 1319.5,929.5C 1329.5,929.5 1339.5,929.5 1349.5,929.5 Z"/></g>
<g><path style="opacity:1" fill="#f09c2f" d="M 1259.5,989.5 C 1259.5,999.5 1259.5,1009.5 1259.5,1019.5C 1249.5,1019.5 1239.5,1019.5 1229.5,1019.5C 1229.5,1009.5 1229.5,999.5 1229.5,989.5C 1239.5,989.5 1249.5,989.5 1259.5,989.5 Z"/></g>
<g><path style="opacity:1" fill="#f09c2f" d="M 869.5,1019.5 C 889.5,1019.5 909.5,1019.5 929.5,1019.5C 929.5,1029.5 929.5,1039.5 929.5,1049.5C 909.5,1049.5 889.5,1049.5 869.5,1049.5C 869.5,1039.5 869.5,1029.5 869.5,1019.5 Z"/></g>
<g><path style="opacity:1" fill="#f09c2f" d="M 1229.5,1019.5 C 1229.5,1029.5 1229.5,1039.5 1229.5,1049.5C 1209.5,1049.5 1189.5,1049.5 1169.5,1049.5C 1169.5,1039.5 1169.5,1029.5 1169.5,1019.5C 1189.5,1019.5 1209.5,1019.5 1229.5,1019.5 Z"/></g>
<g><path style="opacity:1" fill="#f09c2f" d="M 959.5,1049.5 C 1029.5,1049.5 1099.5,1049.5 1169.5,1049.5C 1169.5,1059.5 1169.5,1069.5 1169.5,1079.5C 1099.5,1079.5 1029.5,1079.5 959.5,1079.5C 959.5,1069.5 959.5,1059.5 959.5,1049.5 Z"/></g>
<g><path style="opacity:1" fill="#febb00" d="M 329.5,1259.5 C 329.5,1269.5 329.5,1279.5 329.5,1289.5C 339.5,1289.5 349.5,1289.5 359.5,1289.5C 359.5,1299.5 359.5,1309.5 359.5,1319.5C 349.5,1319.5 339.5,1319.5 329.5,1319.5C 329.5,1339.5 329.5,1359.5 329.5,1379.5C 319.5,1379.5 309.5,1379.5 299.5,1379.5C 299.5,1369.5 299.5,1359.5 299.5,1349.5C 299.5,1339.5 299.5,1329.5 299.5,1319.5C 289.5,1319.5 279.5,1319.5 269.5,1319.5C 269.5,1329.5 269.5,1339.5 269.5,1349.5C 269.5,1379.5 269.5,1409.5 269.5,1439.5C 309.5,1439.5 349.5,1439.5 389.5,1439.5C 389.5,1409.5 389.5,1379.5 389.5,1349.5C 389.5,1329.5 389.5,1309.5 389.5,1289.5C 389.5,1259.5 389.5,1229.5 389.5,1199.5C 409.5,1199.5 429.5,1199.5 449.5,1199.5C 449.5,1209.5 449.5,1219.5 449.5,1229.5C 449.5,1319.5 449.5,1409.5 449.5,1499.5C 379.5,1499.5 309.5,1499.5 239.5,1499.5C 229.5,1499.5 219.5,1499.5 209.5,1499.5C 209.5,1399.5 209.5,1299.5 209.5,1199.5C 229.5,1199.5 249.5,1199.5 269.5,1199.5C 269.5,1229.5 269.5,1259.5 269.5,1289.5C 279.5,1289.5 289.5,1289.5 299.5,1289.5C 299.5,1269.5 299.5,1249.5 299.5,1229.5C 309.5,1229.5 319.5,1229.5 329.5,1229.5C 329.5,1239.5 329.5,1249.5 329.5,1259.5 Z M 269.5,1349.5 C 279.5,1349.5 289.5,1349.5 299.5,1349.5C 299.5,1359.5 299.5,1369.5 299.5,1379.5C 299.5,1389.5 299.5,1399.5 299.5,1409.5C 319.5,1409.5 339.5,1409.5 359.5,1409.5C 359.5,1389.5 359.5,1369.5 359.5,1349.5C 369.5,1349.5 379.5,1349.5 389.5,1349.5C 389.5,1379.5 389.5,1409.5 389.5,1439.5C 349.5,1439.5 309.5,1439.5 269.5,1439.5C 269.5,1409.5 269.5,1379.5 269.5,1349.5 Z"/></g>
<g><path style="opacity:1" fill="#febb00" d="M 569.5,1229.5 C 569.5,1329.5 569.5,1429.5 569.5,1529.5C 559.5,1529.5 549.5,1529.5 539.5,1529.5C 529.5,1529.5 519.5,1529.5 509.5,1529.5C 509.5,1419.5 509.5,1309.5 509.5,1199.5C 529.5,1199.5 549.5,1199.5 569.5,1199.5C 569.5,1209.5 569.5,1219.5 569.5,1229.5 Z"/></g>
<g><path style="opacity:1" fill="#febb00" d="M 869.5,1259.5 C 869.5,1299.5 869.5,1339.5 869.5,1379.5C 859.5,1379.5 849.5,1379.5 839.5,1379.5C 839.5,1389.5 839.5,1399.5 839.5,1409.5C 829.5,1409.5 819.5,1409.5 809.5,1409.5C 809.5,1419.5 809.5,1429.5 809.5,1439.5C 769.5,1439.5 729.5,1439.5 689.5,1439.5C 689.5,1429.5 689.5,1419.5 689.5,1409.5C 679.5,1409.5 669.5,1409.5 659.5,1409.5C 659.5,1399.5 659.5,1389.5 659.5,1379.5C 649.5,1379.5 639.5,1379.5 629.5,1379.5C 629.5,1339.5 629.5,1299.5 629.5,1259.5C 639.5,1259.5 649.5,1259.5 659.5,1259.5C 659.5,1249.5 659.5,1239.5 659.5,1229.5C 669.5,1229.5 679.5,1229.5 689.5,1229.5C 689.5,1219.5 689.5,1209.5 689.5,1199.5C 739.5,1199.5 789.5,1199.5 839.5,1199.5C 839.5,1209.5 839.5,1219.5 839.5,1229.5C 849.5,1229.5 859.5,1229.5 869.5,1229.5C 869.5,1239.5 869.5,1249.5 869.5,1259.5 Z M 809.5,1289.5 C 809.5,1319.5 809.5,1349.5 809.5,1379.5C 779.5,1379.5 749.5,1379.5 719.5,1379.5C 719.5,1349.5 719.5,1319.5 719.5,1289.5C 749.5,1289.5 779.5,1289.5 809.5,1289.5 Z"/></g>
<g><path style="opacity:1" fill="#febb00" d="M 959.5,1229.5 C 959.5,1239.5 959.5,1249.5 959.5,1259.5C 969.5,1259.5 979.5,1259.5 989.5,1259.5C 999.5,1259.5 1009.5,1259.5 1019.5,1259.5C 1019.5,1269.5 1019.5,1279.5 1019.5,1289.5C 999.5,1289.5 979.5,1289.5 959.5,1289.5C 959.5,1309.5 959.5,1329.5 959.5,1349.5C 969.5,1349.5 979.5,1349.5 989.5,1349.5C 999.5,1349.5 1009.5,1349.5 1019.5,1349.5C 1019.5,1359.5 1019.5,1369.5 1019.5,1379.5C 999.5,1379.5 979.5,1379.5 959.5,1379.5C 959.5,1389.5 959.5,1399.5 959.5,1409.5C 949.5,1409.5 939.5,1409.5 929.5,1409.5C 919.5,1409.5 909.5,1409.5 899.5,1409.5C 899.5,1399.5 899.5,1389.5 899.5,1379.5C 899.5,1339.5 899.5,1299.5 899.5,1259.5C 899.5,1239.5 899.5,1219.5 899.5,1199.5C 919.5,1199.5 939.5,1199.5 959.5,1199.5C 959.5,1209.5 959.5,1219.5 959.5,1229.5 Z"/></g>
<g><path style="opacity:1" fill="#febb00" d="M 1199.5,1259.5 C 1199.5,1269.5 1199.5,1279.5 1199.5,1289.5C 1209.5,1289.5 1219.5,1289.5 1229.5,1289.5C 1229.5,1299.5 1229.5,1309.5 1229.5,1319.5C 1219.5,1319.5 1209.5,1319.5 1199.5,1319.5C 1199.5,1339.5 1199.5,1359.5 1199.5,1379.5C 1189.5,1379.5 1179.5,1379.5 1169.5,1379.5C 1169.5,1369.5 1169.5,1359.5 1169.5,1349.5C 1169.5,1339.5 1169.5,1329.5 1169.5,1319.5C 1159.5,1319.5 1149.5,1319.5 1139.5,1319.5C 1139.5,1329.5 1139.5,1339.5 1139.5,1349.5C 1139.5,1379.5 1139.5,1409.5 1139.5,1439.5C 1179.5,1439.5 1219.5,1439.5 1259.5,1439.5C 1259.5,1409.5 1259.5,1379.5 1259.5,1349.5C 1259.5,1329.5 1259.5,1309.5 1259.5,1289.5C 1259.5,1259.5 1259.5,1229.5 1259.5,1199.5C 1279.5,1199.5 1299.5,1199.5 1319.5,1199.5C 1319.5,1209.5 1319.5,1219.5 1319.5,1229.5C 1319.5,1319.5 1319.5,1409.5 1319.5,1499.5C 1249.5,1499.5 1179.5,1499.5 1109.5,1499.5C 1099.5,1499.5 1089.5,1499.5 1079.5,1499.5C 1079.5,1399.5 1079.5,1299.5 1079.5,1199.5C 1099.5,1199.5 1119.5,1199.5 1139.5,1199.5C 1139.5,1229.5 1139.5,1259.5 1139.5,1289.5C 1149.5,1289.5 1159.5,1289.5 1169.5,1289.5C 1169.5,1269.5 1169.5,1249.5 1169.5,1229.5C 1179.5,1229.5 1189.5,1229.5 1199.5,1229.5C 1199.5,1239.5 1199.5,1249.5 1199.5,1259.5 Z M 1139.5,1349.5 C 1149.5,1349.5 1159.5,1349.5 1169.5,1349.5C 1169.5,1359.5 1169.5,1369.5 1169.5,1379.5C 1169.5,1389.5 1169.5,1399.5 1169.5,1409.5C 1189.5,1409.5 1209.5,1409.5 1229.5,1409.5C 1229.5,1389.5 1229.5,1369.5 1229.5,1349.5C 1239.5,1349.5 1249.5,1349.5 1259.5,1349.5C 1259.5,1379.5 1259.5,1409.5 1259.5,1439.5C 1219.5,1439.5 1179.5,1439.5 1139.5,1439.5C 1139.5,1409.5 1139.5,1379.5 1139.5,1349.5 Z"/></g>
<g><path style="opacity:1" fill="#febb00" d="M 1439.5,1229.5 C 1439.5,1329.5 1439.5,1429.5 1439.5,1529.5C 1429.5,1529.5 1419.5,1529.5 1409.5,1529.5C 1399.5,1529.5 1389.5,1529.5 1379.5,1529.5C 1379.5,1419.5 1379.5,1309.5 1379.5,1199.5C 1399.5,1199.5 1419.5,1199.5 1439.5,1199.5C 1439.5,1209.5 1439.5,1219.5 1439.5,1229.5 Z"/></g>
<g><path style="opacity:1" fill="#febb00" d="M 1739.5,1259.5 C 1739.5,1299.5 1739.5,1339.5 1739.5,1379.5C 1729.5,1379.5 1719.5,1379.5 1709.5,1379.5C 1709.5,1389.5 1709.5,1399.5 1709.5,1409.5C 1699.5,1409.5 1689.5,1409.5 1679.5,1409.5C 1679.5,1419.5 1679.5,1429.5 1679.5,1439.5C 1639.5,1439.5 1599.5,1439.5 1559.5,1439.5C 1559.5,1429.5 1559.5,1419.5 1559.5,1409.5C 1549.5,1409.5 1539.5,1409.5 1529.5,1409.5C 1529.5,1399.5 1529.5,1389.5 1529.5,1379.5C 1519.5,1379.5 1509.5,1379.5 1499.5,1379.5C 1499.5,1339.5 1499.5,1299.5 1499.5,1259.5C 1509.5,1259.5 1519.5,1259.5 1529.5,1259.5C 1529.5,1249.5 1529.5,1239.5 1529.5,1229.5C 1539.5,1229.5 1549.5,1229.5 1559.5,1229.5C 1559.5,1219.5 1559.5,1209.5 1559.5,1199.5C 1609.5,1199.5 1659.5,1199.5 1709.5,1199.5C 1709.5,1209.5 1709.5,1219.5 1709.5,1229.5C 1719.5,1229.5 1729.5,1229.5 1739.5,1229.5C 1739.5,1239.5 1739.5,1249.5 1739.5,1259.5 Z M 1679.5,1289.5 C 1679.5,1319.5 1679.5,1349.5 1679.5,1379.5C 1649.5,1379.5 1619.5,1379.5 1589.5,1379.5C 1589.5,1349.5 1589.5,1319.5 1589.5,1289.5C 1619.5,1289.5 1649.5,1289.5 1679.5,1289.5 Z"/></g>
<g><path style="opacity:1" fill="#febb00" d="M 1829.5,1229.5 C 1829.5,1239.5 1829.5,1249.5 1829.5,1259.5C 1839.5,1259.5 1849.5,1259.5 1859.5,1259.5C 1869.5,1259.5 1879.5,1259.5 1889.5,1259.5C 1889.5,1269.5 1889.5,1279.5 1889.5,1289.5C 1869.5,1289.5 1849.5,1289.5 1829.5,1289.5C 1829.5,1309.5 1829.5,1329.5 1829.5,1349.5C 1839.5,1349.5 1849.5,1349.5 1859.5,1349.5C 1869.5,1349.5 1879.5,1349.5 1889.5,1349.5C 1889.5,1359.5 1889.5,1369.5 1889.5,1379.5C 1869.5,1379.5 1849.5,1379.5 1829.5,1379.5C 1829.5,1389.5 1829.5,1399.5 1829.5,1409.5C 1819.5,1409.5 1809.5,1409.5 1799.5,1409.5C 1789.5,1409.5 1779.5,1409.5 1769.5,1409.5C 1769.5,1399.5 1769.5,1389.5 1769.5,1379.5C 1769.5,1339.5 1769.5,1299.5 1769.5,1259.5C 1769.5,1239.5 1769.5,1219.5 1769.5,1199.5C 1789.5,1199.5 1809.5,1199.5 1829.5,1199.5C 1829.5,1209.5 1829.5,1219.5 1829.5,1229.5 Z"/></g>
<g><path style="opacity:1" fill="#c65f0d" d="M 449.5,1229.5 C 459.5,1229.5 469.5,1229.5 479.5,1229.5C 479.5,1329.5 479.5,1429.5 479.5,1529.5C 399.5,1529.5 319.5,1529.5 239.5,1529.5C 239.5,1519.5 239.5,1509.5 239.5,1499.5C 309.5,1499.5 379.5,1499.5 449.5,1499.5C 449.5,1409.5 449.5,1319.5 449.5,1229.5 Z"/></g>
<g><path style="opacity:1" fill="#c65f0d" d="M 569.5,1229.5 C 579.5,1229.5 589.5,1229.5 599.5,1229.5C 599.5,1339.5 599.5,1449.5 599.5,1559.5C 579.5,1559.5 559.5,1559.5 539.5,1559.5C 539.5,1549.5 539.5,1539.5 539.5,1529.5C 549.5,1529.5 559.5,1529.5 569.5,1529.5C 569.5,1429.5 569.5,1329.5 569.5,1229.5 Z"/></g>
<g><path style="opacity:1" fill="#c65f0d" d="M 959.5,1229.5 C 969.5,1229.5 979.5,1229.5 989.5,1229.5C 989.5,1239.5 989.5,1249.5 989.5,1259.5C 989.5,1249.5 989.5,1239.5 989.5,1229.5C 979.5,1229.5 969.5,1229.5 959.5,1229.5 Z"/></g>
<g><path style="opacity:1" fill="#c65f0d" d="M 1319.5,1229.5 C 1329.5,1229.5 1339.5,1229.5 1349.5,1229.5C 1349.5,1329.5 1349.5,1429.5 1349.5,1529.5C 1269.5,1529.5 1189.5,1529.5 1109.5,1529.5C 1109.5,1519.5 1109.5,1509.5 1109.5,1499.5C 1179.5,1499.5 1249.5,1499.5 1319.5,1499.5C 1319.5,1409.5 1319.5,1319.5 1319.5,1229.5 Z"/></g>
<g><path style="opacity:1" fill="#c65f0d" d="M 1439.5,1229.5 C 1449.5,1229.5 1459.5,1229.5 1469.5,1229.5C 1469.5,1339.5 1469.5,1449.5 1469.5,1559.5C 1449.5,1559.5 1429.5,1559.5 1409.5,1559.5C 1409.5,1549.5 1409.5,1539.5 1409.5,1529.5C 1419.5,1529.5 1429.5,1529.5 1439.5,1529.5C 1439.5,1429.5 1439.5,1329.5 1439.5,1229.5 Z"/></g>
<g><path style="opacity:1" fill="#c65f0d" d="M 1829.5,1229.5 C 1839.5,1229.5 1849.5,1229.5 1859.5,1229.5C 1859.5,1239.5 1859.5,1249.5 1859.5,1259.5C 1859.5,1249.5 1859.5,1239.5 1859.5,1229.5C 1849.5,1229.5 1839.5,1229.5 1829.5,1229.5 Z"/></g>
<g><path style="opacity:1" fill="#c65f0d" d="M 329.5,1259.5 C 339.5,1259.5 349.5,1259.5 359.5,1259.5C 359.5,1269.5 359.5,1279.5 359.5,1289.5C 359.5,1279.5 359.5,1269.5 359.5,1259.5C 349.5,1259.5 339.5,1259.5 329.5,1259.5 Z"/></g>
<g><path style="opacity:1" fill="#c65f0d" d="M 809.5,1289.5 C 779.5,1289.5 749.5,1289.5 719.5,1289.5C 719.5,1319.5 719.5,1349.5 719.5,1379.5C 709.5,1379.5 699.5,1379.5 689.5,1379.5C 689.5,1339.5 689.5,1299.5 689.5,1259.5C 729.5,1259.5 769.5,1259.5 809.5,1259.5C 809.5,1269.5 809.5,1279.5 809.5,1289.5 Z"/></g>
<g><path style="opacity:1" fill="#c65f0d" d="M 869.5,1259.5 C 879.5,1259.5 889.5,1259.5 899.5,1259.5C 899.5,1299.5 899.5,1339.5 899.5,1379.5C 889.5,1379.5 879.5,1379.5 869.5,1379.5C 869.5,1339.5 869.5,1299.5 869.5,1259.5 Z"/></g>
<g><path style="opacity:1" fill="#c65f0d" d="M 1199.5,1259.5 C 1209.5,1259.5 1219.5,1259.5 1229.5,1259.5C 1229.5,1269.5 1229.5,1279.5 1229.5,1289.5C 1229.5,1279.5 1229.5,1269.5 1229.5,1259.5C 1219.5,1259.5 1209.5,1259.5 1199.5,1259.5 Z"/></g>
<g><path style="opacity:1" fill="#c65f0d" d="M 1679.5,1289.5 C 1649.5,1289.5 1619.5,1289.5 1589.5,1289.5C 1589.5,1319.5 1589.5,1349.5 1589.5,1379.5C 1579.5,1379.5 1569.5,1379.5 1559.5,1379.5C 1559.5,1339.5 1559.5,1299.5 1559.5,1259.5C 1599.5,1259.5 1639.5,1259.5 1679.5,1259.5C 1679.5,1269.5 1679.5,1279.5 1679.5,1289.5 Z"/></g>
<g><path style="opacity:1" fill="#c65f0d" d="M 1739.5,1259.5 C 1749.5,1259.5 1759.5,1259.5 1769.5,1259.5C 1769.5,1299.5 1769.5,1339.5 1769.5,1379.5C 1759.5,1379.5 1749.5,1379.5 1739.5,1379.5C 1739.5,1339.5 1739.5,1299.5 1739.5,1259.5 Z"/></g>
<g><path style="opacity:1" fill="#c65f0d" d="M 359.5,1289.5 C 369.5,1289.5 379.5,1289.5 389.5,1289.5C 389.5,1309.5 389.5,1329.5 389.5,1349.5C 379.5,1349.5 369.5,1349.5 359.5,1349.5C 359.5,1369.5 359.5,1389.5 359.5,1409.5C 339.5,1409.5 319.5,1409.5 299.5,1409.5C 299.5,1399.5 299.5,1389.5 299.5,1379.5C 309.5,1379.5 319.5,1379.5 329.5,1379.5C 329.5,1359.5 329.5,1339.5 329.5,1319.5C 339.5,1319.5 349.5,1319.5 359.5,1319.5C 359.5,1309.5 359.5,1299.5 359.5,1289.5 Z"/></g>
<g><path style="opacity:1" fill="#c65f0d" d="M 1019.5,1289.5 C 1029.5,1289.5 1039.5,1289.5 1049.5,1289.5C 1049.5,1299.5 1049.5,1309.5 1049.5,1319.5C 1029.5,1319.5 1009.5,1319.5 989.5,1319.5C 989.5,1329.5 989.5,1339.5 989.5,1349.5C 979.5,1349.5 969.5,1349.5 959.5,1349.5C 959.5,1329.5 959.5,1309.5 959.5,1289.5C 979.5,1289.5 999.5,1289.5 1019.5,1289.5 Z"/></g>
<g><path style="opacity:1" fill="#c65f0d" d="M 1229.5,1289.5 C 1239.5,1289.5 1249.5,1289.5 1259.5,1289.5C 1259.5,1309.5 1259.5,1329.5 1259.5,1349.5C 1249.5,1349.5 1239.5,1349.5 1229.5,1349.5C 1229.5,1369.5 1229.5,1389.5 1229.5,1409.5C 1209.5,1409.5 1189.5,1409.5 1169.5,1409.5C 1169.5,1399.5 1169.5,1389.5 1169.5,1379.5C 1179.5,1379.5 1189.5,1379.5 1199.5,1379.5C 1199.5,1359.5 1199.5,1339.5 1199.5,1319.5C 1209.5,1319.5 1219.5,1319.5 1229.5,1319.5C 1229.5,1309.5 1229.5,1299.5 1229.5,1289.5 Z"/></g>
<g><path style="opacity:1" fill="#c65f0d" d="M 1889.5,1289.5 C 1899.5,1289.5 1909.5,1289.5 1919.5,1289.5C 1919.5,1299.5 1919.5,1309.5 1919.5,1319.5C 1899.5,1319.5 1879.5,1319.5 1859.5,1319.5C 1859.5,1329.5 1859.5,1339.5 1859.5,1349.5C 1849.5,1349.5 1839.5,1349.5 1829.5,1349.5C 1829.5,1329.5 1829.5,1309.5 1829.5,1289.5C 1849.5,1289.5 1869.5,1289.5 1889.5,1289.5 Z"/></g>
<g><path style="opacity:1" fill="#c65f0d" d="M 299.5,1349.5 C 289.5,1349.5 279.5,1349.5 269.5,1349.5C 269.5,1339.5 269.5,1329.5 269.5,1319.5C 279.5,1319.5 289.5,1319.5 299.5,1319.5C 299.5,1329.5 299.5,1339.5 299.5,1349.5 Z"/></g>
<g><path style="opacity:1" fill="#c65f0d" d="M 1169.5,1349.5 C 1159.5,1349.5 1149.5,1349.5 1139.5,1349.5C 1139.5,1339.5 1139.5,1329.5 1139.5,1319.5C 1149.5,1319.5 1159.5,1319.5 1169.5,1319.5C 1169.5,1329.5 1169.5,1339.5 1169.5,1349.5 Z"/></g>
<g><path style="opacity:1" fill="#c65f0d" d="M 869.5,1379.5 C 869.5,1389.5 869.5,1399.5 869.5,1409.5C 859.5,1409.5 849.5,1409.5 839.5,1409.5C 839.5,1399.5 839.5,1389.5 839.5,1379.5C 849.5,1379.5 859.5,1379.5 869.5,1379.5 Z"/></g>
<g><path style="opacity:1" fill="#c65f0d" d="M 1019.5,1379.5 C 1029.5,1379.5 1039.5,1379.5 1049.5,1379.5C 1049.5,1389.5 1049.5,1399.5 1049.5,1409.5C 1029.5,1409.5 1009.5,1409.5 989.5,1409.5C 989.5,1419.5 989.5,1429.5 989.5,1439.5C 969.5,1439.5 949.5,1439.5 929.5,1439.5C 929.5,1429.5 929.5,1419.5 929.5,1409.5C 939.5,1409.5 949.5,1409.5 959.5,1409.5C 959.5,1399.5 959.5,1389.5 959.5,1379.5C 979.5,1379.5 999.5,1379.5 1019.5,1379.5 Z"/></g>
<g><path style="opacity:1" fill="#c65f0d" d="M 1739.5,1379.5 C 1739.5,1389.5 1739.5,1399.5 1739.5,1409.5C 1729.5,1409.5 1719.5,1409.5 1709.5,1409.5C 1709.5,1399.5 1709.5,1389.5 1709.5,1379.5C 1719.5,1379.5 1729.5,1379.5 1739.5,1379.5 Z"/></g>
<g><path style="opacity:1" fill="#c65f0d" d="M 1889.5,1379.5 C 1899.5,1379.5 1909.5,1379.5 1919.5,1379.5C 1919.5,1389.5 1919.5,1399.5 1919.5,1409.5C 1899.5,1409.5 1879.5,1409.5 1859.5,1409.5C 1859.5,1419.5 1859.5,1429.5 1859.5,1439.5C 1839.5,1439.5 1819.5,1439.5 1799.5,1439.5C 1799.5,1429.5 1799.5,1419.5 1799.5,1409.5C 1809.5,1409.5 1819.5,1409.5 1829.5,1409.5C 1829.5,1399.5 1829.5,1389.5 1829.5,1379.5C 1849.5,1379.5 1869.5,1379.5 1889.5,1379.5 Z"/></g>
<g><path style="opacity:1" fill="#c65f0d" d="M 839.5,1409.5 C 839.5,1419.5 839.5,1429.5 839.5,1439.5C 829.5,1439.5 819.5,1439.5 809.5,1439.5C 809.5,1429.5 809.5,1419.5 809.5,1409.5C 819.5,1409.5 829.5,1409.5 839.5,1409.5 Z"/></g>
<g><path style="opacity:1" fill="#c65f0d" d="M 1709.5,1409.5 C 1709.5,1419.5 1709.5,1429.5 1709.5,1439.5C 1699.5,1439.5 1689.5,1439.5 1679.5,1439.5C 1679.5,1429.5 1679.5,1419.5 1679.5,1409.5C 1689.5,1409.5 1699.5,1409.5 1709.5,1409.5 Z"/></g>
<g><path style="opacity:1" fill="#febb00" d="M 959.5,1499.5 C 959.5,1549.5 959.5,1599.5 959.5,1649.5C 949.5,1649.5 939.5,1649.5 929.5,1649.5C 919.5,1649.5 909.5,1649.5 899.5,1649.5C 899.5,1619.5 899.5,1589.5 899.5,1559.5C 899.5,1549.5 899.5,1539.5 899.5,1529.5C 859.5,1529.5 819.5,1529.5 779.5,1529.5C 769.5,1529.5 759.5,1529.5 749.5,1529.5C 749.5,1509.5 749.5,1489.5 749.5,1469.5C 819.5,1469.5 889.5,1469.5 959.5,1469.5C 959.5,1479.5 959.5,1489.5 959.5,1499.5 Z"/></g>
<g><path style="opacity:1" fill="#febb00" d="M 1829.5,1499.5 C 1829.5,1549.5 1829.5,1599.5 1829.5,1649.5C 1819.5,1649.5 1809.5,1649.5 1799.5,1649.5C 1789.5,1649.5 1779.5,1649.5 1769.5,1649.5C 1769.5,1619.5 1769.5,1589.5 1769.5,1559.5C 1769.5,1549.5 1769.5,1539.5 1769.5,1529.5C 1729.5,1529.5 1689.5,1529.5 1649.5,1529.5C 1639.5,1529.5 1629.5,1529.5 1619.5,1529.5C 1619.5,1509.5 1619.5,1489.5 1619.5,1469.5C 1689.5,1469.5 1759.5,1469.5 1829.5,1469.5C 1829.5,1479.5 1829.5,1489.5 1829.5,1499.5 Z"/></g>
<g><path style="opacity:1" fill="#c65f0d" d="M 959.5,1499.5 C 969.5,1499.5 979.5,1499.5 989.5,1499.5C 989.5,1559.5 989.5,1619.5 989.5,1679.5C 969.5,1679.5 949.5,1679.5 929.5,1679.5C 929.5,1669.5 929.5,1659.5 929.5,1649.5C 939.5,1649.5 949.5,1649.5 959.5,1649.5C 959.5,1599.5 959.5,1549.5 959.5,1499.5 Z"/></g>
<g><path style="opacity:1" fill="#c65f0d" d="M 1829.5,1499.5 C 1839.5,1499.5 1849.5,1499.5 1859.5,1499.5C 1859.5,1559.5 1859.5,1619.5 1859.5,1679.5C 1839.5,1679.5 1819.5,1679.5 1799.5,1679.5C 1799.5,1669.5 1799.5,1659.5 1799.5,1649.5C 1809.5,1649.5 1819.5,1649.5 1829.5,1649.5C 1829.5,1599.5 1829.5,1549.5 1829.5,1499.5 Z"/></g>
<g><path style="opacity:1" fill="#c65f0d" d="M 779.5,1529.5 C 819.5,1529.5 859.5,1529.5 899.5,1529.5C 899.5,1539.5 899.5,1549.5 899.5,1559.5C 859.5,1559.5 819.5,1559.5 779.5,1559.5C 779.5,1549.5 779.5,1539.5 779.5,1529.5 Z"/></g>
<g><path style="opacity:1" fill="#c65f0d" d="M 1649.5,1529.5 C 1689.5,1529.5 1729.5,1529.5 1769.5,1529.5C 1769.5,1539.5 1769.5,1549.5 1769.5,1559.5C 1729.5,1559.5 1689.5,1559.5 1649.5,1559.5C 1649.5,1549.5 1649.5,1539.5 1649.5,1529.5 Z"/></g>
</svg>
