<?xml version="1.0" encoding="UTF-8"?>
<!DOCTYPE svg PUBLIC "-//W3C//DTD SVG 1.1//EN" "http://www.w3.org/Graphics/SVG/1.1/DTD/svg11.dtd">
<svg xmlns="http://www.w3.org/2000/svg" version="1.1" width="1440px" height="1440px" style="shape-rendering:geometricPrecision; text-rendering:geometricPrecision; image-rendering:optimizeQuality; fill-rule:evenodd; clip-rule:evenodd" xmlns:xlink="http://www.w3.org/1999/xlink">
<g><path style="opacity:1" fill="#b0bacc" d="M 1259.5,89.5 C 1259.5,99.5 1259.5,109.5 1259.5,119.5C 1259.5,529.5 1259.5,939.5 1259.5,1349.5C 929.5,1349.5 599.5,1349.5 269.5,1349.5C 259.5,1349.5 249.5,1349.5 239.5,1349.5C 219.5,1349.5 199.5,1349.5 179.5,1349.5C 179.5,1319.5 179.5,1289.5 179.5,1259.5C 189.5,1259.5 199.5,1259.5 209.5,1259.5C 209.5,1279.5 209.5,1299.5 209.5,1319.5C 549.5,1319.5 889.5,1319.5 1229.5,1319.5C 1229.5,899.5 1229.5,479.5 1229.5,59.5C 889.5,59.5 549.5,59.5 209.5,59.5C 209.5,89.5 209.5,119.5 209.5,149.5C 199.5,149.5 189.5,149.5 179.5,149.5C 179.5,109.5 179.5,69.5 179.5,29.5C 539.5,29.5 899.5,29.5 1259.5,29.5C 1259.5,49.5 1259.5,69.5 1259.5,89.5 Z"/></g>
<g><path style="opacity:1" fill="#fefffe" d="M 209.5,1259.5 C 219.5,1259.5 229.5,1259.5 239.5,1259.5C 259.5,1259.5 279.5,1259.5 299.5,1259.5C 299.5,1239.5 299.5,1219.5 299.5,1199.5C 279.5,1199.5 259.5,1199.5 239.5,1199.5C 229.5,1199.5 219.5,1199.5 209.5,1199.5C 209.5,1189.5 209.5,1179.5 209.5,1169.5C 219.5,1169.5 229.5,1169.5 239.5,1169.5C 259.5,1169.5 279.5,1169.5 299.5,1169.5C 299.5,1149.5 299.5,1129.5 299.5,1109.5C 279.5,1109.5 259.5,1109.5 239.5,1109.5C 229.5,1109.5 219.5,1109.5 209.5,1109.5C 209.5,1009.5 209.5,909.5 209.5,809.5C 219.5,809.5 229.5,809.5 239.5,809.5C 259.5,809.5 279.5,809.5 299.5,809.5C 299.5,789.5 299.5,769.5 299.5,749.5C 279.5,749.5 259.5,749.5 239.5,749.5C 229.5,749.5 219.5,749.5 209.5,749.5C 209.5,739.5 209.5,729.5 209.5,719.5C 219.5,719.5 229.5,719.5 239.5,719.5C 259.5,719.5 279.5,719.5 299.5,719.5C 299.5,699.5 299.5,679.5 299.5,659.5C 279.5,659.5 259.5,659.5 239.5,659.5C 229.5,659.5 219.5,659.5 209.5,659.5C 209.5,649.5 209.5,639.5 209.5,629.5C 219.5,629.5 229.5,629.5 239.5,629.5C 259.5,629.5 279.5,629.5 299.5,629.5C 299.5,609.5 299.5,589.5 299.5,569.5C 279.5,569.5 259.5,569.5 239.5,569.5C 229.5,569.5 219.5,569.5 209.5,569.5C 209.5,479.5 209.5,389.5 209.5,299.5C 219.5,299.5 229.5,299.5 239.5,299.5C 259.5,299.5 279.5,299.5 299.5,299.5C 299.5,279.5 299.5,259.5 299.5,239.5C 279.5,239.5 259.5,239.5 239.5,239.5C 229.5,239.5 219.5,239.5 209.5,239.5C 209.5,229.5 209.5,219.5 209.5,209.5C 219.5,209.5 229.5,209.5 239.5,209.5C 259.5,209.5 279.5,209.5 299.5,209.5C 299.5,189.5 299.5,169.5 299.5,149.5C 279.5,149.5 259.5,149.5 239.5,149.5C 229.5,149.5 219.5,149.5 209.5,149.5C 209.5,119.5 209.5,89.5 209.5,59.5C 549.5,59.5 889.5,59.5 1229.5,59.5C 1229.5,479.5 1229.5,899.5 1229.5,1319.5C 889.5,1319.5 549.5,1319.5 209.5,1319.5C 209.5,1299.5 209.5,1279.5 209.5,1259.5 Z"/></g>
<g><path style="opacity:1" fill="#788cb5" d="M 1259.5,89.5 C 1279.5,89.5 1299.5,89.5 1319.5,89.5C 1319.5,529.5 1319.5,969.5 1319.5,1409.5C 959.5,1409.5 599.5,1409.5 239.5,1409.5C 239.5,1389.5 239.5,1369.5 239.5,1349.5C 249.5,1349.5 259.5,1349.5 269.5,1349.5C 269.5,1359.5 269.5,1369.5 269.5,1379.5C 609.5,1379.5 949.5,1379.5 1289.5,1379.5C 1289.5,959.5 1289.5,539.5 1289.5,119.5C 1279.5,119.5 1269.5,119.5 1259.5,119.5C 1259.5,109.5 1259.5,99.5 1259.5,89.5 Z"/></g>
<g><path style="opacity:1" fill="#d9d9d6" d="M 1259.5,119.5 C 1269.5,119.5 1279.5,119.5 1289.5,119.5C 1289.5,539.5 1289.5,959.5 1289.5,1379.5C 949.5,1379.5 609.5,1379.5 269.5,1379.5C 269.5,1369.5 269.5,1359.5 269.5,1349.5C 599.5,1349.5 929.5,1349.5 1259.5,1349.5C 1259.5,939.5 1259.5,529.5 1259.5,119.5 Z"/></g>
<g><path style="opacity:1" fill="#82a4e9" d="M 179.5,149.5 C 179.5,169.5 179.5,189.5 179.5,209.5C 159.5,209.5 139.5,209.5 119.5,209.5C 119.5,189.5 119.5,169.5 119.5,149.5C 139.5,149.5 159.5,149.5 179.5,149.5 Z"/></g>
<g><path style="opacity:1" fill="#7390cb" d="M 179.5,149.5 C 189.5,149.5 199.5,149.5 209.5,149.5C 219.5,149.5 229.5,149.5 239.5,149.5C 239.5,169.5 239.5,189.5 239.5,209.5C 229.5,209.5 219.5,209.5 209.5,209.5C 199.5,209.5 189.5,209.5 179.5,209.5C 179.5,189.5 179.5,169.5 179.5,149.5 Z"/></g>
<g><path style="opacity:1" fill="#788cb5" d="M 239.5,149.5 C 259.5,149.5 279.5,149.5 299.5,149.5C 299.5,169.5 299.5,189.5 299.5,209.5C 279.5,209.5 259.5,209.5 239.5,209.5C 239.5,189.5 239.5,169.5 239.5,149.5 Z"/></g>
<g><path style="opacity:1" fill="#7390cb" d="M 119.5,209.5 C 119.5,219.5 119.5,229.5 119.5,239.5C 109.5,239.5 99.5,239.5 89.5,239.5C 89.5,229.5 89.5,219.5 89.5,209.5C 99.5,209.5 109.5,209.5 119.5,209.5 Z"/></g>
<g><path style="opacity:1" fill="#b0bacc" d="M 179.5,209.5 C 189.5,209.5 199.5,209.5 209.5,209.5C 209.5,219.5 209.5,229.5 209.5,239.5C 199.5,239.5 189.5,239.5 179.5,239.5C 179.5,229.5 179.5,219.5 179.5,209.5 Z"/></g>
<g><path style="opacity:1" fill="#82a4e9" d="M 119.5,239.5 C 139.5,239.5 159.5,239.5 179.5,239.5C 179.5,259.5 179.5,279.5 179.5,299.5C 159.5,299.5 139.5,299.5 119.5,299.5C 119.5,279.5 119.5,259.5 119.5,239.5 Z"/></g>
<g><path style="opacity:1" fill="#7390cb" d="M 179.5,239.5 C 189.5,239.5 199.5,239.5 209.5,239.5C 219.5,239.5 229.5,239.5 239.5,239.5C 239.5,259.5 239.5,279.5 239.5,299.5C 229.5,299.5 219.5,299.5 209.5,299.5C 199.5,299.5 189.5,299.5 179.5,299.5C 179.5,279.5 179.5,259.5 179.5,239.5 Z"/></g>
<g><path style="opacity:1" fill="#788cb5" d="M 239.5,239.5 C 259.5,239.5 279.5,239.5 299.5,239.5C 299.5,259.5 299.5,279.5 299.5,299.5C 279.5,299.5 259.5,299.5 239.5,299.5C 239.5,279.5 239.5,259.5 239.5,239.5 Z"/></g>
<g><path style="opacity:1" fill="#b0bacc" d="M 179.5,299.5 C 189.5,299.5 199.5,299.5 209.5,299.5C 209.5,389.5 209.5,479.5 209.5,569.5C 199.5,569.5 189.5,569.5 179.5,569.5C 179.5,479.5 179.5,389.5 179.5,299.5 Z"/></g>
<g><path style="opacity:1" fill="#82a4e9" d="M 179.5,569.5 C 179.5,589.5 179.5,609.5 179.5,629.5C 159.5,629.5 139.5,629.5 119.5,629.5C 119.5,609.5 119.5,589.5 119.5,569.5C 139.5,569.5 159.5,569.5 179.5,569.5 Z"/></g>
<g><path style="opacity:1" fill="#7390cb" d="M 179.5,569.5 C 189.5,569.5 199.5,569.5 209.5,569.5C 219.5,569.5 229.5,569.5 239.5,569.5C 239.5,589.5 239.5,609.5 239.5,629.5C 229.5,629.5 219.5,629.5 209.5,629.5C 199.5,629.5 189.5,629.5 179.5,629.5C 179.5,609.5 179.5,589.5 179.5,569.5 Z"/></g>
<g><path style="opacity:1" fill="#788cb5" d="M 239.5,569.5 C 259.5,569.5 279.5,569.5 299.5,569.5C 299.5,589.5 299.5,609.5 299.5,629.5C 279.5,629.5 259.5,629.5 239.5,629.5C 239.5,609.5 239.5,589.5 239.5,569.5 Z"/></g>
<g><path style="opacity:1" fill="#7390cb" d="M 119.5,629.5 C 119.5,639.5 119.5,649.5 119.5,659.5C 109.5,659.5 99.5,659.5 89.5,659.5C 89.5,649.5 89.5,639.5 89.5,629.5C 99.5,629.5 109.5,629.5 119.5,629.5 Z"/></g>
<g><path style="opacity:1" fill="#b0bacc" d="M 179.5,629.5 C 189.5,629.5 199.5,629.5 209.5,629.5C 209.5,639.5 209.5,649.5 209.5,659.5C 199.5,659.5 189.5,659.5 179.5,659.5C 179.5,649.5 179.5,639.5 179.5,629.5 Z"/></g>
<g><path style="opacity:1" fill="#82a4e9" d="M 119.5,659.5 C 139.5,659.5 159.5,659.5 179.5,659.5C 179.5,679.5 179.5,699.5 179.5,719.5C 159.5,719.5 139.5,719.5 119.5,719.5C 119.5,699.5 119.5,679.5 119.5,659.5 Z"/></g>
<g><path style="opacity:1" fill="#7390cb" d="M 179.5,659.5 C 189.5,659.5 199.5,659.5 209.5,659.5C 219.5,659.5 229.5,659.5 239.5,659.5C 239.5,679.5 239.5,699.5 239.5,719.5C 229.5,719.5 219.5,719.5 209.5,719.5C 199.5,719.5 189.5,719.5 179.5,719.5C 179.5,699.5 179.5,679.5 179.5,659.5 Z"/></g>
<g><path style="opacity:1" fill="#788cb5" d="M 239.5,659.5 C 259.5,659.5 279.5,659.5 299.5,659.5C 299.5,679.5 299.5,699.5 299.5,719.5C 279.5,719.5 259.5,719.5 239.5,719.5C 239.5,699.5 239.5,679.5 239.5,659.5 Z"/></g>
<g><path style="opacity:1" fill="#7390cb" d="M 119.5,719.5 C 119.5,729.5 119.5,739.5 119.5,749.5C 109.5,749.5 99.5,749.5 89.5,749.5C 89.5,739.5 89.5,729.5 89.5,719.5C 99.5,719.5 109.5,719.5 119.5,719.5 Z"/></g>
<g><path style="opacity:1" fill="#b0bacc" d="M 179.5,719.5 C 189.5,719.5 199.5,719.5 209.5,719.5C 209.5,729.5 209.5,739.5 209.5,749.5C 199.5,749.5 189.5,749.5 179.5,749.5C 179.5,739.5 179.5,729.5 179.5,719.5 Z"/></g>
<g><path style="opacity:1" fill="#82a4e9" d="M 119.5,749.5 C 139.5,749.5 159.5,749.5 179.5,749.5C 179.5,769.5 179.5,789.5 179.5,809.5C 159.5,809.5 139.5,809.5 119.5,809.5C 119.5,789.5 119.5,769.5 119.5,749.5 Z"/></g>
<g><path style="opacity:1" fill="#7390cb" d="M 179.5,749.5 C 189.5,749.5 199.5,749.5 209.5,749.5C 219.5,749.5 229.5,749.5 239.5,749.5C 239.5,769.5 239.5,789.5 239.5,809.5C 229.5,809.5 219.5,809.5 209.5,809.5C 199.5,809.5 189.5,809.5 179.5,809.5C 179.5,789.5 179.5,769.5 179.5,749.5 Z"/></g>
<g><path style="opacity:1" fill="#788cb5" d="M 239.5,749.5 C 259.5,749.5 279.5,749.5 299.5,749.5C 299.5,769.5 299.5,789.5 299.5,809.5C 279.5,809.5 259.5,809.5 239.5,809.5C 239.5,789.5 239.5,769.5 239.5,749.5 Z"/></g>
<g><path style="opacity:1" fill="#b0bacc" d="M 179.5,809.5 C 189.5,809.5 199.5,809.5 209.5,809.5C 209.5,909.5 209.5,1009.5 209.5,1109.5C 199.5,1109.5 189.5,1109.5 179.5,1109.5C 179.5,1009.5 179.5,909.5 179.5,809.5 Z"/></g>
<g><path style="opacity:1" fill="#82a4e9" d="M 179.5,1109.5 C 179.5,1129.5 179.5,1149.5 179.5,1169.5C 159.5,1169.5 139.5,1169.5 119.5,1169.5C 119.5,1149.5 119.5,1129.5 119.5,1109.5C 139.5,1109.5 159.5,1109.5 179.5,1109.5 Z"/></g>
<g><path style="opacity:1" fill="#7390cb" d="M 179.5,1109.5 C 189.5,1109.5 199.5,1109.5 209.5,1109.5C 219.5,1109.5 229.5,1109.5 239.5,1109.5C 239.5,1129.5 239.5,1149.5 239.5,1169.5C 229.5,1169.5 219.5,1169.5 209.5,1169.5C 199.5,1169.5 189.5,1169.5 179.5,1169.5C 179.5,1149.5 179.5,1129.5 179.5,1109.5 Z"/></g>
<g><path style="opacity:1" fill="#788cb5" d="M 239.5,1109.5 C 259.5,1109.5 279.5,1109.5 299.5,1109.5C 299.5,1129.5 299.5,1149.5 299.5,1169.5C 279.5,1169.5 259.5,1169.5 239.5,1169.5C 239.5,1149.5 239.5,1129.5 239.5,1109.5 Z"/></g>
<g><path style="opacity:1" fill="#7390cb" d="M 119.5,1169.5 C 119.5,1179.5 119.5,1189.5 119.5,1199.5C 109.5,1199.5 99.5,1199.5 89.5,1199.5C 89.5,1189.5 89.5,1179.5 89.5,1169.5C 99.5,1169.5 109.5,1169.5 119.5,1169.5 Z"/></g>
<g><path style="opacity:1" fill="#b0bacc" d="M 179.5,1169.5 C 189.5,1169.5 199.5,1169.5 209.5,1169.5C 209.5,1179.5 209.5,1189.5 209.5,1199.5C 199.5,1199.5 189.5,1199.5 179.5,1199.5C 179.5,1189.5 179.5,1179.5 179.5,1169.5 Z"/></g>
<g><path style="opacity:1" fill="#82a4e9" d="M 119.5,1199.5 C 139.5,1199.5 159.5,1199.5 179.5,1199.5C 179.5,1219.5 179.5,1239.5 179.5,1259.5C 159.5,1259.5 139.5,1259.5 119.5,1259.5C 119.5,1239.5 119.5,1219.5 119.5,1199.5 Z"/></g>
<g><path style="opacity:1" fill="#7390cb" d="M 179.5,1199.5 C 189.5,1199.5 199.5,1199.5 209.5,1199.5C 219.5,1199.5 229.5,1199.5 239.5,1199.5C 239.5,1219.5 239.5,1239.5 239.5,1259.5C 229.5,1259.5 219.5,1259.5 209.5,1259.5C 199.5,1259.5 189.5,1259.5 179.5,1259.5C 179.5,1239.5 179.5,1219.5 179.5,1199.5 Z"/></g>
<g><path style="opacity:1" fill="#788cb5" d="M 239.5,1199.5 C 259.5,1199.5 279.5,1199.5 299.5,1199.5C 299.5,1219.5 299.5,1239.5 299.5,1259.5C 279.5,1259.5 259.5,1259.5 239.5,1259.5C 239.5,1239.5 239.5,1219.5 239.5,1199.5 Z"/></g>
</svg>
