<?xml version="1.0" encoding="UTF-8"?>
<!DOCTYPE svg PUBLIC "-//W3C//DTD SVG 1.1//EN" "http://www.w3.org/Graphics/SVG/1.1/DTD/svg11.dtd">
<svg xmlns="http://www.w3.org/2000/svg" version="1.1" width="1440px" height="1440px" style="shape-rendering:geometricPrecision; text-rendering:geometricPrecision; image-rendering:optimizeQuality; fill-rule:evenodd; clip-rule:evenodd" xmlns:xlink="http://www.w3.org/1999/xlink">
<g><path style="opacity:1" fill="#000000" d="M 1049.5,269.5 C 949.5,269.5 849.5,269.5 749.5,269.5C 749.5,559.5 749.5,849.5 749.5,1139.5C 809.5,1139.5 869.5,1139.5 929.5,1139.5C 929.5,1149.5 929.5,1159.5 929.5,1169.5C 969.5,1169.5 1009.5,1169.5 1049.5,1169.5C 1049.5,1179.5 1049.5,1189.5 1049.5,1199.5C 999.5,1199.5 949.5,1199.5 899.5,1199.5C 899.5,1189.5 899.5,1179.5 899.5,1169.5C 779.5,1169.5 659.5,1169.5 539.5,1169.5C 539.5,1179.5 539.5,1189.5 539.5,1199.5C 489.5,1199.5 439.5,1199.5 389.5,1199.5C 389.5,1189.5 389.5,1179.5 389.5,1169.5C 429.5,1169.5 469.5,1169.5 509.5,1169.5C 509.5,1159.5 509.5,1149.5 509.5,1139.5C 569.5,1139.5 629.5,1139.5 689.5,1139.5C 689.5,849.5 689.5,559.5 689.5,269.5C 589.5,269.5 489.5,269.5 389.5,269.5C 389.5,259.5 389.5,249.5 389.5,239.5C 609.5,239.5 829.5,239.5 1049.5,239.5C 1049.5,249.5 1049.5,259.5 1049.5,269.5 Z"/></g>
<g><path style="opacity:1" fill="#000000" d="M 389.5,269.5 C 389.5,569.5 389.5,869.5 389.5,1169.5C 379.5,1169.5 369.5,1169.5 359.5,1169.5C 359.5,869.5 359.5,569.5 359.5,269.5C 369.5,269.5 379.5,269.5 389.5,269.5 Z"/></g>
<g><path style="opacity:1" fill="#000000" d="M 1049.5,269.5 C 1059.5,269.5 1069.5,269.5 1079.5,269.5C 1079.5,569.5 1079.5,869.5 1079.5,1169.5C 1069.5,1169.5 1059.5,1169.5 1049.5,1169.5C 1049.5,869.5 1049.5,569.5 1049.5,269.5 Z"/></g>
<g><path style="opacity:1" fill="#000000" d="M 629.5,599.5 C 639.5,599.5 649.5,599.5 659.5,599.5C 659.5,659.5 659.5,719.5 659.5,779.5C 649.5,779.5 639.5,779.5 629.5,779.5C 629.5,719.5 629.5,659.5 629.5,599.5 Z"/></g>
<g><path style="opacity:1" fill="#000000" d="M 779.5,599.5 C 789.5,599.5 799.5,599.5 809.5,599.5C 809.5,659.5 809.5,719.5 809.5,779.5C 799.5,779.5 789.5,779.5 779.5,779.5C 779.5,719.5 779.5,659.5 779.5,599.5 Z"/></g>
</svg>
