<?xml version="1.0" encoding="UTF-8"?>
<!DOCTYPE svg PUBLIC "-//W3C//DTD SVG 1.1//EN" "http://www.w3.org/Graphics/SVG/1.1/DTD/svg11.dtd">
<svg xmlns="http://www.w3.org/2000/svg" version="1.1" width="1290px" height="1290px" style="shape-rendering:geometricPrecision; text-rendering:geometricPrecision; image-rendering:optimizeQuality; fill-rule:evenodd; clip-rule:evenodd" xmlns:xlink="http://www.w3.org/1999/xlink">
<g><path style="opacity:1" fill="#aca6a0" d="M 629.5,329.5 C 619.5,329.5 609.5,329.5 599.5,329.5C 599.5,319.5 599.5,309.5 599.5,299.5C 609.5,299.5 619.5,299.5 629.5,299.5C 629.5,309.5 629.5,319.5 629.5,329.5 Z"/></g>
<g><path style="opacity:1" fill="#aca6a0" d="M 629.5,329.5 C 639.5,329.5 649.5,329.5 659.5,329.5C 659.5,339.5 659.5,349.5 659.5,359.5C 649.5,359.5 639.5,359.5 629.5,359.5C 629.5,349.5 629.5,339.5 629.5,329.5 Z"/></g>
<g><path style="opacity:1" fill="#aca6a0" d="M 629.5,359.5 C 629.5,369.5 629.5,379.5 629.5,389.5C 639.5,389.5 649.5,389.5 659.5,389.5C 659.5,379.5 659.5,369.5 659.5,359.5C 679.5,359.5 699.5,359.5 719.5,359.5C 719.5,369.5 719.5,379.5 719.5,389.5C 729.5,389.5 739.5,389.5 749.5,389.5C 749.5,399.5 749.5,409.5 749.5,419.5C 729.5,419.5 709.5,419.5 689.5,419.5C 689.5,439.5 689.5,459.5 689.5,479.5C 709.5,479.5 729.5,479.5 749.5,479.5C 749.5,499.5 749.5,519.5 749.5,539.5C 759.5,539.5 769.5,539.5 779.5,539.5C 779.5,549.5 779.5,559.5 779.5,569.5C 789.5,569.5 799.5,569.5 809.5,569.5C 809.5,579.5 809.5,589.5 809.5,599.5C 819.5,599.5 829.5,599.5 839.5,599.5C 839.5,609.5 839.5,619.5 839.5,629.5C 849.5,629.5 859.5,629.5 869.5,629.5C 869.5,639.5 869.5,649.5 869.5,659.5C 879.5,659.5 889.5,659.5 899.5,659.5C 899.5,679.5 899.5,699.5 899.5,719.5C 909.5,719.5 919.5,719.5 929.5,719.5C 929.5,809.5 929.5,899.5 929.5,989.5C 919.5,989.5 909.5,989.5 899.5,989.5C 899.5,1009.5 899.5,1029.5 899.5,1049.5C 889.5,1049.5 879.5,1049.5 869.5,1049.5C 869.5,1059.5 869.5,1069.5 869.5,1079.5C 859.5,1079.5 849.5,1079.5 839.5,1079.5C 839.5,1089.5 839.5,1099.5 839.5,1109.5C 829.5,1109.5 819.5,1109.5 809.5,1109.5C 809.5,1119.5 809.5,1129.5 809.5,1139.5C 789.5,1139.5 769.5,1139.5 749.5,1139.5C 749.5,1149.5 749.5,1159.5 749.5,1169.5C 729.5,1169.5 709.5,1169.5 689.5,1169.5C 689.5,1179.5 689.5,1189.5 689.5,1199.5C 709.5,1199.5 729.5,1199.5 749.5,1199.5C 749.5,1209.5 749.5,1219.5 749.5,1229.5C 719.5,1229.5 689.5,1229.5 659.5,1229.5C 659.5,1209.5 659.5,1189.5 659.5,1169.5C 629.5,1169.5 599.5,1169.5 569.5,1169.5C 569.5,1179.5 569.5,1189.5 569.5,1199.5C 589.5,1199.5 609.5,1199.5 629.5,1199.5C 629.5,1209.5 629.5,1219.5 629.5,1229.5C 599.5,1229.5 569.5,1229.5 539.5,1229.5C 539.5,1209.5 539.5,1189.5 539.5,1169.5C 519.5,1169.5 499.5,1169.5 479.5,1169.5C 479.5,1159.5 479.5,1149.5 479.5,1139.5C 449.5,1139.5 419.5,1139.5 389.5,1139.5C 389.5,1129.5 389.5,1119.5 389.5,1109.5C 379.5,1109.5 369.5,1109.5 359.5,1109.5C 359.5,1099.5 359.5,1089.5 359.5,1079.5C 349.5,1079.5 339.5,1079.5 329.5,1079.5C 329.5,1069.5 329.5,1059.5 329.5,1049.5C 319.5,1049.5 309.5,1049.5 299.5,1049.5C 299.5,1019.5 299.5,989.5 299.5,959.5C 289.5,959.5 279.5,959.5 269.5,959.5C 269.5,909.5 269.5,859.5 269.5,809.5C 279.5,809.5 289.5,809.5 299.5,809.5C 299.5,779.5 299.5,749.5 299.5,719.5C 309.5,719.5 319.5,719.5 329.5,719.5C 329.5,699.5 329.5,679.5 329.5,659.5C 339.5,659.5 349.5,659.5 359.5,659.5C 359.5,639.5 359.5,619.5 359.5,599.5C 379.5,599.5 399.5,599.5 419.5,599.5C 419.5,589.5 419.5,579.5 419.5,569.5C 439.5,569.5 459.5,569.5 479.5,569.5C 479.5,559.5 479.5,549.5 479.5,539.5C 499.5,539.5 519.5,539.5 539.5,539.5C 539.5,519.5 539.5,499.5 539.5,479.5C 529.5,479.5 519.5,479.5 509.5,479.5C 509.5,449.5 509.5,419.5 509.5,389.5C 519.5,389.5 529.5,389.5 539.5,389.5C 539.5,379.5 539.5,369.5 539.5,359.5C 569.5,359.5 599.5,359.5 629.5,359.5 Z M 629.5,359.5 C 639.5,359.5 649.5,359.5 659.5,359.5C 659.5,369.5 659.5,379.5 659.5,389.5C 649.5,389.5 639.5,389.5 629.5,389.5C 629.5,379.5 629.5,369.5 629.5,359.5 Z"/></g>
</svg>
