<?xml version="1.0" encoding="UTF-8"?>
<!DOCTYPE svg PUBLIC "-//W3C//DTD SVG 1.1//EN" "http://www.w3.org/Graphics/SVG/1.1/DTD/svg11.dtd">
<svg xmlns="http://www.w3.org/2000/svg" version="1.1" width="1290px" height="1290px" style="shape-rendering:geometricPrecision; text-rendering:geometricPrecision; image-rendering:optimizeQuality; fill-rule:evenodd; clip-rule:evenodd" xmlns:xlink="http://www.w3.org/1999/xlink">
<g><path style="opacity:1" fill="#aca6a0" d="M 989.5,419.5 C 999.5,419.5 1009.5,419.5 1019.5,419.5C 1019.5,439.5 1019.5,459.5 1019.5,479.5C 1009.5,479.5 999.5,479.5 989.5,479.5C 989.5,459.5 989.5,439.5 989.5,419.5 Z"/></g>
<g><path style="opacity:1" fill="#aca6a0" d="M 1109.5,419.5 C 1119.5,419.5 1129.5,419.5 1139.5,419.5C 1139.5,439.5 1139.5,459.5 1139.5,479.5C 1129.5,479.5 1119.5,479.5 1109.5,479.5C 1109.5,459.5 1109.5,439.5 1109.5,419.5 Z"/></g>
<g><path style="opacity:1" fill="#aca6a0" d="M 599.5,509.5 C 629.5,509.5 659.5,509.5 689.5,509.5C 689.5,519.5 689.5,529.5 689.5,539.5C 719.5,539.5 749.5,539.5 779.5,539.5C 779.5,549.5 779.5,559.5 779.5,569.5C 789.5,569.5 799.5,569.5 809.5,569.5C 809.5,579.5 809.5,589.5 809.5,599.5C 819.5,599.5 829.5,599.5 839.5,599.5C 839.5,609.5 839.5,619.5 839.5,629.5C 859.5,629.5 879.5,629.5 899.5,629.5C 899.5,619.5 899.5,609.5 899.5,599.5C 919.5,599.5 939.5,599.5 959.5,599.5C 959.5,589.5 959.5,579.5 959.5,569.5C 969.5,569.5 979.5,569.5 989.5,569.5C 989.5,549.5 989.5,529.5 989.5,509.5C 999.5,509.5 1009.5,509.5 1019.5,509.5C 1019.5,529.5 1019.5,549.5 1019.5,569.5C 1049.5,569.5 1079.5,569.5 1109.5,569.5C 1109.5,549.5 1109.5,529.5 1109.5,509.5C 1119.5,509.5 1129.5,509.5 1139.5,509.5C 1139.5,529.5 1139.5,549.5 1139.5,569.5C 1149.5,569.5 1159.5,569.5 1169.5,569.5C 1169.5,579.5 1169.5,589.5 1169.5,599.5C 1189.5,599.5 1209.5,599.5 1229.5,599.5C 1229.5,609.5 1229.5,619.5 1229.5,629.5C 1239.5,629.5 1249.5,629.5 1259.5,629.5C 1259.5,709.5 1259.5,789.5 1259.5,869.5C 1249.5,869.5 1239.5,869.5 1229.5,869.5C 1229.5,879.5 1229.5,889.5 1229.5,899.5C 1209.5,899.5 1189.5,899.5 1169.5,899.5C 1169.5,909.5 1169.5,919.5 1169.5,929.5C 1139.5,929.5 1109.5,929.5 1079.5,929.5C 1079.5,949.5 1079.5,969.5 1079.5,989.5C 1059.5,989.5 1039.5,989.5 1019.5,989.5C 1019.5,999.5 1019.5,1009.5 1019.5,1019.5C 979.5,1019.5 939.5,1019.5 899.5,1019.5C 899.5,1029.5 899.5,1039.5 899.5,1049.5C 889.5,1049.5 879.5,1049.5 869.5,1049.5C 869.5,1059.5 869.5,1069.5 869.5,1079.5C 859.5,1079.5 849.5,1079.5 839.5,1079.5C 839.5,1089.5 839.5,1099.5 839.5,1109.5C 829.5,1109.5 819.5,1109.5 809.5,1109.5C 809.5,1119.5 809.5,1129.5 809.5,1139.5C 789.5,1139.5 769.5,1139.5 749.5,1139.5C 749.5,1149.5 749.5,1159.5 749.5,1169.5C 729.5,1169.5 709.5,1169.5 689.5,1169.5C 689.5,1179.5 689.5,1189.5 689.5,1199.5C 709.5,1199.5 729.5,1199.5 749.5,1199.5C 749.5,1209.5 749.5,1219.5 749.5,1229.5C 719.5,1229.5 689.5,1229.5 659.5,1229.5C 659.5,1209.5 659.5,1189.5 659.5,1169.5C 629.5,1169.5 599.5,1169.5 569.5,1169.5C 569.5,1179.5 569.5,1189.5 569.5,1199.5C 589.5,1199.5 609.5,1199.5 629.5,1199.5C 629.5,1209.5 629.5,1219.5 629.5,1229.5C 599.5,1229.5 569.5,1229.5 539.5,1229.5C 539.5,1209.5 539.5,1189.5 539.5,1169.5C 519.5,1169.5 499.5,1169.5 479.5,1169.5C 479.5,1159.5 479.5,1149.5 479.5,1139.5C 449.5,1139.5 419.5,1139.5 389.5,1139.5C 389.5,1129.5 389.5,1119.5 389.5,1109.5C 379.5,1109.5 369.5,1109.5 359.5,1109.5C 359.5,1099.5 359.5,1089.5 359.5,1079.5C 349.5,1079.5 339.5,1079.5 329.5,1079.5C 329.5,1069.5 329.5,1059.5 329.5,1049.5C 319.5,1049.5 309.5,1049.5 299.5,1049.5C 299.5,1019.5 299.5,989.5 299.5,959.5C 289.5,959.5 279.5,959.5 269.5,959.5C 269.5,909.5 269.5,859.5 269.5,809.5C 279.5,809.5 289.5,809.5 299.5,809.5C 299.5,779.5 299.5,749.5 299.5,719.5C 309.5,719.5 319.5,719.5 329.5,719.5C 329.5,699.5 329.5,679.5 329.5,659.5C 339.5,659.5 349.5,659.5 359.5,659.5C 359.5,639.5 359.5,619.5 359.5,599.5C 379.5,599.5 399.5,599.5 419.5,599.5C 419.5,589.5 419.5,579.5 419.5,569.5C 439.5,569.5 459.5,569.5 479.5,569.5C 479.5,559.5 479.5,549.5 479.5,539.5C 519.5,539.5 559.5,539.5 599.5,539.5C 599.5,529.5 599.5,519.5 599.5,509.5 Z"/></g>
</svg>
