<?xml version="1.0" encoding="UTF-8"?>
<!DOCTYPE svg PUBLIC "-//W3C//DTD SVG 1.1//EN" "http://www.w3.org/Graphics/SVG/1.1/DTD/svg11.dtd">
<svg xmlns="http://www.w3.org/2000/svg" version="1.1" width="1440px" height="1440px" style="shape-rendering:geometricPrecision; text-rendering:geometricPrecision; image-rendering:optimizeQuality; fill-rule:evenodd; clip-rule:evenodd" xmlns:xlink="http://www.w3.org/1999/xlink">
<g><path style="opacity:1" fill="#e2e3f0" d="M 959.5,389.5 C 959.5,399.5 959.5,409.5 959.5,419.5C 959.5,449.5 959.5,479.5 959.5,509.5C 969.5,509.5 979.5,509.5 989.5,509.5C 989.5,579.5 989.5,649.5 989.5,719.5C 979.5,719.5 969.5,719.5 959.5,719.5C 959.5,759.5 959.5,799.5 959.5,839.5C 949.5,839.5 939.5,839.5 929.5,839.5C 909.5,839.5 889.5,839.5 869.5,839.5C 869.5,829.5 869.5,819.5 869.5,809.5C 859.5,809.5 849.5,809.5 839.5,809.5C 839.5,779.5 839.5,749.5 839.5,719.5C 849.5,719.5 859.5,719.5 869.5,719.5C 869.5,669.5 869.5,619.5 869.5,569.5C 859.5,569.5 849.5,569.5 839.5,569.5C 839.5,529.5 839.5,489.5 839.5,449.5C 829.5,449.5 819.5,449.5 809.5,449.5C 809.5,439.5 809.5,429.5 809.5,419.5C 809.5,409.5 809.5,399.5 809.5,389.5C 789.5,389.5 769.5,389.5 749.5,389.5C 749.5,379.5 749.5,369.5 749.5,359.5C 809.5,359.5 869.5,359.5 929.5,359.5C 929.5,369.5 929.5,379.5 929.5,389.5C 939.5,389.5 949.5,389.5 959.5,389.5 Z"/></g>
<g><path style="opacity:1" fill="#fe9e1f" d="M 749.5,389.5 C 769.5,389.5 789.5,389.5 809.5,389.5C 809.5,399.5 809.5,409.5 809.5,419.5C 749.5,419.5 689.5,419.5 629.5,419.5C 629.5,429.5 629.5,439.5 629.5,449.5C 609.5,449.5 589.5,449.5 569.5,449.5C 569.5,459.5 569.5,469.5 569.5,479.5C 559.5,479.5 549.5,479.5 539.5,479.5C 539.5,489.5 539.5,499.5 539.5,509.5C 529.5,509.5 519.5,509.5 509.5,509.5C 509.5,519.5 509.5,529.5 509.5,539.5C 499.5,539.5 489.5,539.5 479.5,539.5C 479.5,549.5 479.5,559.5 479.5,569.5C 469.5,569.5 459.5,569.5 449.5,569.5C 449.5,599.5 449.5,629.5 449.5,659.5C 439.5,659.5 429.5,659.5 419.5,659.5C 419.5,669.5 419.5,679.5 419.5,689.5C 429.5,689.5 439.5,689.5 449.5,689.5C 449.5,719.5 449.5,749.5 449.5,779.5C 439.5,779.5 429.5,779.5 419.5,779.5C 419.5,759.5 419.5,739.5 419.5,719.5C 409.5,719.5 399.5,719.5 389.5,719.5C 389.5,699.5 389.5,679.5 389.5,659.5C 389.5,649.5 389.5,639.5 389.5,629.5C 399.5,629.5 409.5,629.5 419.5,629.5C 419.5,619.5 419.5,609.5 419.5,599.5C 419.5,579.5 419.5,559.5 419.5,539.5C 429.5,539.5 439.5,539.5 449.5,539.5C 449.5,529.5 449.5,519.5 449.5,509.5C 459.5,509.5 469.5,509.5 479.5,509.5C 479.5,499.5 479.5,489.5 479.5,479.5C 489.5,479.5 499.5,479.5 509.5,479.5C 509.5,469.5 509.5,459.5 509.5,449.5C 519.5,449.5 529.5,449.5 539.5,449.5C 539.5,439.5 539.5,429.5 539.5,419.5C 559.5,419.5 579.5,419.5 599.5,419.5C 599.5,409.5 599.5,399.5 599.5,389.5C 649.5,389.5 699.5,389.5 749.5,389.5 Z"/></g>
<g><path style="opacity:1" fill="#2b2b62" d="M 959.5,389.5 C 979.5,389.5 999.5,389.5 1019.5,389.5C 1019.5,399.5 1019.5,409.5 1019.5,419.5C 999.5,419.5 979.5,419.5 959.5,419.5C 959.5,409.5 959.5,399.5 959.5,389.5 Z"/></g>
<g><path style="opacity:1" fill="#febb00" d="M 809.5,419.5 C 809.5,429.5 809.5,439.5 809.5,449.5C 819.5,449.5 829.5,449.5 839.5,449.5C 839.5,489.5 839.5,529.5 839.5,569.5C 849.5,569.5 859.5,569.5 869.5,569.5C 869.5,619.5 869.5,669.5 869.5,719.5C 859.5,719.5 849.5,719.5 839.5,719.5C 839.5,749.5 839.5,779.5 839.5,809.5C 819.5,809.5 799.5,809.5 779.5,809.5C 779.5,819.5 779.5,829.5 779.5,839.5C 799.5,839.5 819.5,839.5 839.5,839.5C 839.5,849.5 839.5,859.5 839.5,869.5C 859.5,869.5 879.5,869.5 899.5,869.5C 899.5,889.5 899.5,909.5 899.5,929.5C 889.5,929.5 879.5,929.5 869.5,929.5C 869.5,939.5 869.5,949.5 869.5,959.5C 849.5,959.5 829.5,959.5 809.5,959.5C 809.5,969.5 809.5,979.5 809.5,989.5C 779.5,989.5 749.5,989.5 719.5,989.5C 719.5,979.5 719.5,969.5 719.5,959.5C 689.5,959.5 659.5,959.5 629.5,959.5C 619.5,959.5 609.5,959.5 599.5,959.5C 599.5,939.5 599.5,919.5 599.5,899.5C 589.5,899.5 579.5,899.5 569.5,899.5C 569.5,889.5 569.5,879.5 569.5,869.5C 559.5,869.5 549.5,869.5 539.5,869.5C 539.5,859.5 539.5,849.5 539.5,839.5C 529.5,839.5 519.5,839.5 509.5,839.5C 509.5,829.5 509.5,819.5 509.5,809.5C 499.5,809.5 489.5,809.5 479.5,809.5C 479.5,799.5 479.5,789.5 479.5,779.5C 469.5,779.5 459.5,779.5 449.5,779.5C 449.5,749.5 449.5,719.5 449.5,689.5C 439.5,689.5 429.5,689.5 419.5,689.5C 419.5,679.5 419.5,669.5 419.5,659.5C 429.5,659.5 439.5,659.5 449.5,659.5C 449.5,629.5 449.5,599.5 449.5,569.5C 459.5,569.5 469.5,569.5 479.5,569.5C 479.5,559.5 479.5,549.5 479.5,539.5C 489.5,539.5 499.5,539.5 509.5,539.5C 509.5,529.5 509.5,519.5 509.5,509.5C 519.5,509.5 529.5,509.5 539.5,509.5C 539.5,499.5 539.5,489.5 539.5,479.5C 549.5,479.5 559.5,479.5 569.5,479.5C 569.5,469.5 569.5,459.5 569.5,449.5C 589.5,449.5 609.5,449.5 629.5,449.5C 629.5,439.5 629.5,429.5 629.5,419.5C 689.5,419.5 749.5,419.5 809.5,419.5 Z"/></g>
<g><path style="opacity:1" fill="#3a3a7d" d="M 959.5,419.5 C 979.5,419.5 999.5,419.5 1019.5,419.5C 1019.5,429.5 1019.5,439.5 1019.5,449.5C 1029.5,449.5 1039.5,449.5 1049.5,449.5C 1049.5,459.5 1049.5,469.5 1049.5,479.5C 1059.5,479.5 1069.5,479.5 1079.5,479.5C 1079.5,499.5 1079.5,519.5 1079.5,539.5C 1089.5,539.5 1099.5,539.5 1109.5,539.5C 1109.5,549.5 1109.5,559.5 1109.5,569.5C 1119.5,569.5 1129.5,569.5 1139.5,569.5C 1139.5,589.5 1139.5,609.5 1139.5,629.5C 1149.5,629.5 1159.5,629.5 1169.5,629.5C 1169.5,649.5 1169.5,669.5 1169.5,689.5C 1179.5,689.5 1189.5,689.5 1199.5,689.5C 1199.5,699.5 1199.5,709.5 1199.5,719.5C 1209.5,719.5 1219.5,719.5 1229.5,719.5C 1229.5,769.5 1229.5,819.5 1229.5,869.5C 1219.5,869.5 1209.5,869.5 1199.5,869.5C 1199.5,879.5 1199.5,889.5 1199.5,899.5C 1189.5,899.5 1179.5,899.5 1169.5,899.5C 1169.5,909.5 1169.5,919.5 1169.5,929.5C 1129.5,929.5 1089.5,929.5 1049.5,929.5C 1049.5,919.5 1049.5,909.5 1049.5,899.5C 1039.5,899.5 1029.5,899.5 1019.5,899.5C 1019.5,889.5 1019.5,879.5 1019.5,869.5C 1009.5,869.5 999.5,869.5 989.5,869.5C 989.5,859.5 989.5,849.5 989.5,839.5C 979.5,839.5 969.5,839.5 959.5,839.5C 959.5,799.5 959.5,759.5 959.5,719.5C 969.5,719.5 979.5,719.5 989.5,719.5C 989.5,649.5 989.5,579.5 989.5,509.5C 979.5,509.5 969.5,509.5 959.5,509.5C 959.5,479.5 959.5,449.5 959.5,419.5 Z"/></g>
<g><path style="opacity:1" fill="#2b2b62" d="M 1019.5,419.5 C 1029.5,419.5 1039.5,419.5 1049.5,419.5C 1049.5,429.5 1049.5,439.5 1049.5,449.5C 1049.5,439.5 1049.5,429.5 1049.5,419.5C 1039.5,419.5 1029.5,419.5 1019.5,419.5 Z"/></g>
<g><path style="opacity:1" fill="#2b2b62" d="M 1049.5,449.5 C 1059.5,449.5 1069.5,449.5 1079.5,449.5C 1079.5,459.5 1079.5,469.5 1079.5,479.5C 1079.5,469.5 1079.5,459.5 1079.5,449.5C 1069.5,449.5 1059.5,449.5 1049.5,449.5 Z"/></g>
<g><path style="opacity:1" fill="#000000" d="M 599.5,479.5 C 609.5,479.5 619.5,479.5 629.5,479.5C 629.5,499.5 629.5,519.5 629.5,539.5C 619.5,539.5 609.5,539.5 599.5,539.5C 599.5,519.5 599.5,499.5 599.5,479.5 Z"/></g>
<g><path style="opacity:1" fill="#2b2b62" d="M 1079.5,479.5 C 1089.5,479.5 1099.5,479.5 1109.5,479.5C 1109.5,489.5 1109.5,499.5 1109.5,509.5C 1119.5,509.5 1129.5,509.5 1139.5,509.5C 1139.5,519.5 1139.5,529.5 1139.5,539.5C 1149.5,539.5 1159.5,539.5 1169.5,539.5C 1169.5,559.5 1169.5,579.5 1169.5,599.5C 1179.5,599.5 1189.5,599.5 1199.5,599.5C 1199.5,619.5 1199.5,639.5 1199.5,659.5C 1209.5,659.5 1219.5,659.5 1229.5,659.5C 1229.5,679.5 1229.5,699.5 1229.5,719.5C 1219.5,719.5 1209.5,719.5 1199.5,719.5C 1199.5,709.5 1199.5,699.5 1199.5,689.5C 1189.5,689.5 1179.5,689.5 1169.5,689.5C 1169.5,669.5 1169.5,649.5 1169.5,629.5C 1159.5,629.5 1149.5,629.5 1139.5,629.5C 1139.5,609.5 1139.5,589.5 1139.5,569.5C 1129.5,569.5 1119.5,569.5 1109.5,569.5C 1109.5,559.5 1109.5,549.5 1109.5,539.5C 1099.5,539.5 1089.5,539.5 1079.5,539.5C 1079.5,519.5 1079.5,499.5 1079.5,479.5 Z"/></g>
<g><path style="opacity:1" fill="#ee692e" d="M 719.5,509.5 C 719.5,519.5 719.5,529.5 719.5,539.5C 709.5,539.5 699.5,539.5 689.5,539.5C 689.5,529.5 689.5,519.5 689.5,509.5C 699.5,509.5 709.5,509.5 719.5,509.5 Z"/></g>
<g><path style="opacity:1" fill="#c84015" d="M 719.5,509.5 C 729.5,509.5 739.5,509.5 749.5,509.5C 749.5,579.5 749.5,649.5 749.5,719.5C 729.5,719.5 709.5,719.5 689.5,719.5C 689.5,709.5 689.5,699.5 689.5,689.5C 689.5,679.5 689.5,669.5 689.5,659.5C 699.5,659.5 709.5,659.5 719.5,659.5C 719.5,619.5 719.5,579.5 719.5,539.5C 719.5,529.5 719.5,519.5 719.5,509.5 Z"/></g>
<g><path style="opacity:1" fill="#3a3a7d" d="M 419.5,539.5 C 419.5,559.5 419.5,579.5 419.5,599.5C 409.5,599.5 399.5,599.5 389.5,599.5C 389.5,609.5 389.5,619.5 389.5,629.5C 379.5,629.5 369.5,629.5 359.5,629.5C 359.5,639.5 359.5,649.5 359.5,659.5C 359.5,699.5 359.5,739.5 359.5,779.5C 349.5,779.5 339.5,779.5 329.5,779.5C 329.5,789.5 329.5,799.5 329.5,809.5C 339.5,809.5 349.5,809.5 359.5,809.5C 369.5,809.5 379.5,809.5 389.5,809.5C 389.5,799.5 389.5,789.5 389.5,779.5C 399.5,779.5 409.5,779.5 419.5,779.5C 429.5,779.5 439.5,779.5 449.5,779.5C 459.5,779.5 469.5,779.5 479.5,779.5C 479.5,789.5 479.5,799.5 479.5,809.5C 489.5,809.5 499.5,809.5 509.5,809.5C 509.5,819.5 509.5,829.5 509.5,839.5C 519.5,839.5 529.5,839.5 539.5,839.5C 539.5,849.5 539.5,859.5 539.5,869.5C 549.5,869.5 559.5,869.5 569.5,869.5C 569.5,879.5 569.5,889.5 569.5,899.5C 569.5,929.5 569.5,959.5 569.5,989.5C 549.5,989.5 529.5,989.5 509.5,989.5C 509.5,999.5 509.5,1009.5 509.5,1019.5C 469.5,1019.5 429.5,1019.5 389.5,1019.5C 389.5,1009.5 389.5,999.5 389.5,989.5C 369.5,989.5 349.5,989.5 329.5,989.5C 329.5,979.5 329.5,969.5 329.5,959.5C 309.5,959.5 289.5,959.5 269.5,959.5C 269.5,949.5 269.5,939.5 269.5,929.5C 259.5,929.5 249.5,929.5 239.5,929.5C 239.5,889.5 239.5,849.5 239.5,809.5C 239.5,799.5 239.5,789.5 239.5,779.5C 249.5,779.5 259.5,779.5 269.5,779.5C 269.5,759.5 269.5,739.5 269.5,719.5C 279.5,719.5 289.5,719.5 299.5,719.5C 299.5,699.5 299.5,679.5 299.5,659.5C 309.5,659.5 319.5,659.5 329.5,659.5C 329.5,639.5 329.5,619.5 329.5,599.5C 339.5,599.5 349.5,599.5 359.5,599.5C 359.5,589.5 359.5,579.5 359.5,569.5C 369.5,569.5 379.5,569.5 389.5,569.5C 389.5,559.5 389.5,549.5 389.5,539.5C 399.5,539.5 409.5,539.5 419.5,539.5 Z"/></g>
<g><path style="opacity:1" fill="#ee692e" d="M 689.5,539.5 C 689.5,579.5 689.5,619.5 689.5,659.5C 689.5,669.5 689.5,679.5 689.5,689.5C 679.5,689.5 669.5,689.5 659.5,689.5C 659.5,639.5 659.5,589.5 659.5,539.5C 669.5,539.5 679.5,539.5 689.5,539.5 Z"/></g>
<g><path style="opacity:1" fill="#e58e21" d="M 689.5,539.5 C 699.5,539.5 709.5,539.5 719.5,539.5C 719.5,579.5 719.5,619.5 719.5,659.5C 709.5,659.5 699.5,659.5 689.5,659.5C 689.5,619.5 689.5,579.5 689.5,539.5 Z"/></g>
<g><path style="opacity:1" fill="#2b2b62" d="M 419.5,599.5 C 419.5,609.5 419.5,619.5 419.5,629.5C 409.5,629.5 399.5,629.5 389.5,629.5C 389.5,619.5 389.5,609.5 389.5,599.5C 399.5,599.5 409.5,599.5 419.5,599.5 Z"/></g>
<g><path style="opacity:1" fill="#2b2b62" d="M 389.5,629.5 C 389.5,639.5 389.5,649.5 389.5,659.5C 379.5,659.5 369.5,659.5 359.5,659.5C 359.5,649.5 359.5,639.5 359.5,629.5C 369.5,629.5 379.5,629.5 389.5,629.5 Z"/></g>
<g><path style="opacity:1" fill="#22224e" d="M 359.5,659.5 C 369.5,659.5 379.5,659.5 389.5,659.5C 389.5,679.5 389.5,699.5 389.5,719.5C 399.5,719.5 409.5,719.5 419.5,719.5C 419.5,739.5 419.5,759.5 419.5,779.5C 409.5,779.5 399.5,779.5 389.5,779.5C 389.5,789.5 389.5,799.5 389.5,809.5C 379.5,809.5 369.5,809.5 359.5,809.5C 359.5,799.5 359.5,789.5 359.5,779.5C 359.5,739.5 359.5,699.5 359.5,659.5 Z"/></g>
<g><path style="opacity:1" fill="#000000" d="M 599.5,689.5 C 609.5,689.5 619.5,689.5 629.5,689.5C 629.5,719.5 629.5,749.5 629.5,779.5C 619.5,779.5 609.5,779.5 599.5,779.5C 599.5,749.5 599.5,719.5 599.5,689.5 Z"/></g>
<g><path style="opacity:1" fill="#2b2b62" d="M 1229.5,719.5 C 1239.5,719.5 1249.5,719.5 1259.5,719.5C 1259.5,779.5 1259.5,839.5 1259.5,899.5C 1249.5,899.5 1239.5,899.5 1229.5,899.5C 1229.5,909.5 1229.5,919.5 1229.5,929.5C 1219.5,929.5 1209.5,929.5 1199.5,929.5C 1199.5,939.5 1199.5,949.5 1199.5,959.5C 1199.5,969.5 1199.5,979.5 1199.5,989.5C 1129.5,989.5 1059.5,989.5 989.5,989.5C 989.5,979.5 989.5,969.5 989.5,959.5C 979.5,959.5 969.5,959.5 959.5,959.5C 959.5,939.5 959.5,919.5 959.5,899.5C 949.5,899.5 939.5,899.5 929.5,899.5C 929.5,879.5 929.5,859.5 929.5,839.5C 939.5,839.5 949.5,839.5 959.5,839.5C 969.5,839.5 979.5,839.5 989.5,839.5C 989.5,849.5 989.5,859.5 989.5,869.5C 999.5,869.5 1009.5,869.5 1019.5,869.5C 1019.5,879.5 1019.5,889.5 1019.5,899.5C 1029.5,899.5 1039.5,899.5 1049.5,899.5C 1049.5,909.5 1049.5,919.5 1049.5,929.5C 1089.5,929.5 1129.5,929.5 1169.5,929.5C 1169.5,919.5 1169.5,909.5 1169.5,899.5C 1179.5,899.5 1189.5,899.5 1199.5,899.5C 1199.5,889.5 1199.5,879.5 1199.5,869.5C 1209.5,869.5 1219.5,869.5 1229.5,869.5C 1229.5,819.5 1229.5,769.5 1229.5,719.5 Z"/></g>
<g><path style="opacity:1" fill="#2b2b62" d="M 359.5,779.5 C 359.5,789.5 359.5,799.5 359.5,809.5C 349.5,809.5 339.5,809.5 329.5,809.5C 329.5,799.5 329.5,789.5 329.5,779.5C 339.5,779.5 349.5,779.5 359.5,779.5 Z"/></g>
<g><path style="opacity:1" fill="#2b2b62" d="M 239.5,809.5 C 239.5,849.5 239.5,889.5 239.5,929.5C 249.5,929.5 259.5,929.5 269.5,929.5C 269.5,939.5 269.5,949.5 269.5,959.5C 289.5,959.5 309.5,959.5 329.5,959.5C 329.5,969.5 329.5,979.5 329.5,989.5C 299.5,989.5 269.5,989.5 239.5,989.5C 239.5,979.5 239.5,969.5 239.5,959.5C 219.5,959.5 199.5,959.5 179.5,959.5C 179.5,949.5 179.5,939.5 179.5,929.5C 189.5,929.5 199.5,929.5 209.5,929.5C 209.5,909.5 209.5,889.5 209.5,869.5C 209.5,849.5 209.5,829.5 209.5,809.5C 219.5,809.5 229.5,809.5 239.5,809.5 Z"/></g>
<g><path style="opacity:1" fill="#db7524" d="M 839.5,809.5 C 849.5,809.5 859.5,809.5 869.5,809.5C 869.5,819.5 869.5,829.5 869.5,839.5C 889.5,839.5 909.5,839.5 929.5,839.5C 929.5,859.5 929.5,879.5 929.5,899.5C 929.5,929.5 929.5,959.5 929.5,989.5C 929.5,999.5 929.5,1009.5 929.5,1019.5C 899.5,1019.5 869.5,1019.5 839.5,1019.5C 839.5,1009.5 839.5,999.5 839.5,989.5C 859.5,989.5 879.5,989.5 899.5,989.5C 899.5,969.5 899.5,949.5 899.5,929.5C 899.5,909.5 899.5,889.5 899.5,869.5C 879.5,869.5 859.5,869.5 839.5,869.5C 839.5,859.5 839.5,849.5 839.5,839.5C 819.5,839.5 799.5,839.5 779.5,839.5C 779.5,829.5 779.5,819.5 779.5,809.5C 799.5,809.5 819.5,809.5 839.5,809.5 Z"/></g>
<g><path style="opacity:1" fill="#22224e" d="M 209.5,869.5 C 209.5,889.5 209.5,909.5 209.5,929.5C 199.5,929.5 189.5,929.5 179.5,929.5C 179.5,909.5 179.5,889.5 179.5,869.5C 189.5,869.5 199.5,869.5 209.5,869.5 Z"/></g>
<g><path style="opacity:1" fill="#22224e" d="M 569.5,899.5 C 579.5,899.5 589.5,899.5 599.5,899.5C 599.5,919.5 599.5,939.5 599.5,959.5C 609.5,959.5 619.5,959.5 629.5,959.5C 629.5,969.5 629.5,979.5 629.5,989.5C 629.5,999.5 629.5,1009.5 629.5,1019.5C 619.5,1019.5 609.5,1019.5 599.5,1019.5C 599.5,1009.5 599.5,999.5 599.5,989.5C 589.5,989.5 579.5,989.5 569.5,989.5C 569.5,959.5 569.5,929.5 569.5,899.5 Z"/></g>
<g><path style="opacity:1" fill="#22224e" d="M 929.5,899.5 C 939.5,899.5 949.5,899.5 959.5,899.5C 959.5,919.5 959.5,939.5 959.5,959.5C 969.5,959.5 979.5,959.5 989.5,959.5C 989.5,969.5 989.5,979.5 989.5,989.5C 969.5,989.5 949.5,989.5 929.5,989.5C 929.5,959.5 929.5,929.5 929.5,899.5 Z"/></g>
<g><path style="opacity:1" fill="#22224e" d="M 1259.5,899.5 C 1259.5,909.5 1259.5,919.5 1259.5,929.5C 1249.5,929.5 1239.5,929.5 1229.5,929.5C 1229.5,919.5 1229.5,909.5 1229.5,899.5C 1239.5,899.5 1249.5,899.5 1259.5,899.5 Z"/></g>
<g><path style="opacity:1" fill="#fe9e1f" d="M 899.5,929.5 C 899.5,949.5 899.5,969.5 899.5,989.5C 879.5,989.5 859.5,989.5 839.5,989.5C 839.5,999.5 839.5,1009.5 839.5,1019.5C 799.5,1019.5 759.5,1019.5 719.5,1019.5C 719.5,1009.5 719.5,999.5 719.5,989.5C 749.5,989.5 779.5,989.5 809.5,989.5C 809.5,979.5 809.5,969.5 809.5,959.5C 829.5,959.5 849.5,959.5 869.5,959.5C 869.5,949.5 869.5,939.5 869.5,929.5C 879.5,929.5 889.5,929.5 899.5,929.5 Z"/></g>
<g><path style="opacity:1" fill="#22224e" d="M 1229.5,929.5 C 1229.5,939.5 1229.5,949.5 1229.5,959.5C 1219.5,959.5 1209.5,959.5 1199.5,959.5C 1199.5,949.5 1199.5,939.5 1199.5,929.5C 1209.5,929.5 1219.5,929.5 1229.5,929.5 Z"/></g>
<g><path style="opacity:1" fill="#fe9e1f" d="M 629.5,959.5 C 659.5,959.5 689.5,959.5 719.5,959.5C 719.5,969.5 719.5,979.5 719.5,989.5C 689.5,989.5 659.5,989.5 629.5,989.5C 629.5,979.5 629.5,969.5 629.5,959.5 Z"/></g>
<g><path style="opacity:1" fill="#2b2b62" d="M 329.5,989.5 C 349.5,989.5 369.5,989.5 389.5,989.5C 389.5,999.5 389.5,1009.5 389.5,1019.5C 369.5,1019.5 349.5,1019.5 329.5,1019.5C 329.5,1009.5 329.5,999.5 329.5,989.5 Z"/></g>
<g><path style="opacity:1" fill="#2b2b62" d="M 569.5,989.5 C 579.5,989.5 589.5,989.5 599.5,989.5C 599.5,999.5 599.5,1009.5 599.5,1019.5C 609.5,1019.5 619.5,1019.5 629.5,1019.5C 629.5,1029.5 629.5,1039.5 629.5,1049.5C 549.5,1049.5 469.5,1049.5 389.5,1049.5C 389.5,1039.5 389.5,1029.5 389.5,1019.5C 429.5,1019.5 469.5,1019.5 509.5,1019.5C 509.5,1009.5 509.5,999.5 509.5,989.5C 529.5,989.5 549.5,989.5 569.5,989.5 Z"/></g>
<g><path style="opacity:1" fill="#db7524" d="M 629.5,989.5 C 659.5,989.5 689.5,989.5 719.5,989.5C 719.5,999.5 719.5,1009.5 719.5,1019.5C 759.5,1019.5 799.5,1019.5 839.5,1019.5C 839.5,1029.5 839.5,1039.5 839.5,1049.5C 789.5,1049.5 739.5,1049.5 689.5,1049.5C 689.5,1039.5 689.5,1029.5 689.5,1019.5C 669.5,1019.5 649.5,1019.5 629.5,1019.5C 629.5,1009.5 629.5,999.5 629.5,989.5 Z"/></g>
</svg>
