<?xml version="1.0" encoding="UTF-8"?>
<!DOCTYPE svg PUBLIC "-//W3C//DTD SVG 1.1//EN" "http://www.w3.org/Graphics/SVG/1.1/DTD/svg11.dtd">
<svg xmlns="http://www.w3.org/2000/svg" version="1.1" width="1440px" height="1440px" style="shape-rendering:geometricPrecision; text-rendering:geometricPrecision; image-rendering:optimizeQuality; fill-rule:evenodd; clip-rule:evenodd" xmlns:xlink="http://www.w3.org/1999/xlink">
<g><path style="opacity:1" fill="#f02221" d="M 1139.5,269.5 C 1129.5,269.5 1119.5,269.5 1109.5,269.5C 1109.5,259.5 1109.5,249.5 1109.5,239.5C 1119.5,239.5 1129.5,239.5 1139.5,239.5C 1139.5,249.5 1139.5,259.5 1139.5,269.5 Z"/></g>
<g><path style="opacity:1" fill="#f02221" d="M 1259.5,269.5 C 1249.5,269.5 1239.5,269.5 1229.5,269.5C 1229.5,259.5 1229.5,249.5 1229.5,239.5C 1239.5,239.5 1249.5,239.5 1259.5,239.5C 1259.5,249.5 1259.5,259.5 1259.5,269.5 Z"/></g>
<g><path style="opacity:1" fill="#fef200" d="M 1109.5,269.5 C 1119.5,269.5 1129.5,269.5 1139.5,269.5C 1139.5,279.5 1139.5,289.5 1139.5,299.5C 1129.5,299.5 1119.5,299.5 1109.5,299.5C 1109.5,289.5 1109.5,279.5 1109.5,269.5 Z"/></g>
<g><path style="opacity:1" fill="#fef200" d="M 1229.5,269.5 C 1239.5,269.5 1249.5,269.5 1259.5,269.5C 1259.5,279.5 1259.5,289.5 1259.5,299.5C 1249.5,299.5 1239.5,299.5 1229.5,299.5C 1229.5,289.5 1229.5,279.5 1229.5,269.5 Z"/></g>
<g><path style="opacity:1" fill="#dd13e6" d="M 1139.5,359.5 C 1129.5,359.5 1119.5,359.5 1109.5,359.5C 1109.5,349.5 1109.5,339.5 1109.5,329.5C 1119.5,329.5 1129.5,329.5 1139.5,329.5C 1139.5,339.5 1139.5,349.5 1139.5,359.5 Z"/></g>
<g><path style="opacity:1" fill="#dd13e6" d="M 1259.5,359.5 C 1249.5,359.5 1239.5,359.5 1229.5,359.5C 1229.5,349.5 1229.5,339.5 1229.5,329.5C 1239.5,329.5 1249.5,329.5 1259.5,329.5C 1259.5,339.5 1259.5,349.5 1259.5,359.5 Z"/></g>
<g><path style="opacity:1" fill="#e381c4" d="M 1109.5,359.5 C 1119.5,359.5 1129.5,359.5 1139.5,359.5C 1139.5,369.5 1139.5,379.5 1139.5,389.5C 1129.5,389.5 1119.5,389.5 1109.5,389.5C 1109.5,379.5 1109.5,369.5 1109.5,359.5 Z"/></g>
<g><path style="opacity:1" fill="#e381c4" d="M 1229.5,359.5 C 1239.5,359.5 1249.5,359.5 1259.5,359.5C 1259.5,369.5 1259.5,379.5 1259.5,389.5C 1249.5,389.5 1239.5,389.5 1229.5,389.5C 1229.5,379.5 1229.5,369.5 1229.5,359.5 Z"/></g>
<g><path style="opacity:1" fill="#fadedd" d="M 1109.5,389.5 C 1109.5,399.5 1109.5,409.5 1109.5,419.5C 1099.5,419.5 1089.5,419.5 1079.5,419.5C 1079.5,409.5 1079.5,399.5 1079.5,389.5C 1089.5,389.5 1099.5,389.5 1109.5,389.5 Z"/></g>
<g><path style="opacity:1" fill="#dd13e6" d="M 1109.5,389.5 C 1119.5,389.5 1129.5,389.5 1139.5,389.5C 1139.5,399.5 1139.5,409.5 1139.5,419.5C 1129.5,419.5 1119.5,419.5 1109.5,419.5C 1109.5,409.5 1109.5,399.5 1109.5,389.5 Z"/></g>
<g><path style="opacity:1" fill="#fadedd" d="M 1139.5,389.5 C 1169.5,389.5 1199.5,389.5 1229.5,389.5C 1229.5,399.5 1229.5,409.5 1229.5,419.5C 1219.5,419.5 1209.5,419.5 1199.5,419.5C 1189.5,419.5 1179.5,419.5 1169.5,419.5C 1159.5,419.5 1149.5,419.5 1139.5,419.5C 1139.5,409.5 1139.5,399.5 1139.5,389.5 Z"/></g>
<g><path style="opacity:1" fill="#dd13e6" d="M 1229.5,389.5 C 1239.5,389.5 1249.5,389.5 1259.5,389.5C 1259.5,399.5 1259.5,409.5 1259.5,419.5C 1249.5,419.5 1239.5,419.5 1229.5,419.5C 1229.5,409.5 1229.5,399.5 1229.5,389.5 Z"/></g>
<g><path style="opacity:1" fill="#fadedd" d="M 1259.5,389.5 C 1269.5,389.5 1279.5,389.5 1289.5,389.5C 1289.5,399.5 1289.5,409.5 1289.5,419.5C 1279.5,419.5 1269.5,419.5 1259.5,419.5C 1259.5,409.5 1259.5,399.5 1259.5,389.5 Z"/></g>
<g><path style="opacity:1" fill="#fadedd" d="M 1079.5,419.5 C 1079.5,429.5 1079.5,439.5 1079.5,449.5C 1069.5,449.5 1059.5,449.5 1049.5,449.5C 1049.5,459.5 1049.5,469.5 1049.5,479.5C 1039.5,479.5 1029.5,479.5 1019.5,479.5C 1009.5,479.5 999.5,479.5 989.5,479.5C 989.5,469.5 989.5,459.5 989.5,449.5C 999.5,449.5 1009.5,449.5 1019.5,449.5C 1019.5,439.5 1019.5,429.5 1019.5,419.5C 1039.5,419.5 1059.5,419.5 1079.5,419.5 Z"/></g>
<g><path style="opacity:1" fill="#e85d5c" d="M 1079.5,419.5 C 1089.5,419.5 1099.5,419.5 1109.5,419.5C 1109.5,449.5 1109.5,479.5 1109.5,509.5C 1099.5,509.5 1089.5,509.5 1079.5,509.5C 1079.5,489.5 1079.5,469.5 1079.5,449.5C 1079.5,439.5 1079.5,429.5 1079.5,419.5 Z"/></g>
<g><path style="opacity:1" fill="#fefffe" d="M 1109.5,419.5 C 1119.5,419.5 1129.5,419.5 1139.5,419.5C 1149.5,419.5 1159.5,419.5 1169.5,419.5C 1169.5,429.5 1169.5,439.5 1169.5,449.5C 1159.5,449.5 1149.5,449.5 1139.5,449.5C 1139.5,459.5 1139.5,469.5 1139.5,479.5C 1149.5,479.5 1159.5,479.5 1169.5,479.5C 1169.5,489.5 1169.5,499.5 1169.5,509.5C 1179.5,509.5 1189.5,509.5 1199.5,509.5C 1199.5,499.5 1199.5,489.5 1199.5,479.5C 1219.5,479.5 1239.5,479.5 1259.5,479.5C 1259.5,489.5 1259.5,499.5 1259.5,509.5C 1269.5,509.5 1279.5,509.5 1289.5,509.5C 1289.5,499.5 1289.5,489.5 1289.5,479.5C 1299.5,479.5 1309.5,479.5 1319.5,479.5C 1329.5,479.5 1339.5,479.5 1349.5,479.5C 1349.5,499.5 1349.5,519.5 1349.5,539.5C 1329.5,539.5 1309.5,539.5 1289.5,539.5C 1289.5,549.5 1289.5,559.5 1289.5,569.5C 1219.5,569.5 1149.5,569.5 1079.5,569.5C 1079.5,559.5 1079.5,549.5 1079.5,539.5C 1059.5,539.5 1039.5,539.5 1019.5,539.5C 1019.5,519.5 1019.5,499.5 1019.5,479.5C 1029.5,479.5 1039.5,479.5 1049.5,479.5C 1049.5,469.5 1049.5,459.5 1049.5,449.5C 1059.5,449.5 1069.5,449.5 1079.5,449.5C 1079.5,469.5 1079.5,489.5 1079.5,509.5C 1089.5,509.5 1099.5,509.5 1109.5,509.5C 1109.5,479.5 1109.5,449.5 1109.5,419.5 Z"/></g>
<g><path style="opacity:1" fill="#e85d5c" d="M 1169.5,419.5 C 1179.5,419.5 1189.5,419.5 1199.5,419.5C 1199.5,429.5 1199.5,439.5 1199.5,449.5C 1189.5,449.5 1179.5,449.5 1169.5,449.5C 1169.5,439.5 1169.5,429.5 1169.5,419.5 Z"/></g>
<g><path style="opacity:1" fill="#fefffe" d="M 1199.5,419.5 C 1209.5,419.5 1219.5,419.5 1229.5,419.5C 1239.5,419.5 1249.5,419.5 1259.5,419.5C 1259.5,429.5 1259.5,439.5 1259.5,449.5C 1239.5,449.5 1219.5,449.5 1199.5,449.5C 1199.5,439.5 1199.5,429.5 1199.5,419.5 Z"/></g>
<g><path style="opacity:1" fill="#e85d5c" d="M 1259.5,419.5 C 1269.5,419.5 1279.5,419.5 1289.5,419.5C 1289.5,429.5 1289.5,439.5 1289.5,449.5C 1279.5,449.5 1269.5,449.5 1259.5,449.5C 1259.5,439.5 1259.5,429.5 1259.5,419.5 Z"/></g>
<g><path style="opacity:1" fill="#fadedd" d="M 1289.5,419.5 C 1309.5,419.5 1329.5,419.5 1349.5,419.5C 1349.5,429.5 1349.5,439.5 1349.5,449.5C 1359.5,449.5 1369.5,449.5 1379.5,449.5C 1379.5,459.5 1379.5,469.5 1379.5,479.5C 1369.5,479.5 1359.5,479.5 1349.5,479.5C 1339.5,479.5 1329.5,479.5 1319.5,479.5C 1319.5,469.5 1319.5,459.5 1319.5,449.5C 1309.5,449.5 1299.5,449.5 1289.5,449.5C 1289.5,439.5 1289.5,429.5 1289.5,419.5 Z"/></g>
<g><path style="opacity:1" fill="#fe9e1f" d="M 989.5,449.5 C 989.5,459.5 989.5,469.5 989.5,479.5C 989.5,489.5 989.5,499.5 989.5,509.5C 979.5,509.5 969.5,509.5 959.5,509.5C 959.5,489.5 959.5,469.5 959.5,449.5C 969.5,449.5 979.5,449.5 989.5,449.5 Z"/></g>
<g><path style="opacity:1" fill="#e85d5c" d="M 1169.5,449.5 C 1169.5,459.5 1169.5,469.5 1169.5,479.5C 1159.5,479.5 1149.5,479.5 1139.5,479.5C 1139.5,469.5 1139.5,459.5 1139.5,449.5C 1149.5,449.5 1159.5,449.5 1169.5,449.5 Z"/></g>
<g><path style="opacity:1" fill="#fefffe" d="M 1169.5,449.5 C 1179.5,449.5 1189.5,449.5 1199.5,449.5C 1199.5,459.5 1199.5,469.5 1199.5,479.5C 1189.5,479.5 1179.5,479.5 1169.5,479.5C 1169.5,469.5 1169.5,459.5 1169.5,449.5 Z"/></g>
<g><path style="opacity:1" fill="#e85d5c" d="M 1199.5,449.5 C 1219.5,449.5 1239.5,449.5 1259.5,449.5C 1259.5,459.5 1259.5,469.5 1259.5,479.5C 1239.5,479.5 1219.5,479.5 1199.5,479.5C 1199.5,469.5 1199.5,459.5 1199.5,449.5 Z"/></g>
<g><path style="opacity:1" fill="#fefffe" d="M 1259.5,449.5 C 1269.5,449.5 1279.5,449.5 1289.5,449.5C 1289.5,459.5 1289.5,469.5 1289.5,479.5C 1279.5,479.5 1269.5,479.5 1259.5,479.5C 1259.5,469.5 1259.5,459.5 1259.5,449.5 Z"/></g>
<g><path style="opacity:1" fill="#e85d5c" d="M 1289.5,449.5 C 1299.5,449.5 1309.5,449.5 1319.5,449.5C 1319.5,459.5 1319.5,469.5 1319.5,479.5C 1309.5,479.5 1299.5,479.5 1289.5,479.5C 1289.5,469.5 1289.5,459.5 1289.5,449.5 Z"/></g>
<g><path style="opacity:1" fill="#e85d5c" d="M 989.5,479.5 C 999.5,479.5 1009.5,479.5 1019.5,479.5C 1019.5,499.5 1019.5,519.5 1019.5,539.5C 1009.5,539.5 999.5,539.5 989.5,539.5C 989.5,529.5 989.5,519.5 989.5,509.5C 989.5,499.5 989.5,489.5 989.5,479.5 Z"/></g>
<g><path style="opacity:1" fill="#e85d5c" d="M 1169.5,479.5 C 1179.5,479.5 1189.5,479.5 1199.5,479.5C 1199.5,489.5 1199.5,499.5 1199.5,509.5C 1189.5,509.5 1179.5,509.5 1169.5,509.5C 1169.5,499.5 1169.5,489.5 1169.5,479.5 Z"/></g>
<g><path style="opacity:1" fill="#e85d5c" d="M 1259.5,479.5 C 1269.5,479.5 1279.5,479.5 1289.5,479.5C 1289.5,489.5 1289.5,499.5 1289.5,509.5C 1279.5,509.5 1269.5,509.5 1259.5,509.5C 1259.5,499.5 1259.5,489.5 1259.5,479.5 Z"/></g>
<g><path style="opacity:1" fill="#e85d5c" d="M 1349.5,479.5 C 1359.5,479.5 1369.5,479.5 1379.5,479.5C 1379.5,499.5 1379.5,519.5 1379.5,539.5C 1369.5,539.5 1359.5,539.5 1349.5,539.5C 1349.5,519.5 1349.5,499.5 1349.5,479.5 Z"/></g>
<g><path style="opacity:1" fill="#febb00" d="M 959.5,509.5 C 969.5,509.5 979.5,509.5 989.5,509.5C 989.5,519.5 989.5,529.5 989.5,539.5C 989.5,589.5 989.5,639.5 989.5,689.5C 999.5,689.5 1009.5,689.5 1019.5,689.5C 1019.5,699.5 1019.5,709.5 1019.5,719.5C 1019.5,729.5 1019.5,739.5 1019.5,749.5C 1019.5,769.5 1019.5,789.5 1019.5,809.5C 1009.5,809.5 999.5,809.5 989.5,809.5C 989.5,819.5 989.5,829.5 989.5,839.5C 979.5,839.5 969.5,839.5 959.5,839.5C 959.5,729.5 959.5,619.5 959.5,509.5 Z"/></g>
<g><path style="opacity:1" fill="#fadedd" d="M 989.5,539.5 C 999.5,539.5 1009.5,539.5 1019.5,539.5C 1019.5,549.5 1019.5,559.5 1019.5,569.5C 1039.5,569.5 1059.5,569.5 1079.5,569.5C 1079.5,579.5 1079.5,589.5 1079.5,599.5C 1149.5,599.5 1219.5,599.5 1289.5,599.5C 1289.5,589.5 1289.5,579.5 1289.5,569.5C 1309.5,569.5 1329.5,569.5 1349.5,569.5C 1349.5,559.5 1349.5,549.5 1349.5,539.5C 1359.5,539.5 1369.5,539.5 1379.5,539.5C 1379.5,589.5 1379.5,639.5 1379.5,689.5C 1369.5,689.5 1359.5,689.5 1349.5,689.5C 1349.5,679.5 1349.5,669.5 1349.5,659.5C 1349.5,639.5 1349.5,619.5 1349.5,599.5C 1339.5,599.5 1329.5,599.5 1319.5,599.5C 1319.5,609.5 1319.5,619.5 1319.5,629.5C 1309.5,629.5 1299.5,629.5 1289.5,629.5C 1259.5,629.5 1229.5,629.5 1199.5,629.5C 1189.5,629.5 1179.5,629.5 1169.5,629.5C 1139.5,629.5 1109.5,629.5 1079.5,629.5C 1069.5,629.5 1059.5,629.5 1049.5,629.5C 1049.5,619.5 1049.5,609.5 1049.5,599.5C 1039.5,599.5 1029.5,599.5 1019.5,599.5C 1019.5,619.5 1019.5,639.5 1019.5,659.5C 1019.5,669.5 1019.5,679.5 1019.5,689.5C 1009.5,689.5 999.5,689.5 989.5,689.5C 989.5,639.5 989.5,589.5 989.5,539.5 Z"/></g>
<g><path style="opacity:1" fill="#e85d5c" d="M 1019.5,539.5 C 1039.5,539.5 1059.5,539.5 1079.5,539.5C 1079.5,549.5 1079.5,559.5 1079.5,569.5C 1059.5,569.5 1039.5,569.5 1019.5,569.5C 1019.5,559.5 1019.5,549.5 1019.5,539.5 Z"/></g>
<g><path style="opacity:1" fill="#e85d5c" d="M 1349.5,539.5 C 1349.5,549.5 1349.5,559.5 1349.5,569.5C 1329.5,569.5 1309.5,569.5 1289.5,569.5C 1289.5,559.5 1289.5,549.5 1289.5,539.5C 1309.5,539.5 1329.5,539.5 1349.5,539.5 Z"/></g>
<g><path style="opacity:1" fill="#e85d5c" d="M 1079.5,569.5 C 1149.5,569.5 1219.5,569.5 1289.5,569.5C 1289.5,579.5 1289.5,589.5 1289.5,599.5C 1219.5,599.5 1149.5,599.5 1079.5,599.5C 1079.5,589.5 1079.5,579.5 1079.5,569.5 Z"/></g>
<g><path style="opacity:1" fill="#fefffe" d="M 1049.5,629.5 C 1049.5,639.5 1049.5,649.5 1049.5,659.5C 1039.5,659.5 1029.5,659.5 1019.5,659.5C 1019.5,639.5 1019.5,619.5 1019.5,599.5C 1029.5,599.5 1039.5,599.5 1049.5,599.5C 1049.5,609.5 1049.5,619.5 1049.5,629.5 Z"/></g>
<g><path style="opacity:1" fill="#fefffe" d="M 1349.5,659.5 C 1339.5,659.5 1329.5,659.5 1319.5,659.5C 1319.5,649.5 1319.5,639.5 1319.5,629.5C 1319.5,619.5 1319.5,609.5 1319.5,599.5C 1329.5,599.5 1339.5,599.5 1349.5,599.5C 1349.5,619.5 1349.5,639.5 1349.5,659.5 Z"/></g>
<g><path style="opacity:1" fill="#e85d5c" d="M 1049.5,629.5 C 1059.5,629.5 1069.5,629.5 1079.5,629.5C 1079.5,639.5 1079.5,649.5 1079.5,659.5C 1089.5,659.5 1099.5,659.5 1109.5,659.5C 1109.5,669.5 1109.5,679.5 1109.5,689.5C 1119.5,689.5 1129.5,689.5 1139.5,689.5C 1139.5,679.5 1139.5,669.5 1139.5,659.5C 1149.5,659.5 1159.5,659.5 1169.5,659.5C 1169.5,649.5 1169.5,639.5 1169.5,629.5C 1179.5,629.5 1189.5,629.5 1199.5,629.5C 1199.5,639.5 1199.5,649.5 1199.5,659.5C 1209.5,659.5 1219.5,659.5 1229.5,659.5C 1229.5,669.5 1229.5,679.5 1229.5,689.5C 1239.5,689.5 1249.5,689.5 1259.5,689.5C 1259.5,679.5 1259.5,669.5 1259.5,659.5C 1269.5,659.5 1279.5,659.5 1289.5,659.5C 1289.5,649.5 1289.5,639.5 1289.5,629.5C 1299.5,629.5 1309.5,629.5 1319.5,629.5C 1319.5,639.5 1319.5,649.5 1319.5,659.5C 1329.5,659.5 1339.5,659.5 1349.5,659.5C 1349.5,669.5 1349.5,679.5 1349.5,689.5C 1329.5,689.5 1309.5,689.5 1289.5,689.5C 1289.5,699.5 1289.5,709.5 1289.5,719.5C 1219.5,719.5 1149.5,719.5 1079.5,719.5C 1079.5,709.5 1079.5,699.5 1079.5,689.5C 1059.5,689.5 1039.5,689.5 1019.5,689.5C 1019.5,679.5 1019.5,669.5 1019.5,659.5C 1029.5,659.5 1039.5,659.5 1049.5,659.5C 1049.5,649.5 1049.5,639.5 1049.5,629.5 Z"/></g>
<g><path style="opacity:1" fill="#fefffe" d="M 1079.5,629.5 C 1109.5,629.5 1139.5,629.5 1169.5,629.5C 1169.5,639.5 1169.5,649.5 1169.5,659.5C 1159.5,659.5 1149.5,659.5 1139.5,659.5C 1139.5,669.5 1139.5,679.5 1139.5,689.5C 1129.5,689.5 1119.5,689.5 1109.5,689.5C 1109.5,679.5 1109.5,669.5 1109.5,659.5C 1099.5,659.5 1089.5,659.5 1079.5,659.5C 1079.5,649.5 1079.5,639.5 1079.5,629.5 Z"/></g>
<g><path style="opacity:1" fill="#fefffe" d="M 1199.5,629.5 C 1229.5,629.5 1259.5,629.5 1289.5,629.5C 1289.5,639.5 1289.5,649.5 1289.5,659.5C 1279.5,659.5 1269.5,659.5 1259.5,659.5C 1259.5,669.5 1259.5,679.5 1259.5,689.5C 1249.5,689.5 1239.5,689.5 1229.5,689.5C 1229.5,679.5 1229.5,669.5 1229.5,659.5C 1219.5,659.5 1209.5,659.5 1199.5,659.5C 1199.5,649.5 1199.5,639.5 1199.5,629.5 Z"/></g>
<g><path style="opacity:1" fill="#fadedd" d="M 1019.5,689.5 C 1039.5,689.5 1059.5,689.5 1079.5,689.5C 1079.5,699.5 1079.5,709.5 1079.5,719.5C 1069.5,719.5 1059.5,719.5 1049.5,719.5C 1039.5,719.5 1029.5,719.5 1019.5,719.5C 1019.5,709.5 1019.5,699.5 1019.5,689.5 Z"/></g>
<g><path style="opacity:1" fill="#fadedd" d="M 1349.5,689.5 C 1349.5,699.5 1349.5,709.5 1349.5,719.5C 1329.5,719.5 1309.5,719.5 1289.5,719.5C 1289.5,709.5 1289.5,699.5 1289.5,689.5C 1309.5,689.5 1329.5,689.5 1349.5,689.5 Z"/></g>
<g><path style="opacity:1" fill="#f09c2f" d="M 1019.5,719.5 C 1029.5,719.5 1039.5,719.5 1049.5,719.5C 1049.5,729.5 1049.5,739.5 1049.5,749.5C 1039.5,749.5 1029.5,749.5 1019.5,749.5C 1019.5,739.5 1019.5,729.5 1019.5,719.5 Z"/></g>
<g><path style="opacity:1" fill="#febb00" d="M 1049.5,719.5 C 1059.5,719.5 1069.5,719.5 1079.5,719.5C 1079.5,729.5 1079.5,739.5 1079.5,749.5C 1069.5,749.5 1059.5,749.5 1049.5,749.5C 1049.5,739.5 1049.5,729.5 1049.5,719.5 Z"/></g>
<g><path style="opacity:1" fill="#fadedd" d="M 1079.5,719.5 C 1149.5,719.5 1219.5,719.5 1289.5,719.5C 1289.5,729.5 1289.5,739.5 1289.5,749.5C 1259.5,749.5 1229.5,749.5 1199.5,749.5C 1189.5,749.5 1179.5,749.5 1169.5,749.5C 1139.5,749.5 1109.5,749.5 1079.5,749.5C 1079.5,739.5 1079.5,729.5 1079.5,719.5 Z"/></g>
<g><path style="opacity:1" fill="#db7524" d="M 1019.5,749.5 C 1029.5,749.5 1039.5,749.5 1049.5,749.5C 1049.5,769.5 1049.5,789.5 1049.5,809.5C 1069.5,809.5 1089.5,809.5 1109.5,809.5C 1119.5,809.5 1129.5,809.5 1139.5,809.5C 1139.5,819.5 1139.5,829.5 1139.5,839.5C 1099.5,839.5 1059.5,839.5 1019.5,839.5C 1019.5,849.5 1019.5,859.5 1019.5,869.5C 1009.5,869.5 999.5,869.5 989.5,869.5C 989.5,879.5 989.5,889.5 989.5,899.5C 979.5,899.5 969.5,899.5 959.5,899.5C 959.5,879.5 959.5,859.5 959.5,839.5C 969.5,839.5 979.5,839.5 989.5,839.5C 989.5,829.5 989.5,819.5 989.5,809.5C 999.5,809.5 1009.5,809.5 1019.5,809.5C 1019.5,789.5 1019.5,769.5 1019.5,749.5 Z"/></g>
<g><path style="opacity:1" fill="#f09c2f" d="M 1049.5,749.5 C 1059.5,749.5 1069.5,749.5 1079.5,749.5C 1079.5,759.5 1079.5,769.5 1079.5,779.5C 1089.5,779.5 1099.5,779.5 1109.5,779.5C 1109.5,789.5 1109.5,799.5 1109.5,809.5C 1089.5,809.5 1069.5,809.5 1049.5,809.5C 1049.5,789.5 1049.5,769.5 1049.5,749.5 Z"/></g>
<g><path style="opacity:1" fill="#febb00" d="M 1079.5,749.5 C 1109.5,749.5 1139.5,749.5 1169.5,749.5C 1169.5,759.5 1169.5,769.5 1169.5,779.5C 1159.5,779.5 1149.5,779.5 1139.5,779.5C 1139.5,789.5 1139.5,799.5 1139.5,809.5C 1129.5,809.5 1119.5,809.5 1109.5,809.5C 1109.5,799.5 1109.5,789.5 1109.5,779.5C 1099.5,779.5 1089.5,779.5 1079.5,779.5C 1079.5,769.5 1079.5,759.5 1079.5,749.5 Z"/></g>
<g><path style="opacity:1" fill="#db7524" d="M 1169.5,749.5 C 1179.5,749.5 1189.5,749.5 1199.5,749.5C 1199.5,769.5 1199.5,789.5 1199.5,809.5C 1179.5,809.5 1159.5,809.5 1139.5,809.5C 1139.5,799.5 1139.5,789.5 1139.5,779.5C 1149.5,779.5 1159.5,779.5 1169.5,779.5C 1169.5,769.5 1169.5,759.5 1169.5,749.5 Z"/></g>
</svg>
