<?xml version="1.0" encoding="UTF-8"?>
<!DOCTYPE svg PUBLIC "-//W3C//DTD SVG 1.1//EN" "http://www.w3.org/Graphics/SVG/1.1/DTD/svg11.dtd">
<svg xmlns="http://www.w3.org/2000/svg" version="1.1" width="1440px" height="1440px" style="shape-rendering:geometricPrecision; text-rendering:geometricPrecision; image-rendering:optimizeQuality; fill-rule:evenodd; clip-rule:evenodd" xmlns:xlink="http://www.w3.org/1999/xlink">
<g><path style="opacity:1" fill="#3a1407" d="M 1019.5,299.5 C 1019.5,309.5 1019.5,319.5 1019.5,329.5C 969.5,329.5 919.5,329.5 869.5,329.5C 759.5,329.5 649.5,329.5 539.5,329.5C 489.5,329.5 439.5,329.5 389.5,329.5C 389.5,319.5 389.5,309.5 389.5,299.5C 379.5,299.5 369.5,299.5 359.5,299.5C 359.5,269.5 359.5,239.5 359.5,209.5C 589.5,209.5 819.5,209.5 1049.5,209.5C 1049.5,239.5 1049.5,269.5 1049.5,299.5C 1039.5,299.5 1029.5,299.5 1019.5,299.5 Z"/></g>
<g><path style="opacity:1" fill="#69230d" d="M 389.5,299.5 C 389.5,279.5 389.5,259.5 389.5,239.5C 399.5,239.5 409.5,239.5 419.5,239.5C 419.5,259.5 419.5,279.5 419.5,299.5C 409.5,299.5 399.5,299.5 389.5,299.5 Z"/></g>
<g><path style="opacity:1" fill="#69230d" d="M 449.5,239.5 C 619.5,239.5 789.5,239.5 959.5,239.5C 959.5,259.5 959.5,279.5 959.5,299.5C 789.5,299.5 619.5,299.5 449.5,299.5C 449.5,279.5 449.5,259.5 449.5,239.5 Z"/></g>
<g><path style="opacity:1" fill="#69230d" d="M 1019.5,299.5 C 1009.5,299.5 999.5,299.5 989.5,299.5C 989.5,279.5 989.5,259.5 989.5,239.5C 999.5,239.5 1009.5,239.5 1019.5,239.5C 1019.5,259.5 1019.5,279.5 1019.5,299.5 Z"/></g>
<g><path style="opacity:1" fill="#96b2ed" d="M 389.5,329.5 C 389.5,379.5 389.5,429.5 389.5,479.5C 379.5,479.5 369.5,479.5 359.5,479.5C 359.5,429.5 359.5,379.5 359.5,329.5C 369.5,329.5 379.5,329.5 389.5,329.5 Z"/></g>
<g><path style="opacity:1" fill="#cfebe9" d="M 389.5,329.5 C 439.5,329.5 489.5,329.5 539.5,329.5C 539.5,339.5 539.5,349.5 539.5,359.5C 509.5,359.5 479.5,359.5 449.5,359.5C 449.5,369.5 449.5,379.5 449.5,389.5C 439.5,389.5 429.5,389.5 419.5,389.5C 419.5,419.5 419.5,449.5 419.5,479.5C 409.5,479.5 399.5,479.5 389.5,479.5C 389.5,429.5 389.5,379.5 389.5,329.5 Z"/></g>
<g><path style="opacity:1" fill="#f1fffd" d="M 539.5,329.5 C 649.5,329.5 759.5,329.5 869.5,329.5C 869.5,339.5 869.5,349.5 869.5,359.5C 899.5,359.5 929.5,359.5 959.5,359.5C 959.5,369.5 959.5,379.5 959.5,389.5C 969.5,389.5 979.5,389.5 989.5,389.5C 989.5,419.5 989.5,449.5 989.5,479.5C 979.5,479.5 969.5,479.5 959.5,479.5C 959.5,469.5 959.5,459.5 959.5,449.5C 939.5,449.5 919.5,449.5 899.5,449.5C 869.5,449.5 839.5,449.5 809.5,449.5C 809.5,459.5 809.5,469.5 809.5,479.5C 799.5,479.5 789.5,479.5 779.5,479.5C 719.5,479.5 659.5,479.5 599.5,479.5C 599.5,469.5 599.5,459.5 599.5,449.5C 559.5,449.5 519.5,449.5 479.5,449.5C 469.5,449.5 459.5,449.5 449.5,449.5C 449.5,459.5 449.5,469.5 449.5,479.5C 439.5,479.5 429.5,479.5 419.5,479.5C 419.5,449.5 419.5,419.5 419.5,389.5C 429.5,389.5 439.5,389.5 449.5,389.5C 449.5,379.5 449.5,369.5 449.5,359.5C 479.5,359.5 509.5,359.5 539.5,359.5C 539.5,349.5 539.5,339.5 539.5,329.5 Z"/></g>
<g><path style="opacity:1" fill="#cfebe9" d="M 869.5,329.5 C 919.5,329.5 969.5,329.5 1019.5,329.5C 1019.5,379.5 1019.5,429.5 1019.5,479.5C 1009.5,479.5 999.5,479.5 989.5,479.5C 989.5,449.5 989.5,419.5 989.5,389.5C 979.5,389.5 969.5,389.5 959.5,389.5C 959.5,379.5 959.5,369.5 959.5,359.5C 929.5,359.5 899.5,359.5 869.5,359.5C 869.5,349.5 869.5,339.5 869.5,329.5 Z"/></g>
<g><path style="opacity:1" fill="#96b2ed" d="M 1019.5,329.5 C 1029.5,329.5 1039.5,329.5 1049.5,329.5C 1049.5,379.5 1049.5,429.5 1049.5,479.5C 1039.5,479.5 1029.5,479.5 1019.5,479.5C 1019.5,429.5 1019.5,379.5 1019.5,329.5 Z"/></g>
<g><path style="opacity:1" fill="#febb00" d="M 479.5,449.5 C 479.5,459.5 479.5,469.5 479.5,479.5C 469.5,479.5 459.5,479.5 449.5,479.5C 449.5,469.5 449.5,459.5 449.5,449.5C 459.5,449.5 469.5,449.5 479.5,449.5 Z"/></g>
<g><path style="opacity:1" fill="#da8619" d="M 479.5,449.5 C 519.5,449.5 559.5,449.5 599.5,449.5C 599.5,459.5 599.5,469.5 599.5,479.5C 659.5,479.5 719.5,479.5 779.5,479.5C 779.5,489.5 779.5,499.5 779.5,509.5C 729.5,509.5 679.5,509.5 629.5,509.5C 629.5,519.5 629.5,529.5 629.5,539.5C 619.5,539.5 609.5,539.5 599.5,539.5C 599.5,529.5 599.5,519.5 599.5,509.5C 579.5,509.5 559.5,509.5 539.5,509.5C 539.5,499.5 539.5,489.5 539.5,479.5C 519.5,479.5 499.5,479.5 479.5,479.5C 479.5,469.5 479.5,459.5 479.5,449.5 Z"/></g>
<g><path style="opacity:1" fill="#da8619" d="M 899.5,449.5 C 899.5,459.5 899.5,469.5 899.5,479.5C 869.5,479.5 839.5,479.5 809.5,479.5C 809.5,469.5 809.5,459.5 809.5,449.5C 839.5,449.5 869.5,449.5 899.5,449.5 Z"/></g>
<g><path style="opacity:1" fill="#febb00" d="M 899.5,449.5 C 919.5,449.5 939.5,449.5 959.5,449.5C 959.5,459.5 959.5,469.5 959.5,479.5C 949.5,479.5 939.5,479.5 929.5,479.5C 919.5,479.5 909.5,479.5 899.5,479.5C 899.5,469.5 899.5,459.5 899.5,449.5 Z"/></g>
<g><path style="opacity:1" fill="#96b2ed" d="M 389.5,479.5 C 399.5,479.5 409.5,479.5 419.5,479.5C 419.5,489.5 419.5,499.5 419.5,509.5C 409.5,509.5 399.5,509.5 389.5,509.5C 389.5,499.5 389.5,489.5 389.5,479.5 Z"/></g>
<g><path style="opacity:1" fill="#cfebe9" d="M 419.5,479.5 C 429.5,479.5 439.5,479.5 449.5,479.5C 449.5,489.5 449.5,499.5 449.5,509.5C 439.5,509.5 429.5,509.5 419.5,509.5C 419.5,499.5 419.5,489.5 419.5,479.5 Z"/></g>
<g><path style="opacity:1" fill="#f1fffd" d="M 449.5,479.5 C 459.5,479.5 469.5,479.5 479.5,479.5C 479.5,489.5 479.5,499.5 479.5,509.5C 489.5,509.5 499.5,509.5 509.5,509.5C 509.5,519.5 509.5,529.5 509.5,539.5C 519.5,539.5 529.5,539.5 539.5,539.5C 539.5,549.5 539.5,559.5 539.5,569.5C 549.5,569.5 559.5,569.5 569.5,569.5C 569.5,579.5 569.5,589.5 569.5,599.5C 579.5,599.5 589.5,599.5 599.5,599.5C 599.5,609.5 599.5,619.5 599.5,629.5C 609.5,629.5 619.5,629.5 629.5,629.5C 629.5,639.5 629.5,649.5 629.5,659.5C 639.5,659.5 649.5,659.5 659.5,659.5C 659.5,699.5 659.5,739.5 659.5,779.5C 659.5,809.5 659.5,839.5 659.5,869.5C 659.5,879.5 659.5,889.5 659.5,899.5C 639.5,899.5 619.5,899.5 599.5,899.5C 599.5,909.5 599.5,919.5 599.5,929.5C 579.5,929.5 559.5,929.5 539.5,929.5C 539.5,939.5 539.5,949.5 539.5,959.5C 519.5,959.5 499.5,959.5 479.5,959.5C 479.5,969.5 479.5,979.5 479.5,989.5C 459.5,989.5 439.5,989.5 419.5,989.5C 419.5,969.5 419.5,949.5 419.5,929.5C 429.5,929.5 439.5,929.5 449.5,929.5C 449.5,919.5 449.5,909.5 449.5,899.5C 459.5,899.5 469.5,899.5 479.5,899.5C 479.5,889.5 479.5,879.5 479.5,869.5C 479.5,859.5 479.5,849.5 479.5,839.5C 489.5,839.5 499.5,839.5 509.5,839.5C 509.5,829.5 509.5,819.5 509.5,809.5C 519.5,809.5 529.5,809.5 539.5,809.5C 549.5,809.5 559.5,809.5 569.5,809.5C 569.5,799.5 569.5,789.5 569.5,779.5C 589.5,779.5 609.5,779.5 629.5,779.5C 629.5,759.5 629.5,739.5 629.5,719.5C 629.5,709.5 629.5,699.5 629.5,689.5C 619.5,689.5 609.5,689.5 599.5,689.5C 599.5,679.5 599.5,669.5 599.5,659.5C 589.5,659.5 579.5,659.5 569.5,659.5C 569.5,649.5 569.5,639.5 569.5,629.5C 559.5,629.5 549.5,629.5 539.5,629.5C 539.5,619.5 539.5,609.5 539.5,599.5C 529.5,599.5 519.5,599.5 509.5,599.5C 509.5,589.5 509.5,579.5 509.5,569.5C 499.5,569.5 489.5,569.5 479.5,569.5C 479.5,559.5 479.5,549.5 479.5,539.5C 469.5,539.5 459.5,539.5 449.5,539.5C 449.5,529.5 449.5,519.5 449.5,509.5C 449.5,499.5 449.5,489.5 449.5,479.5 Z"/></g>
<g><path style="opacity:1" fill="#febb00" d="M 479.5,479.5 C 499.5,479.5 519.5,479.5 539.5,479.5C 539.5,489.5 539.5,499.5 539.5,509.5C 529.5,509.5 519.5,509.5 509.5,509.5C 499.5,509.5 489.5,509.5 479.5,509.5C 479.5,499.5 479.5,489.5 479.5,479.5 Z"/></g>
<g><path style="opacity:1" fill="#febb00" d="M 779.5,479.5 C 789.5,479.5 799.5,479.5 809.5,479.5C 839.5,479.5 869.5,479.5 899.5,479.5C 899.5,489.5 899.5,499.5 899.5,509.5C 889.5,509.5 879.5,509.5 869.5,509.5C 869.5,519.5 869.5,529.5 869.5,539.5C 859.5,539.5 849.5,539.5 839.5,539.5C 839.5,549.5 839.5,559.5 839.5,569.5C 829.5,569.5 819.5,569.5 809.5,569.5C 809.5,579.5 809.5,589.5 809.5,599.5C 799.5,599.5 789.5,599.5 779.5,599.5C 779.5,609.5 779.5,619.5 779.5,629.5C 769.5,629.5 759.5,629.5 749.5,629.5C 749.5,639.5 749.5,649.5 749.5,659.5C 739.5,659.5 729.5,659.5 719.5,659.5C 719.5,679.5 719.5,699.5 719.5,719.5C 709.5,719.5 699.5,719.5 689.5,719.5C 689.5,699.5 689.5,679.5 689.5,659.5C 679.5,659.5 669.5,659.5 659.5,659.5C 659.5,639.5 659.5,619.5 659.5,599.5C 639.5,599.5 619.5,599.5 599.5,599.5C 599.5,579.5 599.5,559.5 599.5,539.5C 609.5,539.5 619.5,539.5 629.5,539.5C 629.5,529.5 629.5,519.5 629.5,509.5C 679.5,509.5 729.5,509.5 779.5,509.5C 779.5,499.5 779.5,489.5 779.5,479.5 Z"/></g>
<g><path style="opacity:1" fill="#da8619" d="M 899.5,479.5 C 909.5,479.5 919.5,479.5 929.5,479.5C 929.5,489.5 929.5,499.5 929.5,509.5C 919.5,509.5 909.5,509.5 899.5,509.5C 899.5,499.5 899.5,489.5 899.5,479.5 Z"/></g>
<g><path style="opacity:1" fill="#f1fffd" d="M 929.5,479.5 C 939.5,479.5 949.5,479.5 959.5,479.5C 959.5,489.5 959.5,499.5 959.5,509.5C 949.5,509.5 939.5,509.5 929.5,509.5C 929.5,499.5 929.5,489.5 929.5,479.5 Z"/></g>
<g><path style="opacity:1" fill="#cfebe9" d="M 959.5,479.5 C 969.5,479.5 979.5,479.5 989.5,479.5C 989.5,489.5 989.5,499.5 989.5,509.5C 979.5,509.5 969.5,509.5 959.5,509.5C 959.5,499.5 959.5,489.5 959.5,479.5 Z"/></g>
<g><path style="opacity:1" fill="#96b2ed" d="M 989.5,479.5 C 999.5,479.5 1009.5,479.5 1019.5,479.5C 1019.5,489.5 1019.5,499.5 1019.5,509.5C 1009.5,509.5 999.5,509.5 989.5,509.5C 989.5,499.5 989.5,489.5 989.5,479.5 Z"/></g>
<g><path style="opacity:1" fill="#96b2ed" d="M 419.5,509.5 C 429.5,509.5 439.5,509.5 449.5,509.5C 449.5,519.5 449.5,529.5 449.5,539.5C 439.5,539.5 429.5,539.5 419.5,539.5C 419.5,529.5 419.5,519.5 419.5,509.5 Z"/></g>
<g><path style="opacity:1" fill="#da8619" d="M 509.5,509.5 C 519.5,509.5 529.5,509.5 539.5,509.5C 539.5,519.5 539.5,529.5 539.5,539.5C 529.5,539.5 519.5,539.5 509.5,539.5C 509.5,529.5 509.5,519.5 509.5,509.5 Z"/></g>
<g><path style="opacity:1" fill="#febb00" d="M 539.5,509.5 C 559.5,509.5 579.5,509.5 599.5,509.5C 599.5,519.5 599.5,529.5 599.5,539.5C 579.5,539.5 559.5,539.5 539.5,539.5C 539.5,529.5 539.5,519.5 539.5,509.5 Z"/></g>
<g><path style="opacity:1" fill="#da8619" d="M 899.5,509.5 C 899.5,519.5 899.5,529.5 899.5,539.5C 889.5,539.5 879.5,539.5 869.5,539.5C 869.5,529.5 869.5,519.5 869.5,509.5C 879.5,509.5 889.5,509.5 899.5,509.5 Z"/></g>
<g><path style="opacity:1" fill="#f1fffd" d="M 899.5,509.5 C 909.5,509.5 919.5,509.5 929.5,509.5C 929.5,519.5 929.5,529.5 929.5,539.5C 929.5,549.5 929.5,559.5 929.5,569.5C 919.5,569.5 909.5,569.5 899.5,569.5C 899.5,579.5 899.5,589.5 899.5,599.5C 889.5,599.5 879.5,599.5 869.5,599.5C 869.5,609.5 869.5,619.5 869.5,629.5C 859.5,629.5 849.5,629.5 839.5,629.5C 839.5,639.5 839.5,649.5 839.5,659.5C 829.5,659.5 819.5,659.5 809.5,659.5C 809.5,669.5 809.5,679.5 809.5,689.5C 799.5,689.5 789.5,689.5 779.5,689.5C 779.5,699.5 779.5,709.5 779.5,719.5C 779.5,739.5 779.5,759.5 779.5,779.5C 799.5,779.5 819.5,779.5 839.5,779.5C 839.5,789.5 839.5,799.5 839.5,809.5C 849.5,809.5 859.5,809.5 869.5,809.5C 879.5,809.5 889.5,809.5 899.5,809.5C 899.5,819.5 899.5,829.5 899.5,839.5C 909.5,839.5 919.5,839.5 929.5,839.5C 929.5,849.5 929.5,859.5 929.5,869.5C 939.5,869.5 949.5,869.5 959.5,869.5C 959.5,879.5 959.5,889.5 959.5,899.5C 969.5,899.5 979.5,899.5 989.5,899.5C 989.5,909.5 989.5,919.5 989.5,929.5C 989.5,939.5 989.5,949.5 989.5,959.5C 969.5,959.5 949.5,959.5 929.5,959.5C 919.5,959.5 909.5,959.5 899.5,959.5C 899.5,949.5 899.5,939.5 899.5,929.5C 889.5,929.5 879.5,929.5 869.5,929.5C 869.5,919.5 869.5,909.5 869.5,899.5C 859.5,899.5 849.5,899.5 839.5,899.5C 829.5,899.5 819.5,899.5 809.5,899.5C 789.5,899.5 769.5,899.5 749.5,899.5C 749.5,819.5 749.5,739.5 749.5,659.5C 759.5,659.5 769.5,659.5 779.5,659.5C 779.5,649.5 779.5,639.5 779.5,629.5C 789.5,629.5 799.5,629.5 809.5,629.5C 809.5,619.5 809.5,609.5 809.5,599.5C 819.5,599.5 829.5,599.5 839.5,599.5C 839.5,589.5 839.5,579.5 839.5,569.5C 849.5,569.5 859.5,569.5 869.5,569.5C 869.5,559.5 869.5,549.5 869.5,539.5C 879.5,539.5 889.5,539.5 899.5,539.5C 899.5,529.5 899.5,519.5 899.5,509.5 Z"/></g>
<g><path style="opacity:1" fill="#cfebe9" d="M 929.5,509.5 C 939.5,509.5 949.5,509.5 959.5,509.5C 959.5,519.5 959.5,529.5 959.5,539.5C 949.5,539.5 939.5,539.5 929.5,539.5C 929.5,529.5 929.5,519.5 929.5,509.5 Z"/></g>
<g><path style="opacity:1" fill="#96b2ed" d="M 959.5,509.5 C 969.5,509.5 979.5,509.5 989.5,509.5C 989.5,519.5 989.5,529.5 989.5,539.5C 979.5,539.5 969.5,539.5 959.5,539.5C 959.5,529.5 959.5,519.5 959.5,509.5 Z"/></g>
<g><path style="opacity:1" fill="#96b2ed" d="M 449.5,539.5 C 459.5,539.5 469.5,539.5 479.5,539.5C 479.5,549.5 479.5,559.5 479.5,569.5C 469.5,569.5 459.5,569.5 449.5,569.5C 449.5,559.5 449.5,549.5 449.5,539.5 Z"/></g>
<g><path style="opacity:1" fill="#da8619" d="M 539.5,539.5 C 559.5,539.5 579.5,539.5 599.5,539.5C 599.5,559.5 599.5,579.5 599.5,599.5C 589.5,599.5 579.5,599.5 569.5,599.5C 569.5,589.5 569.5,579.5 569.5,569.5C 559.5,569.5 549.5,569.5 539.5,569.5C 539.5,559.5 539.5,549.5 539.5,539.5 Z"/></g>
<g><path style="opacity:1" fill="#da8619" d="M 869.5,539.5 C 869.5,549.5 869.5,559.5 869.5,569.5C 859.5,569.5 849.5,569.5 839.5,569.5C 839.5,559.5 839.5,549.5 839.5,539.5C 849.5,539.5 859.5,539.5 869.5,539.5 Z"/></g>
<g><path style="opacity:1" fill="#96b2ed" d="M 929.5,539.5 C 939.5,539.5 949.5,539.5 959.5,539.5C 959.5,549.5 959.5,559.5 959.5,569.5C 949.5,569.5 939.5,569.5 929.5,569.5C 929.5,559.5 929.5,549.5 929.5,539.5 Z"/></g>
<g><path style="opacity:1" fill="#96b2ed" d="M 479.5,569.5 C 489.5,569.5 499.5,569.5 509.5,569.5C 509.5,579.5 509.5,589.5 509.5,599.5C 499.5,599.5 489.5,599.5 479.5,599.5C 479.5,589.5 479.5,579.5 479.5,569.5 Z"/></g>
<g><path style="opacity:1" fill="#da8619" d="M 839.5,569.5 C 839.5,579.5 839.5,589.5 839.5,599.5C 829.5,599.5 819.5,599.5 809.5,599.5C 809.5,589.5 809.5,579.5 809.5,569.5C 819.5,569.5 829.5,569.5 839.5,569.5 Z"/></g>
<g><path style="opacity:1" fill="#96b2ed" d="M 929.5,569.5 C 929.5,579.5 929.5,589.5 929.5,599.5C 919.5,599.5 909.5,599.5 899.5,599.5C 899.5,589.5 899.5,579.5 899.5,569.5C 909.5,569.5 919.5,569.5 929.5,569.5 Z"/></g>
<g><path style="opacity:1" fill="#96b2ed" d="M 509.5,599.5 C 519.5,599.5 529.5,599.5 539.5,599.5C 539.5,609.5 539.5,619.5 539.5,629.5C 529.5,629.5 519.5,629.5 509.5,629.5C 509.5,619.5 509.5,609.5 509.5,599.5 Z"/></g>
<g><path style="opacity:1" fill="#da8619" d="M 599.5,599.5 C 619.5,599.5 639.5,599.5 659.5,599.5C 659.5,619.5 659.5,639.5 659.5,659.5C 649.5,659.5 639.5,659.5 629.5,659.5C 629.5,649.5 629.5,639.5 629.5,629.5C 619.5,629.5 609.5,629.5 599.5,629.5C 599.5,619.5 599.5,609.5 599.5,599.5 Z"/></g>
<g><path style="opacity:1" fill="#da8619" d="M 809.5,599.5 C 809.5,609.5 809.5,619.5 809.5,629.5C 799.5,629.5 789.5,629.5 779.5,629.5C 779.5,619.5 779.5,609.5 779.5,599.5C 789.5,599.5 799.5,599.5 809.5,599.5 Z"/></g>
<g><path style="opacity:1" fill="#96b2ed" d="M 899.5,599.5 C 899.5,609.5 899.5,619.5 899.5,629.5C 889.5,629.5 879.5,629.5 869.5,629.5C 869.5,619.5 869.5,609.5 869.5,599.5C 879.5,599.5 889.5,599.5 899.5,599.5 Z"/></g>
<g><path style="opacity:1" fill="#96b2ed" d="M 539.5,629.5 C 549.5,629.5 559.5,629.5 569.5,629.5C 569.5,639.5 569.5,649.5 569.5,659.5C 559.5,659.5 549.5,659.5 539.5,659.5C 539.5,649.5 539.5,639.5 539.5,629.5 Z"/></g>
<g><path style="opacity:1" fill="#da8619" d="M 779.5,629.5 C 779.5,639.5 779.5,649.5 779.5,659.5C 769.5,659.5 759.5,659.5 749.5,659.5C 749.5,649.5 749.5,639.5 749.5,629.5C 759.5,629.5 769.5,629.5 779.5,629.5 Z"/></g>
<g><path style="opacity:1" fill="#96b2ed" d="M 869.5,629.5 C 869.5,639.5 869.5,649.5 869.5,659.5C 859.5,659.5 849.5,659.5 839.5,659.5C 839.5,649.5 839.5,639.5 839.5,629.5C 849.5,629.5 859.5,629.5 869.5,629.5 Z"/></g>
<g><path style="opacity:1" fill="#96b2ed" d="M 569.5,659.5 C 579.5,659.5 589.5,659.5 599.5,659.5C 599.5,669.5 599.5,679.5 599.5,689.5C 589.5,689.5 579.5,689.5 569.5,689.5C 569.5,679.5 569.5,669.5 569.5,659.5 Z"/></g>
<g><path style="opacity:1" fill="#da8619" d="M 659.5,659.5 C 669.5,659.5 679.5,659.5 689.5,659.5C 689.5,679.5 689.5,699.5 689.5,719.5C 699.5,719.5 709.5,719.5 719.5,719.5C 719.5,699.5 719.5,679.5 719.5,659.5C 729.5,659.5 739.5,659.5 749.5,659.5C 749.5,739.5 749.5,819.5 749.5,899.5C 769.5,899.5 789.5,899.5 809.5,899.5C 809.5,909.5 809.5,919.5 809.5,929.5C 799.5,929.5 789.5,929.5 779.5,929.5C 779.5,939.5 779.5,949.5 779.5,959.5C 769.5,959.5 759.5,959.5 749.5,959.5C 749.5,949.5 749.5,939.5 749.5,929.5C 739.5,929.5 729.5,929.5 719.5,929.5C 719.5,919.5 719.5,909.5 719.5,899.5C 699.5,899.5 679.5,899.5 659.5,899.5C 659.5,889.5 659.5,879.5 659.5,869.5C 669.5,869.5 679.5,869.5 689.5,869.5C 689.5,859.5 689.5,849.5 689.5,839.5C 699.5,839.5 709.5,839.5 719.5,839.5C 719.5,829.5 719.5,819.5 719.5,809.5C 709.5,809.5 699.5,809.5 689.5,809.5C 689.5,799.5 689.5,789.5 689.5,779.5C 679.5,779.5 669.5,779.5 659.5,779.5C 659.5,739.5 659.5,699.5 659.5,659.5 Z"/></g>
<g><path style="opacity:1" fill="#96b2ed" d="M 839.5,659.5 C 839.5,669.5 839.5,679.5 839.5,689.5C 829.5,689.5 819.5,689.5 809.5,689.5C 809.5,679.5 809.5,669.5 809.5,659.5C 819.5,659.5 829.5,659.5 839.5,659.5 Z"/></g>
<g><path style="opacity:1" fill="#96b2ed" d="M 599.5,689.5 C 609.5,689.5 619.5,689.5 629.5,689.5C 629.5,699.5 629.5,709.5 629.5,719.5C 619.5,719.5 609.5,719.5 599.5,719.5C 599.5,709.5 599.5,699.5 599.5,689.5 Z"/></g>
<g><path style="opacity:1" fill="#96b2ed" d="M 809.5,689.5 C 809.5,699.5 809.5,709.5 809.5,719.5C 799.5,719.5 789.5,719.5 779.5,719.5C 779.5,709.5 779.5,699.5 779.5,689.5C 789.5,689.5 799.5,689.5 809.5,689.5 Z"/></g>
<g><path style="opacity:1" fill="#96b2ed" d="M 599.5,719.5 C 599.5,729.5 599.5,739.5 599.5,749.5C 589.5,749.5 579.5,749.5 569.5,749.5C 569.5,739.5 569.5,729.5 569.5,719.5C 579.5,719.5 589.5,719.5 599.5,719.5 Z"/></g>
<g><path style="opacity:1" fill="#cfebe9" d="M 599.5,719.5 C 609.5,719.5 619.5,719.5 629.5,719.5C 629.5,739.5 629.5,759.5 629.5,779.5C 609.5,779.5 589.5,779.5 569.5,779.5C 569.5,769.5 569.5,759.5 569.5,749.5C 579.5,749.5 589.5,749.5 599.5,749.5C 599.5,739.5 599.5,729.5 599.5,719.5 Z"/></g>
<g><path style="opacity:1" fill="#cfebe9" d="M 779.5,719.5 C 789.5,719.5 799.5,719.5 809.5,719.5C 809.5,729.5 809.5,739.5 809.5,749.5C 819.5,749.5 829.5,749.5 839.5,749.5C 839.5,759.5 839.5,769.5 839.5,779.5C 819.5,779.5 799.5,779.5 779.5,779.5C 779.5,759.5 779.5,739.5 779.5,719.5 Z"/></g>
<g><path style="opacity:1" fill="#96b2ed" d="M 809.5,719.5 C 819.5,719.5 829.5,719.5 839.5,719.5C 839.5,729.5 839.5,739.5 839.5,749.5C 839.5,739.5 839.5,729.5 839.5,719.5C 829.5,719.5 819.5,719.5 809.5,719.5 Z"/></g>
<g><path style="opacity:1" fill="#96b2ed" d="M 569.5,749.5 C 569.5,759.5 569.5,769.5 569.5,779.5C 559.5,779.5 549.5,779.5 539.5,779.5C 539.5,769.5 539.5,759.5 539.5,749.5C 549.5,749.5 559.5,749.5 569.5,749.5 Z"/></g>
<g><path style="opacity:1" fill="#febb00" d="M 689.5,779.5 C 689.5,769.5 689.5,759.5 689.5,749.5C 699.5,749.5 709.5,749.5 719.5,749.5C 719.5,759.5 719.5,769.5 719.5,779.5C 709.5,779.5 699.5,779.5 689.5,779.5 Z"/></g>
<g><path style="opacity:1" fill="#96b2ed" d="M 839.5,749.5 C 849.5,749.5 859.5,749.5 869.5,749.5C 869.5,759.5 869.5,769.5 869.5,779.5C 859.5,779.5 849.5,779.5 839.5,779.5C 839.5,769.5 839.5,759.5 839.5,749.5 Z"/></g>
<g><path style="opacity:1" fill="#96b2ed" d="M 539.5,779.5 C 539.5,789.5 539.5,799.5 539.5,809.5C 529.5,809.5 519.5,809.5 509.5,809.5C 509.5,799.5 509.5,789.5 509.5,779.5C 519.5,779.5 529.5,779.5 539.5,779.5 Z"/></g>
<g><path style="opacity:1" fill="#cfebe9" d="M 539.5,779.5 C 549.5,779.5 559.5,779.5 569.5,779.5C 569.5,789.5 569.5,799.5 569.5,809.5C 559.5,809.5 549.5,809.5 539.5,809.5C 539.5,799.5 539.5,789.5 539.5,779.5 Z"/></g>
<g><path style="opacity:1" fill="#febb00" d="M 659.5,779.5 C 669.5,779.5 679.5,779.5 689.5,779.5C 689.5,789.5 689.5,799.5 689.5,809.5C 699.5,809.5 709.5,809.5 719.5,809.5C 719.5,819.5 719.5,829.5 719.5,839.5C 709.5,839.5 699.5,839.5 689.5,839.5C 689.5,849.5 689.5,859.5 689.5,869.5C 679.5,869.5 669.5,869.5 659.5,869.5C 659.5,839.5 659.5,809.5 659.5,779.5 Z"/></g>
<g><path style="opacity:1" fill="#cfebe9" d="M 839.5,779.5 C 849.5,779.5 859.5,779.5 869.5,779.5C 869.5,789.5 869.5,799.5 869.5,809.5C 859.5,809.5 849.5,809.5 839.5,809.5C 839.5,799.5 839.5,789.5 839.5,779.5 Z"/></g>
<g><path style="opacity:1" fill="#96b2ed" d="M 869.5,779.5 C 879.5,779.5 889.5,779.5 899.5,779.5C 899.5,789.5 899.5,799.5 899.5,809.5C 889.5,809.5 879.5,809.5 869.5,809.5C 869.5,799.5 869.5,789.5 869.5,779.5 Z"/></g>
<g><path style="opacity:1" fill="#96b2ed" d="M 509.5,809.5 C 509.5,819.5 509.5,829.5 509.5,839.5C 499.5,839.5 489.5,839.5 479.5,839.5C 479.5,829.5 479.5,819.5 479.5,809.5C 489.5,809.5 499.5,809.5 509.5,809.5 Z"/></g>
<g><path style="opacity:1" fill="#96b2ed" d="M 899.5,809.5 C 909.5,809.5 919.5,809.5 929.5,809.5C 929.5,819.5 929.5,829.5 929.5,839.5C 929.5,829.5 929.5,819.5 929.5,809.5C 919.5,809.5 909.5,809.5 899.5,809.5 Z"/></g>
<g><path style="opacity:1" fill="#96b2ed" d="M 479.5,839.5 C 479.5,849.5 479.5,859.5 479.5,869.5C 469.5,869.5 459.5,869.5 449.5,869.5C 449.5,859.5 449.5,849.5 449.5,839.5C 459.5,839.5 469.5,839.5 479.5,839.5 Z"/></g>
<g><path style="opacity:1" fill="#96b2ed" d="M 929.5,839.5 C 939.5,839.5 949.5,839.5 959.5,839.5C 959.5,849.5 959.5,859.5 959.5,869.5C 959.5,859.5 959.5,849.5 959.5,839.5C 949.5,839.5 939.5,839.5 929.5,839.5 Z"/></g>
<g><path style="opacity:1" fill="#96b2ed" d="M 449.5,869.5 C 449.5,879.5 449.5,889.5 449.5,899.5C 439.5,899.5 429.5,899.5 419.5,899.5C 419.5,889.5 419.5,879.5 419.5,869.5C 429.5,869.5 439.5,869.5 449.5,869.5 Z"/></g>
<g><path style="opacity:1" fill="#cfebe9" d="M 449.5,869.5 C 459.5,869.5 469.5,869.5 479.5,869.5C 479.5,879.5 479.5,889.5 479.5,899.5C 469.5,899.5 459.5,899.5 449.5,899.5C 449.5,889.5 449.5,879.5 449.5,869.5 Z"/></g>
<g><path style="opacity:1" fill="#96b2ed" d="M 959.5,869.5 C 969.5,869.5 979.5,869.5 989.5,869.5C 989.5,879.5 989.5,889.5 989.5,899.5C 989.5,889.5 989.5,879.5 989.5,869.5C 979.5,869.5 969.5,869.5 959.5,869.5 Z"/></g>
<g><path style="opacity:1" fill="#96b2ed" d="M 419.5,899.5 C 419.5,909.5 419.5,919.5 419.5,929.5C 409.5,929.5 399.5,929.5 389.5,929.5C 389.5,919.5 389.5,909.5 389.5,899.5C 399.5,899.5 409.5,899.5 419.5,899.5 Z"/></g>
<g><path style="opacity:1" fill="#cfebe9" d="M 419.5,899.5 C 429.5,899.5 439.5,899.5 449.5,899.5C 449.5,909.5 449.5,919.5 449.5,929.5C 439.5,929.5 429.5,929.5 419.5,929.5C 419.5,919.5 419.5,909.5 419.5,899.5 Z"/></g>
<g><path style="opacity:1" fill="#febb00" d="M 659.5,899.5 C 679.5,899.5 699.5,899.5 719.5,899.5C 719.5,909.5 719.5,919.5 719.5,929.5C 699.5,929.5 679.5,929.5 659.5,929.5C 659.5,939.5 659.5,949.5 659.5,959.5C 669.5,959.5 679.5,959.5 689.5,959.5C 689.5,969.5 689.5,979.5 689.5,989.5C 709.5,989.5 729.5,989.5 749.5,989.5C 749.5,979.5 749.5,969.5 749.5,959.5C 759.5,959.5 769.5,959.5 779.5,959.5C 779.5,969.5 779.5,979.5 779.5,989.5C 789.5,989.5 799.5,989.5 809.5,989.5C 809.5,979.5 809.5,969.5 809.5,959.5C 819.5,959.5 829.5,959.5 839.5,959.5C 839.5,979.5 839.5,999.5 839.5,1019.5C 849.5,1019.5 859.5,1019.5 869.5,1019.5C 869.5,1009.5 869.5,999.5 869.5,989.5C 879.5,989.5 889.5,989.5 899.5,989.5C 899.5,999.5 899.5,1009.5 899.5,1019.5C 909.5,1019.5 919.5,1019.5 929.5,1019.5C 929.5,1009.5 929.5,999.5 929.5,989.5C 939.5,989.5 949.5,989.5 959.5,989.5C 959.5,999.5 959.5,1009.5 959.5,1019.5C 969.5,1019.5 979.5,1019.5 989.5,1019.5C 989.5,1029.5 989.5,1039.5 989.5,1049.5C 969.5,1049.5 949.5,1049.5 929.5,1049.5C 789.5,1049.5 649.5,1049.5 509.5,1049.5C 479.5,1049.5 449.5,1049.5 419.5,1049.5C 419.5,1029.5 419.5,1009.5 419.5,989.5C 439.5,989.5 459.5,989.5 479.5,989.5C 479.5,979.5 479.5,969.5 479.5,959.5C 499.5,959.5 519.5,959.5 539.5,959.5C 539.5,949.5 539.5,939.5 539.5,929.5C 559.5,929.5 579.5,929.5 599.5,929.5C 599.5,919.5 599.5,909.5 599.5,899.5C 619.5,899.5 639.5,899.5 659.5,899.5 Z"/></g>
<g><path style="opacity:1" fill="#febb00" d="M 809.5,899.5 C 819.5,899.5 829.5,899.5 839.5,899.5C 839.5,909.5 839.5,919.5 839.5,929.5C 829.5,929.5 819.5,929.5 809.5,929.5C 809.5,919.5 809.5,909.5 809.5,899.5 Z"/></g>
<g><path style="opacity:1" fill="#da8619" d="M 839.5,899.5 C 849.5,899.5 859.5,899.5 869.5,899.5C 869.5,909.5 869.5,919.5 869.5,929.5C 859.5,929.5 849.5,929.5 839.5,929.5C 839.5,919.5 839.5,909.5 839.5,899.5 Z"/></g>
<g><path style="opacity:1" fill="#96b2ed" d="M 989.5,899.5 C 999.5,899.5 1009.5,899.5 1019.5,899.5C 1019.5,909.5 1019.5,919.5 1019.5,929.5C 1009.5,929.5 999.5,929.5 989.5,929.5C 989.5,919.5 989.5,909.5 989.5,899.5 Z"/></g>
<g><path style="opacity:1" fill="#96b2ed" d="M 389.5,929.5 C 389.5,979.5 389.5,1029.5 389.5,1079.5C 379.5,1079.5 369.5,1079.5 359.5,1079.5C 359.5,1029.5 359.5,979.5 359.5,929.5C 369.5,929.5 379.5,929.5 389.5,929.5 Z"/></g>
<g><path style="opacity:1" fill="#cfebe9" d="M 389.5,929.5 C 399.5,929.5 409.5,929.5 419.5,929.5C 419.5,949.5 419.5,969.5 419.5,989.5C 419.5,1009.5 419.5,1029.5 419.5,1049.5C 449.5,1049.5 479.5,1049.5 509.5,1049.5C 509.5,1059.5 509.5,1069.5 509.5,1079.5C 469.5,1079.5 429.5,1079.5 389.5,1079.5C 389.5,1029.5 389.5,979.5 389.5,929.5 Z"/></g>
<g><path style="opacity:1" fill="#da8619" d="M 719.5,929.5 C 729.5,929.5 739.5,929.5 749.5,929.5C 749.5,939.5 749.5,949.5 749.5,959.5C 749.5,969.5 749.5,979.5 749.5,989.5C 729.5,989.5 709.5,989.5 689.5,989.5C 689.5,979.5 689.5,969.5 689.5,959.5C 679.5,959.5 669.5,959.5 659.5,959.5C 659.5,949.5 659.5,939.5 659.5,929.5C 679.5,929.5 699.5,929.5 719.5,929.5 Z"/></g>
<g><path style="opacity:1" fill="#febb00" d="M 719.5,929.5 C 729.5,929.5 739.5,929.5 749.5,929.5C 749.5,939.5 749.5,949.5 749.5,959.5C 739.5,959.5 729.5,959.5 719.5,959.5C 719.5,949.5 719.5,939.5 719.5,929.5 Z"/></g>
<g><path style="opacity:1" fill="#febb00" d="M 809.5,929.5 C 809.5,939.5 809.5,949.5 809.5,959.5C 799.5,959.5 789.5,959.5 779.5,959.5C 779.5,949.5 779.5,939.5 779.5,929.5C 789.5,929.5 799.5,929.5 809.5,929.5 Z"/></g>
<g><path style="opacity:1" fill="#da8619" d="M 809.5,929.5 C 819.5,929.5 829.5,929.5 839.5,929.5C 839.5,939.5 839.5,949.5 839.5,959.5C 829.5,959.5 819.5,959.5 809.5,959.5C 809.5,949.5 809.5,939.5 809.5,929.5 Z"/></g>
<g><path style="opacity:1" fill="#febb00" d="M 839.5,929.5 C 849.5,929.5 859.5,929.5 869.5,929.5C 869.5,939.5 869.5,949.5 869.5,959.5C 859.5,959.5 849.5,959.5 839.5,959.5C 839.5,949.5 839.5,939.5 839.5,929.5 Z"/></g>
<g><path style="opacity:1" fill="#da8619" d="M 869.5,929.5 C 879.5,929.5 889.5,929.5 899.5,929.5C 899.5,939.5 899.5,949.5 899.5,959.5C 899.5,969.5 899.5,979.5 899.5,989.5C 889.5,989.5 879.5,989.5 869.5,989.5C 869.5,999.5 869.5,1009.5 869.5,1019.5C 859.5,1019.5 849.5,1019.5 839.5,1019.5C 839.5,999.5 839.5,979.5 839.5,959.5C 849.5,959.5 859.5,959.5 869.5,959.5C 869.5,949.5 869.5,939.5 869.5,929.5 Z"/></g>
<g><path style="opacity:1" fill="#cfebe9" d="M 989.5,929.5 C 999.5,929.5 1009.5,929.5 1019.5,929.5C 1019.5,979.5 1019.5,1029.5 1019.5,1079.5C 989.5,1079.5 959.5,1079.5 929.5,1079.5C 929.5,1069.5 929.5,1059.5 929.5,1049.5C 949.5,1049.5 969.5,1049.5 989.5,1049.5C 989.5,1039.5 989.5,1029.5 989.5,1019.5C 989.5,999.5 989.5,979.5 989.5,959.5C 989.5,949.5 989.5,939.5 989.5,929.5 Z"/></g>
<g><path style="opacity:1" fill="#96b2ed" d="M 1019.5,929.5 C 1029.5,929.5 1039.5,929.5 1049.5,929.5C 1049.5,979.5 1049.5,1029.5 1049.5,1079.5C 1039.5,1079.5 1029.5,1079.5 1019.5,1079.5C 1019.5,1029.5 1019.5,979.5 1019.5,929.5 Z"/></g>
<g><path style="opacity:1" fill="#da8619" d="M 779.5,959.5 C 789.5,959.5 799.5,959.5 809.5,959.5C 809.5,969.5 809.5,979.5 809.5,989.5C 799.5,989.5 789.5,989.5 779.5,989.5C 779.5,979.5 779.5,969.5 779.5,959.5 Z"/></g>
<g><path style="opacity:1" fill="#febb00" d="M 899.5,959.5 C 909.5,959.5 919.5,959.5 929.5,959.5C 929.5,969.5 929.5,979.5 929.5,989.5C 919.5,989.5 909.5,989.5 899.5,989.5C 899.5,979.5 899.5,969.5 899.5,959.5 Z"/></g>
<g><path style="opacity:1" fill="#da8619" d="M 929.5,959.5 C 949.5,959.5 969.5,959.5 989.5,959.5C 989.5,979.5 989.5,999.5 989.5,1019.5C 979.5,1019.5 969.5,1019.5 959.5,1019.5C 959.5,1009.5 959.5,999.5 959.5,989.5C 949.5,989.5 939.5,989.5 929.5,989.5C 929.5,979.5 929.5,969.5 929.5,959.5 Z"/></g>
<g><path style="opacity:1" fill="#da8619" d="M 899.5,989.5 C 909.5,989.5 919.5,989.5 929.5,989.5C 929.5,999.5 929.5,1009.5 929.5,1019.5C 919.5,1019.5 909.5,1019.5 899.5,1019.5C 899.5,1009.5 899.5,999.5 899.5,989.5 Z"/></g>
<g><path style="opacity:1" fill="#f1fffd" d="M 509.5,1049.5 C 649.5,1049.5 789.5,1049.5 929.5,1049.5C 929.5,1059.5 929.5,1069.5 929.5,1079.5C 789.5,1079.5 649.5,1079.5 509.5,1079.5C 509.5,1069.5 509.5,1059.5 509.5,1049.5 Z"/></g>
<g><path style="opacity:1" fill="#3a1407" d="M 389.5,1079.5 C 429.5,1079.5 469.5,1079.5 509.5,1079.5C 649.5,1079.5 789.5,1079.5 929.5,1079.5C 959.5,1079.5 989.5,1079.5 1019.5,1079.5C 1019.5,1089.5 1019.5,1099.5 1019.5,1109.5C 1029.5,1109.5 1039.5,1109.5 1049.5,1109.5C 1049.5,1139.5 1049.5,1169.5 1049.5,1199.5C 819.5,1199.5 589.5,1199.5 359.5,1199.5C 359.5,1169.5 359.5,1139.5 359.5,1109.5C 369.5,1109.5 379.5,1109.5 389.5,1109.5C 389.5,1099.5 389.5,1089.5 389.5,1079.5 Z"/></g>
<g><path style="opacity:1" fill="#69230d" d="M 389.5,1109.5 C 399.5,1109.5 409.5,1109.5 419.5,1109.5C 419.5,1129.5 419.5,1149.5 419.5,1169.5C 409.5,1169.5 399.5,1169.5 389.5,1169.5C 389.5,1149.5 389.5,1129.5 389.5,1109.5 Z"/></g>
<g><path style="opacity:1" fill="#69230d" d="M 449.5,1109.5 C 619.5,1109.5 789.5,1109.5 959.5,1109.5C 959.5,1129.5 959.5,1149.5 959.5,1169.5C 789.5,1169.5 619.5,1169.5 449.5,1169.5C 449.5,1149.5 449.5,1129.5 449.5,1109.5 Z"/></g>
<g><path style="opacity:1" fill="#69230d" d="M 1019.5,1109.5 C 1019.5,1129.5 1019.5,1149.5 1019.5,1169.5C 1009.5,1169.5 999.5,1169.5 989.5,1169.5C 989.5,1149.5 989.5,1129.5 989.5,1109.5C 999.5,1109.5 1009.5,1109.5 1019.5,1109.5 Z"/></g>
</svg>
