<?xml version="1.0" encoding="UTF-8"?>
<!DOCTYPE svg PUBLIC "-//W3C//DTD SVG 1.1//EN" "http://www.w3.org/Graphics/SVG/1.1/DTD/svg11.dtd">
<svg xmlns="http://www.w3.org/2000/svg" version="1.1" width="1440px" height="1440px" style="shape-rendering:geometricPrecision; text-rendering:geometricPrecision; image-rendering:optimizeQuality; fill-rule:evenodd; clip-rule:evenodd" xmlns:xlink="http://www.w3.org/1999/xlink">
<g><path style="opacity:1" fill="#2c8e09" d="M 659.5,299.5 C 659.5,309.5 659.5,319.5 659.5,329.5C 629.5,329.5 599.5,329.5 569.5,329.5C 569.5,319.5 569.5,309.5 569.5,299.5C 599.5,299.5 629.5,299.5 659.5,299.5 Z"/></g>
<g><path style="opacity:1" fill="#ee692e" d="M 659.5,299.5 C 719.5,299.5 779.5,299.5 839.5,299.5C 839.5,309.5 839.5,319.5 839.5,329.5C 789.5,329.5 739.5,329.5 689.5,329.5C 689.5,339.5 689.5,349.5 689.5,359.5C 649.5,359.5 609.5,359.5 569.5,359.5C 569.5,349.5 569.5,339.5 569.5,329.5C 599.5,329.5 629.5,329.5 659.5,329.5C 659.5,319.5 659.5,309.5 659.5,299.5 Z"/></g>
<g><path style="opacity:1" fill="#2c8e09" d="M 839.5,299.5 C 849.5,299.5 859.5,299.5 869.5,299.5C 869.5,309.5 869.5,319.5 869.5,329.5C 859.5,329.5 849.5,329.5 839.5,329.5C 839.5,319.5 839.5,309.5 839.5,299.5 Z"/></g>
<g><path style="opacity:1" fill="#2c8e09" d="M 569.5,329.5 C 569.5,339.5 569.5,349.5 569.5,359.5C 559.5,359.5 549.5,359.5 539.5,359.5C 539.5,369.5 539.5,379.5 539.5,389.5C 529.5,389.5 519.5,389.5 509.5,389.5C 509.5,399.5 509.5,409.5 509.5,419.5C 499.5,419.5 489.5,419.5 479.5,419.5C 479.5,439.5 479.5,459.5 479.5,479.5C 469.5,479.5 459.5,479.5 449.5,479.5C 449.5,449.5 449.5,419.5 449.5,389.5C 459.5,389.5 469.5,389.5 479.5,389.5C 479.5,379.5 479.5,369.5 479.5,359.5C 489.5,359.5 499.5,359.5 509.5,359.5C 509.5,349.5 509.5,339.5 509.5,329.5C 529.5,329.5 549.5,329.5 569.5,329.5 Z"/></g>
<g><path style="opacity:1" fill="#f02221" d="M 839.5,329.5 C 839.5,339.5 839.5,349.5 839.5,359.5C 859.5,359.5 879.5,359.5 899.5,359.5C 899.5,369.5 899.5,379.5 899.5,389.5C 869.5,389.5 839.5,389.5 809.5,389.5C 809.5,379.5 809.5,369.5 809.5,359.5C 779.5,359.5 749.5,359.5 719.5,359.5C 719.5,369.5 719.5,379.5 719.5,389.5C 679.5,389.5 639.5,389.5 599.5,389.5C 599.5,399.5 599.5,409.5 599.5,419.5C 589.5,419.5 579.5,419.5 569.5,419.5C 569.5,429.5 569.5,439.5 569.5,449.5C 559.5,449.5 549.5,449.5 539.5,449.5C 539.5,429.5 539.5,409.5 539.5,389.5C 549.5,389.5 559.5,389.5 569.5,389.5C 569.5,379.5 569.5,369.5 569.5,359.5C 609.5,359.5 649.5,359.5 689.5,359.5C 689.5,349.5 689.5,339.5 689.5,329.5C 739.5,329.5 789.5,329.5 839.5,329.5 Z"/></g>
<g><path style="opacity:1" fill="#ee692e" d="M 839.5,329.5 C 849.5,329.5 859.5,329.5 869.5,329.5C 879.5,329.5 889.5,329.5 899.5,329.5C 899.5,339.5 899.5,349.5 899.5,359.5C 879.5,359.5 859.5,359.5 839.5,359.5C 839.5,349.5 839.5,339.5 839.5,329.5 Z"/></g>
<g><path style="opacity:1" fill="#2c8e09" d="M 899.5,329.5 C 909.5,329.5 919.5,329.5 929.5,329.5C 929.5,339.5 929.5,349.5 929.5,359.5C 919.5,359.5 909.5,359.5 899.5,359.5C 899.5,349.5 899.5,339.5 899.5,329.5 Z"/></g>
<g><path style="opacity:1" fill="#387fa2" d="M 479.5,359.5 C 479.5,369.5 479.5,379.5 479.5,389.5C 469.5,389.5 459.5,389.5 449.5,389.5C 449.5,379.5 449.5,369.5 449.5,359.5C 459.5,359.5 469.5,359.5 479.5,359.5 Z"/></g>
<g><path style="opacity:1" fill="#ee692e" d="M 569.5,359.5 C 569.5,369.5 569.5,379.5 569.5,389.5C 559.5,389.5 549.5,389.5 539.5,389.5C 539.5,379.5 539.5,369.5 539.5,359.5C 549.5,359.5 559.5,359.5 569.5,359.5 Z"/></g>
<g><path style="opacity:1" fill="#ee692e" d="M 899.5,359.5 C 909.5,359.5 919.5,359.5 929.5,359.5C 929.5,369.5 929.5,379.5 929.5,389.5C 919.5,389.5 909.5,389.5 899.5,389.5C 899.5,379.5 899.5,369.5 899.5,359.5 Z"/></g>
<g><path style="opacity:1" fill="#2c8e09" d="M 929.5,359.5 C 939.5,359.5 949.5,359.5 959.5,359.5C 959.5,369.5 959.5,379.5 959.5,389.5C 949.5,389.5 939.5,389.5 929.5,389.5C 929.5,379.5 929.5,369.5 929.5,359.5 Z"/></g>
<g><path style="opacity:1" fill="#1b79a8" d="M 449.5,389.5 C 449.5,419.5 449.5,449.5 449.5,479.5C 439.5,479.5 429.5,479.5 419.5,479.5C 419.5,459.5 419.5,439.5 419.5,419.5C 419.5,409.5 419.5,399.5 419.5,389.5C 429.5,389.5 439.5,389.5 449.5,389.5 Z"/></g>
<g><path style="opacity:1" fill="#ee692e" d="M 539.5,389.5 C 539.5,409.5 539.5,429.5 539.5,449.5C 529.5,449.5 519.5,449.5 509.5,449.5C 509.5,459.5 509.5,469.5 509.5,479.5C 499.5,479.5 489.5,479.5 479.5,479.5C 479.5,459.5 479.5,439.5 479.5,419.5C 489.5,419.5 499.5,419.5 509.5,419.5C 509.5,409.5 509.5,399.5 509.5,389.5C 519.5,389.5 529.5,389.5 539.5,389.5 Z"/></g>
<g><path style="opacity:1" fill="#f02221" d="M 899.5,389.5 C 909.5,389.5 919.5,389.5 929.5,389.5C 929.5,399.5 929.5,409.5 929.5,419.5C 919.5,419.5 909.5,419.5 899.5,419.5C 899.5,409.5 899.5,399.5 899.5,389.5 Z"/></g>
<g><path style="opacity:1" fill="#ee692e" d="M 929.5,389.5 C 939.5,389.5 949.5,389.5 959.5,389.5C 959.5,399.5 959.5,409.5 959.5,419.5C 949.5,419.5 939.5,419.5 929.5,419.5C 929.5,409.5 929.5,399.5 929.5,389.5 Z"/></g>
<g><path style="opacity:1" fill="#2c8e09" d="M 959.5,389.5 C 969.5,389.5 979.5,389.5 989.5,389.5C 989.5,399.5 989.5,409.5 989.5,419.5C 979.5,419.5 969.5,419.5 959.5,419.5C 959.5,409.5 959.5,399.5 959.5,389.5 Z"/></g>
<g><path style="opacity:1" fill="#852667" d="M 419.5,419.5 C 419.5,439.5 419.5,459.5 419.5,479.5C 409.5,479.5 399.5,479.5 389.5,479.5C 389.5,489.5 389.5,499.5 389.5,509.5C 379.5,509.5 369.5,509.5 359.5,509.5C 359.5,489.5 359.5,469.5 359.5,449.5C 369.5,449.5 379.5,449.5 389.5,449.5C 389.5,439.5 389.5,429.5 389.5,419.5C 399.5,419.5 409.5,419.5 419.5,419.5 Z"/></g>
<g><path style="opacity:1" fill="#f02221" d="M 929.5,419.5 C 939.5,419.5 949.5,419.5 959.5,419.5C 959.5,429.5 959.5,439.5 959.5,449.5C 949.5,449.5 939.5,449.5 929.5,449.5C 929.5,439.5 929.5,429.5 929.5,419.5 Z"/></g>
<g><path style="opacity:1" fill="#ee692e" d="M 959.5,419.5 C 969.5,419.5 979.5,419.5 989.5,419.5C 989.5,429.5 989.5,439.5 989.5,449.5C 979.5,449.5 969.5,449.5 959.5,449.5C 959.5,439.5 959.5,429.5 959.5,419.5 Z"/></g>
<g><path style="opacity:1" fill="#2c8e09" d="M 989.5,419.5 C 999.5,419.5 1009.5,419.5 1019.5,419.5C 1019.5,429.5 1019.5,439.5 1019.5,449.5C 1009.5,449.5 999.5,449.5 989.5,449.5C 989.5,439.5 989.5,429.5 989.5,419.5 Z"/></g>
<g><path style="opacity:1" fill="#f02221" d="M 539.5,449.5 C 539.5,469.5 539.5,489.5 539.5,509.5C 529.5,509.5 519.5,509.5 509.5,509.5C 509.5,499.5 509.5,489.5 509.5,479.5C 509.5,469.5 509.5,459.5 509.5,449.5C 519.5,449.5 529.5,449.5 539.5,449.5 Z"/></g>
<g><path style="opacity:1" fill="#f02221" d="M 959.5,449.5 C 969.5,449.5 979.5,449.5 989.5,449.5C 989.5,459.5 989.5,469.5 989.5,479.5C 979.5,479.5 969.5,479.5 959.5,479.5C 959.5,469.5 959.5,459.5 959.5,449.5 Z"/></g>
<g><path style="opacity:1" fill="#ee692e" d="M 989.5,449.5 C 999.5,449.5 1009.5,449.5 1019.5,449.5C 1019.5,459.5 1019.5,469.5 1019.5,479.5C 1009.5,479.5 999.5,479.5 989.5,479.5C 989.5,469.5 989.5,459.5 989.5,449.5 Z"/></g>
<g><path style="opacity:1" fill="#e2e3f0" d="M 419.5,479.5 C 429.5,479.5 439.5,479.5 449.5,479.5C 459.5,479.5 469.5,479.5 479.5,479.5C 489.5,479.5 499.5,479.5 509.5,479.5C 509.5,489.5 509.5,499.5 509.5,509.5C 519.5,509.5 529.5,509.5 539.5,509.5C 539.5,559.5 539.5,609.5 539.5,659.5C 519.5,659.5 499.5,659.5 479.5,659.5C 479.5,649.5 479.5,639.5 479.5,629.5C 489.5,629.5 499.5,629.5 509.5,629.5C 509.5,599.5 509.5,569.5 509.5,539.5C 499.5,539.5 489.5,539.5 479.5,539.5C 479.5,529.5 479.5,519.5 479.5,509.5C 449.5,509.5 419.5,509.5 389.5,509.5C 389.5,499.5 389.5,489.5 389.5,479.5C 399.5,479.5 409.5,479.5 419.5,479.5 Z"/></g>
<g><path style="opacity:1" fill="#f02221" d="M 989.5,479.5 C 999.5,479.5 1009.5,479.5 1019.5,479.5C 1019.5,489.5 1019.5,499.5 1019.5,509.5C 1009.5,509.5 999.5,509.5 989.5,509.5C 989.5,499.5 989.5,489.5 989.5,479.5 Z"/></g>
<g><path style="opacity:1" fill="#ee692e" d="M 1019.5,479.5 C 1029.5,479.5 1039.5,479.5 1049.5,479.5C 1049.5,489.5 1049.5,499.5 1049.5,509.5C 1039.5,509.5 1029.5,509.5 1019.5,509.5C 1019.5,499.5 1019.5,489.5 1019.5,479.5 Z"/></g>
<g><path style="opacity:1" fill="#e2e3f0" d="M 1049.5,479.5 C 1059.5,479.5 1069.5,479.5 1079.5,479.5C 1079.5,489.5 1079.5,499.5 1079.5,509.5C 1069.5,509.5 1059.5,509.5 1049.5,509.5C 1049.5,499.5 1049.5,489.5 1049.5,479.5 Z"/></g>
<g><path style="opacity:1" fill="#e2e3f0" d="M 359.5,509.5 C 369.5,509.5 379.5,509.5 389.5,509.5C 389.5,519.5 389.5,529.5 389.5,539.5C 379.5,539.5 369.5,539.5 359.5,539.5C 359.5,569.5 359.5,599.5 359.5,629.5C 369.5,629.5 379.5,629.5 389.5,629.5C 389.5,639.5 389.5,649.5 389.5,659.5C 369.5,659.5 349.5,659.5 329.5,659.5C 329.5,609.5 329.5,559.5 329.5,509.5C 339.5,509.5 349.5,509.5 359.5,509.5 Z"/></g>
<g><path style="opacity:1" fill="#aca6a0" d="M 389.5,509.5 C 419.5,509.5 449.5,509.5 479.5,509.5C 479.5,519.5 479.5,529.5 479.5,539.5C 489.5,539.5 499.5,539.5 509.5,539.5C 509.5,569.5 509.5,599.5 509.5,629.5C 499.5,629.5 489.5,629.5 479.5,629.5C 479.5,639.5 479.5,649.5 479.5,659.5C 449.5,659.5 419.5,659.5 389.5,659.5C 389.5,649.5 389.5,639.5 389.5,629.5C 379.5,629.5 369.5,629.5 359.5,629.5C 359.5,599.5 359.5,569.5 359.5,539.5C 369.5,539.5 379.5,539.5 389.5,539.5C 389.5,529.5 389.5,519.5 389.5,509.5 Z"/></g>
<g><path style="opacity:1" fill="#f02221" d="M 1019.5,509.5 C 1029.5,509.5 1039.5,509.5 1049.5,509.5C 1049.5,529.5 1049.5,549.5 1049.5,569.5C 1039.5,569.5 1029.5,569.5 1019.5,569.5C 1019.5,549.5 1019.5,529.5 1019.5,509.5 Z"/></g>
<g><path style="opacity:1" fill="#aca6a0" d="M 1049.5,509.5 C 1059.5,509.5 1069.5,509.5 1079.5,509.5C 1079.5,539.5 1079.5,569.5 1079.5,599.5C 1069.5,599.5 1059.5,599.5 1049.5,599.5C 1049.5,589.5 1049.5,579.5 1049.5,569.5C 1049.5,549.5 1049.5,529.5 1049.5,509.5 Z"/></g>
<g><path style="opacity:1" fill="#e2e3f0" d="M 1049.5,599.5 C 1059.5,599.5 1069.5,599.5 1079.5,599.5C 1079.5,609.5 1079.5,619.5 1079.5,629.5C 1069.5,629.5 1059.5,629.5 1049.5,629.5C 1049.5,619.5 1049.5,609.5 1049.5,599.5 Z"/></g>
<g><path style="opacity:1" fill="#0d0d21" d="M 1139.5,599.5 C 1169.5,599.5 1199.5,599.5 1229.5,599.5C 1229.5,629.5 1229.5,659.5 1229.5,689.5C 1219.5,689.5 1209.5,689.5 1199.5,689.5C 1199.5,669.5 1199.5,649.5 1199.5,629.5C 1189.5,629.5 1179.5,629.5 1169.5,629.5C 1169.5,659.5 1169.5,689.5 1169.5,719.5C 1149.5,719.5 1129.5,719.5 1109.5,719.5C 1109.5,699.5 1109.5,679.5 1109.5,659.5C 1119.5,659.5 1129.5,659.5 1139.5,659.5C 1139.5,639.5 1139.5,619.5 1139.5,599.5 Z"/></g>
<g><path style="opacity:1" fill="#e2e3f0" d="M 389.5,659.5 C 419.5,659.5 449.5,659.5 479.5,659.5C 479.5,669.5 479.5,679.5 479.5,689.5C 449.5,689.5 419.5,689.5 389.5,689.5C 389.5,679.5 389.5,669.5 389.5,659.5 Z"/></g>
<g><path style="opacity:1" fill="#0d0d21" d="M 299.5,719.5 C 309.5,719.5 319.5,719.5 329.5,719.5C 329.5,759.5 329.5,799.5 329.5,839.5C 309.5,839.5 289.5,839.5 269.5,839.5C 269.5,819.5 269.5,799.5 269.5,779.5C 279.5,779.5 289.5,779.5 299.5,779.5C 299.5,759.5 299.5,739.5 299.5,719.5 Z"/></g>
<g><path style="opacity:1" fill="#0d0d21" d="M 1259.5,749.5 C 1299.5,749.5 1339.5,749.5 1379.5,749.5C 1379.5,799.5 1379.5,849.5 1379.5,899.5C 1359.5,899.5 1339.5,899.5 1319.5,899.5C 1319.5,879.5 1319.5,859.5 1319.5,839.5C 1329.5,839.5 1339.5,839.5 1349.5,839.5C 1349.5,819.5 1349.5,799.5 1349.5,779.5C 1329.5,779.5 1309.5,779.5 1289.5,779.5C 1289.5,819.5 1289.5,859.5 1289.5,899.5C 1269.5,899.5 1249.5,899.5 1229.5,899.5C 1229.5,879.5 1229.5,859.5 1229.5,839.5C 1239.5,839.5 1249.5,839.5 1259.5,839.5C 1259.5,809.5 1259.5,779.5 1259.5,749.5 Z"/></g>
<g><path style="opacity:1" fill="#0d0d21" d="M 119.5,809.5 C 139.5,809.5 159.5,809.5 179.5,809.5C 179.5,829.5 179.5,849.5 179.5,869.5C 169.5,869.5 159.5,869.5 149.5,869.5C 149.5,889.5 149.5,909.5 149.5,929.5C 159.5,929.5 169.5,929.5 179.5,929.5C 179.5,919.5 179.5,909.5 179.5,899.5C 189.5,899.5 199.5,899.5 209.5,899.5C 209.5,919.5 209.5,939.5 209.5,959.5C 179.5,959.5 149.5,959.5 119.5,959.5C 119.5,909.5 119.5,859.5 119.5,809.5 Z"/></g>
</svg>
