<?xml version="1.0" encoding="UTF-8"?>
<!DOCTYPE svg PUBLIC "-//W3C//DTD SVG 1.1//EN" "http://www.w3.org/Graphics/SVG/1.1/DTD/svg11.dtd">
<svg xmlns="http://www.w3.org/2000/svg" version="1.1" width="1440px" height="1440px" style="shape-rendering:geometricPrecision; text-rendering:geometricPrecision; image-rendering:optimizeQuality; fill-rule:evenodd; clip-rule:evenodd" xmlns:xlink="http://www.w3.org/1999/xlink">
<g><path style="opacity:1" fill="#fee925" d="M 689.5,89.5 C 679.5,89.5 669.5,89.5 659.5,89.5C 649.5,89.5 639.5,89.5 629.5,89.5C 629.5,79.5 629.5,69.5 629.5,59.5C 659.5,59.5 689.5,59.5 719.5,59.5C 719.5,69.5 719.5,79.5 719.5,89.5C 709.5,89.5 699.5,89.5 689.5,89.5 Z"/></g>
<g><path style="opacity:1" fill="#fee925" d="M 629.5,89.5 C 629.5,99.5 629.5,109.5 629.5,119.5C 619.5,119.5 609.5,119.5 599.5,119.5C 599.5,109.5 599.5,99.5 599.5,89.5C 609.5,89.5 619.5,89.5 629.5,89.5 Z"/></g>
<g><path style="opacity:1" fill="#f6c83f" d="M 659.5,89.5 C 669.5,89.5 679.5,89.5 689.5,89.5C 689.5,109.5 689.5,129.5 689.5,149.5C 679.5,149.5 669.5,149.5 659.5,149.5C 659.5,129.5 659.5,109.5 659.5,89.5 Z"/></g>
<g><path style="opacity:1" fill="#fee925" d="M 599.5,119.5 C 599.5,159.5 599.5,199.5 599.5,239.5C 589.5,239.5 579.5,239.5 569.5,239.5C 569.5,199.5 569.5,159.5 569.5,119.5C 579.5,119.5 589.5,119.5 599.5,119.5 Z"/></g>
<g><path style="opacity:1" fill="#fee925" d="M 659.5,149.5 C 669.5,149.5 679.5,149.5 689.5,149.5C 699.5,149.5 709.5,149.5 719.5,149.5C 719.5,159.5 719.5,169.5 719.5,179.5C 719.5,189.5 719.5,199.5 719.5,209.5C 709.5,209.5 699.5,209.5 689.5,209.5C 689.5,199.5 689.5,189.5 689.5,179.5C 679.5,179.5 669.5,179.5 659.5,179.5C 659.5,169.5 659.5,159.5 659.5,149.5 Z"/></g>
<g><path style="opacity:1" fill="#fee925" d="M 779.5,239.5 C 779.5,229.5 779.5,219.5 779.5,209.5C 779.5,199.5 779.5,189.5 779.5,179.5C 779.5,169.5 779.5,159.5 779.5,149.5C 789.5,149.5 799.5,149.5 809.5,149.5C 809.5,179.5 809.5,209.5 809.5,239.5C 799.5,239.5 789.5,239.5 779.5,239.5 Z"/></g>
<g><path style="opacity:1" fill="#f6c83f" d="M 719.5,179.5 C 739.5,179.5 759.5,179.5 779.5,179.5C 779.5,189.5 779.5,199.5 779.5,209.5C 759.5,209.5 739.5,209.5 719.5,209.5C 719.5,199.5 719.5,189.5 719.5,179.5 Z"/></g>
<g><path style="opacity:1" fill="#fee925" d="M 479.5,239.5 C 489.5,239.5 499.5,239.5 509.5,239.5C 509.5,249.5 509.5,259.5 509.5,269.5C 499.5,269.5 489.5,269.5 479.5,269.5C 479.5,259.5 479.5,249.5 479.5,239.5 Z"/></g>
<g><path style="opacity:1" fill="#fee925" d="M 599.5,239.5 C 609.5,239.5 619.5,239.5 629.5,239.5C 629.5,249.5 629.5,259.5 629.5,269.5C 629.5,259.5 629.5,249.5 629.5,239.5C 619.5,239.5 609.5,239.5 599.5,239.5 Z"/></g>
<g><path style="opacity:1" fill="#fee925" d="M 779.5,239.5 C 779.5,249.5 779.5,259.5 779.5,269.5C 769.5,269.5 759.5,269.5 749.5,269.5C 749.5,259.5 749.5,249.5 749.5,239.5C 759.5,239.5 769.5,239.5 779.5,239.5 Z"/></g>
<g><path style="opacity:1" fill="#fee925" d="M 569.5,299.5 C 559.5,299.5 549.5,299.5 539.5,299.5C 539.5,289.5 539.5,279.5 539.5,269.5C 549.5,269.5 559.5,269.5 569.5,269.5C 569.5,279.5 569.5,289.5 569.5,299.5 Z"/></g>
<g><path style="opacity:1" fill="#fee925" d="M 629.5,269.5 C 669.5,269.5 709.5,269.5 749.5,269.5C 749.5,279.5 749.5,289.5 749.5,299.5C 739.5,299.5 729.5,299.5 719.5,299.5C 709.5,299.5 699.5,299.5 689.5,299.5C 669.5,299.5 649.5,299.5 629.5,299.5C 629.5,289.5 629.5,279.5 629.5,269.5 Z"/></g>
<g><path style="opacity:1" fill="#fee925" d="M 539.5,299.5 C 539.5,309.5 539.5,319.5 539.5,329.5C 529.5,329.5 519.5,329.5 509.5,329.5C 509.5,319.5 509.5,309.5 509.5,299.5C 519.5,299.5 529.5,299.5 539.5,299.5 Z"/></g>
<g><path style="opacity:1" fill="#fee925" d="M 569.5,299.5 C 579.5,299.5 589.5,299.5 599.5,299.5C 599.5,309.5 599.5,319.5 599.5,329.5C 589.5,329.5 579.5,329.5 569.5,329.5C 569.5,319.5 569.5,309.5 569.5,299.5 Z"/></g>
<g><path style="opacity:1" fill="#f6c83f" d="M 689.5,299.5 C 699.5,299.5 709.5,299.5 719.5,299.5C 719.5,309.5 719.5,319.5 719.5,329.5C 709.5,329.5 699.5,329.5 689.5,329.5C 689.5,319.5 689.5,309.5 689.5,299.5 Z"/></g>
<g><path style="opacity:1" fill="#fee925" d="M 539.5,329.5 C 549.5,329.5 559.5,329.5 569.5,329.5C 569.5,339.5 569.5,349.5 569.5,359.5C 559.5,359.5 549.5,359.5 539.5,359.5C 539.5,349.5 539.5,339.5 539.5,329.5 Z"/></g>
<g><path style="opacity:1" fill="#fee925" d="M 689.5,329.5 C 699.5,329.5 709.5,329.5 719.5,329.5C 719.5,349.5 719.5,369.5 719.5,389.5C 709.5,389.5 699.5,389.5 689.5,389.5C 689.5,369.5 689.5,349.5 689.5,329.5 Z"/></g>
</svg>
