<?xml version="1.0" encoding="UTF-8"?>
<!DOCTYPE svg PUBLIC "-//W3C//DTD SVG 1.1//EN" "http://www.w3.org/Graphics/SVG/1.1/DTD/svg11.dtd">
<svg xmlns="http://www.w3.org/2000/svg" version="1.1" width="1440px" height="1440px" style="shape-rendering:geometricPrecision; text-rendering:geometricPrecision; image-rendering:optimizeQuality; fill-rule:evenodd; clip-rule:evenodd" xmlns:xlink="http://www.w3.org/1999/xlink">
<g><path style="opacity:1" fill="#fee925" d="M 749.5,-0.5 C 759.5,-0.5 769.5,-0.5 779.5,-0.5C 779.5,9.5 779.5,19.5 779.5,29.5C 769.5,29.5 759.5,29.5 749.5,29.5C 749.5,19.5 749.5,9.5 749.5,-0.5 Z"/></g>
<g><path style="opacity:1" fill="#fee925" d="M 629.5,29.5 C 639.5,29.5 649.5,29.5 659.5,29.5C 659.5,39.5 659.5,49.5 659.5,59.5C 649.5,59.5 639.5,59.5 629.5,59.5C 629.5,49.5 629.5,39.5 629.5,29.5 Z"/></g>
<g><path style="opacity:1" fill="#fee925" d="M 749.5,29.5 C 749.5,39.5 749.5,49.5 749.5,59.5C 739.5,59.5 729.5,59.5 719.5,59.5C 719.5,49.5 719.5,39.5 719.5,29.5C 729.5,29.5 739.5,29.5 749.5,29.5 Z"/></g>
<g><path style="opacity:1" fill="#fee925" d="M 779.5,29.5 C 789.5,29.5 799.5,29.5 809.5,29.5C 809.5,39.5 809.5,49.5 809.5,59.5C 799.5,59.5 789.5,59.5 779.5,59.5C 779.5,49.5 779.5,39.5 779.5,29.5 Z"/></g>
<g><path style="opacity:1" fill="#fee925" d="M 749.5,59.5 C 759.5,59.5 769.5,59.5 779.5,59.5C 779.5,69.5 779.5,79.5 779.5,89.5C 769.5,89.5 759.5,89.5 749.5,89.5C 749.5,79.5 749.5,69.5 749.5,59.5 Z"/></g>
<g><path style="opacity:1" fill="#fee925" d="M 689.5,119.5 C 679.5,119.5 669.5,119.5 659.5,119.5C 649.5,119.5 639.5,119.5 629.5,119.5C 629.5,109.5 629.5,99.5 629.5,89.5C 659.5,89.5 689.5,89.5 719.5,89.5C 719.5,99.5 719.5,109.5 719.5,119.5C 709.5,119.5 699.5,119.5 689.5,119.5 Z"/></g>
<g><path style="opacity:1" fill="#fee925" d="M 629.5,119.5 C 629.5,129.5 629.5,139.5 629.5,149.5C 619.5,149.5 609.5,149.5 599.5,149.5C 599.5,139.5 599.5,129.5 599.5,119.5C 609.5,119.5 619.5,119.5 629.5,119.5 Z"/></g>
<g><path style="opacity:1" fill="#f6c83f" d="M 659.5,119.5 C 669.5,119.5 679.5,119.5 689.5,119.5C 689.5,139.5 689.5,159.5 689.5,179.5C 679.5,179.5 669.5,179.5 659.5,179.5C 659.5,159.5 659.5,139.5 659.5,119.5 Z"/></g>
<g><path style="opacity:1" fill="#fee925" d="M 599.5,149.5 C 599.5,189.5 599.5,229.5 599.5,269.5C 589.5,269.5 579.5,269.5 569.5,269.5C 569.5,229.5 569.5,189.5 569.5,149.5C 579.5,149.5 589.5,149.5 599.5,149.5 Z"/></g>
<g><path style="opacity:1" fill="#fee925" d="M 659.5,179.5 C 669.5,179.5 679.5,179.5 689.5,179.5C 699.5,179.5 709.5,179.5 719.5,179.5C 719.5,189.5 719.5,199.5 719.5,209.5C 719.5,219.5 719.5,229.5 719.5,239.5C 709.5,239.5 699.5,239.5 689.5,239.5C 689.5,229.5 689.5,219.5 689.5,209.5C 679.5,209.5 669.5,209.5 659.5,209.5C 659.5,199.5 659.5,189.5 659.5,179.5 Z"/></g>
<g><path style="opacity:1" fill="#fee925" d="M 779.5,269.5 C 779.5,259.5 779.5,249.5 779.5,239.5C 779.5,229.5 779.5,219.5 779.5,209.5C 779.5,199.5 779.5,189.5 779.5,179.5C 789.5,179.5 799.5,179.5 809.5,179.5C 809.5,209.5 809.5,239.5 809.5,269.5C 799.5,269.5 789.5,269.5 779.5,269.5 Z"/></g>
<g><path style="opacity:1" fill="#f6c83f" d="M 719.5,209.5 C 739.5,209.5 759.5,209.5 779.5,209.5C 779.5,219.5 779.5,229.5 779.5,239.5C 759.5,239.5 739.5,239.5 719.5,239.5C 719.5,229.5 719.5,219.5 719.5,209.5 Z"/></g>
<g><path style="opacity:1" fill="#fee925" d="M 599.5,269.5 C 609.5,269.5 619.5,269.5 629.5,269.5C 629.5,279.5 629.5,289.5 629.5,299.5C 629.5,289.5 629.5,279.5 629.5,269.5C 619.5,269.5 609.5,269.5 599.5,269.5 Z"/></g>
<g><path style="opacity:1" fill="#fee925" d="M 779.5,269.5 C 779.5,279.5 779.5,289.5 779.5,299.5C 769.5,299.5 759.5,299.5 749.5,299.5C 749.5,289.5 749.5,279.5 749.5,269.5C 759.5,269.5 769.5,269.5 779.5,269.5 Z"/></g>
<g><path style="opacity:1" fill="#fee925" d="M 629.5,299.5 C 669.5,299.5 709.5,299.5 749.5,299.5C 749.5,309.5 749.5,319.5 749.5,329.5C 739.5,329.5 729.5,329.5 719.5,329.5C 709.5,329.5 699.5,329.5 689.5,329.5C 669.5,329.5 649.5,329.5 629.5,329.5C 629.5,319.5 629.5,309.5 629.5,299.5 Z"/></g>
<g><path style="opacity:1" fill="#f6c83f" d="M 689.5,329.5 C 699.5,329.5 709.5,329.5 719.5,329.5C 719.5,339.5 719.5,349.5 719.5,359.5C 709.5,359.5 699.5,359.5 689.5,359.5C 689.5,349.5 689.5,339.5 689.5,329.5 Z"/></g>
<g><path style="opacity:1" fill="#fee925" d="M 689.5,359.5 C 699.5,359.5 709.5,359.5 719.5,359.5C 719.5,379.5 719.5,399.5 719.5,419.5C 709.5,419.5 699.5,419.5 689.5,419.5C 689.5,399.5 689.5,379.5 689.5,359.5 Z"/></g>
</svg>
