<?xml version="1.0" encoding="UTF-8"?>
<!DOCTYPE svg PUBLIC "-//W3C//DTD SVG 1.1//EN" "http://www.w3.org/Graphics/SVG/1.1/DTD/svg11.dtd">
<svg xmlns="http://www.w3.org/2000/svg" version="1.1" width="1440px" height="1440px" style="shape-rendering:geometricPrecision; text-rendering:geometricPrecision; image-rendering:optimizeQuality; fill-rule:evenodd; clip-rule:evenodd" xmlns:xlink="http://www.w3.org/1999/xlink">
<g><path style="opacity:1" fill="#fe9e1f" d="M 1049.5,749.5 C 1039.5,749.5 1029.5,749.5 1019.5,749.5C 1019.5,689.5 1019.5,629.5 1019.5,569.5C 1009.5,569.5 999.5,569.5 989.5,569.5C 989.5,549.5 989.5,529.5 989.5,509.5C 979.5,509.5 969.5,509.5 959.5,509.5C 959.5,499.5 959.5,489.5 959.5,479.5C 949.5,479.5 939.5,479.5 929.5,479.5C 929.5,469.5 929.5,459.5 929.5,449.5C 919.5,449.5 909.5,449.5 899.5,449.5C 899.5,439.5 899.5,429.5 899.5,419.5C 889.5,419.5 879.5,419.5 869.5,419.5C 869.5,409.5 869.5,399.5 869.5,389.5C 839.5,389.5 809.5,389.5 779.5,389.5C 779.5,379.5 779.5,369.5 779.5,359.5C 769.5,359.5 759.5,359.5 749.5,359.5C 749.5,369.5 749.5,379.5 749.5,389.5C 729.5,389.5 709.5,389.5 689.5,389.5C 659.5,389.5 629.5,389.5 599.5,389.5C 599.5,379.5 599.5,369.5 599.5,359.5C 639.5,359.5 679.5,359.5 719.5,359.5C 719.5,349.5 719.5,339.5 719.5,329.5C 749.5,329.5 779.5,329.5 809.5,329.5C 809.5,339.5 809.5,349.5 809.5,359.5C 839.5,359.5 869.5,359.5 899.5,359.5C 899.5,369.5 899.5,379.5 899.5,389.5C 909.5,389.5 919.5,389.5 929.5,389.5C 929.5,399.5 929.5,409.5 929.5,419.5C 939.5,419.5 949.5,419.5 959.5,419.5C 959.5,429.5 959.5,439.5 959.5,449.5C 969.5,449.5 979.5,449.5 989.5,449.5C 989.5,459.5 989.5,469.5 989.5,479.5C 999.5,479.5 1009.5,479.5 1019.5,479.5C 1019.5,499.5 1019.5,519.5 1019.5,539.5C 1029.5,539.5 1039.5,539.5 1049.5,539.5C 1049.5,609.5 1049.5,679.5 1049.5,749.5 Z"/></g>
<g><path style="opacity:1" fill="#febb00" d="M 1019.5,749.5 C 1019.5,769.5 1019.5,789.5 1019.5,809.5C 1009.5,809.5 999.5,809.5 989.5,809.5C 989.5,819.5 989.5,829.5 989.5,839.5C 979.5,839.5 969.5,839.5 959.5,839.5C 959.5,849.5 959.5,859.5 959.5,869.5C 949.5,869.5 939.5,869.5 929.5,869.5C 929.5,879.5 929.5,889.5 929.5,899.5C 919.5,899.5 909.5,899.5 899.5,899.5C 899.5,909.5 899.5,919.5 899.5,929.5C 879.5,929.5 859.5,929.5 839.5,929.5C 839.5,939.5 839.5,949.5 839.5,959.5C 809.5,959.5 779.5,959.5 749.5,959.5C 749.5,949.5 749.5,939.5 749.5,929.5C 719.5,929.5 689.5,929.5 659.5,929.5C 659.5,919.5 659.5,909.5 659.5,899.5C 649.5,899.5 639.5,899.5 629.5,899.5C 629.5,879.5 629.5,859.5 629.5,839.5C 639.5,839.5 649.5,839.5 659.5,839.5C 659.5,819.5 659.5,799.5 659.5,779.5C 649.5,779.5 639.5,779.5 629.5,779.5C 629.5,759.5 629.5,739.5 629.5,719.5C 619.5,719.5 609.5,719.5 599.5,719.5C 599.5,739.5 599.5,759.5 599.5,779.5C 589.5,779.5 579.5,779.5 569.5,779.5C 569.5,799.5 569.5,819.5 569.5,839.5C 549.5,839.5 529.5,839.5 509.5,839.5C 509.5,829.5 509.5,819.5 509.5,809.5C 499.5,809.5 489.5,809.5 479.5,809.5C 479.5,789.5 479.5,769.5 479.5,749.5C 469.5,749.5 459.5,749.5 449.5,749.5C 449.5,719.5 449.5,689.5 449.5,659.5C 459.5,659.5 469.5,659.5 479.5,659.5C 479.5,629.5 479.5,599.5 479.5,569.5C 479.5,549.5 479.5,529.5 479.5,509.5C 489.5,509.5 499.5,509.5 509.5,509.5C 519.5,509.5 529.5,509.5 539.5,509.5C 539.5,499.5 539.5,489.5 539.5,479.5C 549.5,479.5 559.5,479.5 569.5,479.5C 569.5,469.5 569.5,459.5 569.5,449.5C 589.5,449.5 609.5,449.5 629.5,449.5C 629.5,439.5 629.5,429.5 629.5,419.5C 649.5,419.5 669.5,419.5 689.5,419.5C 689.5,409.5 689.5,399.5 689.5,389.5C 709.5,389.5 729.5,389.5 749.5,389.5C 749.5,379.5 749.5,369.5 749.5,359.5C 759.5,359.5 769.5,359.5 779.5,359.5C 779.5,369.5 779.5,379.5 779.5,389.5C 809.5,389.5 839.5,389.5 869.5,389.5C 869.5,399.5 869.5,409.5 869.5,419.5C 879.5,419.5 889.5,419.5 899.5,419.5C 899.5,429.5 899.5,439.5 899.5,449.5C 909.5,449.5 919.5,449.5 929.5,449.5C 929.5,459.5 929.5,469.5 929.5,479.5C 939.5,479.5 949.5,479.5 959.5,479.5C 959.5,489.5 959.5,499.5 959.5,509.5C 969.5,509.5 979.5,509.5 989.5,509.5C 989.5,529.5 989.5,549.5 989.5,569.5C 999.5,569.5 1009.5,569.5 1019.5,569.5C 1019.5,629.5 1019.5,689.5 1019.5,749.5 Z"/></g>
<g><path style="opacity:1" fill="#fe9e1f" d="M 599.5,389.5 C 599.5,399.5 599.5,409.5 599.5,419.5C 579.5,419.5 559.5,419.5 539.5,419.5C 539.5,409.5 539.5,399.5 539.5,389.5C 559.5,389.5 579.5,389.5 599.5,389.5 Z"/></g>
<g><path style="opacity:1" fill="#fbd152" d="M 599.5,389.5 C 629.5,389.5 659.5,389.5 689.5,389.5C 689.5,399.5 689.5,409.5 689.5,419.5C 669.5,419.5 649.5,419.5 629.5,419.5C 629.5,429.5 629.5,439.5 629.5,449.5C 609.5,449.5 589.5,449.5 569.5,449.5C 569.5,459.5 569.5,469.5 569.5,479.5C 559.5,479.5 549.5,479.5 539.5,479.5C 539.5,489.5 539.5,499.5 539.5,509.5C 529.5,509.5 519.5,509.5 509.5,509.5C 509.5,489.5 509.5,469.5 509.5,449.5C 519.5,449.5 529.5,449.5 539.5,449.5C 539.5,439.5 539.5,429.5 539.5,419.5C 559.5,419.5 579.5,419.5 599.5,419.5C 599.5,409.5 599.5,399.5 599.5,389.5 Z"/></g>
<g><path style="opacity:1" fill="#fe9e1f" d="M 539.5,419.5 C 539.5,429.5 539.5,439.5 539.5,449.5C 529.5,449.5 519.5,449.5 509.5,449.5C 509.5,469.5 509.5,489.5 509.5,509.5C 499.5,509.5 489.5,509.5 479.5,509.5C 479.5,529.5 479.5,549.5 479.5,569.5C 469.5,569.5 459.5,569.5 449.5,569.5C 449.5,599.5 449.5,629.5 449.5,659.5C 439.5,659.5 429.5,659.5 419.5,659.5C 419.5,669.5 419.5,679.5 419.5,689.5C 409.5,689.5 399.5,689.5 389.5,689.5C 389.5,669.5 389.5,649.5 389.5,629.5C 399.5,629.5 409.5,629.5 419.5,629.5C 419.5,599.5 419.5,569.5 419.5,539.5C 429.5,539.5 439.5,539.5 449.5,539.5C 449.5,519.5 449.5,499.5 449.5,479.5C 459.5,479.5 469.5,479.5 479.5,479.5C 479.5,459.5 479.5,439.5 479.5,419.5C 499.5,419.5 519.5,419.5 539.5,419.5 Z"/></g>
<g><path style="opacity:1" fill="#000000" d="M 689.5,569.5 C 689.5,559.5 689.5,549.5 689.5,539.5C 699.5,539.5 709.5,539.5 719.5,539.5C 719.5,549.5 719.5,559.5 719.5,569.5C 709.5,569.5 699.5,569.5 689.5,569.5 Z"/></g>
<g><path style="opacity:1" fill="#000000" d="M 929.5,569.5 C 919.5,569.5 909.5,569.5 899.5,569.5C 899.5,559.5 899.5,549.5 899.5,539.5C 909.5,539.5 919.5,539.5 929.5,539.5C 929.5,549.5 929.5,559.5 929.5,569.5 Z"/></g>
<g><path style="opacity:1" fill="#f09c2f" d="M 479.5,569.5 C 479.5,599.5 479.5,629.5 479.5,659.5C 469.5,659.5 459.5,659.5 449.5,659.5C 449.5,629.5 449.5,599.5 449.5,569.5C 459.5,569.5 469.5,569.5 479.5,569.5 Z"/></g>
<g><path style="opacity:1" fill="#4599c2" d="M 689.5,569.5 C 699.5,569.5 709.5,569.5 719.5,569.5C 719.5,559.5 719.5,549.5 719.5,539.5C 709.5,539.5 699.5,539.5 689.5,539.5C 689.5,549.5 689.5,559.5 689.5,569.5 Z"/></g>
<g><path style="opacity:1" fill="#4599c2" d="M 929.5,569.5 C 939.5,569.5 949.5,569.5 959.5,569.5C 959.5,579.5 959.5,589.5 959.5,599.5C 949.5,599.5 939.5,599.5 929.5,599.5C 929.5,589.5 929.5,579.5 929.5,569.5 Z"/></g>
<g><path style="opacity:1" fill="#ee692e" d="M 899.5,629.5 C 859.5,629.5 819.5,629.5 779.5,629.5C 769.5,629.5 759.5,629.5 749.5,629.5C 749.5,619.5 749.5,609.5 749.5,599.5C 799.5,599.5 849.5,599.5 899.5,599.5C 899.5,609.5 899.5,619.5 899.5,629.5 Z"/></g>
<g><path style="opacity:1" fill="#c84015" d="M 749.5,629.5 C 759.5,629.5 769.5,629.5 779.5,629.5C 779.5,639.5 779.5,649.5 779.5,659.5C 819.5,659.5 859.5,659.5 899.5,659.5C 909.5,659.5 919.5,659.5 929.5,659.5C 929.5,669.5 929.5,679.5 929.5,689.5C 859.5,689.5 789.5,689.5 719.5,689.5C 719.5,669.5 719.5,649.5 719.5,629.5C 729.5,629.5 739.5,629.5 749.5,629.5 Z"/></g>
<g><path style="opacity:1" fill="#e58e21" d="M 779.5,629.5 C 819.5,629.5 859.5,629.5 899.5,629.5C 899.5,639.5 899.5,649.5 899.5,659.5C 859.5,659.5 819.5,659.5 779.5,659.5C 779.5,649.5 779.5,639.5 779.5,629.5 Z"/></g>
<g><path style="opacity:1" fill="#ee692e" d="M 899.5,629.5 C 909.5,629.5 919.5,629.5 929.5,629.5C 929.5,639.5 929.5,649.5 929.5,659.5C 919.5,659.5 909.5,659.5 899.5,659.5C 899.5,649.5 899.5,639.5 899.5,629.5 Z"/></g>
<g><path style="opacity:1" fill="#f09c2f" d="M 449.5,659.5 C 449.5,689.5 449.5,719.5 449.5,749.5C 459.5,749.5 469.5,749.5 479.5,749.5C 479.5,769.5 479.5,789.5 479.5,809.5C 489.5,809.5 499.5,809.5 509.5,809.5C 509.5,819.5 509.5,829.5 509.5,839.5C 489.5,839.5 469.5,839.5 449.5,839.5C 449.5,819.5 449.5,799.5 449.5,779.5C 439.5,779.5 429.5,779.5 419.5,779.5C 419.5,749.5 419.5,719.5 419.5,689.5C 419.5,679.5 419.5,669.5 419.5,659.5C 429.5,659.5 439.5,659.5 449.5,659.5 Z"/></g>
<g><path style="opacity:1" fill="#db7524" d="M 389.5,689.5 C 399.5,689.5 409.5,689.5 419.5,689.5C 419.5,719.5 419.5,749.5 419.5,779.5C 409.5,779.5 399.5,779.5 389.5,779.5C 389.5,749.5 389.5,719.5 389.5,689.5 Z"/></g>
<g><path style="opacity:1" fill="#db7524" d="M 629.5,779.5 C 629.5,789.5 629.5,799.5 629.5,809.5C 619.5,809.5 609.5,809.5 599.5,809.5C 599.5,829.5 599.5,849.5 599.5,869.5C 559.5,869.5 519.5,869.5 479.5,869.5C 479.5,879.5 479.5,889.5 479.5,899.5C 469.5,899.5 459.5,899.5 449.5,899.5C 449.5,889.5 449.5,879.5 449.5,869.5C 439.5,869.5 429.5,869.5 419.5,869.5C 419.5,839.5 419.5,809.5 419.5,779.5C 429.5,779.5 439.5,779.5 449.5,779.5C 449.5,799.5 449.5,819.5 449.5,839.5C 469.5,839.5 489.5,839.5 509.5,839.5C 529.5,839.5 549.5,839.5 569.5,839.5C 569.5,819.5 569.5,799.5 569.5,779.5C 579.5,779.5 589.5,779.5 599.5,779.5C 599.5,759.5 599.5,739.5 599.5,719.5C 609.5,719.5 619.5,719.5 629.5,719.5C 629.5,739.5 629.5,759.5 629.5,779.5 Z"/></g>
<g><path style="opacity:1" fill="#db7524" d="M 1019.5,749.5 C 1029.5,749.5 1039.5,749.5 1049.5,749.5C 1049.5,769.5 1049.5,789.5 1049.5,809.5C 1039.5,809.5 1029.5,809.5 1019.5,809.5C 1019.5,789.5 1019.5,769.5 1019.5,749.5 Z"/></g>
<g><path style="opacity:1" fill="#f09c2f" d="M 629.5,779.5 C 639.5,779.5 649.5,779.5 659.5,779.5C 659.5,799.5 659.5,819.5 659.5,839.5C 649.5,839.5 639.5,839.5 629.5,839.5C 629.5,859.5 629.5,879.5 629.5,899.5C 639.5,899.5 649.5,899.5 659.5,899.5C 659.5,909.5 659.5,919.5 659.5,929.5C 689.5,929.5 719.5,929.5 749.5,929.5C 749.5,939.5 749.5,949.5 749.5,959.5C 709.5,959.5 669.5,959.5 629.5,959.5C 629.5,949.5 629.5,939.5 629.5,929.5C 599.5,929.5 569.5,929.5 539.5,929.5C 539.5,919.5 539.5,909.5 539.5,899.5C 519.5,899.5 499.5,899.5 479.5,899.5C 479.5,889.5 479.5,879.5 479.5,869.5C 519.5,869.5 559.5,869.5 599.5,869.5C 599.5,849.5 599.5,829.5 599.5,809.5C 609.5,809.5 619.5,809.5 629.5,809.5C 629.5,799.5 629.5,789.5 629.5,779.5 Z"/></g>
<g><path style="opacity:1" fill="#db7524" d="M 1019.5,809.5 C 1019.5,829.5 1019.5,849.5 1019.5,869.5C 1009.5,869.5 999.5,869.5 989.5,869.5C 989.5,879.5 989.5,889.5 989.5,899.5C 979.5,899.5 969.5,899.5 959.5,899.5C 959.5,909.5 959.5,919.5 959.5,929.5C 949.5,929.5 939.5,929.5 929.5,929.5C 929.5,939.5 929.5,949.5 929.5,959.5C 909.5,959.5 889.5,959.5 869.5,959.5C 869.5,969.5 869.5,979.5 869.5,989.5C 849.5,989.5 829.5,989.5 809.5,989.5C 799.5,989.5 789.5,989.5 779.5,989.5C 749.5,989.5 719.5,989.5 689.5,989.5C 679.5,989.5 669.5,989.5 659.5,989.5C 639.5,989.5 619.5,989.5 599.5,989.5C 599.5,979.5 599.5,969.5 599.5,959.5C 569.5,959.5 539.5,959.5 509.5,959.5C 509.5,949.5 509.5,939.5 509.5,929.5C 499.5,929.5 489.5,929.5 479.5,929.5C 479.5,919.5 479.5,909.5 479.5,899.5C 499.5,899.5 519.5,899.5 539.5,899.5C 539.5,909.5 539.5,919.5 539.5,929.5C 569.5,929.5 599.5,929.5 629.5,929.5C 629.5,939.5 629.5,949.5 629.5,959.5C 669.5,959.5 709.5,959.5 749.5,959.5C 779.5,959.5 809.5,959.5 839.5,959.5C 839.5,949.5 839.5,939.5 839.5,929.5C 859.5,929.5 879.5,929.5 899.5,929.5C 899.5,919.5 899.5,909.5 899.5,899.5C 909.5,899.5 919.5,899.5 929.5,899.5C 929.5,889.5 929.5,879.5 929.5,869.5C 939.5,869.5 949.5,869.5 959.5,869.5C 959.5,859.5 959.5,849.5 959.5,839.5C 969.5,839.5 979.5,839.5 989.5,839.5C 989.5,829.5 989.5,819.5 989.5,809.5C 999.5,809.5 1009.5,809.5 1019.5,809.5 Z"/></g>
<g><path style="opacity:1" fill="#c84015" d="M 659.5,989.5 C 669.5,989.5 679.5,989.5 689.5,989.5C 689.5,1009.5 689.5,1029.5 689.5,1049.5C 709.5,1049.5 729.5,1049.5 749.5,1049.5C 749.5,1059.5 749.5,1069.5 749.5,1079.5C 719.5,1079.5 689.5,1079.5 659.5,1079.5C 659.5,1049.5 659.5,1019.5 659.5,989.5 Z"/></g>
<g><path style="opacity:1" fill="#a42408" d="M 779.5,989.5 C 789.5,989.5 799.5,989.5 809.5,989.5C 809.5,1009.5 809.5,1029.5 809.5,1049.5C 829.5,1049.5 849.5,1049.5 869.5,1049.5C 869.5,1059.5 869.5,1069.5 869.5,1079.5C 839.5,1079.5 809.5,1079.5 779.5,1079.5C 779.5,1049.5 779.5,1019.5 779.5,989.5 Z"/></g>
</svg>
