<?xml version="1.0" encoding="UTF-8"?>
<!DOCTYPE svg PUBLIC "-//W3C//DTD SVG 1.1//EN" "http://www.w3.org/Graphics/SVG/1.1/DTD/svg11.dtd">
<svg xmlns="http://www.w3.org/2000/svg" version="1.1" width="1440px" height="1440px" style="shape-rendering:geometricPrecision; text-rendering:geometricPrecision; image-rendering:optimizeQuality; fill-rule:evenodd; clip-rule:evenodd" xmlns:xlink="http://www.w3.org/1999/xlink">
<g><path style="opacity:1" fill="#000000" d="M 749.5,149.5 C 739.5,149.5 729.5,149.5 719.5,149.5C 719.5,139.5 719.5,129.5 719.5,119.5C 729.5,119.5 739.5,119.5 749.5,119.5C 749.5,129.5 749.5,139.5 749.5,149.5 Z"/></g>
<g><path style="opacity:1" fill="#000000" d="M 749.5,149.5 C 759.5,149.5 769.5,149.5 779.5,149.5C 779.5,159.5 779.5,169.5 779.5,179.5C 769.5,179.5 759.5,179.5 749.5,179.5C 749.5,169.5 749.5,159.5 749.5,149.5 Z"/></g>
<g><path style="opacity:1" fill="#000000" d="M 749.5,179.5 C 749.5,189.5 749.5,199.5 749.5,209.5C 759.5,209.5 769.5,209.5 779.5,209.5C 779.5,199.5 779.5,189.5 779.5,179.5C 799.5,179.5 819.5,179.5 839.5,179.5C 839.5,189.5 839.5,199.5 839.5,209.5C 849.5,209.5 859.5,209.5 869.5,209.5C 869.5,219.5 869.5,229.5 869.5,239.5C 849.5,239.5 829.5,239.5 809.5,239.5C 809.5,259.5 809.5,279.5 809.5,299.5C 829.5,299.5 849.5,299.5 869.5,299.5C 869.5,319.5 869.5,339.5 869.5,359.5C 859.5,359.5 849.5,359.5 839.5,359.5C 839.5,369.5 839.5,379.5 839.5,389.5C 819.5,389.5 799.5,389.5 779.5,389.5C 779.5,379.5 779.5,369.5 779.5,359.5C 769.5,359.5 759.5,359.5 749.5,359.5C 749.5,369.5 749.5,379.5 749.5,389.5C 729.5,389.5 709.5,389.5 689.5,389.5C 689.5,379.5 689.5,369.5 689.5,359.5C 679.5,359.5 669.5,359.5 659.5,359.5C 659.5,339.5 659.5,319.5 659.5,299.5C 649.5,299.5 639.5,299.5 629.5,299.5C 629.5,269.5 629.5,239.5 629.5,209.5C 639.5,209.5 649.5,209.5 659.5,209.5C 659.5,199.5 659.5,189.5 659.5,179.5C 689.5,179.5 719.5,179.5 749.5,179.5 Z M 749.5,179.5 C 759.5,179.5 769.5,179.5 779.5,179.5C 779.5,189.5 779.5,199.5 779.5,209.5C 769.5,209.5 759.5,209.5 749.5,209.5C 749.5,199.5 749.5,189.5 749.5,179.5 Z"/></g>
</svg>
