<?xml version="1.0" encoding="UTF-8"?>
<!DOCTYPE svg PUBLIC "-//W3C//DTD SVG 1.1//EN" "http://www.w3.org/Graphics/SVG/1.1/DTD/svg11.dtd">
<svg xmlns="http://www.w3.org/2000/svg" version="1.1" width="2160px" height="2160px" style="shape-rendering:geometricPrecision; text-rendering:geometricPrecision; image-rendering:optimizeQuality; fill-rule:evenodd; clip-rule:evenodd" xmlns:xlink="http://www.w3.org/1999/xlink">
<g><path style="opacity:1" fill="#061202" d="M 1319.5,869.5 C 1309.5,869.5 1299.5,869.5 1289.5,869.5C 1289.5,839.5 1289.5,809.5 1289.5,779.5C 1279.5,779.5 1269.5,779.5 1259.5,779.5C 1259.5,759.5 1259.5,739.5 1259.5,719.5C 1249.5,719.5 1239.5,719.5 1229.5,719.5C 1229.5,709.5 1229.5,699.5 1229.5,689.5C 1219.5,689.5 1209.5,689.5 1199.5,689.5C 1199.5,679.5 1199.5,669.5 1199.5,659.5C 1179.5,659.5 1159.5,659.5 1139.5,659.5C 1139.5,649.5 1139.5,639.5 1139.5,629.5C 1119.5,629.5 1099.5,629.5 1079.5,629.5C 1079.5,639.5 1079.5,649.5 1079.5,659.5C 1089.5,659.5 1099.5,659.5 1109.5,659.5C 1109.5,669.5 1109.5,679.5 1109.5,689.5C 1119.5,689.5 1129.5,689.5 1139.5,689.5C 1139.5,709.5 1139.5,729.5 1139.5,749.5C 1149.5,749.5 1159.5,749.5 1169.5,749.5C 1169.5,779.5 1169.5,809.5 1169.5,839.5C 1179.5,839.5 1189.5,839.5 1199.5,839.5C 1199.5,849.5 1199.5,859.5 1199.5,869.5C 1199.5,879.5 1199.5,889.5 1199.5,899.5C 1189.5,899.5 1179.5,899.5 1169.5,899.5C 1169.5,889.5 1169.5,879.5 1169.5,869.5C 1159.5,869.5 1149.5,869.5 1139.5,869.5C 1139.5,839.5 1139.5,809.5 1139.5,779.5C 1129.5,779.5 1119.5,779.5 1109.5,779.5C 1109.5,759.5 1109.5,739.5 1109.5,719.5C 1099.5,719.5 1089.5,719.5 1079.5,719.5C 1079.5,709.5 1079.5,699.5 1079.5,689.5C 1069.5,689.5 1059.5,689.5 1049.5,689.5C 1049.5,669.5 1049.5,649.5 1049.5,629.5C 979.5,629.5 909.5,629.5 839.5,629.5C 839.5,639.5 839.5,649.5 839.5,659.5C 819.5,659.5 799.5,659.5 779.5,659.5C 779.5,679.5 779.5,699.5 779.5,719.5C 769.5,719.5 759.5,719.5 749.5,719.5C 749.5,749.5 749.5,779.5 749.5,809.5C 739.5,809.5 729.5,809.5 719.5,809.5C 719.5,819.5 719.5,829.5 719.5,839.5C 699.5,839.5 679.5,839.5 659.5,839.5C 659.5,849.5 659.5,859.5 659.5,869.5C 629.5,869.5 599.5,869.5 569.5,869.5C 569.5,879.5 569.5,889.5 569.5,899.5C 619.5,899.5 669.5,899.5 719.5,899.5C 719.5,889.5 719.5,879.5 719.5,869.5C 819.5,869.5 919.5,869.5 1019.5,869.5C 1019.5,879.5 1019.5,889.5 1019.5,899.5C 969.5,899.5 919.5,899.5 869.5,899.5C 839.5,899.5 809.5,899.5 779.5,899.5C 769.5,899.5 759.5,899.5 749.5,899.5C 749.5,909.5 749.5,919.5 749.5,929.5C 739.5,929.5 729.5,929.5 719.5,929.5C 709.5,929.5 699.5,929.5 689.5,929.5C 629.5,929.5 569.5,929.5 509.5,929.5C 509.5,909.5 509.5,889.5 509.5,869.5C 519.5,869.5 529.5,869.5 539.5,869.5C 539.5,859.5 539.5,849.5 539.5,839.5C 569.5,839.5 599.5,839.5 629.5,839.5C 629.5,829.5 629.5,819.5 629.5,809.5C 649.5,809.5 669.5,809.5 689.5,809.5C 689.5,799.5 689.5,789.5 689.5,779.5C 699.5,779.5 709.5,779.5 719.5,779.5C 719.5,749.5 719.5,719.5 719.5,689.5C 729.5,689.5 739.5,689.5 749.5,689.5C 749.5,669.5 749.5,649.5 749.5,629.5C 769.5,629.5 789.5,629.5 809.5,629.5C 809.5,619.5 809.5,609.5 809.5,599.5C 929.5,599.5 1049.5,599.5 1169.5,599.5C 1169.5,609.5 1169.5,619.5 1169.5,629.5C 1189.5,629.5 1209.5,629.5 1229.5,629.5C 1229.5,639.5 1229.5,649.5 1229.5,659.5C 1239.5,659.5 1249.5,659.5 1259.5,659.5C 1259.5,669.5 1259.5,679.5 1259.5,689.5C 1269.5,689.5 1279.5,689.5 1289.5,689.5C 1289.5,709.5 1289.5,729.5 1289.5,749.5C 1299.5,749.5 1309.5,749.5 1319.5,749.5C 1319.5,789.5 1319.5,829.5 1319.5,869.5 Z"/></g>
<g><path style="opacity:1" fill="#0c2602" d="M 1139.5,869.5 C 1099.5,869.5 1059.5,869.5 1019.5,869.5C 919.5,869.5 819.5,869.5 719.5,869.5C 719.5,879.5 719.5,889.5 719.5,899.5C 669.5,899.5 619.5,899.5 569.5,899.5C 569.5,889.5 569.5,879.5 569.5,869.5C 599.5,869.5 629.5,869.5 659.5,869.5C 659.5,859.5 659.5,849.5 659.5,839.5C 679.5,839.5 699.5,839.5 719.5,839.5C 719.5,829.5 719.5,819.5 719.5,809.5C 729.5,809.5 739.5,809.5 749.5,809.5C 749.5,779.5 749.5,749.5 749.5,719.5C 759.5,719.5 769.5,719.5 779.5,719.5C 779.5,699.5 779.5,679.5 779.5,659.5C 799.5,659.5 819.5,659.5 839.5,659.5C 839.5,649.5 839.5,639.5 839.5,629.5C 909.5,629.5 979.5,629.5 1049.5,629.5C 1049.5,649.5 1049.5,669.5 1049.5,689.5C 1059.5,689.5 1069.5,689.5 1079.5,689.5C 1079.5,699.5 1079.5,709.5 1079.5,719.5C 1089.5,719.5 1099.5,719.5 1109.5,719.5C 1109.5,739.5 1109.5,759.5 1109.5,779.5C 1119.5,779.5 1129.5,779.5 1139.5,779.5C 1139.5,809.5 1139.5,839.5 1139.5,869.5 Z"/></g>
<g><path style="opacity:1" fill="#143706" d="M 1289.5,869.5 C 1259.5,869.5 1229.5,869.5 1199.5,869.5C 1199.5,859.5 1199.5,849.5 1199.5,839.5C 1189.5,839.5 1179.5,839.5 1169.5,839.5C 1169.5,809.5 1169.5,779.5 1169.5,749.5C 1159.5,749.5 1149.5,749.5 1139.5,749.5C 1139.5,729.5 1139.5,709.5 1139.5,689.5C 1129.5,689.5 1119.5,689.5 1109.5,689.5C 1109.5,679.5 1109.5,669.5 1109.5,659.5C 1099.5,659.5 1089.5,659.5 1079.5,659.5C 1079.5,649.5 1079.5,639.5 1079.5,629.5C 1099.5,629.5 1119.5,629.5 1139.5,629.5C 1139.5,639.5 1139.5,649.5 1139.5,659.5C 1159.5,659.5 1179.5,659.5 1199.5,659.5C 1199.5,669.5 1199.5,679.5 1199.5,689.5C 1209.5,689.5 1219.5,689.5 1229.5,689.5C 1229.5,699.5 1229.5,709.5 1229.5,719.5C 1239.5,719.5 1249.5,719.5 1259.5,719.5C 1259.5,739.5 1259.5,759.5 1259.5,779.5C 1269.5,779.5 1279.5,779.5 1289.5,779.5C 1289.5,809.5 1289.5,839.5 1289.5,869.5 Z"/></g>
<g><path style="opacity:1" fill="#000000" d="M 1019.5,869.5 C 1059.5,869.5 1099.5,869.5 1139.5,869.5C 1149.5,869.5 1159.5,869.5 1169.5,869.5C 1169.5,879.5 1169.5,889.5 1169.5,899.5C 1149.5,899.5 1129.5,899.5 1109.5,899.5C 1079.5,899.5 1049.5,899.5 1019.5,899.5C 1019.5,889.5 1019.5,879.5 1019.5,869.5 Z"/></g>
<g><path style="opacity:1" fill="#000000" d="M 1199.5,869.5 C 1229.5,869.5 1259.5,869.5 1289.5,869.5C 1299.5,869.5 1309.5,869.5 1319.5,869.5C 1319.5,879.5 1319.5,889.5 1319.5,899.5C 1309.5,899.5 1299.5,899.5 1289.5,899.5C 1259.5,899.5 1229.5,899.5 1199.5,899.5C 1199.5,889.5 1199.5,879.5 1199.5,869.5 Z"/></g>
<g><path style="opacity:1" fill="#e58e21" d="M 779.5,899.5 C 779.5,909.5 779.5,919.5 779.5,929.5C 769.5,929.5 759.5,929.5 749.5,929.5C 749.5,919.5 749.5,909.5 749.5,899.5C 759.5,899.5 769.5,899.5 779.5,899.5 Z"/></g>
<g><path style="opacity:1" fill="#35363e" d="M 779.5,899.5 C 809.5,899.5 839.5,899.5 869.5,899.5C 869.5,909.5 869.5,919.5 869.5,929.5C 839.5,929.5 809.5,929.5 779.5,929.5C 779.5,919.5 779.5,909.5 779.5,899.5 Z"/></g>
<g><path style="opacity:1" fill="#e7b85b" d="M 869.5,899.5 C 919.5,899.5 969.5,899.5 1019.5,899.5C 1019.5,909.5 1019.5,919.5 1019.5,929.5C 1049.5,929.5 1079.5,929.5 1109.5,929.5C 1129.5,929.5 1149.5,929.5 1169.5,929.5C 1169.5,939.5 1169.5,949.5 1169.5,959.5C 1179.5,959.5 1189.5,959.5 1199.5,959.5C 1219.5,959.5 1239.5,959.5 1259.5,959.5C 1259.5,989.5 1259.5,1019.5 1259.5,1049.5C 1249.5,1049.5 1239.5,1049.5 1229.5,1049.5C 1229.5,1029.5 1229.5,1009.5 1229.5,989.5C 1219.5,989.5 1209.5,989.5 1199.5,989.5C 1199.5,999.5 1199.5,1009.5 1199.5,1019.5C 1189.5,1019.5 1179.5,1019.5 1169.5,1019.5C 1169.5,1029.5 1169.5,1039.5 1169.5,1049.5C 1179.5,1049.5 1189.5,1049.5 1199.5,1049.5C 1199.5,1059.5 1199.5,1069.5 1199.5,1079.5C 1189.5,1079.5 1179.5,1079.5 1169.5,1079.5C 1169.5,1109.5 1169.5,1139.5 1169.5,1169.5C 1179.5,1169.5 1189.5,1169.5 1199.5,1169.5C 1199.5,1179.5 1199.5,1189.5 1199.5,1199.5C 1189.5,1199.5 1179.5,1199.5 1169.5,1199.5C 1169.5,1209.5 1169.5,1219.5 1169.5,1229.5C 1159.5,1229.5 1149.5,1229.5 1139.5,1229.5C 1139.5,1239.5 1139.5,1249.5 1139.5,1259.5C 1159.5,1259.5 1179.5,1259.5 1199.5,1259.5C 1199.5,1269.5 1199.5,1279.5 1199.5,1289.5C 1209.5,1289.5 1219.5,1289.5 1229.5,1289.5C 1229.5,1299.5 1229.5,1309.5 1229.5,1319.5C 1219.5,1319.5 1209.5,1319.5 1199.5,1319.5C 1199.5,1329.5 1199.5,1339.5 1199.5,1349.5C 1189.5,1349.5 1179.5,1349.5 1169.5,1349.5C 1169.5,1359.5 1169.5,1369.5 1169.5,1379.5C 1119.5,1379.5 1069.5,1379.5 1019.5,1379.5C 1019.5,1369.5 1019.5,1359.5 1019.5,1349.5C 1009.5,1349.5 999.5,1349.5 989.5,1349.5C 989.5,1339.5 989.5,1329.5 989.5,1319.5C 989.5,1309.5 989.5,1299.5 989.5,1289.5C 979.5,1289.5 969.5,1289.5 959.5,1289.5C 929.5,1289.5 899.5,1289.5 869.5,1289.5C 869.5,1279.5 869.5,1269.5 869.5,1259.5C 859.5,1259.5 849.5,1259.5 839.5,1259.5C 839.5,1249.5 839.5,1239.5 839.5,1229.5C 829.5,1229.5 819.5,1229.5 809.5,1229.5C 809.5,1219.5 809.5,1209.5 809.5,1199.5C 799.5,1199.5 789.5,1199.5 779.5,1199.5C 779.5,1189.5 779.5,1179.5 779.5,1169.5C 769.5,1169.5 759.5,1169.5 749.5,1169.5C 749.5,1159.5 749.5,1149.5 749.5,1139.5C 749.5,1129.5 749.5,1119.5 749.5,1109.5C 739.5,1109.5 729.5,1109.5 719.5,1109.5C 719.5,1089.5 719.5,1069.5 719.5,1049.5C 719.5,1029.5 719.5,1009.5 719.5,989.5C 729.5,989.5 739.5,989.5 749.5,989.5C 749.5,969.5 749.5,949.5 749.5,929.5C 759.5,929.5 769.5,929.5 779.5,929.5C 809.5,929.5 839.5,929.5 869.5,929.5C 869.5,919.5 869.5,909.5 869.5,899.5 Z"/></g>
<g><path style="opacity:1" fill="#35363e" d="M 1019.5,899.5 C 1049.5,899.5 1079.5,899.5 1109.5,899.5C 1109.5,909.5 1109.5,919.5 1109.5,929.5C 1079.5,929.5 1049.5,929.5 1019.5,929.5C 1019.5,919.5 1019.5,909.5 1019.5,899.5 Z"/></g>
<g><path style="opacity:1" fill="#e58e21" d="M 1109.5,899.5 C 1129.5,899.5 1149.5,899.5 1169.5,899.5C 1179.5,899.5 1189.5,899.5 1199.5,899.5C 1199.5,919.5 1199.5,939.5 1199.5,959.5C 1189.5,959.5 1179.5,959.5 1169.5,959.5C 1169.5,949.5 1169.5,939.5 1169.5,929.5C 1149.5,929.5 1129.5,929.5 1109.5,929.5C 1109.5,919.5 1109.5,909.5 1109.5,899.5 Z"/></g>
<g><path style="opacity:1" fill="#575863" d="M 1199.5,899.5 C 1229.5,899.5 1259.5,899.5 1289.5,899.5C 1289.5,959.5 1289.5,1019.5 1289.5,1079.5C 1279.5,1079.5 1269.5,1079.5 1259.5,1079.5C 1259.5,1099.5 1259.5,1119.5 1259.5,1139.5C 1249.5,1139.5 1239.5,1139.5 1229.5,1139.5C 1229.5,1149.5 1229.5,1159.5 1229.5,1169.5C 1219.5,1169.5 1209.5,1169.5 1199.5,1169.5C 1189.5,1169.5 1179.5,1169.5 1169.5,1169.5C 1169.5,1139.5 1169.5,1109.5 1169.5,1079.5C 1179.5,1079.5 1189.5,1079.5 1199.5,1079.5C 1209.5,1079.5 1219.5,1079.5 1229.5,1079.5C 1229.5,1069.5 1229.5,1059.5 1229.5,1049.5C 1239.5,1049.5 1249.5,1049.5 1259.5,1049.5C 1259.5,1019.5 1259.5,989.5 1259.5,959.5C 1239.5,959.5 1219.5,959.5 1199.5,959.5C 1199.5,939.5 1199.5,919.5 1199.5,899.5 Z"/></g>
<g><path style="opacity:1" fill="#35363e" d="M 1289.5,899.5 C 1299.5,899.5 1309.5,899.5 1319.5,899.5C 1319.5,969.5 1319.5,1039.5 1319.5,1109.5C 1309.5,1109.5 1299.5,1109.5 1289.5,1109.5C 1289.5,1119.5 1289.5,1129.5 1289.5,1139.5C 1279.5,1139.5 1269.5,1139.5 1259.5,1139.5C 1259.5,1119.5 1259.5,1099.5 1259.5,1079.5C 1269.5,1079.5 1279.5,1079.5 1289.5,1079.5C 1289.5,1019.5 1289.5,959.5 1289.5,899.5 Z"/></g>
<g><path style="opacity:1" fill="#35363e" d="M 689.5,929.5 C 699.5,929.5 709.5,929.5 719.5,929.5C 719.5,949.5 719.5,969.5 719.5,989.5C 719.5,1009.5 719.5,1029.5 719.5,1049.5C 709.5,1049.5 699.5,1049.5 689.5,1049.5C 689.5,1009.5 689.5,969.5 689.5,929.5 Z"/></g>
<g><path style="opacity:1" fill="#e58e21" d="M 719.5,929.5 C 729.5,929.5 739.5,929.5 749.5,929.5C 749.5,949.5 749.5,969.5 749.5,989.5C 739.5,989.5 729.5,989.5 719.5,989.5C 719.5,969.5 719.5,949.5 719.5,929.5 Z"/></g>
<g><path style="opacity:1" fill="#000000" d="M 809.5,959.5 C 819.5,959.5 829.5,959.5 839.5,959.5C 839.5,979.5 839.5,999.5 839.5,1019.5C 829.5,1019.5 819.5,1019.5 809.5,1019.5C 809.5,999.5 809.5,979.5 809.5,959.5 Z"/></g>
<g><path style="opacity:1" fill="#000000" d="M 1049.5,959.5 C 1059.5,959.5 1069.5,959.5 1079.5,959.5C 1079.5,979.5 1079.5,999.5 1079.5,1019.5C 1069.5,1019.5 1059.5,1019.5 1049.5,1019.5C 1049.5,999.5 1049.5,979.5 1049.5,959.5 Z"/></g>
<g><path style="opacity:1" fill="#e58e21" d="M 1229.5,1049.5 C 1229.5,1059.5 1229.5,1069.5 1229.5,1079.5C 1219.5,1079.5 1209.5,1079.5 1199.5,1079.5C 1199.5,1069.5 1199.5,1059.5 1199.5,1049.5C 1189.5,1049.5 1179.5,1049.5 1169.5,1049.5C 1169.5,1039.5 1169.5,1029.5 1169.5,1019.5C 1179.5,1019.5 1189.5,1019.5 1199.5,1019.5C 1199.5,1009.5 1199.5,999.5 1199.5,989.5C 1209.5,989.5 1219.5,989.5 1229.5,989.5C 1229.5,1009.5 1229.5,1029.5 1229.5,1049.5 Z"/></g>
<g><path style="opacity:1" fill="#000000" d="M 869.5,1019.5 C 879.5,1019.5 889.5,1019.5 899.5,1019.5C 899.5,1029.5 899.5,1039.5 899.5,1049.5C 889.5,1049.5 879.5,1049.5 869.5,1049.5C 869.5,1039.5 869.5,1029.5 869.5,1019.5 Z"/></g>
<g><path style="opacity:1" fill="#e58e21" d="M 719.5,1109.5 C 729.5,1109.5 739.5,1109.5 749.5,1109.5C 749.5,1119.5 749.5,1129.5 749.5,1139.5C 739.5,1139.5 729.5,1139.5 719.5,1139.5C 719.5,1129.5 719.5,1119.5 719.5,1109.5 Z"/></g>
<g><path style="opacity:1" fill="#35363e" d="M 1259.5,1139.5 C 1259.5,1149.5 1259.5,1159.5 1259.5,1169.5C 1249.5,1169.5 1239.5,1169.5 1229.5,1169.5C 1229.5,1159.5 1229.5,1149.5 1229.5,1139.5C 1239.5,1139.5 1249.5,1139.5 1259.5,1139.5 Z"/></g>
<g><path style="opacity:1" fill="#e58e21" d="M 749.5,1169.5 C 759.5,1169.5 769.5,1169.5 779.5,1169.5C 779.5,1179.5 779.5,1189.5 779.5,1199.5C 769.5,1199.5 759.5,1199.5 749.5,1199.5C 749.5,1189.5 749.5,1179.5 749.5,1169.5 Z"/></g>
<g><path style="opacity:1" fill="#000000" d="M 869.5,1169.5 C 919.5,1169.5 969.5,1169.5 1019.5,1169.5C 1019.5,1179.5 1019.5,1189.5 1019.5,1199.5C 969.5,1199.5 919.5,1199.5 869.5,1199.5C 869.5,1189.5 869.5,1179.5 869.5,1169.5 Z"/></g>
<g><path style="opacity:1" fill="#35363e" d="M 1199.5,1169.5 C 1209.5,1169.5 1219.5,1169.5 1229.5,1169.5C 1229.5,1179.5 1229.5,1189.5 1229.5,1199.5C 1219.5,1199.5 1209.5,1199.5 1199.5,1199.5C 1199.5,1189.5 1199.5,1179.5 1199.5,1169.5 Z"/></g>
<g><path style="opacity:1" fill="#e58e21" d="M 779.5,1199.5 C 789.5,1199.5 799.5,1199.5 809.5,1199.5C 809.5,1209.5 809.5,1219.5 809.5,1229.5C 799.5,1229.5 789.5,1229.5 779.5,1229.5C 779.5,1219.5 779.5,1209.5 779.5,1199.5 Z"/></g>
<g><path style="opacity:1" fill="#e58e21" d="M 1199.5,1199.5 C 1199.5,1209.5 1199.5,1219.5 1199.5,1229.5C 1209.5,1229.5 1219.5,1229.5 1229.5,1229.5C 1229.5,1249.5 1229.5,1269.5 1229.5,1289.5C 1219.5,1289.5 1209.5,1289.5 1199.5,1289.5C 1199.5,1279.5 1199.5,1269.5 1199.5,1259.5C 1179.5,1259.5 1159.5,1259.5 1139.5,1259.5C 1139.5,1249.5 1139.5,1239.5 1139.5,1229.5C 1149.5,1229.5 1159.5,1229.5 1169.5,1229.5C 1169.5,1219.5 1169.5,1209.5 1169.5,1199.5C 1179.5,1199.5 1189.5,1199.5 1199.5,1199.5 Z"/></g>
<g><path style="opacity:1" fill="#e58e21" d="M 809.5,1229.5 C 819.5,1229.5 829.5,1229.5 839.5,1229.5C 839.5,1239.5 839.5,1249.5 839.5,1259.5C 829.5,1259.5 819.5,1259.5 809.5,1259.5C 809.5,1249.5 809.5,1239.5 809.5,1229.5 Z"/></g>
<g><path style="opacity:1" fill="#601611" d="M 1229.5,1229.5 C 1269.5,1229.5 1309.5,1229.5 1349.5,1229.5C 1349.5,1239.5 1349.5,1249.5 1349.5,1259.5C 1319.5,1259.5 1289.5,1259.5 1259.5,1259.5C 1259.5,1279.5 1259.5,1299.5 1259.5,1319.5C 1249.5,1319.5 1239.5,1319.5 1229.5,1319.5C 1229.5,1309.5 1229.5,1299.5 1229.5,1289.5C 1229.5,1269.5 1229.5,1249.5 1229.5,1229.5 Z"/></g>
<g><path style="opacity:1" fill="#a62219" d="M 1349.5,1259.5 C 1349.5,1269.5 1349.5,1279.5 1349.5,1289.5C 1359.5,1289.5 1369.5,1289.5 1379.5,1289.5C 1379.5,1299.5 1379.5,1309.5 1379.5,1319.5C 1389.5,1319.5 1399.5,1319.5 1409.5,1319.5C 1409.5,1339.5 1409.5,1359.5 1409.5,1379.5C 1399.5,1379.5 1389.5,1379.5 1379.5,1379.5C 1379.5,1389.5 1379.5,1399.5 1379.5,1409.5C 1389.5,1409.5 1399.5,1409.5 1409.5,1409.5C 1409.5,1419.5 1409.5,1429.5 1409.5,1439.5C 1399.5,1439.5 1389.5,1439.5 1379.5,1439.5C 1379.5,1449.5 1379.5,1459.5 1379.5,1469.5C 1369.5,1469.5 1359.5,1469.5 1349.5,1469.5C 1349.5,1479.5 1349.5,1489.5 1349.5,1499.5C 1339.5,1499.5 1329.5,1499.5 1319.5,1499.5C 1319.5,1509.5 1319.5,1519.5 1319.5,1529.5C 1309.5,1529.5 1299.5,1529.5 1289.5,1529.5C 1289.5,1519.5 1289.5,1509.5 1289.5,1499.5C 1279.5,1499.5 1269.5,1499.5 1259.5,1499.5C 1259.5,1509.5 1259.5,1519.5 1259.5,1529.5C 1219.5,1529.5 1179.5,1529.5 1139.5,1529.5C 1139.5,1489.5 1139.5,1449.5 1139.5,1409.5C 1159.5,1409.5 1179.5,1409.5 1199.5,1409.5C 1199.5,1389.5 1199.5,1369.5 1199.5,1349.5C 1209.5,1349.5 1219.5,1349.5 1229.5,1349.5C 1229.5,1339.5 1229.5,1329.5 1229.5,1319.5C 1239.5,1319.5 1249.5,1319.5 1259.5,1319.5C 1259.5,1299.5 1259.5,1279.5 1259.5,1259.5C 1289.5,1259.5 1319.5,1259.5 1349.5,1259.5 Z"/></g>
<g><path style="opacity:1" fill="#601611" d="M 1349.5,1259.5 C 1379.5,1259.5 1409.5,1259.5 1439.5,1259.5C 1439.5,1269.5 1439.5,1279.5 1439.5,1289.5C 1419.5,1289.5 1399.5,1289.5 1379.5,1289.5C 1369.5,1289.5 1359.5,1289.5 1349.5,1289.5C 1349.5,1279.5 1349.5,1269.5 1349.5,1259.5 Z"/></g>
<g><path style="opacity:1" fill="#601611" d="M 869.5,1289.5 C 899.5,1289.5 929.5,1289.5 959.5,1289.5C 969.5,1289.5 979.5,1289.5 989.5,1289.5C 989.5,1299.5 989.5,1309.5 989.5,1319.5C 989.5,1329.5 989.5,1339.5 989.5,1349.5C 969.5,1349.5 949.5,1349.5 929.5,1349.5C 929.5,1339.5 929.5,1329.5 929.5,1319.5C 909.5,1319.5 889.5,1319.5 869.5,1319.5C 869.5,1309.5 869.5,1299.5 869.5,1289.5 Z"/></g>
<g><path style="opacity:1" fill="#e58e21" d="M 959.5,1289.5 C 969.5,1289.5 979.5,1289.5 989.5,1289.5C 989.5,1299.5 989.5,1309.5 989.5,1319.5C 979.5,1319.5 969.5,1319.5 959.5,1319.5C 959.5,1309.5 959.5,1299.5 959.5,1289.5 Z"/></g>
<g><path style="opacity:1" fill="#761711" d="M 1379.5,1289.5 C 1399.5,1289.5 1419.5,1289.5 1439.5,1289.5C 1439.5,1299.5 1439.5,1309.5 1439.5,1319.5C 1449.5,1319.5 1459.5,1319.5 1469.5,1319.5C 1469.5,1329.5 1469.5,1339.5 1469.5,1349.5C 1479.5,1349.5 1489.5,1349.5 1499.5,1349.5C 1499.5,1359.5 1499.5,1369.5 1499.5,1379.5C 1509.5,1379.5 1519.5,1379.5 1529.5,1379.5C 1529.5,1389.5 1529.5,1399.5 1529.5,1409.5C 1509.5,1409.5 1489.5,1409.5 1469.5,1409.5C 1469.5,1419.5 1469.5,1429.5 1469.5,1439.5C 1459.5,1439.5 1449.5,1439.5 1439.5,1439.5C 1439.5,1449.5 1439.5,1459.5 1439.5,1469.5C 1429.5,1469.5 1419.5,1469.5 1409.5,1469.5C 1409.5,1479.5 1409.5,1489.5 1409.5,1499.5C 1399.5,1499.5 1389.5,1499.5 1379.5,1499.5C 1379.5,1509.5 1379.5,1519.5 1379.5,1529.5C 1369.5,1529.5 1359.5,1529.5 1349.5,1529.5C 1349.5,1539.5 1349.5,1549.5 1349.5,1559.5C 1329.5,1559.5 1309.5,1559.5 1289.5,1559.5C 1289.5,1549.5 1289.5,1539.5 1289.5,1529.5C 1299.5,1529.5 1309.5,1529.5 1319.5,1529.5C 1319.5,1519.5 1319.5,1509.5 1319.5,1499.5C 1329.5,1499.5 1339.5,1499.5 1349.5,1499.5C 1349.5,1489.5 1349.5,1479.5 1349.5,1469.5C 1359.5,1469.5 1369.5,1469.5 1379.5,1469.5C 1379.5,1459.5 1379.5,1449.5 1379.5,1439.5C 1389.5,1439.5 1399.5,1439.5 1409.5,1439.5C 1409.5,1429.5 1409.5,1419.5 1409.5,1409.5C 1419.5,1409.5 1429.5,1409.5 1439.5,1409.5C 1439.5,1399.5 1439.5,1389.5 1439.5,1379.5C 1429.5,1379.5 1419.5,1379.5 1409.5,1379.5C 1409.5,1359.5 1409.5,1339.5 1409.5,1319.5C 1399.5,1319.5 1389.5,1319.5 1379.5,1319.5C 1379.5,1309.5 1379.5,1299.5 1379.5,1289.5 Z"/></g>
<g><path style="opacity:1" fill="#601611" d="M 1439.5,1289.5 C 1449.5,1289.5 1459.5,1289.5 1469.5,1289.5C 1469.5,1299.5 1469.5,1309.5 1469.5,1319.5C 1469.5,1309.5 1469.5,1299.5 1469.5,1289.5C 1459.5,1289.5 1449.5,1289.5 1439.5,1289.5 Z"/></g>
<g><path style="opacity:1" fill="#601611" d="M 869.5,1319.5 C 869.5,1329.5 869.5,1339.5 869.5,1349.5C 849.5,1349.5 829.5,1349.5 809.5,1349.5C 809.5,1339.5 809.5,1329.5 809.5,1319.5C 829.5,1319.5 849.5,1319.5 869.5,1319.5 Z"/></g>
<g><path style="opacity:1" fill="#a62219" d="M 869.5,1319.5 C 889.5,1319.5 909.5,1319.5 929.5,1319.5C 929.5,1329.5 929.5,1339.5 929.5,1349.5C 949.5,1349.5 969.5,1349.5 989.5,1349.5C 989.5,1369.5 989.5,1389.5 989.5,1409.5C 1009.5,1409.5 1029.5,1409.5 1049.5,1409.5C 1049.5,1459.5 1049.5,1509.5 1049.5,1559.5C 1039.5,1559.5 1029.5,1559.5 1019.5,1559.5C 1019.5,1549.5 1019.5,1539.5 1019.5,1529.5C 999.5,1529.5 979.5,1529.5 959.5,1529.5C 959.5,1539.5 959.5,1549.5 959.5,1559.5C 929.5,1559.5 899.5,1559.5 869.5,1559.5C 869.5,1539.5 869.5,1519.5 869.5,1499.5C 859.5,1499.5 849.5,1499.5 839.5,1499.5C 839.5,1479.5 839.5,1459.5 839.5,1439.5C 829.5,1439.5 819.5,1439.5 809.5,1439.5C 809.5,1429.5 809.5,1419.5 809.5,1409.5C 799.5,1409.5 789.5,1409.5 779.5,1409.5C 779.5,1399.5 779.5,1389.5 779.5,1379.5C 789.5,1379.5 799.5,1379.5 809.5,1379.5C 809.5,1369.5 809.5,1359.5 809.5,1349.5C 829.5,1349.5 849.5,1349.5 869.5,1349.5C 869.5,1339.5 869.5,1329.5 869.5,1319.5 Z"/></g>
<g><path style="opacity:1" fill="#601611" d="M 1229.5,1319.5 C 1229.5,1329.5 1229.5,1339.5 1229.5,1349.5C 1219.5,1349.5 1209.5,1349.5 1199.5,1349.5C 1199.5,1339.5 1199.5,1329.5 1199.5,1319.5C 1209.5,1319.5 1219.5,1319.5 1229.5,1319.5 Z"/></g>
<g><path style="opacity:1" fill="#601611" d="M 1469.5,1319.5 C 1479.5,1319.5 1489.5,1319.5 1499.5,1319.5C 1499.5,1329.5 1499.5,1339.5 1499.5,1349.5C 1499.5,1339.5 1499.5,1329.5 1499.5,1319.5C 1489.5,1319.5 1479.5,1319.5 1469.5,1319.5 Z"/></g>
<g><path style="opacity:1" fill="#601611" d="M 809.5,1349.5 C 809.5,1359.5 809.5,1369.5 809.5,1379.5C 799.5,1379.5 789.5,1379.5 779.5,1379.5C 779.5,1389.5 779.5,1399.5 779.5,1409.5C 779.5,1419.5 779.5,1429.5 779.5,1439.5C 769.5,1439.5 759.5,1439.5 749.5,1439.5C 749.5,1429.5 749.5,1419.5 749.5,1409.5C 749.5,1389.5 749.5,1369.5 749.5,1349.5C 769.5,1349.5 789.5,1349.5 809.5,1349.5 Z"/></g>
<g><path style="opacity:1" fill="#601611" d="M 989.5,1349.5 C 999.5,1349.5 1009.5,1349.5 1019.5,1349.5C 1019.5,1359.5 1019.5,1369.5 1019.5,1379.5C 1069.5,1379.5 1119.5,1379.5 1169.5,1379.5C 1169.5,1369.5 1169.5,1359.5 1169.5,1349.5C 1179.5,1349.5 1189.5,1349.5 1199.5,1349.5C 1199.5,1369.5 1199.5,1389.5 1199.5,1409.5C 1179.5,1409.5 1159.5,1409.5 1139.5,1409.5C 1129.5,1409.5 1119.5,1409.5 1109.5,1409.5C 1099.5,1409.5 1089.5,1409.5 1079.5,1409.5C 1069.5,1409.5 1059.5,1409.5 1049.5,1409.5C 1029.5,1409.5 1009.5,1409.5 989.5,1409.5C 989.5,1389.5 989.5,1369.5 989.5,1349.5 Z"/></g>
<g><path style="opacity:1" fill="#601611" d="M 1499.5,1349.5 C 1509.5,1349.5 1519.5,1349.5 1529.5,1349.5C 1529.5,1359.5 1529.5,1369.5 1529.5,1379.5C 1529.5,1369.5 1529.5,1359.5 1529.5,1349.5C 1519.5,1349.5 1509.5,1349.5 1499.5,1349.5 Z"/></g>
<g><path style="opacity:1" fill="#761711" d="M 1409.5,1379.5 C 1409.5,1389.5 1409.5,1399.5 1409.5,1409.5C 1399.5,1409.5 1389.5,1409.5 1379.5,1409.5C 1379.5,1399.5 1379.5,1389.5 1379.5,1379.5C 1389.5,1379.5 1399.5,1379.5 1409.5,1379.5 Z"/></g>
<g><path style="opacity:1" fill="#a62219" d="M 1409.5,1379.5 C 1419.5,1379.5 1429.5,1379.5 1439.5,1379.5C 1439.5,1389.5 1439.5,1399.5 1439.5,1409.5C 1429.5,1409.5 1419.5,1409.5 1409.5,1409.5C 1409.5,1399.5 1409.5,1389.5 1409.5,1379.5 Z"/></g>
<g><path style="opacity:1" fill="#601611" d="M 1529.5,1379.5 C 1539.5,1379.5 1549.5,1379.5 1559.5,1379.5C 1559.5,1389.5 1559.5,1399.5 1559.5,1409.5C 1569.5,1409.5 1579.5,1409.5 1589.5,1409.5C 1589.5,1419.5 1589.5,1429.5 1589.5,1439.5C 1579.5,1439.5 1569.5,1439.5 1559.5,1439.5C 1529.5,1439.5 1499.5,1439.5 1469.5,1439.5C 1469.5,1429.5 1469.5,1419.5 1469.5,1409.5C 1489.5,1409.5 1509.5,1409.5 1529.5,1409.5C 1529.5,1399.5 1529.5,1389.5 1529.5,1379.5 Z"/></g>
<g><path style="opacity:1" fill="#312f26" d="M 749.5,1409.5 C 749.5,1419.5 749.5,1429.5 749.5,1439.5C 749.5,1479.5 749.5,1519.5 749.5,1559.5C 739.5,1559.5 729.5,1559.5 719.5,1559.5C 719.5,1509.5 719.5,1459.5 719.5,1409.5C 729.5,1409.5 739.5,1409.5 749.5,1409.5 Z"/></g>
<g><path style="opacity:1" fill="#761711" d="M 779.5,1409.5 C 789.5,1409.5 799.5,1409.5 809.5,1409.5C 809.5,1419.5 809.5,1429.5 809.5,1439.5C 799.5,1439.5 789.5,1439.5 779.5,1439.5C 779.5,1429.5 779.5,1419.5 779.5,1409.5 Z"/></g>
<g><path style="opacity:1" fill="#000000" d="M 1049.5,1409.5 C 1059.5,1409.5 1069.5,1409.5 1079.5,1409.5C 1079.5,1449.5 1079.5,1489.5 1079.5,1529.5C 1079.5,1539.5 1079.5,1549.5 1079.5,1559.5C 1069.5,1559.5 1059.5,1559.5 1049.5,1559.5C 1049.5,1509.5 1049.5,1459.5 1049.5,1409.5 Z"/></g>
<g><path style="opacity:1" fill="#a62219" d="M 1079.5,1409.5 C 1089.5,1409.5 1099.5,1409.5 1109.5,1409.5C 1109.5,1449.5 1109.5,1489.5 1109.5,1529.5C 1099.5,1529.5 1089.5,1529.5 1079.5,1529.5C 1079.5,1489.5 1079.5,1449.5 1079.5,1409.5 Z"/></g>
<g><path style="opacity:1" fill="#000000" d="M 1109.5,1409.5 C 1119.5,1409.5 1129.5,1409.5 1139.5,1409.5C 1139.5,1449.5 1139.5,1489.5 1139.5,1529.5C 1139.5,1539.5 1139.5,1549.5 1139.5,1559.5C 1129.5,1559.5 1119.5,1559.5 1109.5,1559.5C 1109.5,1549.5 1109.5,1539.5 1109.5,1529.5C 1109.5,1489.5 1109.5,1449.5 1109.5,1409.5 Z"/></g>
<g><path style="opacity:1" fill="#898470" d="M 749.5,1439.5 C 759.5,1439.5 769.5,1439.5 779.5,1439.5C 779.5,1479.5 779.5,1519.5 779.5,1559.5C 769.5,1559.5 759.5,1559.5 749.5,1559.5C 749.5,1519.5 749.5,1479.5 749.5,1439.5 Z"/></g>
<g><path style="opacity:1" fill="#601611" d="M 779.5,1439.5 C 789.5,1439.5 799.5,1439.5 809.5,1439.5C 809.5,1479.5 809.5,1519.5 809.5,1559.5C 799.5,1559.5 789.5,1559.5 779.5,1559.5C 779.5,1519.5 779.5,1479.5 779.5,1439.5 Z"/></g>
<g><path style="opacity:1" fill="#761711" d="M 809.5,1439.5 C 819.5,1439.5 829.5,1439.5 839.5,1439.5C 839.5,1459.5 839.5,1479.5 839.5,1499.5C 849.5,1499.5 859.5,1499.5 869.5,1499.5C 869.5,1519.5 869.5,1539.5 869.5,1559.5C 849.5,1559.5 829.5,1559.5 809.5,1559.5C 809.5,1519.5 809.5,1479.5 809.5,1439.5 Z"/></g>
<g><path style="opacity:1" fill="#601611" d="M 1469.5,1439.5 C 1469.5,1449.5 1469.5,1459.5 1469.5,1469.5C 1459.5,1469.5 1449.5,1469.5 1439.5,1469.5C 1439.5,1459.5 1439.5,1449.5 1439.5,1439.5C 1449.5,1439.5 1459.5,1439.5 1469.5,1439.5 Z"/></g>
<g><path style="opacity:1" fill="#565344" d="M 1469.5,1439.5 C 1499.5,1439.5 1529.5,1439.5 1559.5,1439.5C 1559.5,1449.5 1559.5,1459.5 1559.5,1469.5C 1539.5,1469.5 1519.5,1469.5 1499.5,1469.5C 1499.5,1479.5 1499.5,1489.5 1499.5,1499.5C 1489.5,1499.5 1479.5,1499.5 1469.5,1499.5C 1469.5,1509.5 1469.5,1519.5 1469.5,1529.5C 1449.5,1529.5 1429.5,1529.5 1409.5,1529.5C 1409.5,1519.5 1409.5,1509.5 1409.5,1499.5C 1419.5,1499.5 1429.5,1499.5 1439.5,1499.5C 1439.5,1489.5 1439.5,1479.5 1439.5,1469.5C 1449.5,1469.5 1459.5,1469.5 1469.5,1469.5C 1469.5,1459.5 1469.5,1449.5 1469.5,1439.5 Z"/></g>
<g><path style="opacity:1" fill="#312f26" d="M 1559.5,1439.5 C 1569.5,1439.5 1579.5,1439.5 1589.5,1439.5C 1599.5,1439.5 1609.5,1439.5 1619.5,1439.5C 1619.5,1479.5 1619.5,1519.5 1619.5,1559.5C 1609.5,1559.5 1599.5,1559.5 1589.5,1559.5C 1589.5,1529.5 1589.5,1499.5 1589.5,1469.5C 1579.5,1469.5 1569.5,1469.5 1559.5,1469.5C 1559.5,1459.5 1559.5,1449.5 1559.5,1439.5 Z"/></g>
<g><path style="opacity:1" fill="#601611" d="M 1439.5,1469.5 C 1439.5,1479.5 1439.5,1489.5 1439.5,1499.5C 1429.5,1499.5 1419.5,1499.5 1409.5,1499.5C 1409.5,1489.5 1409.5,1479.5 1409.5,1469.5C 1419.5,1469.5 1429.5,1469.5 1439.5,1469.5 Z"/></g>
<g><path style="opacity:1" fill="#898470" d="M 1559.5,1469.5 C 1569.5,1469.5 1579.5,1469.5 1589.5,1469.5C 1589.5,1499.5 1589.5,1529.5 1589.5,1559.5C 1529.5,1559.5 1469.5,1559.5 1409.5,1559.5C 1409.5,1549.5 1409.5,1539.5 1409.5,1529.5C 1429.5,1529.5 1449.5,1529.5 1469.5,1529.5C 1469.5,1519.5 1469.5,1509.5 1469.5,1499.5C 1479.5,1499.5 1489.5,1499.5 1499.5,1499.5C 1499.5,1489.5 1499.5,1479.5 1499.5,1469.5C 1519.5,1469.5 1539.5,1469.5 1559.5,1469.5 Z"/></g>
<g><path style="opacity:1" fill="#761711" d="M 1289.5,1529.5 C 1279.5,1529.5 1269.5,1529.5 1259.5,1529.5C 1259.5,1519.5 1259.5,1509.5 1259.5,1499.5C 1269.5,1499.5 1279.5,1499.5 1289.5,1499.5C 1289.5,1509.5 1289.5,1519.5 1289.5,1529.5 Z"/></g>
<g><path style="opacity:1" fill="#601611" d="M 1409.5,1499.5 C 1409.5,1509.5 1409.5,1519.5 1409.5,1529.5C 1399.5,1529.5 1389.5,1529.5 1379.5,1529.5C 1379.5,1519.5 1379.5,1509.5 1379.5,1499.5C 1389.5,1499.5 1399.5,1499.5 1409.5,1499.5 Z"/></g>
<g><path style="opacity:1" fill="#761711" d="M 1019.5,1559.5 C 999.5,1559.5 979.5,1559.5 959.5,1559.5C 959.5,1549.5 959.5,1539.5 959.5,1529.5C 979.5,1529.5 999.5,1529.5 1019.5,1529.5C 1019.5,1539.5 1019.5,1549.5 1019.5,1559.5 Z"/></g>
<g><path style="opacity:1" fill="#761711" d="M 1079.5,1529.5 C 1089.5,1529.5 1099.5,1529.5 1109.5,1529.5C 1109.5,1539.5 1109.5,1549.5 1109.5,1559.5C 1099.5,1559.5 1089.5,1559.5 1079.5,1559.5C 1079.5,1549.5 1079.5,1539.5 1079.5,1529.5 Z"/></g>
<g><path style="opacity:1" fill="#761711" d="M 1139.5,1529.5 C 1179.5,1529.5 1219.5,1529.5 1259.5,1529.5C 1259.5,1539.5 1259.5,1549.5 1259.5,1559.5C 1219.5,1559.5 1179.5,1559.5 1139.5,1559.5C 1139.5,1549.5 1139.5,1539.5 1139.5,1529.5 Z"/></g>
<g><path style="opacity:1" fill="#a62219" d="M 1259.5,1529.5 C 1269.5,1529.5 1279.5,1529.5 1289.5,1529.5C 1289.5,1539.5 1289.5,1549.5 1289.5,1559.5C 1279.5,1559.5 1269.5,1559.5 1259.5,1559.5C 1259.5,1549.5 1259.5,1539.5 1259.5,1529.5 Z"/></g>
<g><path style="opacity:1" fill="#601611" d="M 1379.5,1529.5 C 1379.5,1539.5 1379.5,1549.5 1379.5,1559.5C 1369.5,1559.5 1359.5,1559.5 1349.5,1559.5C 1349.5,1549.5 1349.5,1539.5 1349.5,1529.5C 1359.5,1529.5 1369.5,1529.5 1379.5,1529.5 Z"/></g>
<g><path style="opacity:1" fill="#565344" d="M 1379.5,1529.5 C 1389.5,1529.5 1399.5,1529.5 1409.5,1529.5C 1409.5,1539.5 1409.5,1549.5 1409.5,1559.5C 1399.5,1559.5 1389.5,1559.5 1379.5,1559.5C 1379.5,1549.5 1379.5,1539.5 1379.5,1529.5 Z"/></g>
</svg>
