<?xml version="1.0" encoding="UTF-8"?>
<!DOCTYPE svg PUBLIC "-//W3C//DTD SVG 1.1//EN" "http://www.w3.org/Graphics/SVG/1.1/DTD/svg11.dtd">
<svg xmlns="http://www.w3.org/2000/svg" version="1.1" width="1290px" height="1290px" style="shape-rendering:geometricPrecision; text-rendering:geometricPrecision; image-rendering:optimizeQuality; fill-rule:evenodd; clip-rule:evenodd" xmlns:xlink="http://www.w3.org/1999/xlink">
<g><path style="opacity:1" fill="#fe9e1f" d="M 929.5,779.5 C 919.5,779.5 909.5,779.5 899.5,779.5C 899.5,769.5 899.5,759.5 899.5,749.5C 889.5,749.5 879.5,749.5 869.5,749.5C 869.5,729.5 869.5,709.5 869.5,689.5C 859.5,689.5 849.5,689.5 839.5,689.5C 839.5,679.5 839.5,669.5 839.5,659.5C 829.5,659.5 819.5,659.5 809.5,659.5C 809.5,649.5 809.5,639.5 809.5,629.5C 799.5,629.5 789.5,629.5 779.5,629.5C 779.5,619.5 779.5,609.5 779.5,599.5C 769.5,599.5 759.5,599.5 749.5,599.5C 749.5,589.5 749.5,579.5 749.5,569.5C 719.5,569.5 689.5,569.5 659.5,569.5C 659.5,559.5 659.5,549.5 659.5,539.5C 649.5,539.5 639.5,539.5 629.5,539.5C 629.5,549.5 629.5,559.5 629.5,569.5C 609.5,569.5 589.5,569.5 569.5,569.5C 539.5,569.5 509.5,569.5 479.5,569.5C 479.5,559.5 479.5,549.5 479.5,539.5C 519.5,539.5 559.5,539.5 599.5,539.5C 599.5,529.5 599.5,519.5 599.5,509.5C 629.5,509.5 659.5,509.5 689.5,509.5C 689.5,519.5 689.5,529.5 689.5,539.5C 719.5,539.5 749.5,539.5 779.5,539.5C 779.5,549.5 779.5,559.5 779.5,569.5C 789.5,569.5 799.5,569.5 809.5,569.5C 809.5,579.5 809.5,589.5 809.5,599.5C 819.5,599.5 829.5,599.5 839.5,599.5C 839.5,609.5 839.5,619.5 839.5,629.5C 849.5,629.5 859.5,629.5 869.5,629.5C 869.5,639.5 869.5,649.5 869.5,659.5C 879.5,659.5 889.5,659.5 899.5,659.5C 899.5,679.5 899.5,699.5 899.5,719.5C 909.5,719.5 919.5,719.5 929.5,719.5C 929.5,739.5 929.5,759.5 929.5,779.5 Z"/></g>
<g><path style="opacity:1" fill="#febb00" d="M 899.5,779.5 C 899.5,789.5 899.5,799.5 899.5,809.5C 889.5,809.5 879.5,809.5 869.5,809.5C 869.5,819.5 869.5,829.5 869.5,839.5C 859.5,839.5 849.5,839.5 839.5,839.5C 839.5,849.5 839.5,859.5 839.5,869.5C 829.5,869.5 819.5,869.5 809.5,869.5C 809.5,879.5 809.5,889.5 809.5,899.5C 789.5,899.5 769.5,899.5 749.5,899.5C 749.5,909.5 749.5,919.5 749.5,929.5C 729.5,929.5 709.5,929.5 689.5,929.5C 689.5,939.5 689.5,949.5 689.5,959.5C 669.5,959.5 649.5,959.5 629.5,959.5C 629.5,969.5 629.5,979.5 629.5,989.5C 599.5,989.5 569.5,989.5 539.5,989.5C 539.5,979.5 539.5,969.5 539.5,959.5C 529.5,959.5 519.5,959.5 509.5,959.5C 509.5,939.5 509.5,919.5 509.5,899.5C 499.5,899.5 489.5,899.5 479.5,899.5C 479.5,919.5 479.5,939.5 479.5,959.5C 469.5,959.5 459.5,959.5 449.5,959.5C 449.5,979.5 449.5,999.5 449.5,1019.5C 429.5,1019.5 409.5,1019.5 389.5,1019.5C 389.5,1009.5 389.5,999.5 389.5,989.5C 379.5,989.5 369.5,989.5 359.5,989.5C 359.5,969.5 359.5,949.5 359.5,929.5C 349.5,929.5 339.5,929.5 329.5,929.5C 329.5,899.5 329.5,869.5 329.5,839.5C 339.5,839.5 349.5,839.5 359.5,839.5C 359.5,809.5 359.5,779.5 359.5,749.5C 359.5,729.5 359.5,709.5 359.5,689.5C 369.5,689.5 379.5,689.5 389.5,689.5C 399.5,689.5 409.5,689.5 419.5,689.5C 419.5,679.5 419.5,669.5 419.5,659.5C 429.5,659.5 439.5,659.5 449.5,659.5C 449.5,649.5 449.5,639.5 449.5,629.5C 469.5,629.5 489.5,629.5 509.5,629.5C 509.5,619.5 509.5,609.5 509.5,599.5C 529.5,599.5 549.5,599.5 569.5,599.5C 569.5,589.5 569.5,579.5 569.5,569.5C 589.5,569.5 609.5,569.5 629.5,569.5C 629.5,559.5 629.5,549.5 629.5,539.5C 639.5,539.5 649.5,539.5 659.5,539.5C 659.5,549.5 659.5,559.5 659.5,569.5C 689.5,569.5 719.5,569.5 749.5,569.5C 749.5,579.5 749.5,589.5 749.5,599.5C 759.5,599.5 769.5,599.5 779.5,599.5C 779.5,609.5 779.5,619.5 779.5,629.5C 789.5,629.5 799.5,629.5 809.5,629.5C 809.5,639.5 809.5,649.5 809.5,659.5C 819.5,659.5 829.5,659.5 839.5,659.5C 839.5,669.5 839.5,679.5 839.5,689.5C 849.5,689.5 859.5,689.5 869.5,689.5C 869.5,709.5 869.5,729.5 869.5,749.5C 879.5,749.5 889.5,749.5 899.5,749.5C 899.5,759.5 899.5,769.5 899.5,779.5 Z"/></g>
<g><path style="opacity:1" fill="#fe9e1f" d="M 479.5,569.5 C 479.5,579.5 479.5,589.5 479.5,599.5C 459.5,599.5 439.5,599.5 419.5,599.5C 419.5,589.5 419.5,579.5 419.5,569.5C 439.5,569.5 459.5,569.5 479.5,569.5 Z"/></g>
<g><path style="opacity:1" fill="#fbd152" d="M 479.5,569.5 C 509.5,569.5 539.5,569.5 569.5,569.5C 569.5,579.5 569.5,589.5 569.5,599.5C 549.5,599.5 529.5,599.5 509.5,599.5C 509.5,609.5 509.5,619.5 509.5,629.5C 489.5,629.5 469.5,629.5 449.5,629.5C 449.5,639.5 449.5,649.5 449.5,659.5C 439.5,659.5 429.5,659.5 419.5,659.5C 419.5,669.5 419.5,679.5 419.5,689.5C 409.5,689.5 399.5,689.5 389.5,689.5C 389.5,669.5 389.5,649.5 389.5,629.5C 399.5,629.5 409.5,629.5 419.5,629.5C 419.5,619.5 419.5,609.5 419.5,599.5C 439.5,599.5 459.5,599.5 479.5,599.5C 479.5,589.5 479.5,579.5 479.5,569.5 Z"/></g>
<g><path style="opacity:1" fill="#fe9e1f" d="M 419.5,599.5 C 419.5,609.5 419.5,619.5 419.5,629.5C 409.5,629.5 399.5,629.5 389.5,629.5C 389.5,649.5 389.5,669.5 389.5,689.5C 379.5,689.5 369.5,689.5 359.5,689.5C 359.5,709.5 359.5,729.5 359.5,749.5C 349.5,749.5 339.5,749.5 329.5,749.5C 329.5,779.5 329.5,809.5 329.5,839.5C 319.5,839.5 309.5,839.5 299.5,839.5C 299.5,849.5 299.5,859.5 299.5,869.5C 289.5,869.5 279.5,869.5 269.5,869.5C 269.5,849.5 269.5,829.5 269.5,809.5C 279.5,809.5 289.5,809.5 299.5,809.5C 299.5,779.5 299.5,749.5 299.5,719.5C 309.5,719.5 319.5,719.5 329.5,719.5C 329.5,699.5 329.5,679.5 329.5,659.5C 339.5,659.5 349.5,659.5 359.5,659.5C 359.5,639.5 359.5,619.5 359.5,599.5C 379.5,599.5 399.5,599.5 419.5,599.5 Z"/></g>
<g><path style="opacity:1" fill="#000000" d="M 569.5,689.5 C 579.5,689.5 589.5,689.5 599.5,689.5C 599.5,709.5 599.5,729.5 599.5,749.5C 589.5,749.5 579.5,749.5 569.5,749.5C 569.5,729.5 569.5,709.5 569.5,689.5 Z"/></g>
<g><path style="opacity:1" fill="#000000" d="M 779.5,689.5 C 789.5,689.5 799.5,689.5 809.5,689.5C 809.5,709.5 809.5,729.5 809.5,749.5C 799.5,749.5 789.5,749.5 779.5,749.5C 779.5,729.5 779.5,709.5 779.5,689.5 Z"/></g>
<g><path style="opacity:1" fill="#f09c2f" d="M 359.5,749.5 C 359.5,779.5 359.5,809.5 359.5,839.5C 349.5,839.5 339.5,839.5 329.5,839.5C 329.5,809.5 329.5,779.5 329.5,749.5C 339.5,749.5 349.5,749.5 359.5,749.5 Z"/></g>
<g><path style="opacity:1" fill="#ee692e" d="M 779.5,809.5 C 739.5,809.5 699.5,809.5 659.5,809.5C 649.5,809.5 639.5,809.5 629.5,809.5C 629.5,799.5 629.5,789.5 629.5,779.5C 679.5,779.5 729.5,779.5 779.5,779.5C 779.5,789.5 779.5,799.5 779.5,809.5 Z"/></g>
<g><path style="opacity:1" fill="#821b14" d="M 899.5,779.5 C 909.5,779.5 919.5,779.5 929.5,779.5C 939.5,779.5 949.5,779.5 959.5,779.5C 959.5,799.5 959.5,819.5 959.5,839.5C 949.5,839.5 939.5,839.5 929.5,839.5C 929.5,829.5 929.5,819.5 929.5,809.5C 919.5,809.5 909.5,809.5 899.5,809.5C 899.5,799.5 899.5,789.5 899.5,779.5 Z"/></g>
<g><path style="opacity:1" fill="#c84015" d="M 629.5,809.5 C 639.5,809.5 649.5,809.5 659.5,809.5C 659.5,819.5 659.5,829.5 659.5,839.5C 699.5,839.5 739.5,839.5 779.5,839.5C 789.5,839.5 799.5,839.5 809.5,839.5C 809.5,849.5 809.5,859.5 809.5,869.5C 739.5,869.5 669.5,869.5 599.5,869.5C 599.5,849.5 599.5,829.5 599.5,809.5C 609.5,809.5 619.5,809.5 629.5,809.5 Z"/></g>
<g><path style="opacity:1" fill="#e58e21" d="M 659.5,809.5 C 699.5,809.5 739.5,809.5 779.5,809.5C 779.5,819.5 779.5,829.5 779.5,839.5C 739.5,839.5 699.5,839.5 659.5,839.5C 659.5,829.5 659.5,819.5 659.5,809.5 Z"/></g>
<g><path style="opacity:1" fill="#ee692e" d="M 779.5,809.5 C 789.5,809.5 799.5,809.5 809.5,809.5C 809.5,819.5 809.5,829.5 809.5,839.5C 799.5,839.5 789.5,839.5 779.5,839.5C 779.5,829.5 779.5,819.5 779.5,809.5 Z"/></g>
<g><path style="opacity:1" fill="#821b14" d="M 899.5,809.5 C 899.5,819.5 899.5,829.5 899.5,839.5C 889.5,839.5 879.5,839.5 869.5,839.5C 869.5,829.5 869.5,819.5 869.5,809.5C 879.5,809.5 889.5,809.5 899.5,809.5 Z"/></g>
<g><path style="opacity:1" fill="#a2342d" d="M 899.5,809.5 C 909.5,809.5 919.5,809.5 929.5,809.5C 929.5,819.5 929.5,829.5 929.5,839.5C 919.5,839.5 909.5,839.5 899.5,839.5C 899.5,829.5 899.5,819.5 899.5,809.5 Z"/></g>
<g><path style="opacity:1" fill="#f09c2f" d="M 329.5,839.5 C 329.5,869.5 329.5,899.5 329.5,929.5C 319.5,929.5 309.5,929.5 299.5,929.5C 299.5,909.5 299.5,889.5 299.5,869.5C 299.5,859.5 299.5,849.5 299.5,839.5C 309.5,839.5 319.5,839.5 329.5,839.5 Z"/></g>
<g><path style="opacity:1" fill="#821b14" d="M 869.5,839.5 C 869.5,849.5 869.5,859.5 869.5,869.5C 859.5,869.5 849.5,869.5 839.5,869.5C 839.5,859.5 839.5,849.5 839.5,839.5C 849.5,839.5 859.5,839.5 869.5,839.5 Z"/></g>
<g><path style="opacity:1" fill="#d32c20" d="M 869.5,839.5 C 879.5,839.5 889.5,839.5 899.5,839.5C 899.5,849.5 899.5,859.5 899.5,869.5C 889.5,869.5 879.5,869.5 869.5,869.5C 869.5,859.5 869.5,849.5 869.5,839.5 Z"/></g>
<g><path style="opacity:1" fill="#821b14" d="M 899.5,839.5 C 909.5,839.5 919.5,839.5 929.5,839.5C 929.5,849.5 929.5,859.5 929.5,869.5C 919.5,869.5 909.5,869.5 899.5,869.5C 899.5,859.5 899.5,849.5 899.5,839.5 Z"/></g>
<g><path style="opacity:1" fill="#db7524" d="M 269.5,869.5 C 279.5,869.5 289.5,869.5 299.5,869.5C 299.5,889.5 299.5,909.5 299.5,929.5C 309.5,929.5 319.5,929.5 329.5,929.5C 339.5,929.5 349.5,929.5 359.5,929.5C 359.5,949.5 359.5,969.5 359.5,989.5C 369.5,989.5 379.5,989.5 389.5,989.5C 389.5,999.5 389.5,1009.5 389.5,1019.5C 369.5,1019.5 349.5,1019.5 329.5,1019.5C 329.5,1009.5 329.5,999.5 329.5,989.5C 329.5,979.5 329.5,969.5 329.5,959.5C 309.5,959.5 289.5,959.5 269.5,959.5C 269.5,949.5 269.5,939.5 269.5,929.5C 269.5,909.5 269.5,889.5 269.5,869.5 Z"/></g>
<g><path style="opacity:1" fill="#a2342d" d="M 809.5,869.5 C 819.5,869.5 829.5,869.5 839.5,869.5C 839.5,879.5 839.5,889.5 839.5,899.5C 829.5,899.5 819.5,899.5 809.5,899.5C 809.5,889.5 809.5,879.5 809.5,869.5 Z"/></g>
<g><path style="opacity:1" fill="#d32c20" d="M 839.5,869.5 C 849.5,869.5 859.5,869.5 869.5,869.5C 869.5,879.5 869.5,889.5 869.5,899.5C 859.5,899.5 849.5,899.5 839.5,899.5C 839.5,889.5 839.5,879.5 839.5,869.5 Z"/></g>
<g><path style="opacity:1" fill="#821b14" d="M 869.5,869.5 C 879.5,869.5 889.5,869.5 899.5,869.5C 899.5,879.5 899.5,889.5 899.5,899.5C 889.5,899.5 879.5,899.5 869.5,899.5C 869.5,889.5 869.5,879.5 869.5,869.5 Z"/></g>
<g><path style="opacity:1" fill="#e99628" d="M 899.5,869.5 C 909.5,869.5 919.5,869.5 929.5,869.5C 929.5,889.5 929.5,909.5 929.5,929.5C 919.5,929.5 909.5,929.5 899.5,929.5C 899.5,919.5 899.5,909.5 899.5,899.5C 899.5,889.5 899.5,879.5 899.5,869.5 Z"/></g>
<g><path style="opacity:1" fill="#db7524" d="M 509.5,959.5 C 509.5,969.5 509.5,979.5 509.5,989.5C 499.5,989.5 489.5,989.5 479.5,989.5C 479.5,1009.5 479.5,1029.5 479.5,1049.5C 469.5,1049.5 459.5,1049.5 449.5,1049.5C 429.5,1049.5 409.5,1049.5 389.5,1049.5C 389.5,1039.5 389.5,1029.5 389.5,1019.5C 409.5,1019.5 429.5,1019.5 449.5,1019.5C 449.5,999.5 449.5,979.5 449.5,959.5C 459.5,959.5 469.5,959.5 479.5,959.5C 479.5,939.5 479.5,919.5 479.5,899.5C 489.5,899.5 499.5,899.5 509.5,899.5C 509.5,919.5 509.5,939.5 509.5,959.5 Z"/></g>
<g><path style="opacity:1" fill="#a2342d" d="M 809.5,899.5 C 809.5,909.5 809.5,919.5 809.5,929.5C 789.5,929.5 769.5,929.5 749.5,929.5C 749.5,919.5 749.5,909.5 749.5,899.5C 769.5,899.5 789.5,899.5 809.5,899.5 Z"/></g>
<g><path style="opacity:1" fill="#d32c20" d="M 809.5,899.5 C 819.5,899.5 829.5,899.5 839.5,899.5C 839.5,909.5 839.5,919.5 839.5,929.5C 829.5,929.5 819.5,929.5 809.5,929.5C 809.5,919.5 809.5,909.5 809.5,899.5 Z"/></g>
<g><path style="opacity:1" fill="#a2342d" d="M 839.5,899.5 C 849.5,899.5 859.5,899.5 869.5,899.5C 869.5,909.5 869.5,919.5 869.5,929.5C 859.5,929.5 849.5,929.5 839.5,929.5C 839.5,919.5 839.5,909.5 839.5,899.5 Z"/></g>
<g><path style="opacity:1" fill="#eeac27" d="M 869.5,899.5 C 879.5,899.5 889.5,899.5 899.5,899.5C 899.5,909.5 899.5,919.5 899.5,929.5C 899.5,949.5 899.5,969.5 899.5,989.5C 889.5,989.5 879.5,989.5 869.5,989.5C 869.5,999.5 869.5,1009.5 869.5,1019.5C 859.5,1019.5 849.5,1019.5 839.5,1019.5C 839.5,1029.5 839.5,1039.5 839.5,1049.5C 829.5,1049.5 819.5,1049.5 809.5,1049.5C 809.5,1059.5 809.5,1069.5 809.5,1079.5C 799.5,1079.5 789.5,1079.5 779.5,1079.5C 779.5,1089.5 779.5,1099.5 779.5,1109.5C 759.5,1109.5 739.5,1109.5 719.5,1109.5C 719.5,1119.5 719.5,1129.5 719.5,1139.5C 689.5,1139.5 659.5,1139.5 629.5,1139.5C 629.5,1129.5 629.5,1119.5 629.5,1109.5C 629.5,1099.5 629.5,1089.5 629.5,1079.5C 639.5,1079.5 649.5,1079.5 659.5,1079.5C 659.5,1069.5 659.5,1059.5 659.5,1049.5C 679.5,1049.5 699.5,1049.5 719.5,1049.5C 719.5,1039.5 719.5,1029.5 719.5,1019.5C 739.5,1019.5 759.5,1019.5 779.5,1019.5C 779.5,1009.5 779.5,999.5 779.5,989.5C 789.5,989.5 799.5,989.5 809.5,989.5C 809.5,979.5 809.5,969.5 809.5,959.5C 819.5,959.5 829.5,959.5 839.5,959.5C 839.5,949.5 839.5,939.5 839.5,929.5C 849.5,929.5 859.5,929.5 869.5,929.5C 869.5,919.5 869.5,909.5 869.5,899.5 Z"/></g>
<g><path style="opacity:1" fill="#821b14" d="M 269.5,929.5 C 269.5,939.5 269.5,949.5 269.5,959.5C 289.5,959.5 309.5,959.5 329.5,959.5C 329.5,969.5 329.5,979.5 329.5,989.5C 319.5,989.5 309.5,989.5 299.5,989.5C 299.5,999.5 299.5,1009.5 299.5,1019.5C 299.5,1029.5 299.5,1039.5 299.5,1049.5C 289.5,1049.5 279.5,1049.5 269.5,1049.5C 269.5,1029.5 269.5,1009.5 269.5,989.5C 259.5,989.5 249.5,989.5 239.5,989.5C 239.5,969.5 239.5,949.5 239.5,929.5C 249.5,929.5 259.5,929.5 269.5,929.5 Z"/></g>
<g><path style="opacity:1" fill="#a2342d" d="M 749.5,929.5 C 749.5,939.5 749.5,949.5 749.5,959.5C 729.5,959.5 709.5,959.5 689.5,959.5C 689.5,949.5 689.5,939.5 689.5,929.5C 709.5,929.5 729.5,929.5 749.5,929.5 Z"/></g>
<g><path style="opacity:1" fill="#d32c20" d="M 749.5,929.5 C 769.5,929.5 789.5,929.5 809.5,929.5C 809.5,939.5 809.5,949.5 809.5,959.5C 799.5,959.5 789.5,959.5 779.5,959.5C 779.5,969.5 779.5,979.5 779.5,989.5C 759.5,989.5 739.5,989.5 719.5,989.5C 719.5,999.5 719.5,1009.5 719.5,1019.5C 699.5,1019.5 679.5,1019.5 659.5,1019.5C 659.5,1029.5 659.5,1039.5 659.5,1049.5C 639.5,1049.5 619.5,1049.5 599.5,1049.5C 599.5,1059.5 599.5,1069.5 599.5,1079.5C 589.5,1079.5 579.5,1079.5 569.5,1079.5C 569.5,1069.5 569.5,1059.5 569.5,1049.5C 559.5,1049.5 549.5,1049.5 539.5,1049.5C 539.5,1069.5 539.5,1089.5 539.5,1109.5C 539.5,1129.5 539.5,1149.5 539.5,1169.5C 529.5,1169.5 519.5,1169.5 509.5,1169.5C 509.5,1179.5 509.5,1189.5 509.5,1199.5C 459.5,1199.5 409.5,1199.5 359.5,1199.5C 359.5,1189.5 359.5,1179.5 359.5,1169.5C 349.5,1169.5 339.5,1169.5 329.5,1169.5C 329.5,1129.5 329.5,1089.5 329.5,1049.5C 339.5,1049.5 349.5,1049.5 359.5,1049.5C 359.5,1059.5 359.5,1069.5 359.5,1079.5C 359.5,1089.5 359.5,1099.5 359.5,1109.5C 369.5,1109.5 379.5,1109.5 389.5,1109.5C 389.5,1119.5 389.5,1129.5 389.5,1139.5C 399.5,1139.5 409.5,1139.5 419.5,1139.5C 419.5,1129.5 419.5,1119.5 419.5,1109.5C 429.5,1109.5 439.5,1109.5 449.5,1109.5C 449.5,1099.5 449.5,1089.5 449.5,1079.5C 449.5,1069.5 449.5,1059.5 449.5,1049.5C 459.5,1049.5 469.5,1049.5 479.5,1049.5C 489.5,1049.5 499.5,1049.5 509.5,1049.5C 509.5,1039.5 509.5,1029.5 509.5,1019.5C 549.5,1019.5 589.5,1019.5 629.5,1019.5C 629.5,1009.5 629.5,999.5 629.5,989.5C 649.5,989.5 669.5,989.5 689.5,989.5C 689.5,979.5 689.5,969.5 689.5,959.5C 709.5,959.5 729.5,959.5 749.5,959.5C 749.5,949.5 749.5,939.5 749.5,929.5 Z"/></g>
<g><path style="opacity:1" fill="#a2342d" d="M 809.5,929.5 C 819.5,929.5 829.5,929.5 839.5,929.5C 839.5,939.5 839.5,949.5 839.5,959.5C 829.5,959.5 819.5,959.5 809.5,959.5C 809.5,949.5 809.5,939.5 809.5,929.5 Z"/></g>
<g><path style="opacity:1" fill="#db7524" d="M 899.5,929.5 C 909.5,929.5 919.5,929.5 929.5,929.5C 929.5,949.5 929.5,969.5 929.5,989.5C 919.5,989.5 909.5,989.5 899.5,989.5C 899.5,969.5 899.5,949.5 899.5,929.5 Z"/></g>
<g><path style="opacity:1" fill="#f09c2f" d="M 509.5,959.5 C 519.5,959.5 529.5,959.5 539.5,959.5C 539.5,969.5 539.5,979.5 539.5,989.5C 529.5,989.5 519.5,989.5 509.5,989.5C 509.5,979.5 509.5,969.5 509.5,959.5 Z"/></g>
<g><path style="opacity:1" fill="#a2342d" d="M 689.5,959.5 C 689.5,969.5 689.5,979.5 689.5,989.5C 669.5,989.5 649.5,989.5 629.5,989.5C 629.5,979.5 629.5,969.5 629.5,959.5C 649.5,959.5 669.5,959.5 689.5,959.5 Z"/></g>
<g><path style="opacity:1" fill="#a2342d" d="M 809.5,959.5 C 809.5,969.5 809.5,979.5 809.5,989.5C 799.5,989.5 789.5,989.5 779.5,989.5C 779.5,979.5 779.5,969.5 779.5,959.5C 789.5,959.5 799.5,959.5 809.5,959.5 Z"/></g>
<g><path style="opacity:1" fill="#a2342d" d="M 329.5,989.5 C 329.5,999.5 329.5,1009.5 329.5,1019.5C 319.5,1019.5 309.5,1019.5 299.5,1019.5C 299.5,1009.5 299.5,999.5 299.5,989.5C 309.5,989.5 319.5,989.5 329.5,989.5 Z"/></g>
<g><path style="opacity:1" fill="#a2342d" d="M 509.5,989.5 C 519.5,989.5 529.5,989.5 539.5,989.5C 569.5,989.5 599.5,989.5 629.5,989.5C 629.5,999.5 629.5,1009.5 629.5,1019.5C 589.5,1019.5 549.5,1019.5 509.5,1019.5C 509.5,1029.5 509.5,1039.5 509.5,1049.5C 499.5,1049.5 489.5,1049.5 479.5,1049.5C 479.5,1029.5 479.5,1009.5 479.5,989.5C 489.5,989.5 499.5,989.5 509.5,989.5 Z"/></g>
<g><path style="opacity:1" fill="#a2342d" d="M 779.5,989.5 C 779.5,999.5 779.5,1009.5 779.5,1019.5C 759.5,1019.5 739.5,1019.5 719.5,1019.5C 719.5,1009.5 719.5,999.5 719.5,989.5C 739.5,989.5 759.5,989.5 779.5,989.5 Z"/></g>
<g><path style="opacity:1" fill="#db7524" d="M 899.5,989.5 C 899.5,1009.5 899.5,1029.5 899.5,1049.5C 889.5,1049.5 879.5,1049.5 869.5,1049.5C 869.5,1059.5 869.5,1069.5 869.5,1079.5C 859.5,1079.5 849.5,1079.5 839.5,1079.5C 839.5,1089.5 839.5,1099.5 839.5,1109.5C 829.5,1109.5 819.5,1109.5 809.5,1109.5C 809.5,1119.5 809.5,1129.5 809.5,1139.5C 789.5,1139.5 769.5,1139.5 749.5,1139.5C 749.5,1149.5 749.5,1159.5 749.5,1169.5C 729.5,1169.5 709.5,1169.5 689.5,1169.5C 679.5,1169.5 669.5,1169.5 659.5,1169.5C 629.5,1169.5 599.5,1169.5 569.5,1169.5C 569.5,1159.5 569.5,1149.5 569.5,1139.5C 579.5,1139.5 589.5,1139.5 599.5,1139.5C 609.5,1139.5 619.5,1139.5 629.5,1139.5C 659.5,1139.5 689.5,1139.5 719.5,1139.5C 719.5,1129.5 719.5,1119.5 719.5,1109.5C 739.5,1109.5 759.5,1109.5 779.5,1109.5C 779.5,1099.5 779.5,1089.5 779.5,1079.5C 789.5,1079.5 799.5,1079.5 809.5,1079.5C 809.5,1069.5 809.5,1059.5 809.5,1049.5C 819.5,1049.5 829.5,1049.5 839.5,1049.5C 839.5,1039.5 839.5,1029.5 839.5,1019.5C 849.5,1019.5 859.5,1019.5 869.5,1019.5C 869.5,1009.5 869.5,999.5 869.5,989.5C 879.5,989.5 889.5,989.5 899.5,989.5 Z"/></g>
<g><path style="opacity:1" fill="#d32c20" d="M 299.5,1019.5 C 309.5,1019.5 319.5,1019.5 329.5,1019.5C 329.5,1029.5 329.5,1039.5 329.5,1049.5C 319.5,1049.5 309.5,1049.5 299.5,1049.5C 299.5,1039.5 299.5,1029.5 299.5,1019.5 Z"/></g>
<g><path style="opacity:1" fill="#a2342d" d="M 329.5,1019.5 C 349.5,1019.5 369.5,1019.5 389.5,1019.5C 389.5,1029.5 389.5,1039.5 389.5,1049.5C 409.5,1049.5 429.5,1049.5 449.5,1049.5C 449.5,1059.5 449.5,1069.5 449.5,1079.5C 419.5,1079.5 389.5,1079.5 359.5,1079.5C 359.5,1069.5 359.5,1059.5 359.5,1049.5C 349.5,1049.5 339.5,1049.5 329.5,1049.5C 329.5,1039.5 329.5,1029.5 329.5,1019.5 Z"/></g>
<g><path style="opacity:1" fill="#a2342d" d="M 719.5,1019.5 C 719.5,1029.5 719.5,1039.5 719.5,1049.5C 699.5,1049.5 679.5,1049.5 659.5,1049.5C 659.5,1039.5 659.5,1029.5 659.5,1019.5C 679.5,1019.5 699.5,1019.5 719.5,1019.5 Z"/></g>
<g><path style="opacity:1" fill="#821b14" d="M 299.5,1049.5 C 309.5,1049.5 319.5,1049.5 329.5,1049.5C 329.5,1089.5 329.5,1129.5 329.5,1169.5C 319.5,1169.5 309.5,1169.5 299.5,1169.5C 299.5,1129.5 299.5,1089.5 299.5,1049.5 Z"/></g>
<g><path style="opacity:1" fill="#951e16" d="M 599.5,1079.5 C 609.5,1079.5 619.5,1079.5 629.5,1079.5C 629.5,1089.5 629.5,1099.5 629.5,1109.5C 619.5,1109.5 609.5,1109.5 599.5,1109.5C 579.5,1109.5 559.5,1109.5 539.5,1109.5C 539.5,1089.5 539.5,1069.5 539.5,1049.5C 549.5,1049.5 559.5,1049.5 569.5,1049.5C 569.5,1059.5 569.5,1069.5 569.5,1079.5C 579.5,1079.5 589.5,1079.5 599.5,1079.5 Z"/></g>
<g><path style="opacity:1" fill="#a2342d" d="M 659.5,1049.5 C 659.5,1059.5 659.5,1069.5 659.5,1079.5C 649.5,1079.5 639.5,1079.5 629.5,1079.5C 619.5,1079.5 609.5,1079.5 599.5,1079.5C 599.5,1069.5 599.5,1059.5 599.5,1049.5C 619.5,1049.5 639.5,1049.5 659.5,1049.5 Z"/></g>
<g><path style="opacity:1" fill="#951e16" d="M 359.5,1079.5 C 389.5,1079.5 419.5,1079.5 449.5,1079.5C 449.5,1089.5 449.5,1099.5 449.5,1109.5C 439.5,1109.5 429.5,1109.5 419.5,1109.5C 409.5,1109.5 399.5,1109.5 389.5,1109.5C 379.5,1109.5 369.5,1109.5 359.5,1109.5C 359.5,1099.5 359.5,1089.5 359.5,1079.5 Z"/></g>
<g><path style="opacity:1" fill="#000000" d="M 389.5,1109.5 C 399.5,1109.5 409.5,1109.5 419.5,1109.5C 419.5,1119.5 419.5,1129.5 419.5,1139.5C 409.5,1139.5 399.5,1139.5 389.5,1139.5C 389.5,1129.5 389.5,1119.5 389.5,1109.5 Z"/></g>
<g><path style="opacity:1" fill="#821b14" d="M 539.5,1109.5 C 559.5,1109.5 579.5,1109.5 599.5,1109.5C 599.5,1119.5 599.5,1129.5 599.5,1139.5C 589.5,1139.5 579.5,1139.5 569.5,1139.5C 569.5,1149.5 569.5,1159.5 569.5,1169.5C 559.5,1169.5 549.5,1169.5 539.5,1169.5C 539.5,1149.5 539.5,1129.5 539.5,1109.5 Z"/></g>
<g><path style="opacity:1" fill="#f09c2f" d="M 599.5,1109.5 C 609.5,1109.5 619.5,1109.5 629.5,1109.5C 629.5,1119.5 629.5,1129.5 629.5,1139.5C 619.5,1139.5 609.5,1139.5 599.5,1139.5C 599.5,1129.5 599.5,1119.5 599.5,1109.5 Z"/></g>
<g><path style="opacity:1" fill="#821b14" d="M 329.5,1169.5 C 339.5,1169.5 349.5,1169.5 359.5,1169.5C 359.5,1179.5 359.5,1189.5 359.5,1199.5C 349.5,1199.5 339.5,1199.5 329.5,1199.5C 329.5,1189.5 329.5,1179.5 329.5,1169.5 Z"/></g>
<g><path style="opacity:1" fill="#821b14" d="M 539.5,1169.5 C 539.5,1179.5 539.5,1189.5 539.5,1199.5C 529.5,1199.5 519.5,1199.5 509.5,1199.5C 509.5,1189.5 509.5,1179.5 509.5,1169.5C 519.5,1169.5 529.5,1169.5 539.5,1169.5 Z"/></g>
<g><path style="opacity:1" fill="#c84015" d="M 539.5,1169.5 C 549.5,1169.5 559.5,1169.5 569.5,1169.5C 569.5,1179.5 569.5,1189.5 569.5,1199.5C 589.5,1199.5 609.5,1199.5 629.5,1199.5C 629.5,1209.5 629.5,1219.5 629.5,1229.5C 599.5,1229.5 569.5,1229.5 539.5,1229.5C 539.5,1219.5 539.5,1209.5 539.5,1199.5C 539.5,1189.5 539.5,1179.5 539.5,1169.5 Z"/></g>
<g><path style="opacity:1" fill="#a42408" d="M 659.5,1169.5 C 669.5,1169.5 679.5,1169.5 689.5,1169.5C 689.5,1179.5 689.5,1189.5 689.5,1199.5C 709.5,1199.5 729.5,1199.5 749.5,1199.5C 749.5,1209.5 749.5,1219.5 749.5,1229.5C 719.5,1229.5 689.5,1229.5 659.5,1229.5C 659.5,1209.5 659.5,1189.5 659.5,1169.5 Z"/></g>
<g><path style="opacity:1" fill="#821b14" d="M 359.5,1199.5 C 409.5,1199.5 459.5,1199.5 509.5,1199.5C 509.5,1209.5 509.5,1219.5 509.5,1229.5C 459.5,1229.5 409.5,1229.5 359.5,1229.5C 359.5,1219.5 359.5,1209.5 359.5,1199.5 Z"/></g>
</svg>
