<svg xmlns="http://www.w3.org/2000/svg" width="1440" height="1440" viewBox="0 0 1440 1440" version="1.1"><path d="M 600 390 L 600 450 585 450 L 570 450 570 435 L 570 420 555 420 L 540 420 540 405 L 540 390 510 390 L 480 390 480 405 L 480 420 465 420 L 450 420 450 435 L 450 450 435 450 L 420 450 420 465 L 420 480 405 480 L 390 480 390 510 L 390 540 405 540 L 420 540 420 555 L 420 570 435 570 L 450 570 450 585 L 450 600 390 600 L 330 600 330 705 L 330 810 390 810 L 450 810 450 825 L 450 840 435 840 L 420 840 420 855 L 420 870 405 870 L 390 870 390 900 L 390 930 405 930 L 420 930 420 945 L 420 960 435 960 L 450 960 450 975 L 450 990 465 990 L 480 990 480 1005 L 480 1020 510 1020 L 540 1020 540 1005 L 540 990 555 990 L 570 990 570 975 L 570 960 585 960 L 600 960 600 1020 L 600 1080 705 1080 L 810 1080 810 1020 L 810 960 825 960 L 840 960 840 975 L 840 990 855 990 L 870 990 870 1005 L 870 1020 900 1020 L 930 1020 930 1005 L 930 990 945 990 L 960 990 960 975 L 960 960 975 960 L 990 960 990 945 L 990 930 1005 930 L 1020 930 1020 900 L 1020 870 1005 870 L 990 870 990 855 L 990 840 975 840 L 960 840 960 825 L 960 810 1020 810 L 1080 810 1080 705 L 1080 600 1020 600 L 960 600 960 585 L 960 570 975 570 L 990 570 990 555 L 990 540 1005 540 L 1020 540 1020 510 L 1020 480 1005 480 L 990 480 990 465 L 990 450 975 450 L 960 450 960 435 L 960 420 945 420 L 930 420 930 405 L 930 390 900 390 L 870 390 870 405 L 870 420 855 420 L 840 420 840 435 L 840 450 825 450 L 810 450 810 390 L 810 330 705 330 L 600 330 600 390 M 630 420 L 630 480 600 480 L 570 480 570 465 L 570 450 555 450 L 540 450 540 435 L 540 420 510 420 L 480 420 480 435 L 480 450 465 450 L 450 450 450 465 L 450 480 435 480 L 420 480 420 510 L 420 540 435 540 L 450 540 450 555 L 450 570 465 570 L 480 570 480 600 L 480 630 420 630 L 360 630 360 705 L 360 780 420 780 L 480 780 480 810 L 480 840 465 840 L 450 840 450 855 L 450 870 435 870 L 420 870 420 900 L 420 930 435 930 L 450 930 450 945 L 450 960 465 960 L 480 960 480 975 L 480 990 510 990 L 540 990 540 975 L 540 960 555 960 L 570 960 570 945 L 570 930 600 930 L 630 930 630 990 L 630 1050 705 1050 L 780 1050 780 990 L 780 930 810 930 L 840 930 840 945 L 840 960 855 960 L 870 960 870 975 L 870 990 900 990 L 930 990 930 975 L 930 960 945 960 L 960 960 960 945 L 960 930 975 930 L 990 930 990 900 L 990 870 975 870 L 960 870 960 855 L 960 840 945 840 L 930 840 930 810 L 930 780 990 780 L 1050 780 1050 705 L 1050 630 990 630 L 930 630 930 600 L 930 570 945 570 L 960 570 960 555 L 960 540 975 540 L 990 540 990 510 L 990 480 975 480 L 960 480 960 465 L 960 450 945 450 L 930 450 930 435 L 930 420 900 420 L 870 420 870 435 L 870 450 855 450 L 840 450 840 465 L 840 480 810 480 L 780 480 780 420 L 780 360 705 360 L 630 360 630 420 M 630 525 L 630 540 615 540 L 600 540 600 555 L 600 570 585 570 L 570 570 570 585 L 570 600 555 600 L 540 600 540 615 L 540 630 525 630 L 510 630 510 705 L 510 780 525 780 L 540 780 540 795 L 540 810 555 810 L 570 810 570 825 L 570 840 585 840 L 600 840 600 855 L 600 870 615 870 L 630 870 630 885 L 630 900 705 900 L 780 900 780 885 L 780 870 795 870 L 810 870 810 855 L 810 840 825 840 L 840 840 840 825 L 840 810 855 810 L 870 810 870 795 L 870 780 885 780 L 900 780 900 705 L 900 630 885 630 L 870 630 870 615 L 870 600 855 600 L 840 600 840 585 L 840 570 825 570 L 810 570 810 555 L 810 540 795 540 L 780 540 780 525 L 780 510 705 510 L 630 510 630 525 M 630 555 L 630 570 615 570 L 600 570 600 585 L 600 600 585 600 L 570 600 570 615 L 570 630 555 630 L 540 630 540 705 L 540 780 555 780 L 570 780 570 795 L 570 810 585 810 L 600 810 600 825 L 600 840 615 840 L 630 840 630 855 L 630 870 705 870 L 780 870 780 855 L 780 840 795 840 L 810 840 810 825 L 810 810 825 810 L 840 810 840 795 L 840 780 855 780 L 870 780 870 705 L 870 630 855 630 L 840 630 840 615 L 840 600 825 600 L 810 600 810 585 L 810 570 795 570 L 780 570 780 555 L 780 540 705 540 L 630 540 630 555 M 660 585 L 660 600 630 600 L 600 600 600 630 L 600 660 585 660 L 570 660 570 705 L 570 750 585 750 L 600 750 600 780 L 600 810 630 810 L 660 810 660 825 L 660 840 705 840 L 750 840 750 825 L 750 810 780 810 L 810 810 810 780 L 810 750 825 750 L 840 750 840 705 L 840 660 825 660 L 810 660 810 630 L 810 600 780 600 L 750 600 750 585 L 750 570 705 570 L 660 570 660 585 M 660 615 L 660 630 645 630 L 630 630 630 645 L 630 660 615 660 L 600 660 600 705 L 600 750 615 750 L 630 750 630 765 L 630 780 645 780 L 660 780 660 795 L 660 810 705 810 L 750 810 750 795 L 750 780 765 780 L 780 780 780 765 L 780 750 795 750 L 810 750 810 705 L 810 660 795 660 L 780 660 780 645 L 780 630 765 630 L 750 630 750 615 L 750 600 705 600 L 660 600 660 615" stroke="none" fill="#000000" fill-rule="evenodd"/></svg>