<?xml version="1.0" encoding="UTF-8"?>
<!DOCTYPE svg PUBLIC "-//W3C//DTD SVG 1.1//EN" "http://www.w3.org/Graphics/SVG/1.1/DTD/svg11.dtd">
<svg xmlns="http://www.w3.org/2000/svg" version="1.1" width="1440px" height="1440px" style="shape-rendering:geometricPrecision; text-rendering:geometricPrecision; image-rendering:optimizeQuality; fill-rule:evenodd; clip-rule:evenodd" xmlns:xlink="http://www.w3.org/1999/xlink">
<g><path style="opacity:1" fill="#2c8e09" d="M 629.5,149.5 C 629.5,159.5 629.5,169.5 629.5,179.5C 619.5,179.5 609.5,179.5 599.5,179.5C 599.5,169.5 599.5,159.5 599.5,149.5C 609.5,149.5 619.5,149.5 629.5,149.5 Z"/></g>
<g><path style="opacity:1" fill="#3cd107" d="M 629.5,149.5 C 669.5,149.5 709.5,149.5 749.5,149.5C 749.5,169.5 749.5,189.5 749.5,209.5C 739.5,209.5 729.5,209.5 719.5,209.5C 719.5,199.5 719.5,189.5 719.5,179.5C 699.5,179.5 679.5,179.5 659.5,179.5C 649.5,179.5 639.5,179.5 629.5,179.5C 629.5,169.5 629.5,159.5 629.5,149.5 Z"/></g>
<g><path style="opacity:1" fill="#2c8e09" d="M 599.5,179.5 C 599.5,199.5 599.5,219.5 599.5,239.5C 589.5,239.5 579.5,239.5 569.5,239.5C 569.5,219.5 569.5,199.5 569.5,179.5C 579.5,179.5 589.5,179.5 599.5,179.5 Z"/></g>
<g><path style="opacity:1" fill="#206407" d="M 599.5,179.5 C 609.5,179.5 619.5,179.5 629.5,179.5C 639.5,179.5 649.5,179.5 659.5,179.5C 659.5,189.5 659.5,199.5 659.5,209.5C 649.5,209.5 639.5,209.5 629.5,209.5C 629.5,219.5 629.5,229.5 629.5,239.5C 619.5,239.5 609.5,239.5 599.5,239.5C 599.5,219.5 599.5,199.5 599.5,179.5 Z"/></g>
<g><path style="opacity:1" fill="#2c8e09" d="M 659.5,179.5 C 679.5,179.5 699.5,179.5 719.5,179.5C 719.5,189.5 719.5,199.5 719.5,209.5C 699.5,209.5 679.5,209.5 659.5,209.5C 659.5,199.5 659.5,189.5 659.5,179.5 Z"/></g>
<g><path style="opacity:1" fill="#3cd107" d="M 899.5,179.5 C 899.5,189.5 899.5,199.5 899.5,209.5C 879.5,209.5 859.5,209.5 839.5,209.5C 839.5,219.5 839.5,229.5 839.5,239.5C 829.5,239.5 819.5,239.5 809.5,239.5C 799.5,239.5 789.5,239.5 779.5,239.5C 769.5,239.5 759.5,239.5 749.5,239.5C 749.5,229.5 749.5,219.5 749.5,209.5C 769.5,209.5 789.5,209.5 809.5,209.5C 809.5,199.5 809.5,189.5 809.5,179.5C 839.5,179.5 869.5,179.5 899.5,179.5 Z"/></g>
<g><path style="opacity:1" fill="#2c8e09" d="M 899.5,179.5 C 909.5,179.5 919.5,179.5 929.5,179.5C 929.5,189.5 929.5,199.5 929.5,209.5C 939.5,209.5 949.5,209.5 959.5,209.5C 959.5,239.5 959.5,269.5 959.5,299.5C 949.5,299.5 939.5,299.5 929.5,299.5C 929.5,279.5 929.5,259.5 929.5,239.5C 919.5,239.5 909.5,239.5 899.5,239.5C 899.5,229.5 899.5,219.5 899.5,209.5C 899.5,199.5 899.5,189.5 899.5,179.5 Z"/></g>
<g><path style="opacity:1" fill="#206407" d="M 659.5,209.5 C 679.5,209.5 699.5,209.5 719.5,209.5C 719.5,219.5 719.5,229.5 719.5,239.5C 699.5,239.5 679.5,239.5 659.5,239.5C 659.5,229.5 659.5,219.5 659.5,209.5 Z"/></g>
<g><path style="opacity:1" fill="#2c8e09" d="M 719.5,209.5 C 729.5,209.5 739.5,209.5 749.5,209.5C 749.5,219.5 749.5,229.5 749.5,239.5C 739.5,239.5 729.5,239.5 719.5,239.5C 719.5,229.5 719.5,219.5 719.5,209.5 Z"/></g>
<g><path style="opacity:1" fill="#206407" d="M 899.5,209.5 C 899.5,219.5 899.5,229.5 899.5,239.5C 879.5,239.5 859.5,239.5 839.5,239.5C 839.5,229.5 839.5,219.5 839.5,209.5C 859.5,209.5 879.5,209.5 899.5,209.5 Z"/></g>
<g><path style="opacity:1" fill="#2c8e09" d="M 569.5,239.5 C 569.5,249.5 569.5,259.5 569.5,269.5C 559.5,269.5 549.5,269.5 539.5,269.5C 539.5,259.5 539.5,249.5 539.5,239.5C 549.5,239.5 559.5,239.5 569.5,239.5 Z"/></g>
<g><path style="opacity:1" fill="#206407" d="M 569.5,239.5 C 579.5,239.5 589.5,239.5 599.5,239.5C 599.5,249.5 599.5,259.5 599.5,269.5C 589.5,269.5 579.5,269.5 569.5,269.5C 569.5,259.5 569.5,249.5 569.5,239.5 Z"/></g>
<g><path style="opacity:1" fill="#206407" d="M 719.5,239.5 C 729.5,239.5 739.5,239.5 749.5,239.5C 749.5,249.5 749.5,259.5 749.5,269.5C 739.5,269.5 729.5,269.5 719.5,269.5C 719.5,259.5 719.5,249.5 719.5,239.5 Z"/></g>
<g><path style="opacity:1" fill="#2c8e09" d="M 749.5,239.5 C 759.5,239.5 769.5,239.5 779.5,239.5C 779.5,249.5 779.5,259.5 779.5,269.5C 769.5,269.5 759.5,269.5 749.5,269.5C 749.5,259.5 749.5,249.5 749.5,239.5 Z"/></g>
<g><path style="opacity:1" fill="#206407" d="M 779.5,239.5 C 789.5,239.5 799.5,239.5 809.5,239.5C 809.5,249.5 809.5,259.5 809.5,269.5C 799.5,269.5 789.5,269.5 779.5,269.5C 779.5,259.5 779.5,249.5 779.5,239.5 Z"/></g>
<g><path style="opacity:1" fill="#206407" d="M 899.5,239.5 C 909.5,239.5 919.5,239.5 929.5,239.5C 929.5,259.5 929.5,279.5 929.5,299.5C 919.5,299.5 909.5,299.5 899.5,299.5C 899.5,279.5 899.5,259.5 899.5,239.5 Z"/></g>
<g><path style="opacity:1" fill="#206407" d="M 539.5,269.5 C 549.5,269.5 559.5,269.5 569.5,269.5C 569.5,279.5 569.5,289.5 569.5,299.5C 559.5,299.5 549.5,299.5 539.5,299.5C 539.5,289.5 539.5,279.5 539.5,269.5 Z"/></g>
<g><path style="opacity:1" fill="#206407" d="M 749.5,269.5 C 759.5,269.5 769.5,269.5 779.5,269.5C 779.5,309.5 779.5,349.5 779.5,389.5C 769.5,389.5 759.5,389.5 749.5,389.5C 749.5,349.5 749.5,309.5 749.5,269.5 Z"/></g>
<g><path style="opacity:1" fill="#206407" d="M 929.5,299.5 C 939.5,299.5 949.5,299.5 959.5,299.5C 959.5,309.5 959.5,319.5 959.5,329.5C 949.5,329.5 939.5,329.5 929.5,329.5C 929.5,319.5 929.5,309.5 929.5,299.5 Z"/></g>
</svg>
