<?xml version="1.0" encoding="UTF-8"?>
<!DOCTYPE svg PUBLIC "-//W3C//DTD SVG 1.1//EN" "http://www.w3.org/Graphics/SVG/1.1/DTD/svg11.dtd">
<svg xmlns="http://www.w3.org/2000/svg" version="1.1" width="1440px" height="1440px" style="shape-rendering:geometricPrecision; text-rendering:geometricPrecision; image-rendering:optimizeQuality; fill-rule:evenodd; clip-rule:evenodd" xmlns:xlink="http://www.w3.org/1999/xlink">
<g><path style="opacity:1" fill="#2c8e09" d="M 629.5,719.5 C 639.5,719.5 649.5,719.5 659.5,719.5C 659.5,709.5 659.5,699.5 659.5,689.5C 679.5,689.5 699.5,689.5 719.5,689.5C 719.5,699.5 719.5,709.5 719.5,719.5C 729.5,719.5 739.5,719.5 749.5,719.5C 749.5,739.5 749.5,759.5 749.5,779.5C 739.5,779.5 729.5,779.5 719.5,779.5C 719.5,789.5 719.5,799.5 719.5,809.5C 739.5,809.5 759.5,809.5 779.5,809.5C 779.5,829.5 779.5,849.5 779.5,869.5C 769.5,869.5 759.5,869.5 749.5,869.5C 749.5,879.5 749.5,889.5 749.5,899.5C 729.5,899.5 709.5,899.5 689.5,899.5C 689.5,889.5 689.5,879.5 689.5,869.5C 679.5,869.5 669.5,869.5 659.5,869.5C 659.5,849.5 659.5,829.5 659.5,809.5C 659.5,799.5 659.5,789.5 659.5,779.5C 649.5,779.5 639.5,779.5 629.5,779.5C 609.5,779.5 589.5,779.5 569.5,779.5C 569.5,769.5 569.5,759.5 569.5,749.5C 559.5,749.5 549.5,749.5 539.5,749.5C 539.5,729.5 539.5,709.5 539.5,689.5C 549.5,689.5 559.5,689.5 569.5,689.5C 569.5,679.5 569.5,669.5 569.5,659.5C 589.5,659.5 609.5,659.5 629.5,659.5C 629.5,679.5 629.5,699.5 629.5,719.5 Z"/></g>
<g><path style="opacity:1" fill="#206407" d="M 629.5,719.5 C 629.5,729.5 629.5,739.5 629.5,749.5C 619.5,749.5 609.5,749.5 599.5,749.5C 599.5,739.5 599.5,729.5 599.5,719.5C 609.5,719.5 619.5,719.5 629.5,719.5 Z"/></g>
<g><path style="opacity:1" fill="#206407" d="M 659.5,779.5 C 659.5,769.5 659.5,759.5 659.5,749.5C 669.5,749.5 679.5,749.5 689.5,749.5C 689.5,759.5 689.5,769.5 689.5,779.5C 679.5,779.5 669.5,779.5 659.5,779.5 Z"/></g>
<g><path style="opacity:1" fill="#206407" d="M 629.5,779.5 C 639.5,779.5 649.5,779.5 659.5,779.5C 659.5,789.5 659.5,799.5 659.5,809.5C 649.5,809.5 639.5,809.5 629.5,809.5C 629.5,799.5 629.5,789.5 629.5,779.5 Z"/></g>
<g><path style="opacity:1" fill="#206407" d="M 629.5,809.5 C 629.5,819.5 629.5,829.5 629.5,839.5C 619.5,839.5 609.5,839.5 599.5,839.5C 599.5,829.5 599.5,819.5 599.5,809.5C 609.5,809.5 619.5,809.5 629.5,809.5 Z"/></g>
<g><path style="opacity:1" fill="#206407" d="M 719.5,809.5 C 719.5,819.5 719.5,829.5 719.5,839.5C 709.5,839.5 699.5,839.5 689.5,839.5C 689.5,829.5 689.5,819.5 689.5,809.5C 699.5,809.5 709.5,809.5 719.5,809.5 Z"/></g>
<g><path style="opacity:1" fill="#206407" d="M 599.5,839.5 C 599.5,849.5 599.5,859.5 599.5,869.5C 589.5,869.5 579.5,869.5 569.5,869.5C 569.5,859.5 569.5,849.5 569.5,839.5C 579.5,839.5 589.5,839.5 599.5,839.5 Z"/></g>
<g><path style="opacity:1" fill="#206407" d="M 569.5,869.5 C 569.5,879.5 569.5,889.5 569.5,899.5C 559.5,899.5 549.5,899.5 539.5,899.5C 539.5,889.5 539.5,879.5 539.5,869.5C 549.5,869.5 559.5,869.5 569.5,869.5 Z"/></g>
</svg>
