<?xml version="1.0" encoding="UTF-8"?>
<!DOCTYPE svg PUBLIC "-//W3C//DTD SVG 1.1//EN" "http://www.w3.org/Graphics/SVG/1.1/DTD/svg11.dtd">
<svg xmlns="http://www.w3.org/2000/svg" version="1.1" width="1440px" height="1440px" style="shape-rendering:geometricPrecision; text-rendering:geometricPrecision; image-rendering:optimizeQuality; fill-rule:evenodd; clip-rule:evenodd" xmlns:xlink="http://www.w3.org/1999/xlink">
<g><path style="opacity:1" fill="#2c8e09" d="M 659.5,809.5 C 659.5,799.5 659.5,789.5 659.5,779.5C 649.5,779.5 639.5,779.5 629.5,779.5C 619.5,779.5 609.5,779.5 599.5,779.5C 599.5,769.5 599.5,759.5 599.5,749.5C 589.5,749.5 579.5,749.5 569.5,749.5C 569.5,729.5 569.5,709.5 569.5,689.5C 579.5,689.5 589.5,689.5 599.5,689.5C 599.5,679.5 599.5,669.5 599.5,659.5C 619.5,659.5 639.5,659.5 659.5,659.5C 659.5,669.5 659.5,679.5 659.5,689.5C 669.5,689.5 679.5,689.5 689.5,689.5C 689.5,679.5 689.5,669.5 689.5,659.5C 709.5,659.5 729.5,659.5 749.5,659.5C 749.5,669.5 749.5,679.5 749.5,689.5C 759.5,689.5 769.5,689.5 779.5,689.5C 779.5,709.5 779.5,729.5 779.5,749.5C 769.5,749.5 759.5,749.5 749.5,749.5C 749.5,759.5 749.5,769.5 749.5,779.5C 759.5,779.5 769.5,779.5 779.5,779.5C 779.5,799.5 779.5,819.5 779.5,839.5C 769.5,839.5 759.5,839.5 749.5,839.5C 749.5,849.5 749.5,859.5 749.5,869.5C 729.5,869.5 709.5,869.5 689.5,869.5C 689.5,859.5 689.5,849.5 689.5,839.5C 679.5,839.5 669.5,839.5 659.5,839.5C 659.5,829.5 659.5,819.5 659.5,809.5 Z M 659.5,749.5 C 669.5,749.5 679.5,749.5 689.5,749.5C 689.5,759.5 689.5,769.5 689.5,779.5C 679.5,779.5 669.5,779.5 659.5,779.5C 659.5,769.5 659.5,759.5 659.5,749.5 Z"/></g>
<g><path style="opacity:1" fill="#206407" d="M 659.5,749.5 C 649.5,749.5 639.5,749.5 629.5,749.5C 629.5,739.5 629.5,729.5 629.5,719.5C 639.5,719.5 649.5,719.5 659.5,719.5C 659.5,729.5 659.5,739.5 659.5,749.5 Z"/></g>
<g><path style="opacity:1" fill="#206407" d="M 689.5,749.5 C 689.5,739.5 689.5,729.5 689.5,719.5C 699.5,719.5 709.5,719.5 719.5,719.5C 719.5,729.5 719.5,739.5 719.5,749.5C 709.5,749.5 699.5,749.5 689.5,749.5 Z"/></g>
<g><path style="opacity:1" fill="#206407" d="M 629.5,779.5 C 639.5,779.5 649.5,779.5 659.5,779.5C 659.5,789.5 659.5,799.5 659.5,809.5C 649.5,809.5 639.5,809.5 629.5,809.5C 629.5,799.5 629.5,789.5 629.5,779.5 Z"/></g>
<g><path style="opacity:1" fill="#206407" d="M 689.5,779.5 C 699.5,779.5 709.5,779.5 719.5,779.5C 719.5,789.5 719.5,799.5 719.5,809.5C 709.5,809.5 699.5,809.5 689.5,809.5C 689.5,799.5 689.5,789.5 689.5,779.5 Z"/></g>
<g><path style="opacity:1" fill="#206407" d="M 629.5,809.5 C 629.5,819.5 629.5,829.5 629.5,839.5C 619.5,839.5 609.5,839.5 599.5,839.5C 599.5,829.5 599.5,819.5 599.5,809.5C 609.5,809.5 619.5,809.5 629.5,809.5 Z"/></g>
<g><path style="opacity:1" fill="#206407" d="M 599.5,839.5 C 599.5,849.5 599.5,859.5 599.5,869.5C 589.5,869.5 579.5,869.5 569.5,869.5C 569.5,859.5 569.5,849.5 569.5,839.5C 579.5,839.5 589.5,839.5 599.5,839.5 Z"/></g>
</svg>
