<?xml version="1.0" encoding="UTF-8"?>
<!DOCTYPE svg PUBLIC "-//W3C//DTD SVG 1.1//EN" "http://www.w3.org/Graphics/SVG/1.1/DTD/svg11.dtd">
<svg xmlns="http://www.w3.org/2000/svg" version="1.1" width="1024px" height="1024px" style="shape-rendering:geometricPrecision; text-rendering:geometricPrecision; image-rendering:optimizeQuality; fill-rule:evenodd; clip-rule:evenodd" xmlns:xlink="http://www.w3.org/1999/xlink">
<g><path style="opacity:0.458" fill="#ffd39d" d="M 627.5,96.5 C 589.5,96.5 551.5,96.5 513.5,96.5C 532.155,95.167 551.155,94.5004 570.5,94.5C 589.845,94.5004 608.845,95.167 627.5,96.5 Z"/></g>
<g><path style="opacity:0.99" fill="#ff9e20" d="M 513.5,96.5 C 551.5,96.5 589.5,96.5 627.5,96.5C 627.833,96.5 628.167,96.5 628.5,96.5C 628.5,109.5 628.5,122.5 628.5,135.5C 667.5,135.5 706.5,135.5 745.5,135.5C 745.5,136.167 745.833,136.5 746.5,136.5C 746.5,149.167 746.5,161.833 746.5,174.5C 748.833,174.5 751.167,174.5 753.5,174.5C 763.821,173.607 774.155,173.44 784.5,174C 785.066,174.995 785.733,175.828 786.5,176.5C 786.5,188.833 786.5,201.167 786.5,213.5C 787.833,213.5 789.167,213.5 790.5,213.5C 798.167,213.5 805.833,213.5 813.5,213.5C 815.833,213.5 818.167,213.5 820.5,213.5C 821.833,213.5 823.167,213.5 824.5,213.5C 825.436,225.129 825.77,236.796 825.5,248.5C 825.5,249.833 825.5,251.167 825.5,252.5C 837.833,252.5 850.167,252.5 862.5,252.5C 863.172,253.267 864.005,253.934 865,254.5C 865.552,263.513 865.385,272.513 864.5,281.5C 864.5,285.167 864.5,288.833 864.5,292.5C 877.167,292.5 889.833,292.5 902.5,292.5C 902.5,293.167 902.833,293.5 903.5,293.5C 903.169,319.339 903.502,345.005 904.5,370.5C 916.167,370.5 927.833,370.5 939.5,370.5C 940.209,371.404 941.209,371.737 942.5,371.5C 942.5,372.5 942.5,373.5 942.5,374.5C 942.5,461.167 942.5,547.833 942.5,634.5C 942.5,638.167 942.5,641.833 942.5,645.5C 929.833,645.5 917.167,645.5 904.5,645.5C 904.5,566.833 904.5,488.167 904.5,409.5C 891.167,409.5 877.833,409.5 864.5,409.5C 864.5,383.5 864.5,357.5 864.5,331.5C 851.5,331.5 838.5,331.5 825.5,331.5C 825.5,318.167 825.5,304.833 825.5,291.5C 812.5,291.5 799.5,291.5 786.5,291.5C 786.5,278.5 786.5,265.5 786.5,252.5C 773.5,252.5 760.5,252.5 747.5,252.5C 747.5,239.5 747.5,226.5 747.5,213.5C 734.167,213.5 720.833,213.5 707.5,213.5C 707.5,200.5 707.5,187.5 707.5,174.5C 668.167,174.5 628.833,174.5 589.5,174.5C 589.5,161.167 589.5,147.833 589.5,134.5C 576.5,134.5 563.5,134.5 550.5,134.5C 550.5,147.833 550.5,161.167 550.5,174.5C 524.167,174.5 497.833,174.5 471.5,174.5C 432.5,174.5 393.5,174.5 354.5,174.5C 354.5,162.5 354.5,150.5 354.5,138.5C 355.306,137.272 356.306,136.272 357.5,135.5C 409.003,135.832 460.336,135.499 511.5,134.5C 511.5,122.167 511.5,109.833 511.5,97.5C 512.167,97.1667 512.833,96.8333 513.5,96.5 Z"/></g>
<g><path style="opacity:0.19" fill="#fefffe" d="M 629.5,97.5 C 630.167,108.674 630.833,120.007 631.5,131.5C 632.799,132.694 634.132,133.694 635.5,134.5C 633.5,134.5 631.5,134.5 629.5,134.5C 629.5,122.167 629.5,109.833 629.5,97.5 Z"/></g>
<g><path style="opacity:0.23" fill="#fff7ee" d="M 511.5,97.5 C 511.5,109.833 511.5,122.167 511.5,134.5C 507.5,134.5 503.5,134.5 499.5,134.5C 503.116,133.891 506.283,132.224 509,129.5C 510.012,118.699 510.845,108.033 511.5,97.5 Z"/></g>
<g><path style="opacity:0.178" fill="#ffd9a8" d="M 499.5,134.5 C 503.5,134.5 507.5,134.5 511.5,134.5C 460.336,135.499 409.003,135.832 357.5,135.5C 394.5,134.693 431.667,134.026 469,133.5C 479.175,133.688 489.342,134.022 499.5,134.5 Z"/></g>
<g><path style="opacity:0.107" fill="#ffcf92" d="M 628.5,96.5 C 629.167,96.5 629.5,96.8333 629.5,97.5C 629.5,109.833 629.5,122.167 629.5,134.5C 631.5,134.5 633.5,134.5 635.5,134.5C 670.543,134.827 705.543,134.493 740.5,133.5C 742.336,134.028 744.003,134.694 745.5,135.5C 706.5,135.5 667.5,135.5 628.5,135.5C 628.5,122.5 628.5,109.5 628.5,96.5 Z"/></g>
<g><path style="opacity:1" fill="#feba00" d="M 864.5,409.5 C 877.323,410.495 890.323,410.829 903.5,410.5C 903.5,514.833 903.5,619.167 903.5,723.5C 890.5,723.5 877.5,723.5 864.5,723.5C 864.5,736.5 864.5,749.5 864.5,762.5C 851.323,762.171 838.323,762.505 825.5,763.5C 824.505,775.989 824.171,788.656 824.5,801.5C 798.5,801.5 772.5,801.5 746.5,801.5C 746.5,814.833 746.5,828.167 746.5,841.5C 720.5,841.5 694.5,841.5 668.5,841.5C 668.5,854.5 668.5,867.5 668.5,880.5C 576.833,880.5 485.167,880.5 393.5,880.5C 380.5,880.5 367.5,880.5 354.5,880.5C 354.5,867.5 354.5,854.5 354.5,841.5C 328.5,841.5 302.5,841.5 276.5,841.5C 250.167,841.5 223.833,841.5 197.5,841.5C 197.5,815.5 197.5,789.5 197.5,763.5C 184.677,762.505 171.677,762.171 158.5,762.5C 158.831,736.328 158.498,710.328 157.5,684.5C 144.833,684.5 132.167,684.5 119.5,684.5C 119.5,632.167 119.5,579.833 119.5,527.5C 132.167,527.5 144.833,527.5 157.5,527.5C 158.499,488.67 158.832,449.67 158.5,410.5C 171.677,410.829 184.677,410.495 197.5,409.5C 197.5,383.5 197.5,357.5 197.5,331.5C 210.5,331.5 223.5,331.5 236.5,331.5C 249.833,331.5 263.167,331.5 276.5,331.5C 276.5,318.5 276.5,305.5 276.5,292.5C 289.5,292.5 302.5,292.5 315.5,292.5C 315.5,279.5 315.5,266.5 315.5,253.5C 341.672,253.831 367.672,253.498 393.5,252.5C 393.5,239.5 393.5,226.5 393.5,213.5C 419.5,213.5 445.5,213.5 471.5,213.5C 471.5,200.5 471.5,187.5 471.5,174.5C 497.833,174.5 524.167,174.5 550.5,174.5C 550.5,161.167 550.5,147.833 550.5,134.5C 563.5,134.5 576.5,134.5 589.5,134.5C 589.5,147.833 589.5,161.167 589.5,174.5C 628.833,174.5 668.167,174.5 707.5,174.5C 707.5,187.5 707.5,200.5 707.5,213.5C 720.833,213.5 734.167,213.5 747.5,213.5C 747.5,226.5 747.5,239.5 747.5,252.5C 760.5,252.5 773.5,252.5 786.5,252.5C 786.5,265.5 786.5,278.5 786.5,291.5C 799.5,291.5 812.5,291.5 825.5,291.5C 825.5,304.833 825.5,318.167 825.5,331.5C 838.5,331.5 851.5,331.5 864.5,331.5C 864.5,357.5 864.5,383.5 864.5,409.5 Z"/></g>
<g><path style="opacity:0.156" fill="#ffdfb5" d="M 746.5,136.5 C 747.33,147.326 747.83,158.326 748,169.5C 749.422,171.742 751.255,173.409 753.5,174.5C 751.167,174.5 748.833,174.5 746.5,174.5C 746.5,161.833 746.5,149.167 746.5,136.5 Z"/></g>
<g><path style="opacity:0.365" fill="#ffe8cb" d="M 354.5,138.5 C 354.5,150.5 354.5,162.5 354.5,174.5C 329.167,174.5 303.833,174.5 278.5,174.5C 303.116,174.111 327.783,173.111 352.5,171.5C 352.639,164.943 352.639,158.276 352.5,151.5C 353.051,147.008 353.718,142.674 354.5,138.5 Z"/></g>
<g><path style="opacity:0.989" fill="#fe9e20" d="M 278.5,174.5 C 303.833,174.5 329.167,174.5 354.5,174.5C 354.5,187.5 354.5,200.5 354.5,213.5C 328.5,213.5 302.5,213.5 276.5,213.5C 276.5,201.167 276.5,188.833 276.5,176.5C 277.167,175.833 277.833,175.167 278.5,174.5 Z"/></g>
<g><path style="opacity:1" fill="#fcd052" d="M 354.5,174.5 C 393.5,174.5 432.5,174.5 471.5,174.5C 471.5,187.5 471.5,200.5 471.5,213.5C 445.5,213.5 419.5,213.5 393.5,213.5C 393.5,226.5 393.5,239.5 393.5,252.5C 367.167,252.5 340.833,252.5 314.5,252.5C 314.5,265.5 314.5,278.5 314.5,291.5C 301.5,291.5 288.5,291.5 275.5,291.5C 275.5,304.5 275.5,317.5 275.5,330.5C 262.5,330.5 249.5,330.5 236.5,330.5C 236.5,304.5 236.5,278.5 236.5,252.5C 249.5,252.5 262.5,252.5 275.5,252.5C 275.5,239.5 275.5,226.5 275.5,213.5C 275.5,202.833 275.5,192.167 275.5,181.5C 275.216,179.585 275.549,177.919 276.5,176.5C 276.5,188.833 276.5,201.167 276.5,213.5C 302.5,213.5 328.5,213.5 354.5,213.5C 354.5,200.5 354.5,187.5 354.5,174.5 Z"/></g>
<g><path style="opacity:0.113" fill="#fffefd" d="M 786.5,176.5 C 787.33,187.326 787.83,198.326 788,209.5C 789.481,210.471 790.315,211.804 790.5,213.5C 789.167,213.5 787.833,213.5 786.5,213.5C 786.5,201.167 786.5,188.833 786.5,176.5 Z"/></g>
<g><path style="opacity:0.107" fill="#fffefd" d="M 275.5,181.5 C 275.5,192.167 275.5,202.833 275.5,213.5C 273.5,213.5 271.5,213.5 269.5,213.5C 270.446,212.069 271.612,210.736 273,209.5C 272.855,199.78 273.689,190.446 275.5,181.5 Z"/></g>
<g><path style="opacity:0.012" fill="#fefffe" d="M 212.5,213.5 C 210.5,213.5 208.5,213.5 206.5,213.5C 207.134,212.053 208.301,211.387 210,211.5C 211.376,211.684 212.209,212.351 212.5,213.5 Z"/></g>
<g><path style="opacity:0.016" fill="#fffcf9" d="M 820.5,213.5 C 818.167,213.5 815.833,213.5 813.5,213.5C 814.152,212.275 815.319,211.608 817,211.5C 818.681,211.608 819.848,212.275 820.5,213.5 Z"/></g>
<g><path style="opacity:0.99" fill="#ff9e21" d="M 206.5,213.5 C 208.5,213.5 210.5,213.5 212.5,213.5C 231.5,213.5 250.5,213.5 269.5,213.5C 271.5,213.5 273.5,213.5 275.5,213.5C 275.5,226.5 275.5,239.5 275.5,252.5C 262.5,252.5 249.5,252.5 236.5,252.5C 236.5,278.5 236.5,304.5 236.5,330.5C 236.5,330.833 236.5,331.167 236.5,331.5C 223.5,331.5 210.5,331.5 197.5,331.5C 197.5,357.5 197.5,383.5 197.5,409.5C 184.167,409.5 170.833,409.5 157.5,409.5C 157.5,448.833 157.5,488.167 157.5,527.5C 144.833,527.5 132.167,527.5 119.5,527.5C 119.5,579.833 119.5,632.167 119.5,684.5C 119.167,684.5 118.833,684.5 118.5,684.5C 118.5,645.167 118.5,605.833 118.5,566.5C 105.833,566.5 93.1667,566.5 80.5,566.5C 80.0133,565.527 79.5133,564.527 79,563.5C 77.8929,538.38 78.3929,513.38 80.5,488.5C 82.1667,488.5 83.8333,488.5 85.5,488.5C 90.1667,488.5 94.8333,488.5 99.5,488.5C 103.833,488.5 108.167,488.5 112.5,488.5C 114.5,488.5 116.5,488.5 118.5,488.5C 119.499,450.337 119.832,412.004 119.5,373.5C 120.526,372.147 121.859,371.147 123.5,370.5C 135.167,370.5 146.833,370.5 158.5,370.5C 158.5,345.167 158.5,319.833 158.5,294.5C 159.167,293.833 159.833,293.167 160.5,292.5C 172.833,292.5 185.167,292.5 197.5,292.5C 197.5,287.833 197.5,283.167 197.5,278.5C 197.5,262.5 197.5,246.5 197.5,230.5C 197.5,226.833 197.5,223.167 197.5,219.5C 197.261,217.533 197.594,215.699 198.5,214C 201.146,213.503 203.813,213.336 206.5,213.5 Z"/></g>
<g><path style="opacity:0.059" fill="#fff3e1" d="M 197.5,219.5 C 197.5,223.167 197.5,226.833 197.5,230.5C 196.213,229.129 195.547,227.295 195.5,225C 195.547,222.705 196.213,220.871 197.5,219.5 Z"/></g>
<g><path style="opacity:0.204" fill="#fffefe" d="M 825.5,248.5 C 827.196,248.685 828.529,249.519 829.5,251C 840.674,251.17 851.674,251.67 862.5,252.5C 850.167,252.5 837.833,252.5 825.5,252.5C 825.5,251.167 825.5,249.833 825.5,248.5 Z"/></g>
<g><path style="opacity:0.113" fill="#ffebd1" d="M 197.5,278.5 C 197.5,283.167 197.5,287.833 197.5,292.5C 185.167,292.5 172.833,292.5 160.5,292.5C 171.008,291.833 181.674,291.167 192.5,290.5C 193.242,289.713 194.075,289.047 195,288.5C 195.333,285.5 195.667,282.5 196,279.5C 196.383,278.944 196.883,278.611 197.5,278.5 Z"/></g>
<g><path style="opacity:0.195" fill="#ffe9cb" d="M 864.5,281.5 C 864.837,285.314 866.504,288.481 869.5,291C 880.674,291.17 891.674,291.67 902.5,292.5C 889.833,292.5 877.167,292.5 864.5,292.5C 864.5,288.833 864.5,285.167 864.5,281.5 Z"/></g>
<g><path style="opacity:1" fill="#fdc62a" d="M 393.5,252.5 C 367.672,253.498 341.672,253.831 315.5,253.5C 315.5,266.5 315.5,279.5 315.5,292.5C 302.5,292.5 289.5,292.5 276.5,292.5C 276.5,305.5 276.5,318.5 276.5,331.5C 263.167,331.5 249.833,331.5 236.5,331.5C 236.5,331.167 236.5,330.833 236.5,330.5C 249.5,330.5 262.5,330.5 275.5,330.5C 275.5,317.5 275.5,304.5 275.5,291.5C 288.5,291.5 301.5,291.5 314.5,291.5C 314.5,278.5 314.5,265.5 314.5,252.5C 340.833,252.5 367.167,252.5 393.5,252.5 Z"/></g>
<g><path style="opacity:0.133" fill="#ffdaa9" d="M 903.5,293.5 C 904.478,296.803 905.145,300.303 905.5,304C 904.54,324.815 904.207,345.649 904.5,366.5C 904.5,367.833 904.5,369.167 904.5,370.5C 903.502,345.005 903.169,319.339 903.5,293.5 Z"/></g>
<g><path style="opacity:0.015" fill="#ffeeda" d="M 158.5,294.5 C 158.5,319.833 158.5,345.167 158.5,370.5C 146.833,370.5 135.167,370.5 123.5,370.5C 133.325,369.67 143.325,369.17 153.5,369C 154.646,368.355 155.646,367.522 156.5,366.5C 157.167,342.337 157.833,318.337 158.5,294.5 Z"/></g>
<g><path style="opacity:0.012" fill="#fffefc" d="M 904.5,366.5 C 905.309,367.469 906.309,368.302 907.5,369C 918.341,369.17 929.008,369.67 939.5,370.5C 927.833,370.5 916.167,370.5 904.5,370.5C 904.5,369.167 904.5,367.833 904.5,366.5 Z"/></g>
<g><path style="opacity:0.158" fill="#ffca85" d="M 119.5,373.5 C 119.832,412.004 119.499,450.337 118.5,488.5C 118.5,486.167 118.5,483.833 118.5,481.5C 118.789,449.156 118.456,416.822 117.5,384.5C 117.454,380.572 118.12,376.905 119.5,373.5 Z"/></g>
<g><path style="opacity:1" fill="#ffab11" d="M 197.5,409.5 C 184.677,410.495 171.677,410.829 158.5,410.5C 158.832,449.67 158.499,488.67 157.5,527.5C 157.5,488.167 157.5,448.833 157.5,409.5C 170.833,409.5 184.167,409.5 197.5,409.5 Z"/></g>
<g><path style="opacity:1" fill="#f8a310" d="M 864.5,409.5 C 877.833,409.5 891.167,409.5 904.5,409.5C 904.5,488.167 904.5,566.833 904.5,645.5C 904.5,671.5 904.5,697.5 904.5,723.5C 904.167,723.5 903.833,723.5 903.5,723.5C 903.5,619.167 903.5,514.833 903.5,410.5C 890.323,410.829 877.323,410.495 864.5,409.5 Z"/></g>
<g><path style="opacity:1" fill="#000000" d="M 354.5,449.5 C 367.5,449.5 380.5,449.5 393.5,449.5C 393.5,475.5 393.5,501.5 393.5,527.5C 380.5,527.5 367.5,527.5 354.5,527.5C 354.5,501.5 354.5,475.5 354.5,449.5 Z"/></g>
<g><path style="opacity:1" fill="#000000" d="M 629.5,449.5 C 642.167,449.5 654.833,449.5 667.5,449.5C 667.5,475.5 667.5,501.5 667.5,527.5C 654.833,527.5 642.167,527.5 629.5,527.5C 629.5,501.5 629.5,475.5 629.5,449.5 Z"/></g>
<g><path style="opacity:1" fill="#4a3603" d="M 629.5,449.5 C 642.323,448.505 655.323,448.171 668.5,448.5C 668.831,475.005 668.498,501.339 667.5,527.5C 667.5,501.5 667.5,475.5 667.5,449.5C 654.833,449.5 642.167,449.5 629.5,449.5 Z"/></g>
<g><path style="opacity:0.205" fill="#ffdaa5" d="M 942.5,374.5 C 943.833,416.995 944.5,459.828 944.5,503C 944.333,545.833 944.167,588.667 944,631.5C 943.768,632.737 943.268,633.737 942.5,634.5C 942.5,547.833 942.5,461.167 942.5,374.5 Z"/></g>
<g><path style="opacity:0.173" fill="#fff8f0" d="M 118.5,481.5 C 118.5,483.833 118.5,486.167 118.5,488.5C 116.5,488.5 114.5,488.5 112.5,488.5C 113.184,486.815 114.517,485.815 116.5,485.5C 117.172,484.051 117.839,482.718 118.5,481.5 Z"/></g>
<g><path style="opacity:0.136" fill="#ffedd9" d="M 99.5,488.5 C 94.8333,488.5 90.1667,488.5 85.5,488.5C 87.3972,487.195 89.7305,486.529 92.5,486.5C 95.2695,486.529 97.6028,487.195 99.5,488.5 Z"/></g>
<g><path style="opacity:1" fill="#f5851e" d="M 393.5,567.5 C 471.998,566.501 550.665,566.167 629.5,566.5C 629.5,579.5 629.5,592.5 629.5,605.5C 629.167,605.5 628.833,605.5 628.5,605.5C 628.5,592.833 628.5,580.167 628.5,567.5C 550.5,567.5 472.5,567.5 394.5,567.5C 394.167,567.5 393.833,567.5 393.5,567.5 Z"/></g>
<g><path style="opacity:0.98" fill="#dc7525" d="M 80.5,566.5 C 93.1667,566.5 105.833,566.5 118.5,566.5C 118.5,605.833 118.5,645.167 118.5,684.5C 116.167,684.5 113.833,684.5 111.5,684.5C 101.154,684.179 90.987,683.179 81,681.5C 80.5,643.168 80.3333,604.835 80.5,566.5 Z"/></g>
<g><path style="opacity:1" fill="#ee692e" d="M 394.5,567.5 C 472.5,567.5 550.5,567.5 628.5,567.5C 628.5,580.167 628.5,592.833 628.5,605.5C 550.5,605.5 472.5,605.5 394.5,605.5C 394.5,592.833 394.5,580.167 394.5,567.5 Z"/></g>
<g><path style="opacity:1" fill="#c94016" d="M 354.5,606.5 C 367.5,606.5 380.5,606.5 393.5,606.5C 393.5,619.167 393.5,631.833 393.5,644.5C 380.5,644.5 367.5,644.5 354.5,644.5C 354.5,631.833 354.5,619.167 354.5,606.5 Z"/></g>
<g><path style="opacity:1" fill="#e0751d" d="M 393.5,567.5 C 393.833,567.5 394.167,567.5 394.5,567.5C 394.5,580.167 394.5,592.833 394.5,605.5C 472.5,605.5 550.5,605.5 628.5,605.5C 628.833,605.5 629.167,605.5 629.5,605.5C 642.5,605.5 655.5,605.5 668.5,605.5C 668.5,618.833 668.5,632.167 668.5,645.5C 655.5,645.5 642.5,645.5 629.5,645.5C 629.829,658.677 629.495,671.677 628.5,684.5C 628.5,671.5 628.5,658.5 628.5,645.5C 550.167,645.5 471.833,645.5 393.5,645.5C 380.323,645.829 367.323,645.495 354.5,644.5C 367.5,644.5 380.5,644.5 393.5,644.5C 393.5,631.833 393.5,619.167 393.5,606.5C 380.5,606.5 367.5,606.5 354.5,606.5C 367.323,605.505 380.323,605.171 393.5,605.5C 393.5,592.833 393.5,580.167 393.5,567.5 Z"/></g>
<g><path style="opacity:1" fill="#c84015" d="M 629.5,606.5 C 642.167,606.5 654.833,606.5 667.5,606.5C 667.5,619.167 667.5,631.833 667.5,644.5C 654.833,644.5 642.167,644.5 629.5,644.5C 629.5,631.833 629.5,619.167 629.5,606.5 Z"/></g>
<g><path style="opacity:1" fill="#e58e21" d="M 394.5,606.5 C 472.5,606.5 550.5,606.5 628.5,606.5C 628.5,619.167 628.5,631.833 628.5,644.5C 550.5,644.5 472.5,644.5 394.5,644.5C 394.5,631.833 394.5,619.167 394.5,606.5 Z"/></g>
<g><path style="opacity:1" fill="#c94015" d="M 393.5,645.5 C 471.833,645.5 550.167,645.5 628.5,645.5C 628.5,658.5 628.5,671.5 628.5,684.5C 550.167,684.5 471.833,684.5 393.5,684.5C 393.5,671.5 393.5,658.5 393.5,645.5 Z"/></g>
<g><path style="opacity:0.986" fill="#c75f0e" d="M 904.5,645.5 C 917.167,645.5 929.833,645.5 942.5,645.5C 942.325,647.621 942.659,649.621 943.5,651.5C 942.502,674.327 942.169,697.327 942.5,720.5C 942.5,721.5 942.5,722.5 942.5,723.5C 941.167,723.5 939.833,723.5 938.5,723.5C 927.167,723.5 915.833,723.5 904.5,723.5C 904.5,697.5 904.5,671.5 904.5,645.5 Z"/></g>
<g><path style="opacity:0.203" fill="#fef9f5" d="M 111.5,684.5 C 113.833,684.5 116.167,684.5 118.5,684.5C 118.5,685.833 118.5,687.167 118.5,688.5C 116.551,686.437 114.218,685.104 111.5,684.5 Z"/></g>
<g><path style="opacity:0.983" fill="#dc7626" d="M 118.5,684.5 C 118.833,684.5 119.167,684.5 119.5,684.5C 132.167,684.5 144.833,684.5 157.5,684.5C 157.5,710.833 157.5,737.167 157.5,763.5C 170.833,763.5 184.167,763.5 197.5,763.5C 197.5,789.5 197.5,815.5 197.5,841.5C 196.167,841.5 194.833,841.5 193.5,841.5C 181.842,841.577 170.175,841.244 158.5,840.5C 158.5,839.5 158.5,838.5 158.5,837.5C 158.5,825.833 158.5,814.167 158.5,802.5C 146.5,802.5 134.5,802.5 122.5,802.5C 121.518,801.859 120.518,801.193 119.5,800.5C 118.5,763.173 118.167,725.839 118.5,688.5C 118.5,687.167 118.5,685.833 118.5,684.5 Z"/></g>
<g><path style="opacity:1" fill="#eb9414" d="M 157.5,684.5 C 158.498,710.328 158.831,736.328 158.5,762.5C 171.677,762.171 184.677,762.505 197.5,763.5C 184.167,763.5 170.833,763.5 157.5,763.5C 157.5,737.167 157.5,710.833 157.5,684.5 Z"/></g>
<g><path style="opacity:0.229" fill="#ecbf9e" d="M 943.5,651.5 C 944.167,662.828 944.5,674.328 944.5,686C 944.499,697.853 943.832,709.353 942.5,720.5C 942.169,697.327 942.502,674.327 943.5,651.5 Z"/></g>
<g><path style="opacity:1" fill="#e78b19" d="M 903.5,723.5 C 903.5,723.833 903.5,724.167 903.5,724.5C 890.833,724.5 878.167,724.5 865.5,724.5C 865.5,737.5 865.5,750.5 865.5,763.5C 852.167,763.5 838.833,763.5 825.5,763.5C 838.323,762.505 851.323,762.171 864.5,762.5C 864.5,749.5 864.5,736.5 864.5,723.5C 877.5,723.5 890.5,723.5 903.5,723.5 Z"/></g>
<g><path style="opacity:0.987" fill="#dc7627" d="M 903.5,724.5 C 903.5,749.833 903.5,775.167 903.5,800.5C 902.5,801.167 901.5,801.833 900.5,802.5C 888.5,802.5 876.5,802.5 864.5,802.5C 864.5,804.833 864.5,807.167 864.5,809.5C 864.285,817.36 864.618,825.193 865.5,833C 865.379,835.653 864.712,838.153 863.5,840.5C 852.552,841.478 841.552,841.811 830.5,841.5C 828.833,841.5 827.167,841.5 825.5,841.5C 825.5,842.833 825.5,844.167 825.5,845.5C 825.311,856.106 825.144,866.773 825,877.5C 824.075,878.047 823.242,878.713 822.5,879.5C 812.522,880.499 802.522,880.832 792.5,880.5C 790.167,880.5 787.833,880.5 785.5,880.5C 785.5,883.167 785.5,885.833 785.5,888.5C 785.5,889.167 785.833,889.5 786.5,889.5C 785.528,898.75 785.195,908.083 785.5,917.5C 785.167,918.167 784.833,918.833 784.5,919.5C 758.833,919.5 733.167,919.5 707.5,919.5C 707.5,924.167 707.5,928.833 707.5,933.5C 707.5,934.5 707.5,935.5 707.5,936.5C 598.804,937.462 490.137,937.795 381.5,937.5C 373.527,936.862 365.527,936.196 357.5,935.5C 356.398,934.824 355.398,934.158 354.5,933.5C 354.5,928.833 354.5,924.167 354.5,919.5C 316.167,919.5 277.833,919.5 239.5,919.5C 238.272,918.694 237.272,917.694 236.5,916.5C 236.5,904.5 236.5,892.5 236.5,880.5C 234.167,880.5 231.833,880.5 229.5,880.5C 223.167,880.766 216.834,881.1 210.5,881.5C 206.299,881.717 202.299,881.05 198.5,879.5C 197.522,868.218 197.188,856.885 197.5,845.5C 197.5,844.5 197.5,843.5 197.5,842.5C 223.5,842.5 249.5,842.5 275.5,842.5C 275.5,855.5 275.5,868.5 275.5,881.5C 314.833,881.5 354.167,881.5 393.5,881.5C 393.5,894.5 393.5,907.5 393.5,920.5C 485.167,920.5 576.833,920.5 668.5,920.5C 668.5,907.167 668.5,893.833 668.5,880.5C 694.5,880.5 720.5,880.5 746.5,880.5C 746.5,867.5 746.5,854.5 746.5,841.5C 746.833,841.5 747.167,841.5 747.5,841.5C 760.5,841.5 773.5,841.5 786.5,841.5C 786.5,828.5 786.5,815.5 786.5,802.5C 799.5,802.5 812.5,802.5 825.5,802.5C 825.5,789.5 825.5,776.5 825.5,763.5C 838.833,763.5 852.167,763.5 865.5,763.5C 865.5,750.5 865.5,737.5 865.5,724.5C 878.167,724.5 890.833,724.5 903.5,724.5 Z"/></g>
<g><path style="opacity:0.093" fill="#fefffe" d="M 937.5,724.5 C 926.976,725.235 916.309,725.901 905.5,726.5C 905.737,727.791 905.404,728.791 904.5,729.5C 904.5,727.833 904.5,726.167 904.5,724.5C 915.5,724.5 926.5,724.5 937.5,724.5 Z"/></g>
<g><path style="opacity:0.09" fill="#f1c9a8" d="M 903.5,723.5 C 903.833,723.5 904.167,723.5 904.5,723.5C 915.833,723.5 927.167,723.5 938.5,723.5C 938.5,724.167 938.167,724.5 937.5,724.5C 926.5,724.5 915.5,724.5 904.5,724.5C 904.5,726.167 904.5,727.833 904.5,729.5C 904.831,753.339 904.498,777.006 903.5,800.5C 903.5,775.167 903.5,749.833 903.5,724.5C 903.5,724.167 903.5,723.833 903.5,723.5 Z"/></g>
<g><path style="opacity:1" fill="#f6aa0f" d="M 825.5,763.5 C 825.5,776.5 825.5,789.5 825.5,802.5C 812.5,802.5 799.5,802.5 786.5,802.5C 773.5,802.5 760.5,802.5 747.5,802.5C 747.5,815.5 747.5,828.5 747.5,841.5C 747.167,841.5 746.833,841.5 746.5,841.5C 746.5,828.167 746.5,814.833 746.5,801.5C 772.5,801.5 798.5,801.5 824.5,801.5C 824.171,788.656 824.505,775.989 825.5,763.5 Z"/></g>
<g><path style="opacity:0.119" fill="#fcede3" d="M 122.5,802.5 C 134.5,802.5 146.5,802.5 158.5,802.5C 158.5,814.167 158.5,825.833 158.5,837.5C 157.833,827.326 157.167,816.992 156.5,806.5C 155.354,805.855 154.354,805.022 153.5,804C 142.992,803.83 132.659,803.33 122.5,802.5 Z"/></g>
<g><path style="opacity:1" fill="#f09b2f" d="M 786.5,802.5 C 786.5,815.5 786.5,828.5 786.5,841.5C 773.5,841.5 760.5,841.5 747.5,841.5C 747.5,828.5 747.5,815.5 747.5,802.5C 760.5,802.5 773.5,802.5 786.5,802.5 Z"/></g>
<g><path style="opacity:0.149" fill="#fefbf9" d="M 900.5,802.5 C 890.341,803.33 880.008,803.83 869.5,804C 867.258,805.422 865.591,807.255 864.5,809.5C 864.5,807.167 864.5,804.833 864.5,802.5C 876.5,802.5 888.5,802.5 900.5,802.5 Z"/></g>
<g><path style="opacity:0.659" fill="#fbe9df" d="M 193.5,841.5 C 194.833,841.5 196.167,841.5 197.5,841.5C 197.5,841.833 197.5,842.167 197.5,842.5C 197.5,843.5 197.5,844.5 197.5,845.5C 195.5,844.833 194.167,843.5 193.5,841.5 Z"/></g>
<g><path style="opacity:1" fill="#f19c2f" d="M 276.5,841.5 C 302.5,841.5 328.5,841.5 354.5,841.5C 354.5,854.5 354.5,867.5 354.5,880.5C 328.5,880.5 302.5,880.5 276.5,880.5C 276.5,867.5 276.5,854.5 276.5,841.5 Z"/></g>
<g><path style="opacity:1" fill="#f19c2f" d="M 746.5,841.5 C 746.5,854.5 746.5,867.5 746.5,880.5C 720.5,880.5 694.5,880.5 668.5,880.5C 668.5,867.5 668.5,854.5 668.5,841.5C 694.5,841.5 720.5,841.5 746.5,841.5 Z"/></g>
<g><path style="opacity:0.193" fill="#fdf8f5" d="M 830.5,841.5 C 829.344,843.387 827.677,844.721 825.5,845.5C 825.5,844.167 825.5,842.833 825.5,841.5C 827.167,841.5 828.833,841.5 830.5,841.5 Z"/></g>
<g><path style="opacity:1" fill="#e48424" d="M 197.5,842.5 C 197.5,842.167 197.5,841.833 197.5,841.5C 223.833,841.5 250.167,841.5 276.5,841.5C 276.5,854.5 276.5,867.5 276.5,880.5C 302.5,880.5 328.5,880.5 354.5,880.5C 367.5,880.5 380.5,880.5 393.5,880.5C 393.5,880.833 393.5,881.167 393.5,881.5C 354.167,881.5 314.833,881.5 275.5,881.5C 275.5,868.5 275.5,855.5 275.5,842.5C 249.5,842.5 223.5,842.5 197.5,842.5 Z"/></g>
<g><path style="opacity:1" fill="#f09b2f" d="M 393.5,880.5 C 485.167,880.5 576.833,880.5 668.5,880.5C 668.5,893.833 668.5,907.167 668.5,920.5C 576.833,920.5 485.167,920.5 393.5,920.5C 393.5,907.5 393.5,894.5 393.5,881.5C 393.5,881.167 393.5,880.833 393.5,880.5 Z"/></g>
<g><path style="opacity:0.633" fill="#eeb08c" d="M 792.5,880.5 C 791.791,881.404 790.791,881.737 789.5,881.5C 788.5,881.5 787.5,881.5 786.5,881.5C 786.5,883.833 786.5,886.167 786.5,888.5C 786.167,888.5 785.833,888.5 785.5,888.5C 785.5,885.833 785.5,883.167 785.5,880.5C 787.833,880.5 790.167,880.5 792.5,880.5 Z"/></g>
<g><path style="opacity:0.164" fill="#fefffe" d="M 789.5,881.5 C 788.366,883.839 787.366,886.173 786.5,888.5C 786.5,886.167 786.5,883.833 786.5,881.5C 787.5,881.5 788.5,881.5 789.5,881.5 Z"/></g>
<g><path style="opacity:0.065" fill="#fefbf9" d="M 229.5,880.5 C 231.833,880.5 234.167,880.5 236.5,880.5C 236.5,892.5 236.5,904.5 236.5,916.5C 235.67,906.341 235.17,896.008 235,885.5C 233.578,883.258 231.745,881.591 229.5,880.5 Z"/></g>
<g><path style="opacity:0.216" fill="#f5c7a8" d="M 786.5,889.5 C 787.166,893.988 787.499,898.654 787.5,903.5C 787.493,908.551 786.827,913.217 785.5,917.5C 785.195,908.083 785.528,898.75 786.5,889.5 Z"/></g>
<g><path style="opacity:0.207" fill="#fae2d1" d="M 239.5,919.5 C 277.833,919.5 316.167,919.5 354.5,919.5C 354.5,924.167 354.5,928.833 354.5,933.5C 353.515,930.943 352.515,928.276 351.5,925.5C 350.281,924.354 348.948,923.354 347.5,922.5C 311.338,921.498 275.338,920.498 239.5,919.5 Z"/></g>
<g><path style="opacity:0.208" fill="#fae3d4" d="M 784.5,919.5 C 761.005,920.781 737.338,921.781 713.5,922.5C 712.5,923.167 711.5,923.833 710.5,924.5C 709.77,927.109 709.27,929.776 709,932.5C 708.617,933.056 708.117,933.389 707.5,933.5C 707.5,928.833 707.5,924.167 707.5,919.5C 733.167,919.5 758.833,919.5 784.5,919.5 Z"/></g>
</svg>
