<?xml version="1.0" encoding="UTF-8"?>
<!DOCTYPE svg PUBLIC "-//W3C//DTD SVG 1.1//EN" "http://www.w3.org/Graphics/SVG/1.1/DTD/svg11.dtd">
<svg xmlns="http://www.w3.org/2000/svg" version="1.1" width="1440px" height="1440px" style="shape-rendering:geometricPrecision; text-rendering:geometricPrecision; image-rendering:optimizeQuality; fill-rule:evenodd; clip-rule:evenodd" xmlns:xlink="http://www.w3.org/1999/xlink">
<g><path style="opacity:1" fill="#2c8e09" d="M 629.5,179.5 C 629.5,189.5 629.5,199.5 629.5,209.5C 609.5,209.5 589.5,209.5 569.5,209.5C 569.5,199.5 569.5,189.5 569.5,179.5C 589.5,179.5 609.5,179.5 629.5,179.5 Z"/></g>
<g><path style="opacity:1" fill="#3cd107" d="M 629.5,179.5 C 669.5,179.5 709.5,179.5 749.5,179.5C 749.5,199.5 749.5,219.5 749.5,239.5C 739.5,239.5 729.5,239.5 719.5,239.5C 719.5,229.5 719.5,219.5 719.5,209.5C 699.5,209.5 679.5,209.5 659.5,209.5C 649.5,209.5 639.5,209.5 629.5,209.5C 629.5,199.5 629.5,189.5 629.5,179.5 Z"/></g>
<g><path style="opacity:1" fill="#2c8e09" d="M 569.5,209.5 C 569.5,219.5 569.5,229.5 569.5,239.5C 549.5,239.5 529.5,239.5 509.5,239.5C 509.5,229.5 509.5,219.5 509.5,209.5C 529.5,209.5 549.5,209.5 569.5,209.5 Z"/></g>
<g><path style="opacity:1" fill="#206407" d="M 569.5,209.5 C 589.5,209.5 609.5,209.5 629.5,209.5C 639.5,209.5 649.5,209.5 659.5,209.5C 659.5,219.5 659.5,229.5 659.5,239.5C 629.5,239.5 599.5,239.5 569.5,239.5C 569.5,229.5 569.5,219.5 569.5,209.5 Z"/></g>
<g><path style="opacity:1" fill="#2c8e09" d="M 659.5,209.5 C 679.5,209.5 699.5,209.5 719.5,209.5C 719.5,219.5 719.5,229.5 719.5,239.5C 699.5,239.5 679.5,239.5 659.5,239.5C 659.5,229.5 659.5,219.5 659.5,209.5 Z"/></g>
<g><path style="opacity:1" fill="#3cd107" d="M 899.5,209.5 C 899.5,219.5 899.5,229.5 899.5,239.5C 879.5,239.5 859.5,239.5 839.5,239.5C 839.5,249.5 839.5,259.5 839.5,269.5C 829.5,269.5 819.5,269.5 809.5,269.5C 799.5,269.5 789.5,269.5 779.5,269.5C 769.5,269.5 759.5,269.5 749.5,269.5C 749.5,259.5 749.5,249.5 749.5,239.5C 769.5,239.5 789.5,239.5 809.5,239.5C 809.5,229.5 809.5,219.5 809.5,209.5C 839.5,209.5 869.5,209.5 899.5,209.5 Z"/></g>
<g><path style="opacity:1" fill="#2c8e09" d="M 899.5,209.5 C 919.5,209.5 939.5,209.5 959.5,209.5C 959.5,219.5 959.5,229.5 959.5,239.5C 939.5,239.5 919.5,239.5 899.5,239.5C 899.5,229.5 899.5,219.5 899.5,209.5 Z"/></g>
<g><path style="opacity:1" fill="#206407" d="M 509.5,239.5 C 529.5,239.5 549.5,239.5 569.5,239.5C 569.5,249.5 569.5,259.5 569.5,269.5C 549.5,269.5 529.5,269.5 509.5,269.5C 509.5,259.5 509.5,249.5 509.5,239.5 Z"/></g>
<g><path style="opacity:1" fill="#206407" d="M 659.5,239.5 C 679.5,239.5 699.5,239.5 719.5,239.5C 719.5,249.5 719.5,259.5 719.5,269.5C 699.5,269.5 679.5,269.5 659.5,269.5C 659.5,259.5 659.5,249.5 659.5,239.5 Z"/></g>
<g><path style="opacity:1" fill="#2c8e09" d="M 719.5,239.5 C 729.5,239.5 739.5,239.5 749.5,239.5C 749.5,249.5 749.5,259.5 749.5,269.5C 739.5,269.5 729.5,269.5 719.5,269.5C 719.5,259.5 719.5,249.5 719.5,239.5 Z"/></g>
<g><path style="opacity:1" fill="#206407" d="M 899.5,239.5 C 919.5,239.5 939.5,239.5 959.5,239.5C 959.5,249.5 959.5,259.5 959.5,269.5C 969.5,269.5 979.5,269.5 989.5,269.5C 989.5,279.5 989.5,289.5 989.5,299.5C 969.5,299.5 949.5,299.5 929.5,299.5C 929.5,289.5 929.5,279.5 929.5,269.5C 899.5,269.5 869.5,269.5 839.5,269.5C 839.5,259.5 839.5,249.5 839.5,239.5C 859.5,239.5 879.5,239.5 899.5,239.5 Z"/></g>
<g><path style="opacity:1" fill="#2c8e09" d="M 959.5,239.5 C 969.5,239.5 979.5,239.5 989.5,239.5C 989.5,249.5 989.5,259.5 989.5,269.5C 989.5,259.5 989.5,249.5 989.5,239.5C 979.5,239.5 969.5,239.5 959.5,239.5 Z"/></g>
<g><path style="opacity:1" fill="#206407" d="M 719.5,269.5 C 729.5,269.5 739.5,269.5 749.5,269.5C 749.5,279.5 749.5,289.5 749.5,299.5C 739.5,299.5 729.5,299.5 719.5,299.5C 719.5,289.5 719.5,279.5 719.5,269.5 Z"/></g>
<g><path style="opacity:1" fill="#2c8e09" d="M 749.5,269.5 C 759.5,269.5 769.5,269.5 779.5,269.5C 779.5,279.5 779.5,289.5 779.5,299.5C 769.5,299.5 759.5,299.5 749.5,299.5C 749.5,289.5 749.5,279.5 749.5,269.5 Z"/></g>
<g><path style="opacity:1" fill="#206407" d="M 779.5,269.5 C 789.5,269.5 799.5,269.5 809.5,269.5C 809.5,279.5 809.5,289.5 809.5,299.5C 799.5,299.5 789.5,299.5 779.5,299.5C 779.5,289.5 779.5,279.5 779.5,269.5 Z"/></g>
<g><path style="opacity:1" fill="#206407" d="M 749.5,299.5 C 759.5,299.5 769.5,299.5 779.5,299.5C 779.5,339.5 779.5,379.5 779.5,419.5C 769.5,419.5 759.5,419.5 749.5,419.5C 749.5,379.5 749.5,339.5 749.5,299.5 Z"/></g>
</svg>
