<?xml version="1.0" encoding="UTF-8"?>
<!DOCTYPE svg PUBLIC "-//W3C//DTD SVG 1.1//EN" "http://www.w3.org/Graphics/SVG/1.1/DTD/svg11.dtd">
<svg xmlns="http://www.w3.org/2000/svg" version="1.1" width="1290px" height="1290px" style="shape-rendering:geometricPrecision; text-rendering:geometricPrecision; image-rendering:optimizeQuality; fill-rule:evenodd; clip-rule:evenodd" xmlns:xlink="http://www.w3.org/1999/xlink">
<g><path style="opacity:1" fill="#fe9e1f" d="M 937.5,937.5 C 927.833,937.5 918.167,937.5 908.5,937.5C 908.5,878.833 908.5,820.167 908.5,761.5C 898.833,761.5 889.167,761.5 879.5,761.5C 879.5,742.167 879.5,722.833 879.5,703.5C 869.5,703.5 859.5,703.5 849.5,703.5C 849.5,693.5 849.5,683.5 849.5,673.5C 839.833,673.5 830.167,673.5 820.5,673.5C 820.5,663.833 820.5,654.167 820.5,644.5C 810.833,644.5 801.167,644.5 791.5,644.5C 791.5,634.833 791.5,625.167 791.5,615.5C 781.5,615.5 771.5,615.5 761.5,615.5C 761.5,605.5 761.5,595.5 761.5,585.5C 732.167,585.5 702.833,585.5 673.5,585.5C 673.5,575.833 673.5,566.167 673.5,556.5C 663.833,556.5 654.167,556.5 644.5,556.5C 644.5,566.167 644.5,575.833 644.5,585.5C 624.833,585.5 605.167,585.5 585.5,585.5C 556.167,585.5 526.833,585.5 497.5,585.5C 497.5,575.833 497.5,566.167 497.5,556.5C 536.833,556.5 576.167,556.5 615.5,556.5C 615.5,546.833 615.5,537.167 615.5,527.5C 644.833,527.5 674.167,527.5 703.5,527.5C 703.5,537.167 703.5,546.833 703.5,556.5C 732.833,556.5 762.167,556.5 791.5,556.5C 791.5,566.167 791.5,575.833 791.5,585.5C 801.167,585.5 810.833,585.5 820.5,585.5C 820.5,595.5 820.5,605.5 820.5,615.5C 830.167,615.5 839.833,615.5 849.5,615.5C 849.5,625.167 849.5,634.833 849.5,644.5C 859.5,644.5 869.5,644.5 879.5,644.5C 879.5,654.167 879.5,663.833 879.5,673.5C 889.167,673.5 898.833,673.5 908.5,673.5C 908.5,693.167 908.5,712.833 908.5,732.5C 918.167,732.5 927.833,732.5 937.5,732.5C 937.5,800.833 937.5,869.167 937.5,937.5 Z"/></g>
<g><path style="opacity:1" fill="#febb00" d="M 908.5,937.5 C 908.5,957.167 908.5,976.833 908.5,996.5C 898.833,996.5 889.167,996.5 879.5,996.5C 879.5,1006.17 879.5,1015.83 879.5,1025.5C 869.5,1025.5 859.5,1025.5 849.5,1025.5C 849.5,1035.17 849.5,1044.83 849.5,1054.5C 839.833,1054.5 830.167,1054.5 820.5,1054.5C 820.5,1064.5 820.5,1074.5 820.5,1084.5C 810.833,1084.5 801.167,1084.5 791.5,1084.5C 791.5,1094.17 791.5,1103.83 791.5,1113.5C 771.833,1113.5 752.167,1113.5 732.5,1113.5C 732.5,1123.17 732.5,1132.83 732.5,1142.5C 703.167,1142.5 673.833,1142.5 644.5,1142.5C 644.5,1132.83 644.5,1123.17 644.5,1113.5C 615.167,1113.5 585.833,1113.5 556.5,1113.5C 556.5,1103.83 556.5,1094.17 556.5,1084.5C 546.833,1084.5 537.167,1084.5 527.5,1084.5C 527.5,1064.83 527.5,1045.17 527.5,1025.5C 537.167,1025.5 546.833,1025.5 556.5,1025.5C 556.5,1006.17 556.5,986.833 556.5,967.5C 546.833,967.5 537.167,967.5 527.5,967.5C 527.5,947.833 527.5,928.167 527.5,908.5C 517.5,908.5 507.5,908.5 497.5,908.5C 497.5,928.167 497.5,947.833 497.5,967.5C 487.833,967.5 478.167,967.5 468.5,967.5C 468.5,986.833 468.5,1006.17 468.5,1025.5C 448.833,1025.5 429.167,1025.5 409.5,1025.5C 409.5,1015.83 409.5,1006.17 409.5,996.5C 399.833,996.5 390.167,996.5 380.5,996.5C 380.5,976.833 380.5,957.167 380.5,937.5C 370.833,937.5 361.167,937.5 351.5,937.5C 351.5,908.167 351.5,878.833 351.5,849.5C 361.167,849.5 370.833,849.5 380.5,849.5C 380.5,820.167 380.5,790.833 380.5,761.5C 380.5,742.167 380.5,722.833 380.5,703.5C 390.167,703.5 399.833,703.5 409.5,703.5C 419.5,703.5 429.5,703.5 439.5,703.5C 439.5,693.5 439.5,683.5 439.5,673.5C 449.167,673.5 458.833,673.5 468.5,673.5C 468.5,663.833 468.5,654.167 468.5,644.5C 488.167,644.5 507.833,644.5 527.5,644.5C 527.5,634.833 527.5,625.167 527.5,615.5C 546.833,615.5 566.167,615.5 585.5,615.5C 585.5,605.5 585.5,595.5 585.5,585.5C 605.167,585.5 624.833,585.5 644.5,585.5C 644.5,575.833 644.5,566.167 644.5,556.5C 654.167,556.5 663.833,556.5 673.5,556.5C 673.5,566.167 673.5,575.833 673.5,585.5C 702.833,585.5 732.167,585.5 761.5,585.5C 761.5,595.5 761.5,605.5 761.5,615.5C 771.5,615.5 781.5,615.5 791.5,615.5C 791.5,625.167 791.5,634.833 791.5,644.5C 801.167,644.5 810.833,644.5 820.5,644.5C 820.5,654.167 820.5,663.833 820.5,673.5C 830.167,673.5 839.833,673.5 849.5,673.5C 849.5,683.5 849.5,693.5 849.5,703.5C 859.5,703.5 869.5,703.5 879.5,703.5C 879.5,722.833 879.5,742.167 879.5,761.5C 889.167,761.5 898.833,761.5 908.5,761.5C 908.5,820.167 908.5,878.833 908.5,937.5 Z"/></g>
<g><path style="opacity:1" fill="#fe9e1f" d="M 497.5,585.5 C 497.5,595.5 497.5,605.5 497.5,615.5C 478.167,615.5 458.833,615.5 439.5,615.5C 439.5,605.5 439.5,595.5 439.5,585.5C 458.833,585.5 478.167,585.5 497.5,585.5 Z"/></g>
<g><path style="opacity:1" fill="#fbd152" d="M 497.5,585.5 C 526.833,585.5 556.167,585.5 585.5,585.5C 585.5,595.5 585.5,605.5 585.5,615.5C 566.167,615.5 546.833,615.5 527.5,615.5C 527.5,625.167 527.5,634.833 527.5,644.5C 507.833,644.5 488.167,644.5 468.5,644.5C 468.5,654.167 468.5,663.833 468.5,673.5C 458.833,673.5 449.167,673.5 439.5,673.5C 439.5,683.5 439.5,693.5 439.5,703.5C 429.5,703.5 419.5,703.5 409.5,703.5C 409.5,683.833 409.5,664.167 409.5,644.5C 419.5,644.5 429.5,644.5 439.5,644.5C 439.5,634.833 439.5,625.167 439.5,615.5C 458.833,615.5 478.167,615.5 497.5,615.5C 497.5,605.5 497.5,595.5 497.5,585.5 Z"/></g>
<g><path style="opacity:1" fill="#fe9e1f" d="M 439.5,615.5 C 439.5,625.167 439.5,634.833 439.5,644.5C 429.5,644.5 419.5,644.5 409.5,644.5C 409.5,664.167 409.5,683.833 409.5,703.5C 399.833,703.5 390.167,703.5 380.5,703.5C 380.5,722.833 380.5,742.167 380.5,761.5C 370.833,761.5 361.167,761.5 351.5,761.5C 351.5,790.833 351.5,820.167 351.5,849.5C 341.833,849.5 332.167,849.5 322.5,849.5C 322.5,859.5 322.5,869.5 322.5,879.5C 312.5,879.5 302.5,879.5 292.5,879.5C 292.5,859.833 292.5,840.167 292.5,820.5C 302.5,820.5 312.5,820.5 322.5,820.5C 322.5,791.167 322.5,761.833 322.5,732.5C 332.167,732.5 341.833,732.5 351.5,732.5C 351.5,712.833 351.5,693.167 351.5,673.5C 361.167,673.5 370.833,673.5 380.5,673.5C 380.5,654.167 380.5,634.833 380.5,615.5C 400.167,615.5 419.833,615.5 439.5,615.5 Z"/></g>
<g><path style="opacity:1" fill="#000000" d="M 585.5,703.5 C 595.5,703.5 605.5,703.5 615.5,703.5C 615.5,722.833 615.5,742.167 615.5,761.5C 605.5,761.5 595.5,761.5 585.5,761.5C 585.5,742.167 585.5,722.833 585.5,703.5 Z"/></g>
<g><path style="opacity:1" fill="#000000" d="M 791.5,703.5 C 801.167,703.5 810.833,703.5 820.5,703.5C 820.5,722.833 820.5,742.167 820.5,761.5C 810.833,761.5 801.167,761.5 791.5,761.5C 791.5,742.167 791.5,722.833 791.5,703.5 Z"/></g>
<g><path style="opacity:1" fill="#f09c2f" d="M 380.5,761.5 C 380.5,790.833 380.5,820.167 380.5,849.5C 370.833,849.5 361.167,849.5 351.5,849.5C 351.5,820.167 351.5,790.833 351.5,761.5C 361.167,761.5 370.833,761.5 380.5,761.5 Z"/></g>
<g><path style="opacity:1" fill="#ee692e" d="M 791.5,820.5 C 752.167,820.5 712.833,820.5 673.5,820.5C 663.833,820.5 654.167,820.5 644.5,820.5C 644.5,810.833 644.5,801.167 644.5,791.5C 693.5,791.5 742.5,791.5 791.5,791.5C 791.5,801.167 791.5,810.833 791.5,820.5 Z"/></g>
<g><path style="opacity:1" fill="#c84015" d="M 644.5,820.5 C 654.167,820.5 663.833,820.5 673.5,820.5C 673.5,830.167 673.5,839.833 673.5,849.5C 712.833,849.5 752.167,849.5 791.5,849.5C 801.167,849.5 810.833,849.5 820.5,849.5C 820.5,859.5 820.5,869.5 820.5,879.5C 752.167,879.5 683.833,879.5 615.5,879.5C 615.5,859.833 615.5,840.167 615.5,820.5C 625.167,820.5 634.833,820.5 644.5,820.5 Z"/></g>
<g><path style="opacity:1" fill="#e58e21" d="M 673.5,820.5 C 712.833,820.5 752.167,820.5 791.5,820.5C 791.5,830.167 791.5,839.833 791.5,849.5C 752.167,849.5 712.833,849.5 673.5,849.5C 673.5,839.833 673.5,830.167 673.5,820.5 Z"/></g>
<g><path style="opacity:1" fill="#ee692e" d="M 791.5,820.5 C 801.167,820.5 810.833,820.5 820.5,820.5C 820.5,830.167 820.5,839.833 820.5,849.5C 810.833,849.5 801.167,849.5 791.5,849.5C 791.5,839.833 791.5,830.167 791.5,820.5 Z"/></g>
<g><path style="opacity:1" fill="#f09c2f" d="M 351.5,849.5 C 351.5,878.833 351.5,908.167 351.5,937.5C 361.167,937.5 370.833,937.5 380.5,937.5C 380.5,957.167 380.5,976.833 380.5,996.5C 390.167,996.5 399.833,996.5 409.5,996.5C 409.5,1006.17 409.5,1015.83 409.5,1025.5C 390.167,1025.5 370.833,1025.5 351.5,1025.5C 351.5,1006.17 351.5,986.833 351.5,967.5C 341.833,967.5 332.167,967.5 322.5,967.5C 322.5,938.167 322.5,908.833 322.5,879.5C 322.5,869.5 322.5,859.5 322.5,849.5C 332.167,849.5 341.833,849.5 351.5,849.5 Z"/></g>
<g><path style="opacity:1" fill="#db7524" d="M 292.5,879.5 C 302.5,879.5 312.5,879.5 322.5,879.5C 322.5,908.833 322.5,938.167 322.5,967.5C 312.5,967.5 302.5,967.5 292.5,967.5C 292.5,938.167 292.5,908.833 292.5,879.5 Z"/></g>
<g><path style="opacity:1" fill="#db7524" d="M 527.5,967.5 C 527.5,977.167 527.5,986.833 527.5,996.5C 517.5,996.5 507.5,996.5 497.5,996.5C 497.5,1015.83 497.5,1035.17 497.5,1054.5C 458.5,1054.5 419.5,1054.5 380.5,1054.5C 380.5,1064.5 380.5,1074.5 380.5,1084.5C 370.833,1084.5 361.167,1084.5 351.5,1084.5C 351.5,1074.5 351.5,1064.5 351.5,1054.5C 341.833,1054.5 332.167,1054.5 322.5,1054.5C 322.5,1025.5 322.5,996.5 322.5,967.5C 332.167,967.5 341.833,967.5 351.5,967.5C 351.5,986.833 351.5,1006.17 351.5,1025.5C 370.833,1025.5 390.167,1025.5 409.5,1025.5C 429.167,1025.5 448.833,1025.5 468.5,1025.5C 468.5,1006.17 468.5,986.833 468.5,967.5C 478.167,967.5 487.833,967.5 497.5,967.5C 497.5,947.833 497.5,928.167 497.5,908.5C 507.5,908.5 517.5,908.5 527.5,908.5C 527.5,928.167 527.5,947.833 527.5,967.5 Z"/></g>
<g><path style="opacity:1" fill="#db7524" d="M 908.5,937.5 C 918.167,937.5 927.833,937.5 937.5,937.5C 937.5,957.167 937.5,976.833 937.5,996.5C 927.833,996.5 918.167,996.5 908.5,996.5C 908.5,976.833 908.5,957.167 908.5,937.5 Z"/></g>
<g><path style="opacity:1" fill="#f09c2f" d="M 527.5,967.5 C 537.167,967.5 546.833,967.5 556.5,967.5C 556.5,986.833 556.5,1006.17 556.5,1025.5C 546.833,1025.5 537.167,1025.5 527.5,1025.5C 527.5,1045.17 527.5,1064.83 527.5,1084.5C 537.167,1084.5 546.833,1084.5 556.5,1084.5C 556.5,1094.17 556.5,1103.83 556.5,1113.5C 585.833,1113.5 615.167,1113.5 644.5,1113.5C 644.5,1123.17 644.5,1132.83 644.5,1142.5C 605.5,1142.5 566.5,1142.5 527.5,1142.5C 527.5,1132.83 527.5,1123.17 527.5,1113.5C 498.167,1113.5 468.833,1113.5 439.5,1113.5C 439.5,1103.83 439.5,1094.17 439.5,1084.5C 419.833,1084.5 400.167,1084.5 380.5,1084.5C 380.5,1074.5 380.5,1064.5 380.5,1054.5C 419.5,1054.5 458.5,1054.5 497.5,1054.5C 497.5,1035.17 497.5,1015.83 497.5,996.5C 507.5,996.5 517.5,996.5 527.5,996.5C 527.5,986.833 527.5,977.167 527.5,967.5 Z"/></g>
<g><path style="opacity:1" fill="#db7524" d="M 908.5,996.5 C 908.5,1015.83 908.5,1035.17 908.5,1054.5C 898.833,1054.5 889.167,1054.5 879.5,1054.5C 879.5,1064.5 879.5,1074.5 879.5,1084.5C 869.5,1084.5 859.5,1084.5 849.5,1084.5C 849.5,1094.17 849.5,1103.83 849.5,1113.5C 839.833,1113.5 830.167,1113.5 820.5,1113.5C 820.5,1123.17 820.5,1132.83 820.5,1142.5C 800.833,1142.5 781.167,1142.5 761.5,1142.5C 761.5,1152.5 761.5,1162.5 761.5,1172.5C 742.167,1172.5 722.833,1172.5 703.5,1172.5C 693.5,1172.5 683.5,1172.5 673.5,1172.5C 644.167,1172.5 614.833,1172.5 585.5,1172.5C 575.833,1172.5 566.167,1172.5 556.5,1172.5C 536.833,1172.5 517.167,1172.5 497.5,1172.5C 497.5,1162.5 497.5,1152.5 497.5,1142.5C 468.167,1142.5 438.833,1142.5 409.5,1142.5C 409.5,1132.83 409.5,1123.17 409.5,1113.5C 399.833,1113.5 390.167,1113.5 380.5,1113.5C 380.5,1103.83 380.5,1094.17 380.5,1084.5C 400.167,1084.5 419.833,1084.5 439.5,1084.5C 439.5,1094.17 439.5,1103.83 439.5,1113.5C 468.833,1113.5 498.167,1113.5 527.5,1113.5C 527.5,1123.17 527.5,1132.83 527.5,1142.5C 566.5,1142.5 605.5,1142.5 644.5,1142.5C 673.833,1142.5 703.167,1142.5 732.5,1142.5C 732.5,1132.83 732.5,1123.17 732.5,1113.5C 752.167,1113.5 771.833,1113.5 791.5,1113.5C 791.5,1103.83 791.5,1094.17 791.5,1084.5C 801.167,1084.5 810.833,1084.5 820.5,1084.5C 820.5,1074.5 820.5,1064.5 820.5,1054.5C 830.167,1054.5 839.833,1054.5 849.5,1054.5C 849.5,1044.83 849.5,1035.17 849.5,1025.5C 859.5,1025.5 869.5,1025.5 879.5,1025.5C 879.5,1015.83 879.5,1006.17 879.5,996.5C 889.167,996.5 898.833,996.5 908.5,996.5 Z"/></g>
<g><path style="opacity:1" fill="#c84015" d="M 556.5,1172.5 C 566.167,1172.5 575.833,1172.5 585.5,1172.5C 585.5,1182.17 585.5,1191.83 585.5,1201.5C 605.167,1201.5 624.833,1201.5 644.5,1201.5C 644.5,1211.17 644.5,1220.83 644.5,1230.5C 615.167,1230.5 585.833,1230.5 556.5,1230.5C 556.5,1211.17 556.5,1191.83 556.5,1172.5 Z"/></g>
<g><path style="opacity:1" fill="#a42408" d="M 673.5,1172.5 C 683.5,1172.5 693.5,1172.5 703.5,1172.5C 703.5,1182.17 703.5,1191.83 703.5,1201.5C 722.833,1201.5 742.167,1201.5 761.5,1201.5C 761.5,1211.17 761.5,1220.83 761.5,1230.5C 732.167,1230.5 702.833,1230.5 673.5,1230.5C 673.5,1211.17 673.5,1191.83 673.5,1172.5 Z"/></g>
</svg>
