<?xml version="1.0" encoding="UTF-8"?>
<!DOCTYPE svg PUBLIC "-//W3C//DTD SVG 1.1//EN" "http://www.w3.org/Graphics/SVG/1.1/DTD/svg11.dtd">
<svg xmlns="http://www.w3.org/2000/svg" version="1.1" width="1440px" height="1440px" style="shape-rendering:geometricPrecision; text-rendering:geometricPrecision; image-rendering:optimizeQuality; fill-rule:evenodd; clip-rule:evenodd" xmlns:xlink="http://www.w3.org/1999/xlink">
<g><path style="opacity:1" fill="#000000" d="M 1109.5,509.5 C 1109.5,519.5 1109.5,529.5 1109.5,539.5C 1099.5,539.5 1089.5,539.5 1079.5,539.5C 1079.5,549.5 1079.5,559.5 1079.5,569.5C 1069.5,569.5 1059.5,569.5 1049.5,569.5C 1049.5,469.5 1049.5,369.5 1049.5,269.5C 829.5,269.5 609.5,269.5 389.5,269.5C 389.5,569.5 389.5,869.5 389.5,1169.5C 609.5,1169.5 829.5,1169.5 1049.5,1169.5C 1049.5,1009.5 1049.5,849.5 1049.5,689.5C 1039.5,689.5 1029.5,689.5 1019.5,689.5C 1019.5,679.5 1019.5,669.5 1019.5,659.5C 1029.5,659.5 1039.5,659.5 1049.5,659.5C 1049.5,649.5 1049.5,639.5 1049.5,629.5C 1059.5,629.5 1069.5,629.5 1079.5,629.5C 1079.5,819.5 1079.5,1009.5 1079.5,1199.5C 839.5,1199.5 599.5,1199.5 359.5,1199.5C 359.5,879.5 359.5,559.5 359.5,239.5C 599.5,239.5 839.5,239.5 1079.5,239.5C 1079.5,329.5 1079.5,419.5 1079.5,509.5C 1089.5,509.5 1099.5,509.5 1109.5,509.5 Z M 749.5,869.5 C 759.5,869.5 769.5,869.5 779.5,869.5C 779.5,889.5 779.5,909.5 779.5,929.5C 769.5,929.5 759.5,929.5 749.5,929.5C 749.5,909.5 749.5,889.5 749.5,869.5 Z"/></g>
<g><path style="opacity:1" fill="#000000" d="M 1259.5,449.5 C 1259.5,439.5 1259.5,429.5 1259.5,419.5C 1239.5,419.5 1219.5,419.5 1199.5,419.5C 1199.5,409.5 1199.5,399.5 1199.5,389.5C 1209.5,389.5 1219.5,389.5 1229.5,389.5C 1229.5,379.5 1229.5,369.5 1229.5,359.5C 1239.5,359.5 1249.5,359.5 1259.5,359.5C 1259.5,369.5 1259.5,379.5 1259.5,389.5C 1269.5,389.5 1279.5,389.5 1289.5,389.5C 1289.5,409.5 1289.5,429.5 1289.5,449.5C 1279.5,449.5 1269.5,449.5 1259.5,449.5 Z"/></g>
<g><path style="opacity:1" fill="#000000" d="M 449.5,389.5 C 629.5,389.5 809.5,389.5 989.5,389.5C 989.5,399.5 989.5,409.5 989.5,419.5C 809.5,419.5 629.5,419.5 449.5,419.5C 449.5,409.5 449.5,399.5 449.5,389.5 Z"/></g>
<g><path style="opacity:1" fill="#000000" d="M 1199.5,419.5 C 1199.5,429.5 1199.5,439.5 1199.5,449.5C 1189.5,449.5 1179.5,449.5 1169.5,449.5C 1169.5,439.5 1169.5,429.5 1169.5,419.5C 1179.5,419.5 1189.5,419.5 1199.5,419.5 Z"/></g>
<g><path style="opacity:1" fill="#000000" d="M 1169.5,449.5 C 1169.5,459.5 1169.5,469.5 1169.5,479.5C 1159.5,479.5 1149.5,479.5 1139.5,479.5C 1139.5,469.5 1139.5,459.5 1139.5,449.5C 1149.5,449.5 1159.5,449.5 1169.5,449.5 Z"/></g>
<g><path style="opacity:1" fill="#000000" d="M 1259.5,449.5 C 1259.5,459.5 1259.5,469.5 1259.5,479.5C 1249.5,479.5 1239.5,479.5 1229.5,479.5C 1229.5,469.5 1229.5,459.5 1229.5,449.5C 1239.5,449.5 1249.5,449.5 1259.5,449.5 Z"/></g>
<g><path style="opacity:1" fill="#000000" d="M 1139.5,479.5 C 1139.5,489.5 1139.5,499.5 1139.5,509.5C 1129.5,509.5 1119.5,509.5 1109.5,509.5C 1109.5,499.5 1109.5,489.5 1109.5,479.5C 1119.5,479.5 1129.5,479.5 1139.5,479.5 Z"/></g>
<g><path style="opacity:1" fill="#000000" d="M 1229.5,479.5 C 1229.5,489.5 1229.5,499.5 1229.5,509.5C 1219.5,509.5 1209.5,509.5 1199.5,509.5C 1199.5,499.5 1199.5,489.5 1199.5,479.5C 1209.5,479.5 1219.5,479.5 1229.5,479.5 Z"/></g>
<g><path style="opacity:1" fill="#000000" d="M 449.5,509.5 C 629.5,509.5 809.5,509.5 989.5,509.5C 989.5,519.5 989.5,529.5 989.5,539.5C 809.5,539.5 629.5,539.5 449.5,539.5C 449.5,529.5 449.5,519.5 449.5,509.5 Z"/></g>
<g><path style="opacity:1" fill="#000000" d="M 1199.5,509.5 C 1199.5,519.5 1199.5,529.5 1199.5,539.5C 1189.5,539.5 1179.5,539.5 1169.5,539.5C 1169.5,529.5 1169.5,519.5 1169.5,509.5C 1179.5,509.5 1189.5,509.5 1199.5,509.5 Z"/></g>
<g><path style="opacity:1" fill="#000000" d="M 1169.5,539.5 C 1169.5,549.5 1169.5,559.5 1169.5,569.5C 1159.5,569.5 1149.5,569.5 1139.5,569.5C 1139.5,559.5 1139.5,549.5 1139.5,539.5C 1149.5,539.5 1159.5,539.5 1169.5,539.5 Z"/></g>
<g><path style="opacity:1" fill="#000000" d="M 1049.5,569.5 C 1049.5,579.5 1049.5,589.5 1049.5,599.5C 1039.5,599.5 1029.5,599.5 1019.5,599.5C 1019.5,589.5 1019.5,579.5 1019.5,569.5C 1029.5,569.5 1039.5,569.5 1049.5,569.5 Z"/></g>
<g><path style="opacity:1" fill="#000000" d="M 1139.5,569.5 C 1139.5,579.5 1139.5,589.5 1139.5,599.5C 1129.5,599.5 1119.5,599.5 1109.5,599.5C 1109.5,589.5 1109.5,579.5 1109.5,569.5C 1119.5,569.5 1129.5,569.5 1139.5,569.5 Z"/></g>
<g><path style="opacity:1" fill="#000000" d="M 1019.5,599.5 C 1019.5,609.5 1019.5,619.5 1019.5,629.5C 1009.5,629.5 999.5,629.5 989.5,629.5C 989.5,619.5 989.5,609.5 989.5,599.5C 999.5,599.5 1009.5,599.5 1019.5,599.5 Z"/></g>
<g><path style="opacity:1" fill="#000000" d="M 1109.5,599.5 C 1109.5,609.5 1109.5,619.5 1109.5,629.5C 1099.5,629.5 1089.5,629.5 1079.5,629.5C 1079.5,619.5 1079.5,609.5 1079.5,599.5C 1089.5,599.5 1099.5,599.5 1109.5,599.5 Z"/></g>
<g><path style="opacity:1" fill="#000000" d="M 989.5,629.5 C 989.5,639.5 989.5,649.5 989.5,659.5C 979.5,659.5 969.5,659.5 959.5,659.5C 959.5,649.5 959.5,639.5 959.5,629.5C 969.5,629.5 979.5,629.5 989.5,629.5 Z"/></g>
<g><path style="opacity:1" fill="#000000" d="M 959.5,659.5 C 959.5,669.5 959.5,679.5 959.5,689.5C 949.5,689.5 939.5,689.5 929.5,689.5C 929.5,679.5 929.5,669.5 929.5,659.5C 939.5,659.5 949.5,659.5 959.5,659.5 Z"/></g>
<g><path style="opacity:1" fill="#000000" d="M 929.5,689.5 C 929.5,699.5 929.5,709.5 929.5,719.5C 919.5,719.5 909.5,719.5 899.5,719.5C 899.5,709.5 899.5,699.5 899.5,689.5C 909.5,689.5 919.5,689.5 929.5,689.5 Z"/></g>
<g><path style="opacity:1" fill="#000000" d="M 1019.5,689.5 C 1019.5,699.5 1019.5,709.5 1019.5,719.5C 1009.5,719.5 999.5,719.5 989.5,719.5C 989.5,709.5 989.5,699.5 989.5,689.5C 999.5,689.5 1009.5,689.5 1019.5,689.5 Z"/></g>
<g><path style="opacity:1" fill="#000000" d="M 899.5,719.5 C 899.5,729.5 899.5,739.5 899.5,749.5C 889.5,749.5 879.5,749.5 869.5,749.5C 869.5,739.5 869.5,729.5 869.5,719.5C 879.5,719.5 889.5,719.5 899.5,719.5 Z"/></g>
<g><path style="opacity:1" fill="#000000" d="M 989.5,719.5 C 989.5,729.5 989.5,739.5 989.5,749.5C 979.5,749.5 969.5,749.5 959.5,749.5C 959.5,739.5 959.5,729.5 959.5,719.5C 969.5,719.5 979.5,719.5 989.5,719.5 Z"/></g>
<g><path style="opacity:1" fill="#000000" d="M 869.5,749.5 C 869.5,759.5 869.5,769.5 869.5,779.5C 859.5,779.5 849.5,779.5 839.5,779.5C 839.5,769.5 839.5,759.5 839.5,749.5C 849.5,749.5 859.5,749.5 869.5,749.5 Z"/></g>
<g><path style="opacity:1" fill="#000000" d="M 959.5,749.5 C 959.5,759.5 959.5,769.5 959.5,779.5C 949.5,779.5 939.5,779.5 929.5,779.5C 929.5,769.5 929.5,759.5 929.5,749.5C 939.5,749.5 949.5,749.5 959.5,749.5 Z"/></g>
<g><path style="opacity:1" fill="#000000" d="M 839.5,779.5 C 839.5,789.5 839.5,799.5 839.5,809.5C 829.5,809.5 819.5,809.5 809.5,809.5C 809.5,799.5 809.5,789.5 809.5,779.5C 819.5,779.5 829.5,779.5 839.5,779.5 Z"/></g>
<g><path style="opacity:1" fill="#000000" d="M 929.5,779.5 C 929.5,789.5 929.5,799.5 929.5,809.5C 919.5,809.5 909.5,809.5 899.5,809.5C 899.5,799.5 899.5,789.5 899.5,779.5C 909.5,779.5 919.5,779.5 929.5,779.5 Z"/></g>
<g><path style="opacity:1" fill="#000000" d="M 809.5,809.5 C 809.5,829.5 809.5,849.5 809.5,869.5C 819.5,869.5 829.5,869.5 839.5,869.5C 839.5,879.5 839.5,889.5 839.5,899.5C 829.5,899.5 819.5,899.5 809.5,899.5C 809.5,909.5 809.5,919.5 809.5,929.5C 799.5,929.5 789.5,929.5 779.5,929.5C 779.5,909.5 779.5,889.5 779.5,869.5C 769.5,869.5 759.5,869.5 749.5,869.5C 749.5,859.5 749.5,849.5 749.5,839.5C 759.5,839.5 769.5,839.5 779.5,839.5C 779.5,829.5 779.5,819.5 779.5,809.5C 789.5,809.5 799.5,809.5 809.5,809.5 Z"/></g>
<g><path style="opacity:1" fill="#000000" d="M 899.5,809.5 C 899.5,819.5 899.5,829.5 899.5,839.5C 889.5,839.5 879.5,839.5 869.5,839.5C 869.5,829.5 869.5,819.5 869.5,809.5C 879.5,809.5 889.5,809.5 899.5,809.5 Z"/></g>
<g><path style="opacity:1" fill="#000000" d="M 869.5,839.5 C 869.5,849.5 869.5,859.5 869.5,869.5C 859.5,869.5 849.5,869.5 839.5,869.5C 839.5,859.5 839.5,849.5 839.5,839.5C 849.5,839.5 859.5,839.5 869.5,839.5 Z"/></g>
<g><path style="opacity:1" fill="#000000" d="M 749.5,869.5 C 749.5,889.5 749.5,909.5 749.5,929.5C 759.5,929.5 769.5,929.5 779.5,929.5C 779.5,939.5 779.5,949.5 779.5,959.5C 759.5,959.5 739.5,959.5 719.5,959.5C 719.5,969.5 719.5,979.5 719.5,989.5C 699.5,989.5 679.5,989.5 659.5,989.5C 659.5,979.5 659.5,969.5 659.5,959.5C 669.5,959.5 679.5,959.5 689.5,959.5C 689.5,939.5 689.5,919.5 689.5,899.5C 699.5,899.5 709.5,899.5 719.5,899.5C 719.5,889.5 719.5,879.5 719.5,869.5C 729.5,869.5 739.5,869.5 749.5,869.5 Z"/></g>
</svg>
