<?xml version="1.0" encoding="UTF-8"?>
<!DOCTYPE svg PUBLIC "-//W3C//DTD SVG 1.1//EN" "http://www.w3.org/Graphics/SVG/1.1/DTD/svg11.dtd">
<svg xmlns="http://www.w3.org/2000/svg" version="1.1" width="1290px" height="1290px" style="shape-rendering:geometricPrecision; text-rendering:geometricPrecision; image-rendering:optimizeQuality; fill-rule:evenodd; clip-rule:evenodd" xmlns:xlink="http://www.w3.org/1999/xlink">
<g><path style="opacity:1" fill="#aca6a0" d="M 449.5,479.5 C 549.5,479.5 649.5,479.5 749.5,479.5C 749.5,489.5 749.5,499.5 749.5,509.5C 769.5,509.5 789.5,509.5 809.5,509.5C 809.5,519.5 809.5,529.5 809.5,539.5C 819.5,539.5 829.5,539.5 839.5,539.5C 839.5,549.5 839.5,559.5 839.5,569.5C 849.5,569.5 859.5,569.5 869.5,569.5C 869.5,579.5 869.5,589.5 869.5,599.5C 879.5,599.5 889.5,599.5 899.5,599.5C 899.5,619.5 899.5,639.5 899.5,659.5C 919.5,659.5 939.5,659.5 959.5,659.5C 959.5,709.5 959.5,759.5 959.5,809.5C 949.5,809.5 939.5,809.5 929.5,809.5C 929.5,869.5 929.5,929.5 929.5,989.5C 919.5,989.5 909.5,989.5 899.5,989.5C 899.5,1009.5 899.5,1029.5 899.5,1049.5C 889.5,1049.5 879.5,1049.5 869.5,1049.5C 869.5,1059.5 869.5,1069.5 869.5,1079.5C 859.5,1079.5 849.5,1079.5 839.5,1079.5C 839.5,1089.5 839.5,1099.5 839.5,1109.5C 829.5,1109.5 819.5,1109.5 809.5,1109.5C 809.5,1119.5 809.5,1129.5 809.5,1139.5C 789.5,1139.5 769.5,1139.5 749.5,1139.5C 749.5,1149.5 749.5,1159.5 749.5,1169.5C 729.5,1169.5 709.5,1169.5 689.5,1169.5C 689.5,1179.5 689.5,1189.5 689.5,1199.5C 709.5,1199.5 729.5,1199.5 749.5,1199.5C 749.5,1209.5 749.5,1219.5 749.5,1229.5C 719.5,1229.5 689.5,1229.5 659.5,1229.5C 659.5,1209.5 659.5,1189.5 659.5,1169.5C 629.5,1169.5 599.5,1169.5 569.5,1169.5C 569.5,1179.5 569.5,1189.5 569.5,1199.5C 589.5,1199.5 609.5,1199.5 629.5,1199.5C 629.5,1209.5 629.5,1219.5 629.5,1229.5C 599.5,1229.5 569.5,1229.5 539.5,1229.5C 539.5,1209.5 539.5,1189.5 539.5,1169.5C 519.5,1169.5 499.5,1169.5 479.5,1169.5C 479.5,1159.5 479.5,1149.5 479.5,1139.5C 449.5,1139.5 419.5,1139.5 389.5,1139.5C 389.5,1129.5 389.5,1119.5 389.5,1109.5C 379.5,1109.5 369.5,1109.5 359.5,1109.5C 359.5,1099.5 359.5,1089.5 359.5,1079.5C 349.5,1079.5 339.5,1079.5 329.5,1079.5C 329.5,1069.5 329.5,1059.5 329.5,1049.5C 319.5,1049.5 309.5,1049.5 299.5,1049.5C 299.5,1019.5 299.5,989.5 299.5,959.5C 289.5,959.5 279.5,959.5 269.5,959.5C 269.5,929.5 269.5,899.5 269.5,869.5C 259.5,869.5 249.5,869.5 239.5,869.5C 239.5,859.5 239.5,849.5 239.5,839.5C 229.5,839.5 219.5,839.5 209.5,839.5C 209.5,789.5 209.5,739.5 209.5,689.5C 219.5,689.5 229.5,689.5 239.5,689.5C 239.5,669.5 239.5,649.5 239.5,629.5C 249.5,629.5 259.5,629.5 269.5,629.5C 269.5,619.5 269.5,609.5 269.5,599.5C 279.5,599.5 289.5,599.5 299.5,599.5C 299.5,589.5 299.5,579.5 299.5,569.5C 309.5,569.5 319.5,569.5 329.5,569.5C 329.5,559.5 329.5,549.5 329.5,539.5C 349.5,539.5 369.5,539.5 389.5,539.5C 389.5,529.5 389.5,519.5 389.5,509.5C 409.5,509.5 429.5,509.5 449.5,509.5C 449.5,499.5 449.5,489.5 449.5,479.5 Z"/></g>
<g><path style="opacity:1" fill="#aca6a0" d="M 1019.5,839.5 C 1049.5,839.5 1079.5,839.5 1109.5,839.5C 1109.5,869.5 1109.5,899.5 1109.5,929.5C 1099.5,929.5 1089.5,929.5 1079.5,929.5C 1079.5,909.5 1079.5,889.5 1079.5,869.5C 1069.5,869.5 1059.5,869.5 1049.5,869.5C 1049.5,899.5 1049.5,929.5 1049.5,959.5C 1029.5,959.5 1009.5,959.5 989.5,959.5C 989.5,939.5 989.5,919.5 989.5,899.5C 999.5,899.5 1009.5,899.5 1019.5,899.5C 1019.5,879.5 1019.5,859.5 1019.5,839.5 Z"/></g>
<g><path style="opacity:1" fill="#aca6a0" d="M 1139.5,869.5 C 1179.5,869.5 1219.5,869.5 1259.5,869.5C 1259.5,919.5 1259.5,969.5 1259.5,1019.5C 1239.5,1019.5 1219.5,1019.5 1199.5,1019.5C 1199.5,999.5 1199.5,979.5 1199.5,959.5C 1209.5,959.5 1219.5,959.5 1229.5,959.5C 1229.5,939.5 1229.5,919.5 1229.5,899.5C 1209.5,899.5 1189.5,899.5 1169.5,899.5C 1169.5,939.5 1169.5,979.5 1169.5,1019.5C 1149.5,1019.5 1129.5,1019.5 1109.5,1019.5C 1109.5,999.5 1109.5,979.5 1109.5,959.5C 1119.5,959.5 1129.5,959.5 1139.5,959.5C 1139.5,929.5 1139.5,899.5 1139.5,869.5 Z"/></g>
<g><path style="opacity:1" fill="#aca6a0" d="M -0.5,899.5 C 19.5,899.5 39.5,899.5 59.5,899.5C 59.5,919.5 59.5,939.5 59.5,959.5C 49.5,959.5 39.5,959.5 29.5,959.5C 29.5,979.5 29.5,999.5 29.5,1019.5C 39.5,1019.5 49.5,1019.5 59.5,1019.5C 59.5,1009.5 59.5,999.5 59.5,989.5C 69.5,989.5 79.5,989.5 89.5,989.5C 89.5,1009.5 89.5,1029.5 89.5,1049.5C 59.5,1049.5 29.5,1049.5 -0.5,1049.5C -0.5,999.5 -0.5,949.5 -0.5,899.5 Z"/></g>
<g><path style="opacity:1" fill="#aca6a0" d="M 179.5,959.5 C 189.5,959.5 199.5,959.5 209.5,959.5C 209.5,999.5 209.5,1039.5 209.5,1079.5C 189.5,1079.5 169.5,1079.5 149.5,1079.5C 149.5,1059.5 149.5,1039.5 149.5,1019.5C 159.5,1019.5 169.5,1019.5 179.5,1019.5C 179.5,999.5 179.5,979.5 179.5,959.5 Z"/></g>
</svg>
