<?xml version="1.0" encoding="UTF-8"?>
<!DOCTYPE svg PUBLIC "-//W3C//DTD SVG 1.1//EN" "http://www.w3.org/Graphics/SVG/1.1/DTD/svg11.dtd">
<svg xmlns="http://www.w3.org/2000/svg" version="1.1" width="1440px" height="1440px" style="shape-rendering:geometricPrecision; text-rendering:geometricPrecision; image-rendering:optimizeQuality; fill-rule:evenodd; clip-rule:evenodd" xmlns:xlink="http://www.w3.org/1999/xlink">
<g><path style="opacity:1" fill="#bdb7b1" d="M 834.5,402.5 C 824.833,402.5 815.167,402.5 805.5,402.5C 805.5,392.833 805.5,383.167 805.5,373.5C 776.833,373.5 748.167,373.5 719.5,373.5C 719.5,383.167 719.5,392.833 719.5,402.5C 681.167,402.5 642.833,402.5 604.5,402.5C 604.5,412.167 604.5,421.833 604.5,431.5C 585.167,431.5 565.833,431.5 546.5,431.5C 546.5,441.167 546.5,450.833 546.5,460.5C 527.5,460.5 508.5,460.5 489.5,460.5C 489.5,479.5 489.5,498.5 489.5,517.5C 479.833,517.5 470.167,517.5 460.5,517.5C 460.5,536.833 460.5,556.167 460.5,575.5C 450.833,575.5 441.167,575.5 431.5,575.5C 431.5,604.167 431.5,632.833 431.5,661.5C 421.833,661.5 412.167,661.5 402.5,661.5C 402.5,709.5 402.5,757.5 402.5,805.5C 412.167,805.5 421.833,805.5 431.5,805.5C 431.5,834.5 431.5,863.5 431.5,892.5C 441.167,892.5 450.833,892.5 460.5,892.5C 460.5,902.167 460.5,911.833 460.5,921.5C 470.167,921.5 479.833,921.5 489.5,921.5C 489.5,930.833 489.5,940.167 489.5,949.5C 498.833,949.5 508.167,949.5 517.5,949.5C 517.5,959.167 517.5,968.833 517.5,978.5C 546.5,978.5 575.5,978.5 604.5,978.5C 604.5,988.167 604.5,997.833 604.5,1007.5C 623.5,1007.5 642.5,1007.5 661.5,1007.5C 661.5,1017.17 661.5,1026.83 661.5,1036.5C 652.167,1036.5 642.833,1036.5 633.5,1036.5C 633.5,1046.17 633.5,1055.83 633.5,1065.5C 604.5,1065.5 575.5,1065.5 546.5,1065.5C 546.5,1074.83 546.5,1084.17 546.5,1093.5C 517.833,1093.5 489.167,1093.5 460.5,1093.5C 460.5,1103.17 460.5,1112.83 460.5,1122.5C 441.167,1122.5 421.833,1122.5 402.5,1122.5C 402.5,1132.17 402.5,1141.83 402.5,1151.5C 383.5,1151.5 364.5,1151.5 345.5,1151.5C 345.5,892.167 345.5,632.833 345.5,373.5C 364.5,373.5 383.5,373.5 402.5,373.5C 402.5,364.167 402.5,354.833 402.5,345.5C 421.833,345.5 441.167,345.5 460.5,345.5C 460.5,335.833 460.5,326.167 460.5,316.5C 489.167,316.5 517.833,316.5 546.5,316.5C 546.5,306.833 546.5,297.167 546.5,287.5C 575.5,287.5 604.5,287.5 633.5,287.5C 633.5,277.833 633.5,268.167 633.5,258.5C 652.5,258.5 671.5,258.5 690.5,258.5C 690.5,248.833 690.5,239.167 690.5,229.5C 719.5,229.5 748.5,229.5 777.5,229.5C 777.5,220.167 777.5,210.833 777.5,201.5C 796.5,201.5 815.5,201.5 834.5,201.5C 834.5,268.5 834.5,335.5 834.5,402.5 Z"/></g>
<g><path style="opacity:1" fill="#aca6a0" d="M 834.5,402.5 C 853.833,402.5 873.167,402.5 892.5,402.5C 892.5,412.167 892.5,421.833 892.5,431.5C 902.167,431.5 911.833,431.5 921.5,431.5C 921.5,441.167 921.5,450.833 921.5,460.5C 930.833,460.5 940.167,460.5 949.5,460.5C 949.5,470.167 949.5,479.833 949.5,489.5C 959.167,489.5 968.833,489.5 978.5,489.5C 978.5,498.833 978.5,508.167 978.5,517.5C 988.167,517.5 997.833,517.5 1007.5,517.5C 1007.5,536.833 1007.5,556.167 1007.5,575.5C 1017.17,575.5 1026.83,575.5 1036.5,575.5C 1036.5,661.833 1036.5,748.167 1036.5,834.5C 1026.83,834.5 1017.17,834.5 1007.5,834.5C 1007.5,853.833 1007.5,873.167 1007.5,892.5C 997.833,892.5 988.167,892.5 978.5,892.5C 978.5,902.167 978.5,911.833 978.5,921.5C 968.833,921.5 959.167,921.5 949.5,921.5C 949.5,930.833 949.5,940.167 949.5,949.5C 940.167,949.5 930.833,949.5 921.5,949.5C 921.5,959.167 921.5,968.833 921.5,978.5C 902.167,978.5 882.833,978.5 863.5,978.5C 863.5,988.167 863.5,997.833 863.5,1007.5C 844.167,1007.5 824.833,1007.5 805.5,1007.5C 805.5,1017.17 805.5,1026.83 805.5,1036.5C 824.833,1036.5 844.167,1036.5 863.5,1036.5C 863.5,1046.17 863.5,1055.83 863.5,1065.5C 834.833,1065.5 806.167,1065.5 777.5,1065.5C 777.5,1046.17 777.5,1026.83 777.5,1007.5C 748.5,1007.5 719.5,1007.5 690.5,1007.5C 690.5,1017.17 690.5,1026.83 690.5,1036.5C 709.833,1036.5 729.167,1036.5 748.5,1036.5C 748.5,1046.17 748.5,1055.83 748.5,1065.5C 719.5,1065.5 690.5,1065.5 661.5,1065.5C 661.5,1055.83 661.5,1046.17 661.5,1036.5C 661.5,1026.83 661.5,1017.17 661.5,1007.5C 642.5,1007.5 623.5,1007.5 604.5,1007.5C 604.5,997.833 604.5,988.167 604.5,978.5C 575.5,978.5 546.5,978.5 517.5,978.5C 517.5,968.833 517.5,959.167 517.5,949.5C 508.167,949.5 498.833,949.5 489.5,949.5C 489.5,940.167 489.5,930.833 489.5,921.5C 479.833,921.5 470.167,921.5 460.5,921.5C 460.5,911.833 460.5,902.167 460.5,892.5C 450.833,892.5 441.167,892.5 431.5,892.5C 431.5,863.5 431.5,834.5 431.5,805.5C 421.833,805.5 412.167,805.5 402.5,805.5C 402.5,757.5 402.5,709.5 402.5,661.5C 412.167,661.5 421.833,661.5 431.5,661.5C 431.5,632.833 431.5,604.167 431.5,575.5C 441.167,575.5 450.833,575.5 460.5,575.5C 460.5,556.167 460.5,536.833 460.5,517.5C 470.167,517.5 479.833,517.5 489.5,517.5C 489.5,498.5 489.5,479.5 489.5,460.5C 508.5,460.5 527.5,460.5 546.5,460.5C 546.5,450.833 546.5,441.167 546.5,431.5C 565.833,431.5 585.167,431.5 604.5,431.5C 604.5,421.833 604.5,412.167 604.5,402.5C 642.833,402.5 681.167,402.5 719.5,402.5C 719.5,392.833 719.5,383.167 719.5,373.5C 748.167,373.5 776.833,373.5 805.5,373.5C 805.5,383.167 805.5,392.833 805.5,402.5C 815.167,402.5 824.833,402.5 834.5,402.5 Z"/></g>
<g><path style="opacity:1" fill="#fefffe" d="M 748.5,661.5 C 729.167,661.5 709.833,661.5 690.5,661.5C 690.5,652.167 690.5,642.833 690.5,633.5C 709.833,633.5 729.167,633.5 748.5,633.5C 748.5,642.833 748.5,652.167 748.5,661.5 Z"/></g>
<g><path style="opacity:1" fill="#fefffe" d="M 690.5,661.5 C 690.5,671.167 690.5,680.833 690.5,690.5C 680.833,690.5 671.167,690.5 661.5,690.5C 661.5,680.833 661.5,671.167 661.5,661.5C 671.167,661.5 680.833,661.5 690.5,661.5 Z"/></g>
<g><path style="opacity:1" fill="#fefffe" d="M 748.5,661.5 C 758.167,661.5 767.833,661.5 777.5,661.5C 777.5,680.833 777.5,700.167 777.5,719.5C 767.833,719.5 758.167,719.5 748.5,719.5C 748.5,700.167 748.5,680.833 748.5,661.5 Z"/></g>
<g><path style="opacity:1" fill="#fefffe" d="M 748.5,719.5 C 748.5,729.167 748.5,738.833 748.5,748.5C 738.833,748.5 729.167,748.5 719.5,748.5C 719.5,738.833 719.5,729.167 719.5,719.5C 729.167,719.5 738.833,719.5 748.5,719.5 Z"/></g>
<g><path style="opacity:1" fill="#fefffe" d="M 719.5,777.5 C 729.167,777.5 738.833,777.5 748.5,777.5C 748.5,786.833 748.5,796.167 748.5,805.5C 738.833,805.5 729.167,805.5 719.5,805.5C 719.5,796.167 719.5,786.833 719.5,777.5 Z"/></g>
</svg>
