<?xml version="1.0" encoding="UTF-8"?>
<!DOCTYPE svg PUBLIC "-//W3C//DTD SVG 1.1//EN" "http://www.w3.org/Graphics/SVG/1.1/DTD/svg11.dtd">
<svg xmlns="http://www.w3.org/2000/svg" version="1.1" width="1440px" height="1440px" style="shape-rendering:geometricPrecision; text-rendering:geometricPrecision; image-rendering:optimizeQuality; fill-rule:evenodd; clip-rule:evenodd" xmlns:xlink="http://www.w3.org/1999/xlink">
<g><path style="opacity:1" fill="#dfd6c3" d="M 929.5,539.5 C 939.5,539.5 949.5,539.5 959.5,539.5C 959.5,569.5 959.5,599.5 959.5,629.5C 969.5,629.5 979.5,629.5 989.5,629.5C 989.5,649.5 989.5,669.5 989.5,689.5C 999.5,689.5 1009.5,689.5 1019.5,689.5C 1019.5,699.5 1019.5,709.5 1019.5,719.5C 1029.5,719.5 1039.5,719.5 1049.5,719.5C 1049.5,729.5 1049.5,739.5 1049.5,749.5C 1059.5,749.5 1069.5,749.5 1079.5,749.5C 1079.5,769.5 1079.5,789.5 1079.5,809.5C 1089.5,809.5 1099.5,809.5 1109.5,809.5C 1109.5,839.5 1109.5,869.5 1109.5,899.5C 1119.5,899.5 1129.5,899.5 1139.5,899.5C 1139.5,919.5 1139.5,939.5 1139.5,959.5C 1149.5,959.5 1159.5,959.5 1169.5,959.5C 1169.5,969.5 1169.5,979.5 1169.5,989.5C 959.5,989.5 749.5,989.5 539.5,989.5C 539.5,969.5 539.5,949.5 539.5,929.5C 529.5,929.5 519.5,929.5 509.5,929.5C 509.5,919.5 509.5,909.5 509.5,899.5C 499.5,899.5 489.5,899.5 479.5,899.5C 479.5,889.5 479.5,879.5 479.5,869.5C 469.5,869.5 459.5,869.5 449.5,869.5C 449.5,849.5 449.5,829.5 449.5,809.5C 439.5,809.5 429.5,809.5 419.5,809.5C 419.5,799.5 419.5,789.5 419.5,779.5C 409.5,779.5 399.5,779.5 389.5,779.5C 389.5,759.5 389.5,739.5 389.5,719.5C 379.5,719.5 369.5,719.5 359.5,719.5C 359.5,689.5 359.5,659.5 359.5,629.5C 349.5,629.5 339.5,629.5 329.5,629.5C 329.5,589.5 329.5,549.5 329.5,509.5C 319.5,509.5 309.5,509.5 299.5,509.5C 299.5,489.5 299.5,469.5 299.5,449.5C 289.5,449.5 279.5,449.5 269.5,449.5C 269.5,439.5 269.5,429.5 269.5,419.5C 479.5,419.5 689.5,419.5 899.5,419.5C 899.5,429.5 899.5,439.5 899.5,449.5C 909.5,449.5 919.5,449.5 929.5,449.5C 929.5,479.5 929.5,509.5 929.5,539.5 Z"/></g>
<g><path style="opacity:1" fill="#000000" d="M 539.5,449.5 C 549.5,449.5 559.5,449.5 569.5,449.5C 569.5,499.5 569.5,549.5 569.5,599.5C 559.5,599.5 549.5,599.5 539.5,599.5C 539.5,549.5 539.5,499.5 539.5,449.5 Z"/></g>
<g><path style="opacity:1" fill="#000000" d="M 449.5,539.5 C 439.5,539.5 429.5,539.5 419.5,539.5C 419.5,529.5 419.5,519.5 419.5,509.5C 399.5,509.5 379.5,509.5 359.5,509.5C 359.5,499.5 359.5,489.5 359.5,479.5C 409.5,479.5 459.5,479.5 509.5,479.5C 509.5,489.5 509.5,499.5 509.5,509.5C 489.5,509.5 469.5,509.5 449.5,509.5C 449.5,519.5 449.5,529.5 449.5,539.5 Z"/></g>
<g><path style="opacity:1" fill="#000000" d="M 689.5,479.5 C 699.5,479.5 709.5,479.5 719.5,479.5C 719.5,499.5 719.5,519.5 719.5,539.5C 729.5,539.5 739.5,539.5 749.5,539.5C 749.5,549.5 749.5,559.5 749.5,569.5C 739.5,569.5 729.5,569.5 719.5,569.5C 719.5,599.5 719.5,629.5 719.5,659.5C 709.5,659.5 699.5,659.5 689.5,659.5C 689.5,639.5 689.5,619.5 689.5,599.5C 659.5,599.5 629.5,599.5 599.5,599.5C 599.5,569.5 599.5,539.5 599.5,509.5C 609.5,509.5 619.5,509.5 629.5,509.5C 629.5,529.5 629.5,549.5 629.5,569.5C 649.5,569.5 669.5,569.5 689.5,569.5C 689.5,539.5 689.5,509.5 689.5,479.5 Z"/></g>
<g><path style="opacity:1" fill="#000000" d="M 899.5,659.5 C 869.5,659.5 839.5,659.5 809.5,659.5C 809.5,679.5 809.5,699.5 809.5,719.5C 799.5,719.5 789.5,719.5 779.5,719.5C 779.5,689.5 779.5,659.5 779.5,629.5C 789.5,629.5 799.5,629.5 809.5,629.5C 809.5,589.5 809.5,549.5 809.5,509.5C 789.5,509.5 769.5,509.5 749.5,509.5C 749.5,499.5 749.5,489.5 749.5,479.5C 779.5,479.5 809.5,479.5 839.5,479.5C 839.5,529.5 839.5,579.5 839.5,629.5C 859.5,629.5 879.5,629.5 899.5,629.5C 899.5,639.5 899.5,649.5 899.5,659.5 Z"/></g>
<g><path style="opacity:1" fill="#000000" d="M 929.5,539.5 C 929.5,549.5 929.5,559.5 929.5,569.5C 919.5,569.5 909.5,569.5 899.5,569.5C 899.5,579.5 899.5,589.5 899.5,599.5C 889.5,599.5 879.5,599.5 869.5,599.5C 869.5,559.5 869.5,519.5 869.5,479.5C 879.5,479.5 889.5,479.5 899.5,479.5C 899.5,499.5 899.5,519.5 899.5,539.5C 909.5,539.5 919.5,539.5 929.5,539.5 Z"/></g>
<g><path style="opacity:1" fill="#000000" d="M 419.5,539.5 C 419.5,549.5 419.5,559.5 419.5,569.5C 409.5,569.5 399.5,569.5 389.5,569.5C 389.5,559.5 389.5,549.5 389.5,539.5C 399.5,539.5 409.5,539.5 419.5,539.5 Z"/></g>
<g><path style="opacity:1" fill="#000000" d="M 449.5,539.5 C 459.5,539.5 469.5,539.5 479.5,539.5C 479.5,549.5 479.5,559.5 479.5,569.5C 479.5,559.5 479.5,549.5 479.5,539.5C 469.5,539.5 459.5,539.5 449.5,539.5 Z"/></g>
<g><path style="opacity:1" fill="#000000" d="M 389.5,569.5 C 389.5,579.5 389.5,589.5 389.5,599.5C 379.5,599.5 369.5,599.5 359.5,599.5C 359.5,589.5 359.5,579.5 359.5,569.5C 369.5,569.5 379.5,569.5 389.5,569.5 Z"/></g>
<g><path style="opacity:1" fill="#000000" d="M 479.5,569.5 C 489.5,569.5 499.5,569.5 509.5,569.5C 509.5,579.5 509.5,589.5 509.5,599.5C 499.5,599.5 489.5,599.5 479.5,599.5C 479.5,589.5 479.5,579.5 479.5,569.5 Z"/></g>
<g><path style="opacity:1" fill="#000000" d="M 569.5,719.5 C 569.5,709.5 569.5,699.5 569.5,689.5C 549.5,689.5 529.5,689.5 509.5,689.5C 509.5,699.5 509.5,709.5 509.5,719.5C 499.5,719.5 489.5,719.5 479.5,719.5C 479.5,689.5 479.5,659.5 479.5,629.5C 489.5,629.5 499.5,629.5 509.5,629.5C 509.5,639.5 509.5,649.5 509.5,659.5C 529.5,659.5 549.5,659.5 569.5,659.5C 569.5,649.5 569.5,639.5 569.5,629.5C 579.5,629.5 589.5,629.5 599.5,629.5C 599.5,659.5 599.5,689.5 599.5,719.5C 589.5,719.5 579.5,719.5 569.5,719.5 Z"/></g>
<g><path style="opacity:1" fill="#dfd6c3" d="M 899.5,659.5 C 899.5,679.5 899.5,699.5 899.5,719.5C 869.5,719.5 839.5,719.5 809.5,719.5C 809.5,699.5 809.5,679.5 809.5,659.5C 839.5,659.5 869.5,659.5 899.5,659.5 Z"/></g>
<g><path style="opacity:1" fill="#000000" d="M 899.5,659.5 C 909.5,659.5 919.5,659.5 929.5,659.5C 929.5,689.5 929.5,719.5 929.5,749.5C 889.5,749.5 849.5,749.5 809.5,749.5C 809.5,739.5 809.5,729.5 809.5,719.5C 839.5,719.5 869.5,719.5 899.5,719.5C 899.5,699.5 899.5,679.5 899.5,659.5 Z"/></g>
<g><path style="opacity:1" fill="#dfd6c3" d="M 569.5,719.5 C 549.5,719.5 529.5,719.5 509.5,719.5C 509.5,709.5 509.5,699.5 509.5,689.5C 529.5,689.5 549.5,689.5 569.5,689.5C 569.5,699.5 569.5,709.5 569.5,719.5 Z"/></g>
<g><path style="opacity:1" fill="#000000" d="M 509.5,719.5 C 529.5,719.5 549.5,719.5 569.5,719.5C 569.5,729.5 569.5,739.5 569.5,749.5C 549.5,749.5 529.5,749.5 509.5,749.5C 509.5,739.5 509.5,729.5 509.5,719.5 Z"/></g>
<g><path style="opacity:1" fill="#000000" d="M 929.5,749.5 C 949.5,749.5 969.5,749.5 989.5,749.5C 989.5,759.5 989.5,769.5 989.5,779.5C 979.5,779.5 969.5,779.5 959.5,779.5C 959.5,789.5 959.5,799.5 959.5,809.5C 979.5,809.5 999.5,809.5 1019.5,809.5C 1019.5,819.5 1019.5,829.5 1019.5,839.5C 1009.5,839.5 999.5,839.5 989.5,839.5C 989.5,849.5 989.5,859.5 989.5,869.5C 1009.5,869.5 1029.5,869.5 1049.5,869.5C 1049.5,879.5 1049.5,889.5 1049.5,899.5C 1019.5,899.5 989.5,899.5 959.5,899.5C 959.5,879.5 959.5,859.5 959.5,839.5C 949.5,839.5 939.5,839.5 929.5,839.5C 929.5,879.5 929.5,919.5 929.5,959.5C 919.5,959.5 909.5,959.5 899.5,959.5C 899.5,939.5 899.5,919.5 899.5,899.5C 869.5,899.5 839.5,899.5 809.5,899.5C 809.5,889.5 809.5,879.5 809.5,869.5C 799.5,869.5 789.5,869.5 779.5,869.5C 779.5,879.5 779.5,889.5 779.5,899.5C 769.5,899.5 759.5,899.5 749.5,899.5C 749.5,909.5 749.5,919.5 749.5,929.5C 719.5,929.5 689.5,929.5 659.5,929.5C 659.5,919.5 659.5,909.5 659.5,899.5C 649.5,899.5 639.5,899.5 629.5,899.5C 629.5,889.5 629.5,879.5 629.5,869.5C 619.5,869.5 609.5,869.5 599.5,869.5C 599.5,859.5 599.5,849.5 599.5,839.5C 589.5,839.5 579.5,839.5 569.5,839.5C 569.5,819.5 569.5,799.5 569.5,779.5C 579.5,779.5 589.5,779.5 599.5,779.5C 599.5,769.5 599.5,759.5 599.5,749.5C 639.5,749.5 679.5,749.5 719.5,749.5C 719.5,769.5 719.5,789.5 719.5,809.5C 749.5,809.5 779.5,809.5 809.5,809.5C 809.5,819.5 809.5,829.5 809.5,839.5C 819.5,839.5 829.5,839.5 839.5,839.5C 839.5,849.5 839.5,859.5 839.5,869.5C 849.5,869.5 859.5,869.5 869.5,869.5C 869.5,849.5 869.5,829.5 869.5,809.5C 889.5,809.5 909.5,809.5 929.5,809.5C 929.5,789.5 929.5,769.5 929.5,749.5 Z"/></g>
<g><path style="opacity:1" fill="#dfd6c3" d="M 629.5,779.5 C 649.5,779.5 669.5,779.5 689.5,779.5C 689.5,789.5 689.5,799.5 689.5,809.5C 679.5,809.5 669.5,809.5 659.5,809.5C 659.5,819.5 659.5,829.5 659.5,839.5C 649.5,839.5 639.5,839.5 629.5,839.5C 629.5,819.5 629.5,799.5 629.5,779.5 Z"/></g>
<g><path style="opacity:1" fill="#dfd6c3" d="M 689.5,839.5 C 709.5,839.5 729.5,839.5 749.5,839.5C 749.5,849.5 749.5,859.5 749.5,869.5C 739.5,869.5 729.5,869.5 719.5,869.5C 719.5,879.5 719.5,889.5 719.5,899.5C 709.5,899.5 699.5,899.5 689.5,899.5C 689.5,879.5 689.5,859.5 689.5,839.5 Z"/></g>
</svg>
