<?xml version="1.0" encoding="UTF-8"?>
<!DOCTYPE svg PUBLIC "-//W3C//DTD SVG 1.1//EN" "http://www.w3.org/Graphics/SVG/1.1/DTD/svg11.dtd">
<svg xmlns="http://www.w3.org/2000/svg" version="1.1" width="1440px" height="1440px" style="shape-rendering:geometricPrecision; text-rendering:geometricPrecision; image-rendering:optimizeQuality; fill-rule:evenodd; clip-rule:evenodd" xmlns:xlink="http://www.w3.org/1999/xlink">
<g><path style="opacity:1" fill="#fe9e1f" d="M 839.5,359.5 C 809.5,359.5 779.5,359.5 749.5,359.5C 729.5,359.5 709.5,359.5 689.5,359.5C 689.5,349.5 689.5,339.5 689.5,329.5C 679.5,329.5 669.5,329.5 659.5,329.5C 659.5,339.5 659.5,349.5 659.5,359.5C 629.5,359.5 599.5,359.5 569.5,359.5C 569.5,369.5 569.5,379.5 569.5,389.5C 559.5,389.5 549.5,389.5 539.5,389.5C 539.5,399.5 539.5,409.5 539.5,419.5C 529.5,419.5 519.5,419.5 509.5,419.5C 509.5,429.5 509.5,439.5 509.5,449.5C 499.5,449.5 489.5,449.5 479.5,449.5C 479.5,459.5 479.5,469.5 479.5,479.5C 469.5,479.5 459.5,479.5 449.5,479.5C 449.5,499.5 449.5,519.5 449.5,539.5C 439.5,539.5 429.5,539.5 419.5,539.5C 419.5,599.5 419.5,659.5 419.5,719.5C 409.5,719.5 399.5,719.5 389.5,719.5C 389.5,659.5 389.5,599.5 389.5,539.5C 389.5,529.5 389.5,519.5 389.5,509.5C 399.5,509.5 409.5,509.5 419.5,509.5C 419.5,489.5 419.5,469.5 419.5,449.5C 429.5,449.5 439.5,449.5 449.5,449.5C 449.5,439.5 449.5,429.5 449.5,419.5C 459.5,419.5 469.5,419.5 479.5,419.5C 479.5,409.5 479.5,399.5 479.5,389.5C 489.5,389.5 499.5,389.5 509.5,389.5C 509.5,379.5 509.5,369.5 509.5,359.5C 519.5,359.5 529.5,359.5 539.5,359.5C 539.5,349.5 539.5,339.5 539.5,329.5C 569.5,329.5 599.5,329.5 629.5,329.5C 629.5,319.5 629.5,309.5 629.5,299.5C 659.5,299.5 689.5,299.5 719.5,299.5C 719.5,309.5 719.5,319.5 719.5,329.5C 759.5,329.5 799.5,329.5 839.5,329.5C 839.5,339.5 839.5,349.5 839.5,359.5 Z"/></g>
<g><path style="opacity:1" fill="#febb00" d="M 749.5,359.5 C 749.5,369.5 749.5,379.5 749.5,389.5C 769.5,389.5 789.5,389.5 809.5,389.5C 809.5,399.5 809.5,409.5 809.5,419.5C 829.5,419.5 849.5,419.5 869.5,419.5C 869.5,429.5 869.5,439.5 869.5,449.5C 879.5,449.5 889.5,449.5 899.5,449.5C 899.5,459.5 899.5,469.5 899.5,479.5C 909.5,479.5 919.5,479.5 929.5,479.5C 939.5,479.5 949.5,479.5 959.5,479.5C 959.5,499.5 959.5,519.5 959.5,539.5C 959.5,569.5 959.5,599.5 959.5,629.5C 969.5,629.5 979.5,629.5 989.5,629.5C 989.5,659.5 989.5,689.5 989.5,719.5C 979.5,719.5 969.5,719.5 959.5,719.5C 959.5,739.5 959.5,759.5 959.5,779.5C 949.5,779.5 939.5,779.5 929.5,779.5C 929.5,789.5 929.5,799.5 929.5,809.5C 909.5,809.5 889.5,809.5 869.5,809.5C 869.5,789.5 869.5,769.5 869.5,749.5C 859.5,749.5 849.5,749.5 839.5,749.5C 839.5,729.5 839.5,709.5 839.5,689.5C 829.5,689.5 819.5,689.5 809.5,689.5C 809.5,709.5 809.5,729.5 809.5,749.5C 799.5,749.5 789.5,749.5 779.5,749.5C 779.5,769.5 779.5,789.5 779.5,809.5C 669.5,809.5 559.5,809.5 449.5,809.5C 449.5,799.5 449.5,789.5 449.5,779.5C 439.5,779.5 429.5,779.5 419.5,779.5C 419.5,759.5 419.5,739.5 419.5,719.5C 419.5,659.5 419.5,599.5 419.5,539.5C 429.5,539.5 439.5,539.5 449.5,539.5C 449.5,519.5 449.5,499.5 449.5,479.5C 459.5,479.5 469.5,479.5 479.5,479.5C 479.5,469.5 479.5,459.5 479.5,449.5C 489.5,449.5 499.5,449.5 509.5,449.5C 509.5,439.5 509.5,429.5 509.5,419.5C 519.5,419.5 529.5,419.5 539.5,419.5C 539.5,409.5 539.5,399.5 539.5,389.5C 549.5,389.5 559.5,389.5 569.5,389.5C 569.5,379.5 569.5,369.5 569.5,359.5C 599.5,359.5 629.5,359.5 659.5,359.5C 659.5,349.5 659.5,339.5 659.5,329.5C 669.5,329.5 679.5,329.5 689.5,329.5C 689.5,339.5 689.5,349.5 689.5,359.5C 709.5,359.5 729.5,359.5 749.5,359.5 Z"/></g>
<g><path style="opacity:1" fill="#fbd152" d="M 749.5,359.5 C 779.5,359.5 809.5,359.5 839.5,359.5C 839.5,369.5 839.5,379.5 839.5,389.5C 859.5,389.5 879.5,389.5 899.5,389.5C 899.5,399.5 899.5,409.5 899.5,419.5C 909.5,419.5 919.5,419.5 929.5,419.5C 929.5,439.5 929.5,459.5 929.5,479.5C 919.5,479.5 909.5,479.5 899.5,479.5C 899.5,469.5 899.5,459.5 899.5,449.5C 889.5,449.5 879.5,449.5 869.5,449.5C 869.5,439.5 869.5,429.5 869.5,419.5C 849.5,419.5 829.5,419.5 809.5,419.5C 809.5,409.5 809.5,399.5 809.5,389.5C 789.5,389.5 769.5,389.5 749.5,389.5C 749.5,379.5 749.5,369.5 749.5,359.5 Z"/></g>
<g><path style="opacity:1" fill="#fe9e1f" d="M 839.5,359.5 C 859.5,359.5 879.5,359.5 899.5,359.5C 899.5,369.5 899.5,379.5 899.5,389.5C 879.5,389.5 859.5,389.5 839.5,389.5C 839.5,379.5 839.5,369.5 839.5,359.5 Z"/></g>
<g><path style="opacity:1" fill="#fe9e1f" d="M 899.5,389.5 C 919.5,389.5 939.5,389.5 959.5,389.5C 959.5,409.5 959.5,429.5 959.5,449.5C 969.5,449.5 979.5,449.5 989.5,449.5C 989.5,469.5 989.5,489.5 989.5,509.5C 999.5,509.5 1009.5,509.5 1019.5,509.5C 1019.5,519.5 1019.5,529.5 1019.5,539.5C 1019.5,559.5 1019.5,579.5 1019.5,599.5C 1029.5,599.5 1039.5,599.5 1049.5,599.5C 1049.5,619.5 1049.5,639.5 1049.5,659.5C 1039.5,659.5 1029.5,659.5 1019.5,659.5C 1019.5,649.5 1019.5,639.5 1019.5,629.5C 1009.5,629.5 999.5,629.5 989.5,629.5C 989.5,599.5 989.5,569.5 989.5,539.5C 979.5,539.5 969.5,539.5 959.5,539.5C 959.5,519.5 959.5,499.5 959.5,479.5C 949.5,479.5 939.5,479.5 929.5,479.5C 929.5,459.5 929.5,439.5 929.5,419.5C 919.5,419.5 909.5,419.5 899.5,419.5C 899.5,409.5 899.5,399.5 899.5,389.5 Z"/></g>
<g><path style="opacity:1" fill="#000000" d="M 509.5,479.5 C 519.5,479.5 529.5,479.5 539.5,479.5C 539.5,499.5 539.5,519.5 539.5,539.5C 529.5,539.5 519.5,539.5 509.5,539.5C 509.5,519.5 509.5,499.5 509.5,479.5 Z"/></g>
<g><path style="opacity:1" fill="#000000" d="M 719.5,479.5 C 729.5,479.5 739.5,479.5 749.5,479.5C 749.5,499.5 749.5,519.5 749.5,539.5C 739.5,539.5 729.5,539.5 719.5,539.5C 719.5,519.5 719.5,499.5 719.5,479.5 Z"/></g>
<g><path style="opacity:1" fill="#291f05" d="M 389.5,509.5 C 389.5,519.5 389.5,529.5 389.5,539.5C 369.5,539.5 349.5,539.5 329.5,539.5C 319.5,539.5 309.5,539.5 299.5,539.5C 299.5,529.5 299.5,519.5 299.5,509.5C 329.5,509.5 359.5,509.5 389.5,509.5 Z"/></g>
<g><path style="opacity:1" fill="#3e2d09" d="M 1019.5,509.5 C 1089.5,509.5 1159.5,509.5 1229.5,509.5C 1229.5,519.5 1229.5,529.5 1229.5,539.5C 1209.5,539.5 1189.5,539.5 1169.5,539.5C 1119.5,539.5 1069.5,539.5 1019.5,539.5C 1019.5,529.5 1019.5,519.5 1019.5,509.5 Z"/></g>
<g><path style="opacity:1" fill="#291f05" d="M 1229.5,509.5 C 1269.5,509.5 1309.5,509.5 1349.5,509.5C 1349.5,519.5 1349.5,529.5 1349.5,539.5C 1339.5,539.5 1329.5,539.5 1319.5,539.5C 1319.5,549.5 1319.5,559.5 1319.5,569.5C 1309.5,569.5 1299.5,569.5 1289.5,569.5C 1289.5,559.5 1289.5,549.5 1289.5,539.5C 1269.5,539.5 1249.5,539.5 1229.5,539.5C 1229.5,529.5 1229.5,519.5 1229.5,509.5 Z"/></g>
<g><path style="opacity:1" fill="#291f05" d="M 299.5,539.5 C 299.5,549.5 299.5,559.5 299.5,569.5C 289.5,569.5 279.5,569.5 269.5,569.5C 269.5,559.5 269.5,549.5 269.5,539.5C 279.5,539.5 289.5,539.5 299.5,539.5 Z"/></g>
<g><path style="opacity:1" fill="#3e2d09" d="M 299.5,539.5 C 309.5,539.5 319.5,539.5 329.5,539.5C 329.5,589.5 329.5,639.5 329.5,689.5C 319.5,689.5 309.5,689.5 299.5,689.5C 299.5,649.5 299.5,609.5 299.5,569.5C 299.5,559.5 299.5,549.5 299.5,539.5 Z"/></g>
<g><path style="opacity:1" fill="#45320a" d="M 329.5,539.5 C 349.5,539.5 369.5,539.5 389.5,539.5C 389.5,599.5 389.5,659.5 389.5,719.5C 389.5,729.5 389.5,739.5 389.5,749.5C 379.5,749.5 369.5,749.5 359.5,749.5C 349.5,749.5 339.5,749.5 329.5,749.5C 329.5,729.5 329.5,709.5 329.5,689.5C 329.5,639.5 329.5,589.5 329.5,539.5 Z"/></g>
<g><path style="opacity:1" fill="#f09c2f" d="M 959.5,539.5 C 969.5,539.5 979.5,539.5 989.5,539.5C 989.5,569.5 989.5,599.5 989.5,629.5C 979.5,629.5 969.5,629.5 959.5,629.5C 959.5,599.5 959.5,569.5 959.5,539.5 Z"/></g>
<g><path style="opacity:1" fill="#45320a" d="M 1019.5,539.5 C 1069.5,539.5 1119.5,539.5 1169.5,539.5C 1169.5,549.5 1169.5,559.5 1169.5,569.5C 1199.5,569.5 1229.5,569.5 1259.5,569.5C 1259.5,589.5 1259.5,609.5 1259.5,629.5C 1249.5,629.5 1239.5,629.5 1229.5,629.5C 1229.5,639.5 1229.5,649.5 1229.5,659.5C 1219.5,659.5 1209.5,659.5 1199.5,659.5C 1199.5,669.5 1199.5,679.5 1199.5,689.5C 1189.5,689.5 1179.5,689.5 1169.5,689.5C 1169.5,699.5 1169.5,709.5 1169.5,719.5C 1159.5,719.5 1149.5,719.5 1139.5,719.5C 1139.5,729.5 1139.5,739.5 1139.5,749.5C 1119.5,749.5 1099.5,749.5 1079.5,749.5C 1069.5,749.5 1059.5,749.5 1049.5,749.5C 1049.5,719.5 1049.5,689.5 1049.5,659.5C 1049.5,639.5 1049.5,619.5 1049.5,599.5C 1039.5,599.5 1029.5,599.5 1019.5,599.5C 1019.5,579.5 1019.5,559.5 1019.5,539.5 Z"/></g>
<g><path style="opacity:1" fill="#342c17" d="M 1169.5,539.5 C 1189.5,539.5 1209.5,539.5 1229.5,539.5C 1249.5,539.5 1269.5,539.5 1289.5,539.5C 1289.5,549.5 1289.5,559.5 1289.5,569.5C 1279.5,569.5 1269.5,569.5 1259.5,569.5C 1229.5,569.5 1199.5,569.5 1169.5,569.5C 1169.5,559.5 1169.5,549.5 1169.5,539.5 Z"/></g>
<g><path style="opacity:1" fill="#3e2d09" d="M 1349.5,539.5 C 1349.5,619.5 1349.5,699.5 1349.5,779.5C 1339.5,779.5 1329.5,779.5 1319.5,779.5C 1319.5,749.5 1319.5,719.5 1319.5,689.5C 1319.5,659.5 1319.5,629.5 1319.5,599.5C 1319.5,589.5 1319.5,579.5 1319.5,569.5C 1319.5,559.5 1319.5,549.5 1319.5,539.5C 1329.5,539.5 1339.5,539.5 1349.5,539.5 Z"/></g>
<g><path style="opacity:1" fill="#3e2d09" d="M 269.5,569.5 C 269.5,589.5 269.5,609.5 269.5,629.5C 259.5,629.5 249.5,629.5 239.5,629.5C 239.5,609.5 239.5,589.5 239.5,569.5C 249.5,569.5 259.5,569.5 269.5,569.5 Z"/></g>
<g><path style="opacity:1" fill="#342c17" d="M 269.5,569.5 C 279.5,569.5 289.5,569.5 299.5,569.5C 299.5,609.5 299.5,649.5 299.5,689.5C 289.5,689.5 279.5,689.5 269.5,689.5C 269.5,669.5 269.5,649.5 269.5,629.5C 269.5,609.5 269.5,589.5 269.5,569.5 Z"/></g>
<g><path style="opacity:1" fill="#ee692e" d="M 689.5,599.5 C 679.5,599.5 669.5,599.5 659.5,599.5C 619.5,599.5 579.5,599.5 539.5,599.5C 539.5,589.5 539.5,579.5 539.5,569.5C 589.5,569.5 639.5,569.5 689.5,569.5C 689.5,579.5 689.5,589.5 689.5,599.5 Z"/></g>
<g><path style="opacity:1" fill="#3e2d09" d="M 1259.5,569.5 C 1269.5,569.5 1279.5,569.5 1289.5,569.5C 1289.5,579.5 1289.5,589.5 1289.5,599.5C 1289.5,609.5 1289.5,619.5 1289.5,629.5C 1279.5,629.5 1269.5,629.5 1259.5,629.5C 1259.5,609.5 1259.5,589.5 1259.5,569.5 Z"/></g>
<g><path style="opacity:1" fill="#45320a" d="M 1289.5,569.5 C 1299.5,569.5 1309.5,569.5 1319.5,569.5C 1319.5,579.5 1319.5,589.5 1319.5,599.5C 1309.5,599.5 1299.5,599.5 1289.5,599.5C 1289.5,589.5 1289.5,579.5 1289.5,569.5 Z"/></g>
<g><path style="opacity:1" fill="#ee692e" d="M 539.5,599.5 C 539.5,609.5 539.5,619.5 539.5,629.5C 529.5,629.5 519.5,629.5 509.5,629.5C 509.5,619.5 509.5,609.5 509.5,599.5C 519.5,599.5 529.5,599.5 539.5,599.5 Z"/></g>
<g><path style="opacity:1" fill="#e58e21" d="M 539.5,599.5 C 579.5,599.5 619.5,599.5 659.5,599.5C 659.5,609.5 659.5,619.5 659.5,629.5C 619.5,629.5 579.5,629.5 539.5,629.5C 539.5,619.5 539.5,609.5 539.5,599.5 Z"/></g>
<g><path style="opacity:1" fill="#c84015" d="M 659.5,599.5 C 669.5,599.5 679.5,599.5 689.5,599.5C 699.5,599.5 709.5,599.5 719.5,599.5C 719.5,619.5 719.5,639.5 719.5,659.5C 649.5,659.5 579.5,659.5 509.5,659.5C 509.5,649.5 509.5,639.5 509.5,629.5C 519.5,629.5 529.5,629.5 539.5,629.5C 579.5,629.5 619.5,629.5 659.5,629.5C 659.5,619.5 659.5,609.5 659.5,599.5 Z"/></g>
<g><path style="opacity:1" fill="#342c17" d="M 1289.5,599.5 C 1299.5,599.5 1309.5,599.5 1319.5,599.5C 1319.5,629.5 1319.5,659.5 1319.5,689.5C 1309.5,689.5 1299.5,689.5 1289.5,689.5C 1289.5,679.5 1289.5,669.5 1289.5,659.5C 1279.5,659.5 1269.5,659.5 1259.5,659.5C 1259.5,649.5 1259.5,639.5 1259.5,629.5C 1269.5,629.5 1279.5,629.5 1289.5,629.5C 1289.5,619.5 1289.5,609.5 1289.5,599.5 Z"/></g>
<g><path style="opacity:1" fill="#3e2d09" d="M 239.5,629.5 C 239.5,639.5 239.5,649.5 239.5,659.5C 229.5,659.5 219.5,659.5 209.5,659.5C 209.5,649.5 209.5,639.5 209.5,629.5C 219.5,629.5 229.5,629.5 239.5,629.5 Z"/></g>
<g><path style="opacity:1" fill="#45320a" d="M 239.5,629.5 C 249.5,629.5 259.5,629.5 269.5,629.5C 269.5,649.5 269.5,669.5 269.5,689.5C 279.5,689.5 289.5,689.5 299.5,689.5C 299.5,719.5 299.5,749.5 299.5,779.5C 289.5,779.5 279.5,779.5 269.5,779.5C 269.5,789.5 269.5,799.5 269.5,809.5C 249.5,809.5 229.5,809.5 209.5,809.5C 199.5,809.5 189.5,809.5 179.5,809.5C 169.5,809.5 159.5,809.5 149.5,809.5C 139.5,809.5 129.5,809.5 119.5,809.5C 119.5,799.5 119.5,789.5 119.5,779.5C 129.5,779.5 139.5,779.5 149.5,779.5C 149.5,769.5 149.5,759.5 149.5,749.5C 149.5,739.5 149.5,729.5 149.5,719.5C 159.5,719.5 169.5,719.5 179.5,719.5C 179.5,709.5 179.5,699.5 179.5,689.5C 189.5,689.5 199.5,689.5 209.5,689.5C 209.5,679.5 209.5,669.5 209.5,659.5C 219.5,659.5 229.5,659.5 239.5,659.5C 239.5,649.5 239.5,639.5 239.5,629.5 Z"/></g>
<g><path style="opacity:1" fill="#f09c2f" d="M 989.5,629.5 C 999.5,629.5 1009.5,629.5 1019.5,629.5C 1019.5,639.5 1019.5,649.5 1019.5,659.5C 1019.5,689.5 1019.5,719.5 1019.5,749.5C 1009.5,749.5 999.5,749.5 989.5,749.5C 989.5,769.5 989.5,789.5 989.5,809.5C 969.5,809.5 949.5,809.5 929.5,809.5C 929.5,799.5 929.5,789.5 929.5,779.5C 939.5,779.5 949.5,779.5 959.5,779.5C 959.5,759.5 959.5,739.5 959.5,719.5C 969.5,719.5 979.5,719.5 989.5,719.5C 989.5,689.5 989.5,659.5 989.5,629.5 Z"/></g>
<g><path style="opacity:1" fill="#3e2d09" d="M 1259.5,629.5 C 1259.5,639.5 1259.5,649.5 1259.5,659.5C 1249.5,659.5 1239.5,659.5 1229.5,659.5C 1229.5,649.5 1229.5,639.5 1229.5,629.5C 1239.5,629.5 1249.5,629.5 1259.5,629.5 Z"/></g>
<g><path style="opacity:1" fill="#3e2d09" d="M 209.5,659.5 C 209.5,669.5 209.5,679.5 209.5,689.5C 199.5,689.5 189.5,689.5 179.5,689.5C 179.5,679.5 179.5,669.5 179.5,659.5C 189.5,659.5 199.5,659.5 209.5,659.5 Z"/></g>
<g><path style="opacity:1" fill="#db7524" d="M 1019.5,659.5 C 1029.5,659.5 1039.5,659.5 1049.5,659.5C 1049.5,689.5 1049.5,719.5 1049.5,749.5C 1039.5,749.5 1029.5,749.5 1019.5,749.5C 1019.5,719.5 1019.5,689.5 1019.5,659.5 Z"/></g>
<g><path style="opacity:1" fill="#3e2d09" d="M 1229.5,659.5 C 1229.5,669.5 1229.5,679.5 1229.5,689.5C 1219.5,689.5 1209.5,689.5 1199.5,689.5C 1199.5,679.5 1199.5,669.5 1199.5,659.5C 1209.5,659.5 1219.5,659.5 1229.5,659.5 Z"/></g>
<g><path style="opacity:1" fill="#342c17" d="M 1229.5,659.5 C 1239.5,659.5 1249.5,659.5 1259.5,659.5C 1259.5,669.5 1259.5,679.5 1259.5,689.5C 1249.5,689.5 1239.5,689.5 1229.5,689.5C 1229.5,679.5 1229.5,669.5 1229.5,659.5 Z"/></g>
<g><path style="opacity:1" fill="#45320a" d="M 1259.5,659.5 C 1269.5,659.5 1279.5,659.5 1289.5,659.5C 1289.5,669.5 1289.5,679.5 1289.5,689.5C 1299.5,689.5 1309.5,689.5 1319.5,689.5C 1319.5,719.5 1319.5,749.5 1319.5,779.5C 1319.5,789.5 1319.5,799.5 1319.5,809.5C 1309.5,809.5 1299.5,809.5 1289.5,809.5C 1289.5,829.5 1289.5,849.5 1289.5,869.5C 1279.5,869.5 1269.5,869.5 1259.5,869.5C 1259.5,889.5 1259.5,909.5 1259.5,929.5C 1249.5,929.5 1239.5,929.5 1229.5,929.5C 1229.5,939.5 1229.5,949.5 1229.5,959.5C 1219.5,959.5 1209.5,959.5 1199.5,959.5C 1199.5,979.5 1199.5,999.5 1199.5,1019.5C 1189.5,1019.5 1179.5,1019.5 1169.5,1019.5C 1159.5,1019.5 1149.5,1019.5 1139.5,1019.5C 1139.5,1009.5 1139.5,999.5 1139.5,989.5C 1129.5,989.5 1119.5,989.5 1109.5,989.5C 1109.5,939.5 1109.5,889.5 1109.5,839.5C 1109.5,829.5 1109.5,819.5 1109.5,809.5C 1119.5,809.5 1129.5,809.5 1139.5,809.5C 1139.5,799.5 1139.5,789.5 1139.5,779.5C 1149.5,779.5 1159.5,779.5 1169.5,779.5C 1169.5,759.5 1169.5,739.5 1169.5,719.5C 1179.5,719.5 1189.5,719.5 1199.5,719.5C 1199.5,709.5 1199.5,699.5 1199.5,689.5C 1209.5,689.5 1219.5,689.5 1229.5,689.5C 1239.5,689.5 1249.5,689.5 1259.5,689.5C 1259.5,679.5 1259.5,669.5 1259.5,659.5 Z"/></g>
<g><path style="opacity:1" fill="#3e2d09" d="M 179.5,689.5 C 179.5,699.5 179.5,709.5 179.5,719.5C 169.5,719.5 159.5,719.5 149.5,719.5C 149.5,709.5 149.5,699.5 149.5,689.5C 159.5,689.5 169.5,689.5 179.5,689.5 Z"/></g>
<g><path style="opacity:1" fill="#291f05" d="M 299.5,689.5 C 309.5,689.5 319.5,689.5 329.5,689.5C 329.5,709.5 329.5,729.5 329.5,749.5C 339.5,749.5 349.5,749.5 359.5,749.5C 359.5,759.5 359.5,769.5 359.5,779.5C 349.5,779.5 339.5,779.5 329.5,779.5C 329.5,789.5 329.5,799.5 329.5,809.5C 309.5,809.5 289.5,809.5 269.5,809.5C 269.5,799.5 269.5,789.5 269.5,779.5C 279.5,779.5 289.5,779.5 299.5,779.5C 299.5,749.5 299.5,719.5 299.5,689.5 Z"/></g>
<g><path style="opacity:1" fill="#db7524" d="M 869.5,809.5 C 859.5,809.5 849.5,809.5 839.5,809.5C 839.5,799.5 839.5,789.5 839.5,779.5C 829.5,779.5 819.5,779.5 809.5,779.5C 809.5,769.5 809.5,759.5 809.5,749.5C 809.5,729.5 809.5,709.5 809.5,689.5C 819.5,689.5 829.5,689.5 839.5,689.5C 839.5,709.5 839.5,729.5 839.5,749.5C 849.5,749.5 859.5,749.5 869.5,749.5C 869.5,769.5 869.5,789.5 869.5,809.5 Z"/></g>
<g><path style="opacity:1" fill="#291f05" d="M 1199.5,689.5 C 1199.5,699.5 1199.5,709.5 1199.5,719.5C 1189.5,719.5 1179.5,719.5 1169.5,719.5C 1169.5,709.5 1169.5,699.5 1169.5,689.5C 1179.5,689.5 1189.5,689.5 1199.5,689.5 Z"/></g>
<g><path style="opacity:1" fill="#3e2d09" d="M 149.5,719.5 C 149.5,729.5 149.5,739.5 149.5,749.5C 139.5,749.5 129.5,749.5 119.5,749.5C 119.5,739.5 119.5,729.5 119.5,719.5C 129.5,719.5 139.5,719.5 149.5,719.5 Z"/></g>
<g><path style="opacity:1" fill="#db7524" d="M 389.5,719.5 C 399.5,719.5 409.5,719.5 419.5,719.5C 419.5,739.5 419.5,759.5 419.5,779.5C 409.5,779.5 399.5,779.5 389.5,779.5C 389.5,769.5 389.5,759.5 389.5,749.5C 389.5,739.5 389.5,729.5 389.5,719.5 Z"/></g>
<g><path style="opacity:1" fill="#291f05" d="M 1169.5,719.5 C 1169.5,739.5 1169.5,759.5 1169.5,779.5C 1159.5,779.5 1149.5,779.5 1139.5,779.5C 1139.5,769.5 1139.5,759.5 1139.5,749.5C 1139.5,739.5 1139.5,729.5 1139.5,719.5C 1149.5,719.5 1159.5,719.5 1169.5,719.5 Z"/></g>
<g><path style="opacity:1" fill="#291f05" d="M 119.5,749.5 C 129.5,749.5 139.5,749.5 149.5,749.5C 149.5,759.5 149.5,769.5 149.5,779.5C 139.5,779.5 129.5,779.5 119.5,779.5C 119.5,769.5 119.5,759.5 119.5,749.5 Z"/></g>
<g><path style="opacity:1" fill="#3e2d09" d="M 359.5,749.5 C 369.5,749.5 379.5,749.5 389.5,749.5C 389.5,759.5 389.5,769.5 389.5,779.5C 379.5,779.5 369.5,779.5 359.5,779.5C 359.5,769.5 359.5,759.5 359.5,749.5 Z"/></g>
<g><path style="opacity:1" fill="#f09c2f" d="M 809.5,749.5 C 809.5,759.5 809.5,769.5 809.5,779.5C 819.5,779.5 829.5,779.5 839.5,779.5C 839.5,789.5 839.5,799.5 839.5,809.5C 819.5,809.5 799.5,809.5 779.5,809.5C 779.5,789.5 779.5,769.5 779.5,749.5C 789.5,749.5 799.5,749.5 809.5,749.5 Z"/></g>
<g><path style="opacity:1" fill="#db7524" d="M 1019.5,749.5 C 1019.5,759.5 1019.5,769.5 1019.5,779.5C 1019.5,789.5 1019.5,799.5 1019.5,809.5C 1009.5,809.5 999.5,809.5 989.5,809.5C 989.5,789.5 989.5,769.5 989.5,749.5C 999.5,749.5 1009.5,749.5 1019.5,749.5 Z"/></g>
<g><path style="opacity:1" fill="#291f05" d="M 1019.5,749.5 C 1029.5,749.5 1039.5,749.5 1049.5,749.5C 1059.5,749.5 1069.5,749.5 1079.5,749.5C 1079.5,759.5 1079.5,769.5 1079.5,779.5C 1059.5,779.5 1039.5,779.5 1019.5,779.5C 1019.5,769.5 1019.5,759.5 1019.5,749.5 Z"/></g>
<g><path style="opacity:1" fill="#3e2d09" d="M 1079.5,749.5 C 1099.5,749.5 1119.5,749.5 1139.5,749.5C 1139.5,759.5 1139.5,769.5 1139.5,779.5C 1129.5,779.5 1119.5,779.5 1109.5,779.5C 1099.5,779.5 1089.5,779.5 1079.5,779.5C 1079.5,769.5 1079.5,759.5 1079.5,749.5 Z"/></g>
<g><path style="opacity:1" fill="#291f05" d="M 119.5,779.5 C 119.5,789.5 119.5,799.5 119.5,809.5C 129.5,809.5 139.5,809.5 149.5,809.5C 149.5,819.5 149.5,829.5 149.5,839.5C 139.5,839.5 129.5,839.5 119.5,839.5C 109.5,839.5 99.5,839.5 89.5,839.5C 89.5,819.5 89.5,799.5 89.5,779.5C 99.5,779.5 109.5,779.5 119.5,779.5 Z"/></g>
<g><path style="opacity:1" fill="#45320a" d="M 359.5,779.5 C 369.5,779.5 379.5,779.5 389.5,779.5C 399.5,779.5 409.5,779.5 419.5,779.5C 419.5,789.5 419.5,799.5 419.5,809.5C 389.5,809.5 359.5,809.5 329.5,809.5C 329.5,799.5 329.5,789.5 329.5,779.5C 339.5,779.5 349.5,779.5 359.5,779.5 Z"/></g>
<g><path style="opacity:1" fill="#db7524" d="M 419.5,779.5 C 429.5,779.5 439.5,779.5 449.5,779.5C 449.5,789.5 449.5,799.5 449.5,809.5C 439.5,809.5 429.5,809.5 419.5,809.5C 419.5,799.5 419.5,789.5 419.5,779.5 Z"/></g>
<g><path style="opacity:1" fill="#45320a" d="M 1019.5,779.5 C 1039.5,779.5 1059.5,779.5 1079.5,779.5C 1089.5,779.5 1099.5,779.5 1109.5,779.5C 1109.5,789.5 1109.5,799.5 1109.5,809.5C 1089.5,809.5 1069.5,809.5 1049.5,809.5C 1039.5,809.5 1029.5,809.5 1019.5,809.5C 1019.5,799.5 1019.5,789.5 1019.5,779.5 Z"/></g>
<g><path style="opacity:1" fill="#291f05" d="M 1109.5,779.5 C 1119.5,779.5 1129.5,779.5 1139.5,779.5C 1139.5,789.5 1139.5,799.5 1139.5,809.5C 1129.5,809.5 1119.5,809.5 1109.5,809.5C 1109.5,799.5 1109.5,789.5 1109.5,779.5 Z"/></g>
<g><path style="opacity:1" fill="#291f05" d="M 1319.5,779.5 C 1329.5,779.5 1339.5,779.5 1349.5,779.5C 1349.5,799.5 1349.5,819.5 1349.5,839.5C 1339.5,839.5 1329.5,839.5 1319.5,839.5C 1319.5,849.5 1319.5,859.5 1319.5,869.5C 1309.5,869.5 1299.5,869.5 1289.5,869.5C 1289.5,849.5 1289.5,829.5 1289.5,809.5C 1299.5,809.5 1309.5,809.5 1319.5,809.5C 1319.5,799.5 1319.5,789.5 1319.5,779.5 Z"/></g>
<g><path style="opacity:1" fill="#3e2d09" d="M 149.5,809.5 C 159.5,809.5 169.5,809.5 179.5,809.5C 179.5,819.5 179.5,829.5 179.5,839.5C 169.5,839.5 159.5,839.5 149.5,839.5C 149.5,829.5 149.5,819.5 149.5,809.5 Z"/></g>
<g><path style="opacity:1" fill="#291f05" d="M 179.5,809.5 C 189.5,809.5 199.5,809.5 209.5,809.5C 209.5,819.5 209.5,829.5 209.5,839.5C 199.5,839.5 189.5,839.5 179.5,839.5C 179.5,829.5 179.5,819.5 179.5,809.5 Z"/></g>
<g><path style="opacity:1" fill="#3e2d09" d="M 209.5,809.5 C 229.5,809.5 249.5,809.5 269.5,809.5C 289.5,809.5 309.5,809.5 329.5,809.5C 359.5,809.5 389.5,809.5 419.5,809.5C 429.5,809.5 439.5,809.5 449.5,809.5C 559.5,809.5 669.5,809.5 779.5,809.5C 799.5,809.5 819.5,809.5 839.5,809.5C 849.5,809.5 859.5,809.5 869.5,809.5C 889.5,809.5 909.5,809.5 929.5,809.5C 949.5,809.5 969.5,809.5 989.5,809.5C 989.5,819.5 989.5,829.5 989.5,839.5C 979.5,839.5 969.5,839.5 959.5,839.5C 709.5,839.5 459.5,839.5 209.5,839.5C 209.5,829.5 209.5,819.5 209.5,809.5 Z"/></g>
<g><path style="opacity:1" fill="#291f05" d="M 989.5,809.5 C 999.5,809.5 1009.5,809.5 1019.5,809.5C 1019.5,819.5 1019.5,829.5 1019.5,839.5C 1009.5,839.5 999.5,839.5 989.5,839.5C 989.5,829.5 989.5,819.5 989.5,809.5 Z"/></g>
<g><path style="opacity:1" fill="#3e2d09" d="M 1019.5,809.5 C 1029.5,809.5 1039.5,809.5 1049.5,809.5C 1049.5,819.5 1049.5,829.5 1049.5,839.5C 1039.5,839.5 1029.5,839.5 1019.5,839.5C 1019.5,829.5 1019.5,819.5 1019.5,809.5 Z"/></g>
<g><path style="opacity:1" fill="#291f05" d="M 1049.5,809.5 C 1069.5,809.5 1089.5,809.5 1109.5,809.5C 1109.5,819.5 1109.5,829.5 1109.5,839.5C 1099.5,839.5 1089.5,839.5 1079.5,839.5C 1069.5,839.5 1059.5,839.5 1049.5,839.5C 1049.5,829.5 1049.5,819.5 1049.5,809.5 Z"/></g>
<g><path style="opacity:1" fill="#3e2d09" d="M 89.5,839.5 C 99.5,839.5 109.5,839.5 119.5,839.5C 119.5,859.5 119.5,879.5 119.5,899.5C 119.5,929.5 119.5,959.5 119.5,989.5C 119.5,999.5 119.5,1009.5 119.5,1019.5C 119.5,1039.5 119.5,1059.5 119.5,1079.5C 109.5,1079.5 99.5,1079.5 89.5,1079.5C 89.5,999.5 89.5,919.5 89.5,839.5 Z"/></g>
<g><path style="opacity:1" fill="#4d4124" d="M 119.5,839.5 C 129.5,839.5 139.5,839.5 149.5,839.5C 149.5,849.5 149.5,859.5 149.5,869.5C 149.5,879.5 149.5,889.5 149.5,899.5C 139.5,899.5 129.5,899.5 119.5,899.5C 119.5,879.5 119.5,859.5 119.5,839.5 Z"/></g>
<g><path style="opacity:1" fill="#564417" d="M 149.5,839.5 C 159.5,839.5 169.5,839.5 179.5,839.5C 189.5,839.5 199.5,839.5 209.5,839.5C 209.5,849.5 209.5,859.5 209.5,869.5C 189.5,869.5 169.5,869.5 149.5,869.5C 149.5,859.5 149.5,849.5 149.5,839.5 Z"/></g>
<g><path style="opacity:1" fill="#5e460c" d="M 209.5,839.5 C 459.5,839.5 709.5,839.5 959.5,839.5C 959.5,849.5 959.5,859.5 959.5,869.5C 979.5,869.5 999.5,869.5 1019.5,869.5C 1019.5,879.5 1019.5,889.5 1019.5,899.5C 1029.5,899.5 1039.5,899.5 1049.5,899.5C 1049.5,909.5 1049.5,919.5 1049.5,929.5C 1049.5,949.5 1049.5,969.5 1049.5,989.5C 1039.5,989.5 1029.5,989.5 1019.5,989.5C 1019.5,1019.5 1019.5,1049.5 1019.5,1079.5C 1009.5,1079.5 999.5,1079.5 989.5,1079.5C 989.5,1089.5 989.5,1099.5 989.5,1109.5C 749.5,1109.5 509.5,1109.5 269.5,1109.5C 269.5,1099.5 269.5,1089.5 269.5,1079.5C 259.5,1079.5 249.5,1079.5 239.5,1079.5C 239.5,1069.5 239.5,1059.5 239.5,1049.5C 259.5,1049.5 279.5,1049.5 299.5,1049.5C 299.5,1059.5 299.5,1069.5 299.5,1079.5C 319.5,1079.5 339.5,1079.5 359.5,1079.5C 359.5,1069.5 359.5,1059.5 359.5,1049.5C 369.5,1049.5 379.5,1049.5 389.5,1049.5C 389.5,1039.5 389.5,1029.5 389.5,1019.5C 389.5,989.5 389.5,959.5 389.5,929.5C 379.5,929.5 369.5,929.5 359.5,929.5C 359.5,919.5 359.5,909.5 359.5,899.5C 349.5,899.5 339.5,899.5 329.5,899.5C 299.5,899.5 269.5,899.5 239.5,899.5C 229.5,899.5 219.5,899.5 209.5,899.5C 209.5,909.5 209.5,919.5 209.5,929.5C 199.5,929.5 189.5,929.5 179.5,929.5C 179.5,959.5 179.5,989.5 179.5,1019.5C 179.5,1029.5 179.5,1039.5 179.5,1049.5C 169.5,1049.5 159.5,1049.5 149.5,1049.5C 149.5,1039.5 149.5,1029.5 149.5,1019.5C 149.5,1009.5 149.5,999.5 149.5,989.5C 139.5,989.5 129.5,989.5 119.5,989.5C 119.5,959.5 119.5,929.5 119.5,899.5C 129.5,899.5 139.5,899.5 149.5,899.5C 149.5,889.5 149.5,879.5 149.5,869.5C 169.5,869.5 189.5,869.5 209.5,869.5C 209.5,859.5 209.5,849.5 209.5,839.5 Z"/></g>
<g><path style="opacity:1" fill="#4d4124" d="M 959.5,839.5 C 969.5,839.5 979.5,839.5 989.5,839.5C 999.5,839.5 1009.5,839.5 1019.5,839.5C 1029.5,839.5 1039.5,839.5 1049.5,839.5C 1059.5,839.5 1069.5,839.5 1079.5,839.5C 1079.5,869.5 1079.5,899.5 1079.5,929.5C 1069.5,929.5 1059.5,929.5 1049.5,929.5C 1049.5,919.5 1049.5,909.5 1049.5,899.5C 1039.5,899.5 1029.5,899.5 1019.5,899.5C 1019.5,889.5 1019.5,879.5 1019.5,869.5C 999.5,869.5 979.5,869.5 959.5,869.5C 959.5,859.5 959.5,849.5 959.5,839.5 Z"/></g>
<g><path style="opacity:1" fill="#3e2d09" d="M 1079.5,839.5 C 1089.5,839.5 1099.5,839.5 1109.5,839.5C 1109.5,889.5 1109.5,939.5 1109.5,989.5C 1109.5,1009.5 1109.5,1029.5 1109.5,1049.5C 1099.5,1049.5 1089.5,1049.5 1079.5,1049.5C 1079.5,1009.5 1079.5,969.5 1079.5,929.5C 1079.5,899.5 1079.5,869.5 1079.5,839.5 Z"/></g>
<g><path style="opacity:1" fill="#3e2d09" d="M 1289.5,869.5 C 1289.5,889.5 1289.5,909.5 1289.5,929.5C 1279.5,929.5 1269.5,929.5 1259.5,929.5C 1259.5,909.5 1259.5,889.5 1259.5,869.5C 1269.5,869.5 1279.5,869.5 1289.5,869.5 Z"/></g>
<g><path style="opacity:1" fill="#564417" d="M 239.5,899.5 C 239.5,909.5 239.5,919.5 239.5,929.5C 229.5,929.5 219.5,929.5 209.5,929.5C 209.5,919.5 209.5,909.5 209.5,899.5C 219.5,899.5 229.5,899.5 239.5,899.5 Z"/></g>
<g><path style="opacity:1" fill="#3e2d09" d="M 239.5,899.5 C 269.5,899.5 299.5,899.5 329.5,899.5C 329.5,909.5 329.5,919.5 329.5,929.5C 319.5,929.5 309.5,929.5 299.5,929.5C 299.5,939.5 299.5,949.5 299.5,959.5C 289.5,959.5 279.5,959.5 269.5,959.5C 269.5,949.5 269.5,939.5 269.5,929.5C 259.5,929.5 249.5,929.5 239.5,929.5C 239.5,919.5 239.5,909.5 239.5,899.5 Z"/></g>
<g><path style="opacity:1" fill="#564417" d="M 329.5,899.5 C 339.5,899.5 349.5,899.5 359.5,899.5C 359.5,909.5 359.5,919.5 359.5,929.5C 349.5,929.5 339.5,929.5 329.5,929.5C 329.5,919.5 329.5,909.5 329.5,899.5 Z"/></g>
<g><path style="opacity:1" fill="#564417" d="M 539.5,899.5 C 539.5,909.5 539.5,919.5 539.5,929.5C 529.5,929.5 519.5,929.5 509.5,929.5C 509.5,919.5 509.5,909.5 509.5,899.5C 519.5,899.5 529.5,899.5 539.5,899.5 Z"/></g>
<g><path style="opacity:1" fill="#3e2d09" d="M 539.5,899.5 C 569.5,899.5 599.5,899.5 629.5,899.5C 629.5,909.5 629.5,919.5 629.5,929.5C 609.5,929.5 589.5,929.5 569.5,929.5C 559.5,929.5 549.5,929.5 539.5,929.5C 539.5,919.5 539.5,909.5 539.5,899.5 Z"/></g>
<g><path style="opacity:1" fill="#564417" d="M 629.5,899.5 C 639.5,899.5 649.5,899.5 659.5,899.5C 659.5,909.5 659.5,919.5 659.5,929.5C 649.5,929.5 639.5,929.5 629.5,929.5C 629.5,919.5 629.5,909.5 629.5,899.5 Z"/></g>
<g><path style="opacity:1" fill="#3e2d09" d="M 929.5,899.5 C 929.5,909.5 929.5,919.5 929.5,929.5C 899.5,929.5 869.5,929.5 839.5,929.5C 839.5,919.5 839.5,909.5 839.5,899.5C 869.5,899.5 899.5,899.5 929.5,899.5 Z"/></g>
<g><path style="opacity:1" fill="#564417" d="M 929.5,899.5 C 939.5,899.5 949.5,899.5 959.5,899.5C 959.5,909.5 959.5,919.5 959.5,929.5C 949.5,929.5 939.5,929.5 929.5,929.5C 929.5,919.5 929.5,909.5 929.5,899.5 Z"/></g>
<g><path style="opacity:1" fill="#3e2d09" d="M 209.5,929.5 C 219.5,929.5 229.5,929.5 239.5,929.5C 239.5,939.5 239.5,949.5 239.5,959.5C 249.5,959.5 259.5,959.5 269.5,959.5C 269.5,979.5 269.5,999.5 269.5,1019.5C 289.5,1019.5 309.5,1019.5 329.5,1019.5C 329.5,1029.5 329.5,1039.5 329.5,1049.5C 319.5,1049.5 309.5,1049.5 299.5,1049.5C 279.5,1049.5 259.5,1049.5 239.5,1049.5C 239.5,1039.5 239.5,1029.5 239.5,1019.5C 219.5,1019.5 199.5,1019.5 179.5,1019.5C 179.5,989.5 179.5,959.5 179.5,929.5C 189.5,929.5 199.5,929.5 209.5,929.5 Z"/></g>
<g><path style="opacity:1" fill="#45320a" d="M 239.5,929.5 C 249.5,929.5 259.5,929.5 269.5,929.5C 269.5,939.5 269.5,949.5 269.5,959.5C 259.5,959.5 249.5,959.5 239.5,959.5C 239.5,949.5 239.5,939.5 239.5,929.5 Z"/></g>
<g><path style="opacity:1" fill="#45320a" d="M 329.5,929.5 C 329.5,939.5 329.5,949.5 329.5,959.5C 339.5,959.5 349.5,959.5 359.5,959.5C 359.5,969.5 359.5,979.5 359.5,989.5C 349.5,989.5 339.5,989.5 329.5,989.5C 329.5,999.5 329.5,1009.5 329.5,1019.5C 309.5,1019.5 289.5,1019.5 269.5,1019.5C 269.5,999.5 269.5,979.5 269.5,959.5C 279.5,959.5 289.5,959.5 299.5,959.5C 299.5,949.5 299.5,939.5 299.5,929.5C 309.5,929.5 319.5,929.5 329.5,929.5 Z"/></g>
<g><path style="opacity:1" fill="#3e2d09" d="M 329.5,929.5 C 339.5,929.5 349.5,929.5 359.5,929.5C 369.5,929.5 379.5,929.5 389.5,929.5C 389.5,959.5 389.5,989.5 389.5,1019.5C 369.5,1019.5 349.5,1019.5 329.5,1019.5C 329.5,1009.5 329.5,999.5 329.5,989.5C 339.5,989.5 349.5,989.5 359.5,989.5C 359.5,979.5 359.5,969.5 359.5,959.5C 349.5,959.5 339.5,959.5 329.5,959.5C 329.5,949.5 329.5,939.5 329.5,929.5 Z"/></g>
<g><path style="opacity:1" fill="#3e2d09" d="M 509.5,929.5 C 519.5,929.5 529.5,929.5 539.5,929.5C 539.5,939.5 539.5,949.5 539.5,959.5C 529.5,959.5 519.5,959.5 509.5,959.5C 509.5,969.5 509.5,979.5 509.5,989.5C 519.5,989.5 529.5,989.5 539.5,989.5C 539.5,999.5 539.5,1009.5 539.5,1019.5C 519.5,1019.5 499.5,1019.5 479.5,1019.5C 479.5,989.5 479.5,959.5 479.5,929.5C 489.5,929.5 499.5,929.5 509.5,929.5 Z"/></g>
<g><path style="opacity:1" fill="#45320a" d="M 539.5,929.5 C 549.5,929.5 559.5,929.5 569.5,929.5C 569.5,939.5 569.5,949.5 569.5,959.5C 589.5,959.5 609.5,959.5 629.5,959.5C 629.5,969.5 629.5,979.5 629.5,989.5C 629.5,999.5 629.5,1009.5 629.5,1019.5C 599.5,1019.5 569.5,1019.5 539.5,1019.5C 539.5,1009.5 539.5,999.5 539.5,989.5C 529.5,989.5 519.5,989.5 509.5,989.5C 509.5,979.5 509.5,969.5 509.5,959.5C 519.5,959.5 529.5,959.5 539.5,959.5C 539.5,949.5 539.5,939.5 539.5,929.5 Z"/></g>
<g><path style="opacity:1" fill="#db7524" d="M 569.5,929.5 C 589.5,929.5 609.5,929.5 629.5,929.5C 629.5,939.5 629.5,949.5 629.5,959.5C 609.5,959.5 589.5,959.5 569.5,959.5C 569.5,949.5 569.5,939.5 569.5,929.5 Z"/></g>
<g><path style="opacity:1" fill="#3e2d09" d="M 629.5,929.5 C 639.5,929.5 649.5,929.5 659.5,929.5C 669.5,929.5 679.5,929.5 689.5,929.5C 689.5,959.5 689.5,989.5 689.5,1019.5C 669.5,1019.5 649.5,1019.5 629.5,1019.5C 629.5,1009.5 629.5,999.5 629.5,989.5C 639.5,989.5 649.5,989.5 659.5,989.5C 659.5,979.5 659.5,969.5 659.5,959.5C 649.5,959.5 639.5,959.5 629.5,959.5C 629.5,949.5 629.5,939.5 629.5,929.5 Z"/></g>
<g><path style="opacity:1" fill="#3e2d09" d="M 839.5,929.5 C 839.5,939.5 839.5,949.5 839.5,959.5C 829.5,959.5 819.5,959.5 809.5,959.5C 809.5,969.5 809.5,979.5 809.5,989.5C 819.5,989.5 829.5,989.5 839.5,989.5C 839.5,999.5 839.5,1009.5 839.5,1019.5C 819.5,1019.5 799.5,1019.5 779.5,1019.5C 779.5,989.5 779.5,959.5 779.5,929.5C 799.5,929.5 819.5,929.5 839.5,929.5 Z"/></g>
<g><path style="opacity:1" fill="#45320a" d="M 839.5,929.5 C 869.5,929.5 899.5,929.5 929.5,929.5C 929.5,939.5 929.5,949.5 929.5,959.5C 939.5,959.5 949.5,959.5 959.5,959.5C 959.5,969.5 959.5,979.5 959.5,989.5C 949.5,989.5 939.5,989.5 929.5,989.5C 929.5,999.5 929.5,1009.5 929.5,1019.5C 899.5,1019.5 869.5,1019.5 839.5,1019.5C 839.5,1009.5 839.5,999.5 839.5,989.5C 829.5,989.5 819.5,989.5 809.5,989.5C 809.5,979.5 809.5,969.5 809.5,959.5C 819.5,959.5 829.5,959.5 839.5,959.5C 839.5,949.5 839.5,939.5 839.5,929.5 Z"/></g>
<g><path style="opacity:1" fill="#3e2d09" d="M 929.5,929.5 C 939.5,929.5 949.5,929.5 959.5,929.5C 969.5,929.5 979.5,929.5 989.5,929.5C 989.5,959.5 989.5,989.5 989.5,1019.5C 979.5,1019.5 969.5,1019.5 959.5,1019.5C 949.5,1019.5 939.5,1019.5 929.5,1019.5C 929.5,1009.5 929.5,999.5 929.5,989.5C 939.5,989.5 949.5,989.5 959.5,989.5C 959.5,979.5 959.5,969.5 959.5,959.5C 949.5,959.5 939.5,959.5 929.5,959.5C 929.5,949.5 929.5,939.5 929.5,929.5 Z"/></g>
<g><path style="opacity:1" fill="#564417" d="M 1049.5,929.5 C 1059.5,929.5 1069.5,929.5 1079.5,929.5C 1079.5,969.5 1079.5,1009.5 1079.5,1049.5C 1069.5,1049.5 1059.5,1049.5 1049.5,1049.5C 1049.5,1069.5 1049.5,1089.5 1049.5,1109.5C 1039.5,1109.5 1029.5,1109.5 1019.5,1109.5C 1019.5,1099.5 1019.5,1089.5 1019.5,1079.5C 1019.5,1049.5 1019.5,1019.5 1019.5,989.5C 1029.5,989.5 1039.5,989.5 1049.5,989.5C 1049.5,969.5 1049.5,949.5 1049.5,929.5 Z"/></g>
<g><path style="opacity:1" fill="#3e2d09" d="M 1259.5,929.5 C 1259.5,939.5 1259.5,949.5 1259.5,959.5C 1249.5,959.5 1239.5,959.5 1229.5,959.5C 1229.5,949.5 1229.5,939.5 1229.5,929.5C 1239.5,929.5 1249.5,929.5 1259.5,929.5 Z"/></g>
<g><path style="opacity:1" fill="#45320a" d="M 239.5,959.5 C 239.5,969.5 239.5,979.5 239.5,989.5C 229.5,989.5 219.5,989.5 209.5,989.5C 209.5,979.5 209.5,969.5 209.5,959.5C 219.5,959.5 229.5,959.5 239.5,959.5 Z"/></g>
<g><path style="opacity:1" fill="#c84015" d="M 629.5,959.5 C 639.5,959.5 649.5,959.5 659.5,959.5C 659.5,969.5 659.5,979.5 659.5,989.5C 649.5,989.5 639.5,989.5 629.5,989.5C 629.5,979.5 629.5,969.5 629.5,959.5 Z"/></g>
<g><path style="opacity:1" fill="#3e2d09" d="M 1229.5,959.5 C 1229.5,979.5 1229.5,999.5 1229.5,1019.5C 1219.5,1019.5 1209.5,1019.5 1199.5,1019.5C 1199.5,999.5 1199.5,979.5 1199.5,959.5C 1209.5,959.5 1219.5,959.5 1229.5,959.5 Z"/></g>
<g><path style="opacity:1" fill="#564417" d="M 119.5,989.5 C 129.5,989.5 139.5,989.5 149.5,989.5C 149.5,999.5 149.5,1009.5 149.5,1019.5C 139.5,1019.5 129.5,1019.5 119.5,1019.5C 119.5,1009.5 119.5,999.5 119.5,989.5 Z"/></g>
<g><path style="opacity:1" fill="#342c17" d="M 1109.5,989.5 C 1119.5,989.5 1129.5,989.5 1139.5,989.5C 1139.5,999.5 1139.5,1009.5 1139.5,1019.5C 1149.5,1019.5 1159.5,1019.5 1169.5,1019.5C 1169.5,1029.5 1169.5,1039.5 1169.5,1049.5C 1159.5,1049.5 1149.5,1049.5 1139.5,1049.5C 1139.5,1059.5 1139.5,1069.5 1139.5,1079.5C 1129.5,1079.5 1119.5,1079.5 1109.5,1079.5C 1109.5,1069.5 1109.5,1059.5 1109.5,1049.5C 1109.5,1029.5 1109.5,1009.5 1109.5,989.5 Z"/></g>
<g><path style="opacity:1" fill="#4d4124" d="M 119.5,1019.5 C 129.5,1019.5 139.5,1019.5 149.5,1019.5C 149.5,1029.5 149.5,1039.5 149.5,1049.5C 159.5,1049.5 169.5,1049.5 179.5,1049.5C 179.5,1059.5 179.5,1069.5 179.5,1079.5C 199.5,1079.5 219.5,1079.5 239.5,1079.5C 239.5,1089.5 239.5,1099.5 239.5,1109.5C 209.5,1109.5 179.5,1109.5 149.5,1109.5C 139.5,1109.5 129.5,1109.5 119.5,1109.5C 119.5,1099.5 119.5,1089.5 119.5,1079.5C 119.5,1059.5 119.5,1039.5 119.5,1019.5 Z"/></g>
<g><path style="opacity:1" fill="#4d4124" d="M 179.5,1019.5 C 199.5,1019.5 219.5,1019.5 239.5,1019.5C 239.5,1029.5 239.5,1039.5 239.5,1049.5C 219.5,1049.5 199.5,1049.5 179.5,1049.5C 179.5,1039.5 179.5,1029.5 179.5,1019.5 Z"/></g>
<g><path style="opacity:1" fill="#4d4124" d="M 329.5,1019.5 C 349.5,1019.5 369.5,1019.5 389.5,1019.5C 389.5,1029.5 389.5,1039.5 389.5,1049.5C 379.5,1049.5 369.5,1049.5 359.5,1049.5C 359.5,1059.5 359.5,1069.5 359.5,1079.5C 339.5,1079.5 319.5,1079.5 299.5,1079.5C 299.5,1069.5 299.5,1059.5 299.5,1049.5C 309.5,1049.5 319.5,1049.5 329.5,1049.5C 329.5,1039.5 329.5,1029.5 329.5,1019.5 Z"/></g>
<g><path style="opacity:1" fill="#4d4124" d="M 479.5,1019.5 C 499.5,1019.5 519.5,1019.5 539.5,1019.5C 539.5,1029.5 539.5,1039.5 539.5,1049.5C 529.5,1049.5 519.5,1049.5 509.5,1049.5C 499.5,1049.5 489.5,1049.5 479.5,1049.5C 479.5,1039.5 479.5,1029.5 479.5,1019.5 Z"/></g>
<g><path style="opacity:1" fill="#3e2d09" d="M 539.5,1019.5 C 569.5,1019.5 599.5,1019.5 629.5,1019.5C 629.5,1029.5 629.5,1039.5 629.5,1049.5C 599.5,1049.5 569.5,1049.5 539.5,1049.5C 539.5,1039.5 539.5,1029.5 539.5,1019.5 Z"/></g>
<g><path style="opacity:1" fill="#4d4124" d="M 629.5,1019.5 C 649.5,1019.5 669.5,1019.5 689.5,1019.5C 689.5,1029.5 689.5,1039.5 689.5,1049.5C 679.5,1049.5 669.5,1049.5 659.5,1049.5C 659.5,1059.5 659.5,1069.5 659.5,1079.5C 649.5,1079.5 639.5,1079.5 629.5,1079.5C 629.5,1069.5 629.5,1059.5 629.5,1049.5C 629.5,1039.5 629.5,1029.5 629.5,1019.5 Z"/></g>
<g><path style="opacity:1" fill="#4d4124" d="M 779.5,1019.5 C 799.5,1019.5 819.5,1019.5 839.5,1019.5C 839.5,1029.5 839.5,1039.5 839.5,1049.5C 829.5,1049.5 819.5,1049.5 809.5,1049.5C 799.5,1049.5 789.5,1049.5 779.5,1049.5C 779.5,1039.5 779.5,1029.5 779.5,1019.5 Z"/></g>
<g><path style="opacity:1" fill="#3e2d09" d="M 839.5,1019.5 C 869.5,1019.5 899.5,1019.5 929.5,1019.5C 929.5,1029.5 929.5,1039.5 929.5,1049.5C 909.5,1049.5 889.5,1049.5 869.5,1049.5C 859.5,1049.5 849.5,1049.5 839.5,1049.5C 839.5,1039.5 839.5,1029.5 839.5,1019.5 Z"/></g>
<g><path style="opacity:1" fill="#4d4124" d="M 929.5,1019.5 C 939.5,1019.5 949.5,1019.5 959.5,1019.5C 959.5,1029.5 959.5,1039.5 959.5,1049.5C 949.5,1049.5 939.5,1049.5 929.5,1049.5C 929.5,1039.5 929.5,1029.5 929.5,1019.5 Z"/></g>
<g><path style="opacity:1" fill="#564417" d="M 959.5,1019.5 C 969.5,1019.5 979.5,1019.5 989.5,1019.5C 989.5,1029.5 989.5,1039.5 989.5,1049.5C 979.5,1049.5 969.5,1049.5 959.5,1049.5C 959.5,1039.5 959.5,1029.5 959.5,1019.5 Z"/></g>
<g><path style="opacity:1" fill="#3e2d09" d="M 1169.5,1019.5 C 1179.5,1019.5 1189.5,1019.5 1199.5,1019.5C 1199.5,1029.5 1199.5,1039.5 1199.5,1049.5C 1189.5,1049.5 1179.5,1049.5 1169.5,1049.5C 1169.5,1039.5 1169.5,1029.5 1169.5,1019.5 Z"/></g>
<g><path style="opacity:1" fill="#564417" d="M 179.5,1049.5 C 199.5,1049.5 219.5,1049.5 239.5,1049.5C 239.5,1059.5 239.5,1069.5 239.5,1079.5C 219.5,1079.5 199.5,1079.5 179.5,1079.5C 179.5,1069.5 179.5,1059.5 179.5,1049.5 Z"/></g>
<g><path style="opacity:1" fill="#564417" d="M 509.5,1049.5 C 519.5,1049.5 529.5,1049.5 539.5,1049.5C 539.5,1059.5 539.5,1069.5 539.5,1079.5C 529.5,1079.5 519.5,1079.5 509.5,1079.5C 509.5,1069.5 509.5,1059.5 509.5,1049.5 Z"/></g>
<g><path style="opacity:1" fill="#564417" d="M 809.5,1049.5 C 819.5,1049.5 829.5,1049.5 839.5,1049.5C 839.5,1059.5 839.5,1069.5 839.5,1079.5C 829.5,1079.5 819.5,1079.5 809.5,1079.5C 809.5,1069.5 809.5,1059.5 809.5,1049.5 Z"/></g>
<g><path style="opacity:1" fill="#4d4124" d="M 839.5,1049.5 C 849.5,1049.5 859.5,1049.5 869.5,1049.5C 869.5,1059.5 869.5,1069.5 869.5,1079.5C 859.5,1079.5 849.5,1079.5 839.5,1079.5C 839.5,1069.5 839.5,1059.5 839.5,1049.5 Z"/></g>
<g><path style="opacity:1" fill="#564417" d="M 929.5,1049.5 C 939.5,1049.5 949.5,1049.5 959.5,1049.5C 959.5,1059.5 959.5,1069.5 959.5,1079.5C 949.5,1079.5 939.5,1079.5 929.5,1079.5C 929.5,1069.5 929.5,1059.5 929.5,1049.5 Z"/></g>
<g><path style="opacity:1" fill="#4d4124" d="M 1079.5,1049.5 C 1079.5,1069.5 1079.5,1089.5 1079.5,1109.5C 1069.5,1109.5 1059.5,1109.5 1049.5,1109.5C 1049.5,1089.5 1049.5,1069.5 1049.5,1049.5C 1059.5,1049.5 1069.5,1049.5 1079.5,1049.5 Z"/></g>
<g><path style="opacity:1" fill="#291f05" d="M 1079.5,1049.5 C 1089.5,1049.5 1099.5,1049.5 1109.5,1049.5C 1109.5,1059.5 1109.5,1069.5 1109.5,1079.5C 1119.5,1079.5 1129.5,1079.5 1139.5,1079.5C 1149.5,1079.5 1159.5,1079.5 1169.5,1079.5C 1169.5,1089.5 1169.5,1099.5 1169.5,1109.5C 1159.5,1109.5 1149.5,1109.5 1139.5,1109.5C 1139.5,1119.5 1139.5,1129.5 1139.5,1139.5C 1109.5,1139.5 1079.5,1139.5 1049.5,1139.5C 1049.5,1129.5 1049.5,1119.5 1049.5,1109.5C 1059.5,1109.5 1069.5,1109.5 1079.5,1109.5C 1079.5,1089.5 1079.5,1069.5 1079.5,1049.5 Z"/></g>
<g><path style="opacity:1" fill="#3e2d09" d="M 1169.5,1049.5 C 1169.5,1059.5 1169.5,1069.5 1169.5,1079.5C 1159.5,1079.5 1149.5,1079.5 1139.5,1079.5C 1139.5,1069.5 1139.5,1059.5 1139.5,1049.5C 1149.5,1049.5 1159.5,1049.5 1169.5,1049.5 Z"/></g>
<g><path style="opacity:1" fill="#291f05" d="M 89.5,1079.5 C 99.5,1079.5 109.5,1079.5 119.5,1079.5C 119.5,1089.5 119.5,1099.5 119.5,1109.5C 129.5,1109.5 139.5,1109.5 149.5,1109.5C 149.5,1119.5 149.5,1129.5 149.5,1139.5C 129.5,1139.5 109.5,1139.5 89.5,1139.5C 89.5,1119.5 89.5,1099.5 89.5,1079.5 Z"/></g>
<g><path style="opacity:1" fill="#564417" d="M 239.5,1079.5 C 249.5,1079.5 259.5,1079.5 269.5,1079.5C 269.5,1089.5 269.5,1099.5 269.5,1109.5C 259.5,1109.5 249.5,1109.5 239.5,1109.5C 239.5,1099.5 239.5,1089.5 239.5,1079.5 Z"/></g>
<g><path style="opacity:1" fill="#4d4124" d="M 1019.5,1079.5 C 1019.5,1089.5 1019.5,1099.5 1019.5,1109.5C 1009.5,1109.5 999.5,1109.5 989.5,1109.5C 989.5,1099.5 989.5,1089.5 989.5,1079.5C 999.5,1079.5 1009.5,1079.5 1019.5,1079.5 Z"/></g>
<g><path style="opacity:1" fill="#3e2d09" d="M 149.5,1109.5 C 179.5,1109.5 209.5,1109.5 239.5,1109.5C 249.5,1109.5 259.5,1109.5 269.5,1109.5C 509.5,1109.5 749.5,1109.5 989.5,1109.5C 999.5,1109.5 1009.5,1109.5 1019.5,1109.5C 1029.5,1109.5 1039.5,1109.5 1049.5,1109.5C 1049.5,1119.5 1049.5,1129.5 1049.5,1139.5C 749.5,1139.5 449.5,1139.5 149.5,1139.5C 149.5,1129.5 149.5,1119.5 149.5,1109.5 Z"/></g>
</svg>
